%TF.GenerationSoftware,KiCad,Pcbnew,(6.0.1)*%
%TF.CreationDate,2022-06-04T23:11:39+02:00*%
%TF.ProjectId,esp-lvl,6573702d-6c76-46c2-9e6b-696361645f70,rev?*%
%TF.SameCoordinates,Original*%
%TF.FileFunction,Soldermask,Top*%
%TF.FilePolarity,Negative*%
%FSLAX46Y46*%
G04 Gerber Fmt 4.6, Leading zero omitted, Abs format (unit mm)*
G04 Created by KiCad (PCBNEW (6.0.1)) date 2022-06-04 23:11:39*
%MOMM*%
%LPD*%
G01*
G04 APERTURE LIST*
G04 Aperture macros list*
%AMRoundRect*
0 Rectangle with rounded corners*
0 $1 Rounding radius*
0 $2 $3 $4 $5 $6 $7 $8 $9 X,Y pos of 4 corners*
0 Add a 4 corners polygon primitive as box body*
4,1,4,$2,$3,$4,$5,$6,$7,$8,$9,$2,$3,0*
0 Add four circle primitives for the rounded corners*
1,1,$1+$1,$2,$3*
1,1,$1+$1,$4,$5*
1,1,$1+$1,$6,$7*
1,1,$1+$1,$8,$9*
0 Add four rect primitives between the rounded corners*
20,1,$1+$1,$2,$3,$4,$5,0*
20,1,$1+$1,$4,$5,$6,$7,0*
20,1,$1+$1,$6,$7,$8,$9,0*
20,1,$1+$1,$8,$9,$2,$3,0*%
G04 Aperture macros list end*
%ADD10R,1.700000X1.700000*%
%ADD11O,1.700000X1.700000*%
%ADD12R,2.500000X1.000000*%
%ADD13R,0.600000X0.900000*%
%ADD14RoundRect,0.237500X-0.237500X0.287500X-0.237500X-0.287500X0.237500X-0.287500X0.237500X0.287500X0*%
%ADD15R,1.060000X0.650000*%
G04 APERTURE END LIST*
D10*
%TO.C,J2*%
X110000000Y-75000000D03*
D11*
X110000000Y-82620000D03*
%TD*%
D12*
%TO.C,U2*%
X89900000Y-65500000D03*
X89900000Y-67500000D03*
X89900000Y-69500000D03*
X89900000Y-71500000D03*
X89900000Y-73500000D03*
X89900000Y-75500000D03*
X89900000Y-77500000D03*
X89900000Y-79500000D03*
X105100000Y-79500000D03*
X105100000Y-77500000D03*
X105100000Y-75500000D03*
X105100000Y-73500000D03*
X105100000Y-71500000D03*
X105100000Y-69500000D03*
X105100000Y-67500000D03*
X105100000Y-65500000D03*
%TD*%
D13*
%TO.C,R3*%
X109250000Y-80000000D03*
X110750000Y-80000000D03*
%TD*%
D14*
%TO.C,C1*%
X108300000Y-69125000D03*
X108300000Y-70875000D03*
%TD*%
D15*
%TO.C,U1*%
X110200000Y-69050000D03*
X110200000Y-70000000D03*
X110200000Y-70950000D03*
X112400000Y-70950000D03*
X112400000Y-69050000D03*
%TD*%
D10*
%TO.C,J1*%
X86000000Y-75000000D03*
D11*
X86000000Y-77540000D03*
X86000000Y-80080000D03*
X86000000Y-82620000D03*
%TD*%
D13*
%TO.C,R4*%
X109250000Y-78000000D03*
X110750000Y-78000000D03*
%TD*%
D10*
%TO.C,J3*%
X91380000Y-84000000D03*
D11*
X93920000Y-84000000D03*
X96460000Y-84000000D03*
X99000000Y-84000000D03*
X101540000Y-84000000D03*
X104080000Y-84000000D03*
%TD*%
D14*
%TO.C,C2*%
X114300000Y-69125000D03*
X114300000Y-70875000D03*
%TD*%
M02*
