%TF.GenerationSoftware,KiCad,Pcbnew,7.0.2*%
%TF.CreationDate,2023-06-20T09:38:12+02:00*%
%TF.ProjectId,esp-lvl,6573702d-6c76-46c2-9e6b-696361645f70,2.0.0*%
%TF.SameCoordinates,Original*%
%TF.FileFunction,Copper,L2,Bot*%
%TF.FilePolarity,Positive*%
%FSLAX46Y46*%
G04 Gerber Fmt 4.6, Leading zero omitted, Abs format (unit mm)*
G04 Created by KiCad (PCBNEW 7.0.2) date 2023-06-20 09:38:12*
%MOMM*%
%LPD*%
G01*
G04 APERTURE LIST*
G04 Aperture macros list*
%AMRoundRect*
0 Rectangle with rounded corners*
0 $1 Rounding radius*
0 $2 $3 $4 $5 $6 $7 $8 $9 X,Y pos of 4 corners*
0 Add a 4 corners polygon primitive as box body*
4,1,4,$2,$3,$4,$5,$6,$7,$8,$9,$2,$3,0*
0 Add four circle primitives for the rounded corners*
1,1,$1+$1,$2,$3*
1,1,$1+$1,$4,$5*
1,1,$1+$1,$6,$7*
1,1,$1+$1,$8,$9*
0 Add four rect primitives between the rounded corners*
20,1,$1+$1,$2,$3,$4,$5,0*
20,1,$1+$1,$4,$5,$6,$7,0*
20,1,$1+$1,$6,$7,$8,$9,0*
20,1,$1+$1,$8,$9,$2,$3,0*%
G04 Aperture macros list end*
%TA.AperFunction,ComponentPad*%
%ADD10R,1.700000X1.700000*%
%TD*%
%TA.AperFunction,ComponentPad*%
%ADD11O,1.700000X1.700000*%
%TD*%
%TA.AperFunction,SMDPad,CuDef*%
%ADD12RoundRect,0.150000X0.587500X0.150000X-0.587500X0.150000X-0.587500X-0.150000X0.587500X-0.150000X0*%
%TD*%
%TA.AperFunction,SMDPad,CuDef*%
%ADD13RoundRect,0.200000X0.200000X0.275000X-0.200000X0.275000X-0.200000X-0.275000X0.200000X-0.275000X0*%
%TD*%
%TA.AperFunction,SMDPad,CuDef*%
%ADD14RoundRect,0.200000X-0.200000X-0.275000X0.200000X-0.275000X0.200000X0.275000X-0.200000X0.275000X0*%
%TD*%
%TA.AperFunction,SMDPad,CuDef*%
%ADD15RoundRect,0.225000X-0.250000X0.225000X-0.250000X-0.225000X0.250000X-0.225000X0.250000X0.225000X0*%
%TD*%
%TA.AperFunction,ViaPad*%
%ADD16C,0.800000*%
%TD*%
%TA.AperFunction,Conductor*%
%ADD17C,0.500000*%
%TD*%
%TA.AperFunction,Conductor*%
%ADD18C,0.300000*%
%TD*%
%TA.AperFunction,Conductor*%
%ADD19C,0.200000*%
%TD*%
G04 APERTURE END LIST*
D10*
%TO.P,J2,1,P1*%
%TO.N,/PWM_Colour*%
X159300000Y-95300000D03*
D11*
%TO.P,J2,4,P4*%
%TO.N,unconnected-(J2-P4-Pad4)*%
X159300000Y-102920000D03*
%TD*%
D10*
%TO.P,J1,1,P1*%
%TO.N,unconnected-(J1-P1-Pad1)*%
X135300000Y-95300000D03*
D11*
%TO.P,J1,2,P2*%
%TO.N,/PWM_Bright*%
X135300000Y-97840000D03*
%TO.P,J1,3,P3*%
%TO.N,+3V3*%
X135300000Y-100380000D03*
%TO.P,J1,4,P4*%
%TO.N,GND*%
X135300000Y-102920000D03*
%TD*%
%TO.P,J3,7,7*%
%TO.N,GND*%
X154540000Y-104050000D03*
%TO.P,J3,6,6*%
%TO.N,+3V3*%
X152000000Y-104050000D03*
%TO.P,J3,5,P5*%
%TO.N,/SCL*%
X149460000Y-104050000D03*
%TO.P,J3,4,P4*%
%TO.N,/SDA*%
X146920000Y-104050000D03*
%TO.P,J3,3,P3*%
%TO.N,/SENS*%
X144380000Y-104050000D03*
%TO.P,J3,2,P2*%
%TO.N,+3V3*%
X141840000Y-104050000D03*
D10*
%TO.P,J3,1,P1*%
%TO.N,GND*%
X139300000Y-104050000D03*
%TD*%
D12*
%TO.P,D3,3,C*%
%TO.N,/SENS_esp*%
X144112500Y-100700000D03*
%TO.P,D3,2,C*%
%TO.N,+3V3*%
X145987500Y-101650000D03*
%TO.P,D3,1,A*%
%TO.N,GND*%
X145987500Y-99750000D03*
%TD*%
D13*
%TO.P,R1,2*%
%TO.N,Net-(U1-EN)*%
X145975000Y-91800000D03*
%TO.P,R1,1*%
%TO.N,+3V3*%
X147625000Y-91800000D03*
%TD*%
%TO.P,R5,2*%
%TO.N,+3V3*%
X145975000Y-95800000D03*
%TO.P,R5,1*%
%TO.N,Net-(U1-GPIO2)*%
X147625000Y-95800000D03*
%TD*%
D14*
%TO.P,R9,2*%
%TO.N,/SENS*%
X149350000Y-100550000D03*
%TO.P,R9,1*%
%TO.N,/SENS_esp*%
X147700000Y-100550000D03*
%TD*%
D13*
%TO.P,R2,2*%
%TO.N,/RST*%
X145975000Y-90050000D03*
%TO.P,R2,1*%
%TO.N,+3V3*%
X147625000Y-90050000D03*
%TD*%
D15*
%TO.P,C1,2*%
%TO.N,GND*%
X138300000Y-101575000D03*
%TO.P,C1,1*%
%TO.N,+3V3*%
X138300000Y-100025000D03*
%TD*%
D13*
%TO.P,R3,2*%
%TO.N,+3V3*%
X145975000Y-93800000D03*
%TO.P,R3,1*%
%TO.N,/GPIO0*%
X147625000Y-93800000D03*
%TD*%
%TO.P,R4,2*%
%TO.N,GND*%
X145975000Y-97800000D03*
%TO.P,R4,1*%
%TO.N,Net-(U1-GPIO15)*%
X147625000Y-97800000D03*
%TD*%
D16*
%TO.N,GND*%
X152050000Y-99800000D03*
X163550000Y-89050000D03*
X157300002Y-93800000D03*
X135406000Y-93452000D03*
%TO.N,+3V3*%
X164500000Y-103700000D03*
X164500000Y-102300000D03*
X144800000Y-95800000D03*
X161500000Y-103700000D03*
X160700000Y-90300000D03*
X161500000Y-102300000D03*
X156900000Y-99700000D03*
X144800000Y-93800000D03*
X160700000Y-92300000D03*
X164300000Y-99700000D03*
X163100000Y-102300000D03*
X139300000Y-100800000D03*
X163100000Y-103700000D03*
X144800000Y-88700000D03*
X134099500Y-87743484D03*
%TO.N,/PWM_Colour*%
X152300000Y-94800000D03*
%TO.N,/SENS_esp*%
X141300000Y-97800000D03*
%TO.N,/GPIO0*%
X148800000Y-93800000D03*
X148868000Y-86848000D03*
X148914664Y-88646501D03*
%TO.N,Net-(U1-GPIO15)*%
X148800000Y-97800000D03*
%TO.N,Net-(U1-GPIO2)*%
X148800000Y-95800000D03*
%TO.N,/RST*%
X134099500Y-89332918D03*
X145975000Y-85832000D03*
%TO.N,Net-(U1-EN)*%
X144800000Y-91800000D03*
%TD*%
D17*
%TO.N,GND*%
X138300000Y-101937500D02*
X138300000Y-101575000D01*
D18*
X146050000Y-99450000D02*
X146050000Y-97800000D01*
D17*
X152050000Y-99800000D02*
X151800000Y-99550000D01*
X151196446Y-99300000D02*
X147418198Y-99300000D01*
X135860000Y-102920000D02*
X135300000Y-102920000D01*
X138925000Y-104050000D02*
X138349030Y-104050000D01*
X136985000Y-103485000D02*
X136815979Y-103315979D01*
X146862132Y-99537867D02*
X146875000Y-99525000D01*
X138556326Y-102556326D02*
X139034834Y-103034834D01*
X136815987Y-103315971D02*
G75*
G03*
X135860000Y-102920000I-955987J-956029D01*
G01*
X138299985Y-101937500D02*
G75*
G03*
X138556326Y-102556326I875115J0D01*
G01*
X136984991Y-103485009D02*
G75*
G03*
X138349030Y-104050000I1364009J1364009D01*
G01*
X147418198Y-99300000D02*
G75*
G03*
X146875001Y-99525001I2J-768200D01*
G01*
X138925000Y-104050000D02*
G75*
G03*
X139300000Y-103675000I0J375000D01*
G01*
X151800016Y-99549984D02*
G75*
G03*
X151196446Y-99300000I-603516J-603516D01*
G01*
X146350000Y-99749988D02*
G75*
G03*
X146862131Y-99537866I0J724288D01*
G01*
D18*
X146050000Y-99450000D02*
G75*
G03*
X146350000Y-99750000I300000J0D01*
G01*
D17*
X139300008Y-103675000D02*
G75*
G03*
X139034833Y-103034835I-905308J0D01*
G01*
D18*
%TO.N,+3V3*%
X134099500Y-87743484D02*
X134577758Y-88221742D01*
D17*
X135465000Y-100215000D02*
X135300000Y-100380000D01*
X135863345Y-100050000D02*
X138257322Y-100050000D01*
X145964644Y-101700000D02*
X142966690Y-101700000D01*
X144800000Y-95800000D02*
X146050000Y-95800000D01*
D18*
X144800000Y-88700000D02*
X135732374Y-88700000D01*
D17*
X146050000Y-93279809D02*
X146050000Y-93800000D01*
X144800000Y-95800000D02*
X144800000Y-93800000D01*
X146025000Y-101675000D02*
X146050000Y-101650000D01*
X147625000Y-92298223D02*
X147625000Y-91800000D01*
X147198223Y-92725000D02*
X146604809Y-92725000D01*
X144800000Y-93800000D02*
X146050000Y-93800000D01*
X141840000Y-102826690D02*
X141840000Y-104050000D01*
X138830545Y-100025000D02*
X138317677Y-100025000D01*
X147625000Y-91800000D02*
X147625000Y-90050000D01*
X139300000Y-100800000D02*
X139300000Y-100494454D01*
X139300018Y-100494454D02*
G75*
G03*
X139162499Y-100162501I-469518J-46D01*
G01*
X135863345Y-100050019D02*
G75*
G03*
X135465000Y-100215000I-45J-563281D01*
G01*
X138317677Y-100024991D02*
G75*
G03*
X138287500Y-100037500I23J-42709D01*
G01*
X146604809Y-92725005D02*
G75*
G03*
X146212501Y-92887501I-9J-554795D01*
G01*
X142966690Y-101699997D02*
G75*
G03*
X142170001Y-102030001I10J-1126703D01*
G01*
X139162487Y-100162513D02*
G75*
G03*
X138830545Y-100025000I-331987J-331987D01*
G01*
X147198223Y-92725009D02*
G75*
G03*
X147500000Y-92600000I-23J426809D01*
G01*
X142170003Y-102030003D02*
G75*
G03*
X141840000Y-102826690I796697J-796697D01*
G01*
X138257322Y-100050009D02*
G75*
G03*
X138287500Y-100037500I-22J42709D01*
G01*
X147499993Y-92599993D02*
G75*
G03*
X147625000Y-92298223I-301793J301793D01*
G01*
X145964644Y-101700018D02*
G75*
G03*
X146025000Y-101675000I-44J85418D01*
G01*
X146212497Y-92887497D02*
G75*
G03*
X146050000Y-93279809I392303J-392303D01*
G01*
D18*
X134577765Y-88221735D02*
G75*
G03*
X135732374Y-88700000I1154635J1154635D01*
G01*
%TO.N,/SENS*%
X148069669Y-102300000D02*
X144926274Y-102300000D01*
X149350000Y-101050000D02*
X149350000Y-100550000D01*
X144380000Y-102846274D02*
X144380000Y-104050000D01*
X148974999Y-101924999D02*
X148996446Y-101903553D01*
X144540008Y-102460008D02*
G75*
G03*
X144380000Y-102846274I386292J-386292D01*
G01*
X144926274Y-102299990D02*
G75*
G03*
X144540000Y-102460000I26J-546310D01*
G01*
X148996445Y-101903552D02*
G75*
G03*
X149350000Y-101050000I-853545J853552D01*
G01*
X148069669Y-102299986D02*
G75*
G03*
X148974999Y-101924999I31J1280286D01*
G01*
%TO.N,/PWM_Colour*%
X152300000Y-94800000D02*
X155996446Y-94800000D01*
X157203553Y-95300000D02*
X159300000Y-95300000D01*
X156600014Y-95049986D02*
G75*
G03*
X157203553Y-95300000I603586J603586D01*
G01*
X156600016Y-95049984D02*
G75*
G03*
X155996446Y-94800000I-603516J-603516D01*
G01*
%TO.N,/SENS_esp*%
X141300000Y-98651471D02*
X141300000Y-97800000D01*
X141900000Y-100100000D02*
X141951992Y-100151992D01*
X147443933Y-100700000D02*
X144112500Y-100700000D01*
X147625000Y-100625000D02*
X147700000Y-100550000D01*
X143275000Y-100700000D02*
X144050000Y-100700000D01*
X141951995Y-100151989D02*
G75*
G03*
X143275000Y-100700000I1323005J1322989D01*
G01*
X141300012Y-98651471D02*
G75*
G03*
X141900000Y-100100000I2048488J-29D01*
G01*
X147443933Y-100700014D02*
G75*
G03*
X147625000Y-100625000I-33J256114D01*
G01*
%TO.N,/GPIO0*%
X148868000Y-86848000D02*
X148868000Y-88566840D01*
X148800000Y-93800000D02*
X147550000Y-93800000D01*
X148891332Y-88623169D02*
X148914664Y-88646501D01*
X148867983Y-88566840D02*
G75*
G03*
X148891332Y-88623169I79717J40D01*
G01*
%TO.N,Net-(U1-GPIO15)*%
X148800000Y-97800000D02*
X147550000Y-97800000D01*
%TO.N,Net-(U1-GPIO2)*%
X148800000Y-95800000D02*
X147550000Y-95800000D01*
D19*
%TO.N,/RST*%
X145975000Y-85832000D02*
X145975000Y-90014644D01*
X134099500Y-89332918D02*
X142761219Y-89332918D01*
X144371698Y-90000000D02*
X145889644Y-90000000D01*
X145949987Y-90025013D02*
G75*
G03*
X145889644Y-90000000I-60387J-60387D01*
G01*
X143566449Y-89666469D02*
G75*
G03*
X142761219Y-89332918I-805249J-805231D01*
G01*
X145950076Y-90024924D02*
G75*
G03*
X145975000Y-90014644I10324J10324D01*
G01*
X143566456Y-89666462D02*
G75*
G03*
X144371698Y-90000000I805244J805262D01*
G01*
D18*
%TO.N,Net-(U1-EN)*%
X144800000Y-91800000D02*
X145975000Y-91800000D01*
%TD*%
%TA.AperFunction,Conductor*%
%TO.N,/SENS_esp*%
G36*
X141658073Y-97948287D02*
G01*
X141664391Y-97954634D01*
X141664370Y-97963588D01*
X141664075Y-97964238D01*
X141602321Y-98090137D01*
X141601729Y-98091202D01*
X141542016Y-98186407D01*
X141541915Y-98186580D01*
X141493781Y-98270001D01*
X141461665Y-98371274D01*
X141450846Y-98509215D01*
X141446783Y-98517195D01*
X141439182Y-98520000D01*
X141160818Y-98520000D01*
X141152545Y-98516573D01*
X141149154Y-98509215D01*
X141138333Y-98371274D01*
X141138333Y-98371272D01*
X141106219Y-98270004D01*
X141106218Y-98270003D01*
X141106218Y-98270001D01*
X141057983Y-98186407D01*
X141057862Y-98186210D01*
X140998269Y-98091202D01*
X140997677Y-98090137D01*
X140935924Y-97964238D01*
X140935357Y-97955302D01*
X140941276Y-97948582D01*
X140941909Y-97948294D01*
X141295500Y-97800875D01*
X141304449Y-97800855D01*
X141658073Y-97948287D01*
G37*
%TD.AperFunction*%
%TD*%
%TA.AperFunction,Conductor*%
%TO.N,/GPIO0*%
G36*
X149015783Y-87939210D02*
G01*
X149019141Y-87946210D01*
X149034335Y-88085017D01*
X149077656Y-88183337D01*
X149077657Y-88183338D01*
X149139430Y-88262805D01*
X149210512Y-88354687D01*
X149211596Y-88356368D01*
X149278208Y-88482088D01*
X149279054Y-88491003D01*
X149273348Y-88497904D01*
X149272372Y-88498365D01*
X148919166Y-88645624D01*
X148910212Y-88645645D01*
X148910162Y-88645624D01*
X148556270Y-88498080D01*
X148549952Y-88491733D01*
X148549973Y-88482779D01*
X148550111Y-88482462D01*
X148605907Y-88360069D01*
X148606079Y-88359711D01*
X148654227Y-88264700D01*
X148689315Y-88180509D01*
X148710743Y-88079982D01*
X148717440Y-87946895D01*
X148721279Y-87938804D01*
X148729126Y-87935783D01*
X149007510Y-87935783D01*
X149015783Y-87939210D01*
G37*
%TD.AperFunction*%
%TD*%
%TA.AperFunction,Conductor*%
%TO.N,Net-(U1-EN)*%
G36*
X145630353Y-91408768D02*
G01*
X145630397Y-91408817D01*
X145969155Y-91792253D01*
X145972065Y-91800722D01*
X145969155Y-91807747D01*
X145630397Y-92191182D01*
X145622351Y-92195113D01*
X145613882Y-92192203D01*
X145613833Y-92192159D01*
X145533300Y-92120192D01*
X145533298Y-92120190D01*
X145533085Y-92120000D01*
X145501997Y-92097427D01*
X145443842Y-92055201D01*
X145443832Y-92055194D01*
X145443564Y-92055000D01*
X145443273Y-92054837D01*
X145443263Y-92054831D01*
X145354393Y-92005195D01*
X145354392Y-92005194D01*
X145354042Y-92004999D01*
X145352732Y-92004487D01*
X145264517Y-91969997D01*
X145184149Y-91952042D01*
X145176822Y-91946894D01*
X145175000Y-91940624D01*
X145175000Y-91659374D01*
X145178427Y-91651101D01*
X145184145Y-91647956D01*
X145264521Y-91630000D01*
X145354042Y-91595000D01*
X145443564Y-91544999D01*
X145533085Y-91479999D01*
X145613834Y-91407839D01*
X145622285Y-91404882D01*
X145630353Y-91408768D01*
G37*
%TD.AperFunction*%
%TD*%
%TA.AperFunction,Conductor*%
%TO.N,/RST*%
G36*
X134262939Y-88968905D02*
G01*
X134263903Y-88969359D01*
X134371094Y-89026064D01*
X134391872Y-89037056D01*
X134393543Y-89038130D01*
X134487007Y-89110137D01*
X134567862Y-89172628D01*
X134601191Y-89187223D01*
X134667848Y-89216415D01*
X134708342Y-89220821D01*
X134809067Y-89231782D01*
X134816920Y-89236083D01*
X134819500Y-89243413D01*
X134819500Y-89422422D01*
X134816073Y-89430695D01*
X134809066Y-89434053D01*
X134667848Y-89449419D01*
X134567863Y-89493206D01*
X134487007Y-89555698D01*
X134393544Y-89627702D01*
X134391875Y-89628776D01*
X134263908Y-89696473D01*
X134254993Y-89697313D01*
X134248095Y-89691602D01*
X134247638Y-89690633D01*
X134165327Y-89493207D01*
X134100375Y-89337417D01*
X134100355Y-89328468D01*
X134247638Y-88975201D01*
X134253985Y-88968884D01*
X134262939Y-88968905D01*
G37*
%TD.AperFunction*%
%TD*%
%TA.AperFunction,Conductor*%
%TO.N,Net-(U1-GPIO15)*%
G36*
X147986116Y-97407795D02*
G01*
X148066914Y-97479999D01*
X148116695Y-97516144D01*
X148156156Y-97544797D01*
X148156162Y-97544801D01*
X148156435Y-97544999D01*
X148156729Y-97545163D01*
X148156735Y-97545167D01*
X148203492Y-97571282D01*
X148245957Y-97595000D01*
X148335478Y-97630000D01*
X148415853Y-97647956D01*
X148423178Y-97653104D01*
X148425000Y-97659374D01*
X148425000Y-97940624D01*
X148421573Y-97948897D01*
X148415851Y-97952042D01*
X148335481Y-97969997D01*
X148246332Y-98004852D01*
X148246327Y-98004854D01*
X148245957Y-98004999D01*
X148245611Y-98005191D01*
X148245605Y-98005195D01*
X148156735Y-98054831D01*
X148156717Y-98054842D01*
X148156435Y-98055000D01*
X148156174Y-98055189D01*
X148156156Y-98055201D01*
X148067145Y-98119832D01*
X148066914Y-98120000D01*
X148066709Y-98120182D01*
X148066698Y-98120192D01*
X147986166Y-98192159D01*
X147977714Y-98195117D01*
X147969646Y-98191231D01*
X147969602Y-98191182D01*
X147849465Y-98055201D01*
X147630843Y-97807746D01*
X147627934Y-97799278D01*
X147630844Y-97792253D01*
X147969604Y-97408815D01*
X147977648Y-97404886D01*
X147986116Y-97407795D01*
G37*
%TD.AperFunction*%
%TD*%
%TA.AperFunction,Conductor*%
%TO.N,/SENS*%
G36*
X144298732Y-102566746D02*
G01*
X144305607Y-102570716D01*
X144540804Y-102706511D01*
X144546255Y-102713615D01*
X144546202Y-102719862D01*
X144477144Y-102961157D01*
X144572233Y-103131973D01*
X144670849Y-103207337D01*
X144764664Y-103279033D01*
X144764848Y-103279178D01*
X144937458Y-103419177D01*
X144984169Y-103457063D01*
X144986499Y-103459608D01*
X145157297Y-103712856D01*
X145159082Y-103721631D01*
X145154139Y-103729098D01*
X145152082Y-103730204D01*
X144383987Y-104049003D01*
X144375033Y-104049009D01*
X144242555Y-103993954D01*
X143605883Y-103729365D01*
X143599558Y-103723026D01*
X143599569Y-103714071D01*
X143599706Y-103713753D01*
X143733704Y-103420180D01*
X143734216Y-103419188D01*
X143853256Y-103214119D01*
X143853792Y-103213282D01*
X143972875Y-103043876D01*
X144111521Y-102847308D01*
X144282938Y-102570715D01*
X144290209Y-102565489D01*
X144298732Y-102566746D01*
G37*
%TD.AperFunction*%
%TD*%
%TA.AperFunction,Conductor*%
%TO.N,/GPIO0*%
G36*
X147986116Y-93407795D02*
G01*
X148066914Y-93479999D01*
X148116695Y-93516144D01*
X148156156Y-93544797D01*
X148156162Y-93544801D01*
X148156435Y-93544999D01*
X148156729Y-93545163D01*
X148156735Y-93545167D01*
X148203492Y-93571282D01*
X148245957Y-93595000D01*
X148335478Y-93630000D01*
X148415853Y-93647956D01*
X148423178Y-93653104D01*
X148425000Y-93659374D01*
X148425000Y-93940624D01*
X148421573Y-93948897D01*
X148415851Y-93952042D01*
X148335481Y-93969997D01*
X148246332Y-94004852D01*
X148246327Y-94004854D01*
X148245957Y-94004999D01*
X148245611Y-94005191D01*
X148245605Y-94005195D01*
X148156735Y-94054831D01*
X148156717Y-94054842D01*
X148156435Y-94055000D01*
X148156174Y-94055189D01*
X148156156Y-94055201D01*
X148067145Y-94119832D01*
X148066914Y-94120000D01*
X148066709Y-94120182D01*
X148066698Y-94120192D01*
X147986166Y-94192159D01*
X147977714Y-94195117D01*
X147969646Y-94191231D01*
X147969602Y-94191182D01*
X147849465Y-94055201D01*
X147630843Y-93807746D01*
X147627934Y-93799278D01*
X147630844Y-93792253D01*
X147969604Y-93408815D01*
X147977648Y-93404886D01*
X147986116Y-93407795D01*
G37*
%TD.AperFunction*%
%TD*%
%TA.AperFunction,Conductor*%
%TO.N,/RST*%
G36*
X146075393Y-89178427D02*
G01*
X146077960Y-89182301D01*
X146131955Y-89315446D01*
X146188910Y-89438016D01*
X146245865Y-89542709D01*
X146245989Y-89542898D01*
X146245992Y-89542903D01*
X146302648Y-89629263D01*
X146302654Y-89629272D01*
X146302820Y-89629524D01*
X146303018Y-89629763D01*
X146303019Y-89629765D01*
X146352695Y-89689893D01*
X146355322Y-89698454D01*
X146351579Y-89705972D01*
X145982904Y-90043758D01*
X145974489Y-90046820D01*
X145967096Y-90043758D01*
X145862979Y-89948365D01*
X145598418Y-89705970D01*
X145594634Y-89697856D01*
X145597302Y-89689895D01*
X145647179Y-89629524D01*
X145704134Y-89542709D01*
X145761089Y-89438016D01*
X145818044Y-89315446D01*
X145872038Y-89182302D01*
X145878322Y-89175924D01*
X145882880Y-89175000D01*
X146067120Y-89175000D01*
X146075393Y-89178427D01*
G37*
%TD.AperFunction*%
%TD*%
%TA.AperFunction,Conductor*%
%TO.N,/RST*%
G36*
X145648692Y-89637553D02*
G01*
X145649288Y-89638247D01*
X145969600Y-90041934D01*
X145972058Y-90050545D01*
X145968813Y-90057372D01*
X145616573Y-90418756D01*
X145608345Y-90422289D01*
X145600029Y-90418968D01*
X145599420Y-90418329D01*
X145521378Y-90329847D01*
X145521377Y-90329846D01*
X145521213Y-90329660D01*
X145434660Y-90247815D01*
X145348106Y-90182256D01*
X145347774Y-90182067D01*
X145347771Y-90182065D01*
X145261554Y-90132985D01*
X145182533Y-90102870D01*
X145176023Y-90096722D01*
X145175000Y-90091937D01*
X145175000Y-89909266D01*
X145178427Y-89900993D01*
X145184019Y-89897878D01*
X145268284Y-89878053D01*
X145361569Y-89839913D01*
X145454854Y-89785580D01*
X145548139Y-89715054D01*
X145632158Y-89636949D01*
X145640550Y-89633827D01*
X145648692Y-89637553D01*
G37*
%TD.AperFunction*%
%TD*%
%TA.AperFunction,Conductor*%
%TO.N,+3V3*%
G36*
X147632902Y-90056240D02*
G01*
X148004304Y-90396523D01*
X148008089Y-90404639D01*
X148007572Y-90408624D01*
X147982820Y-90488229D01*
X147982771Y-90488399D01*
X147955865Y-90583922D01*
X147955840Y-90584020D01*
X147928910Y-90688614D01*
X147901955Y-90802307D01*
X147877019Y-90915811D01*
X147871897Y-90923156D01*
X147865592Y-90925000D01*
X147384408Y-90925000D01*
X147376135Y-90921573D01*
X147372981Y-90915811D01*
X147348044Y-90802307D01*
X147321089Y-90688614D01*
X147321088Y-90688613D01*
X147294134Y-90583922D01*
X147294114Y-90583851D01*
X147294091Y-90583765D01*
X147267179Y-90488229D01*
X147267138Y-90488097D01*
X147265361Y-90482383D01*
X147242427Y-90408622D01*
X147243243Y-90399706D01*
X147245691Y-90396527D01*
X147617097Y-90056240D01*
X147625511Y-90053179D01*
X147632902Y-90056240D01*
G37*
%TD.AperFunction*%
%TD*%
%TA.AperFunction,Conductor*%
%TO.N,Net-(U1-GPIO2)*%
G36*
X148651417Y-95441276D02*
G01*
X148651712Y-95441926D01*
X148799123Y-95795498D01*
X148799144Y-95804452D01*
X148799123Y-95804502D01*
X148651712Y-96158073D01*
X148645365Y-96164391D01*
X148636411Y-96164370D01*
X148635761Y-96164075D01*
X148509861Y-96102321D01*
X148508796Y-96101729D01*
X148413591Y-96042016D01*
X148413418Y-96041915D01*
X148329996Y-95993781D01*
X148329995Y-95993780D01*
X148329994Y-95993780D01*
X148228727Y-95961666D01*
X148228724Y-95961665D01*
X148090785Y-95950845D01*
X148082805Y-95946782D01*
X148080000Y-95939181D01*
X148080000Y-95660817D01*
X148083427Y-95652544D01*
X148090782Y-95649154D01*
X148228727Y-95638333D01*
X148329994Y-95606219D01*
X148413591Y-95557983D01*
X148413788Y-95557862D01*
X148484592Y-95513450D01*
X148508808Y-95498262D01*
X148509849Y-95497683D01*
X148635762Y-95435923D01*
X148644698Y-95435357D01*
X148651417Y-95441276D01*
G37*
%TD.AperFunction*%
%TD*%
%TA.AperFunction,Conductor*%
%TO.N,/PWM_Colour*%
G36*
X152463588Y-94435629D02*
G01*
X152464227Y-94435919D01*
X152590141Y-94497679D01*
X152591202Y-94498269D01*
X152686407Y-94557983D01*
X152686580Y-94558084D01*
X152754492Y-94597268D01*
X152770004Y-94606219D01*
X152871272Y-94638333D01*
X153009217Y-94649154D01*
X153017195Y-94653216D01*
X153020000Y-94660817D01*
X153020000Y-94939181D01*
X153016573Y-94947454D01*
X153009215Y-94950845D01*
X152871274Y-94961665D01*
X152770001Y-94993780D01*
X152686407Y-95042016D01*
X152686210Y-95042137D01*
X152591202Y-95101729D01*
X152590137Y-95102321D01*
X152464238Y-95164075D01*
X152455302Y-95164642D01*
X152448582Y-95158723D01*
X152448287Y-95158073D01*
X152379790Y-94993780D01*
X152300875Y-94804499D01*
X152300855Y-94795550D01*
X152448288Y-94441924D01*
X152454634Y-94435608D01*
X152463588Y-94435629D01*
G37*
%TD.AperFunction*%
%TD*%
%TA.AperFunction,Conductor*%
%TO.N,/GPIO0*%
G36*
X149226073Y-86996287D02*
G01*
X149232391Y-87002634D01*
X149232370Y-87011588D01*
X149232075Y-87012238D01*
X149170321Y-87138137D01*
X149169729Y-87139202D01*
X149110016Y-87234407D01*
X149109915Y-87234580D01*
X149061781Y-87318001D01*
X149029665Y-87419274D01*
X149018846Y-87557215D01*
X149014783Y-87565195D01*
X149007182Y-87568000D01*
X148728818Y-87568000D01*
X148720545Y-87564573D01*
X148717154Y-87557215D01*
X148706333Y-87419274D01*
X148706333Y-87419272D01*
X148674219Y-87318004D01*
X148674218Y-87318003D01*
X148674218Y-87318001D01*
X148625983Y-87234407D01*
X148625862Y-87234210D01*
X148566269Y-87139202D01*
X148565677Y-87138137D01*
X148503924Y-87012238D01*
X148503357Y-87003302D01*
X148509276Y-86996582D01*
X148509909Y-86996294D01*
X148863500Y-86848875D01*
X148872449Y-86848855D01*
X149226073Y-86996287D01*
G37*
%TD.AperFunction*%
%TD*%
%TA.AperFunction,Conductor*%
%TO.N,+3V3*%
G36*
X144651417Y-88341276D02*
G01*
X144651712Y-88341926D01*
X144799123Y-88695497D01*
X144799144Y-88704451D01*
X144799123Y-88704501D01*
X144651712Y-89058073D01*
X144645365Y-89064391D01*
X144636411Y-89064370D01*
X144635761Y-89064075D01*
X144509861Y-89002321D01*
X144508796Y-89001729D01*
X144413591Y-88942016D01*
X144413418Y-88941915D01*
X144329996Y-88893781D01*
X144329995Y-88893780D01*
X144329994Y-88893780D01*
X144228727Y-88861666D01*
X144228724Y-88861665D01*
X144090785Y-88850845D01*
X144082805Y-88846782D01*
X144080000Y-88839181D01*
X144080000Y-88560817D01*
X144083427Y-88552544D01*
X144090782Y-88549154D01*
X144228727Y-88538333D01*
X144329994Y-88506219D01*
X144413591Y-88457983D01*
X144413788Y-88457862D01*
X144484592Y-88413450D01*
X144508808Y-88398262D01*
X144509849Y-88397683D01*
X144635762Y-88335923D01*
X144644698Y-88335357D01*
X144651417Y-88341276D01*
G37*
%TD.AperFunction*%
%TD*%
%TA.AperFunction,Conductor*%
%TO.N,+3V3*%
G36*
X145086998Y-95485452D02*
G01*
X145126923Y-95499724D01*
X145184464Y-95520295D01*
X145184467Y-95520296D01*
X145184820Y-95520422D01*
X145272373Y-95539845D01*
X145375489Y-95548209D01*
X145508446Y-95549856D01*
X145516675Y-95553385D01*
X145520000Y-95561555D01*
X145520000Y-96038444D01*
X145516573Y-96046717D01*
X145508445Y-96050143D01*
X145375703Y-96051787D01*
X145375692Y-96051787D01*
X145375489Y-96051790D01*
X145375305Y-96051804D01*
X145375281Y-96051806D01*
X145272775Y-96060120D01*
X145272769Y-96060120D01*
X145272373Y-96060153D01*
X145271981Y-96060239D01*
X145271974Y-96060241D01*
X145185178Y-96079496D01*
X145185169Y-96079498D01*
X145184820Y-96079576D01*
X145184490Y-96079693D01*
X145184476Y-96079698D01*
X145087131Y-96114499D01*
X145087114Y-96114505D01*
X145086998Y-96114547D01*
X145086877Y-96114596D01*
X145086871Y-96114599D01*
X144963838Y-96165130D01*
X144954883Y-96165103D01*
X144948594Y-96158809D01*
X144907499Y-96060241D01*
X144800875Y-95804499D01*
X144800855Y-95795550D01*
X144948594Y-95441189D01*
X144954941Y-95434872D01*
X144963837Y-95434869D01*
X145086998Y-95485452D01*
G37*
%TD.AperFunction*%
%TD*%
%TA.AperFunction,Conductor*%
%TO.N,+3V3*%
G36*
X147873865Y-90928427D02*
G01*
X147877018Y-90934188D01*
X147901955Y-91047692D01*
X147928910Y-91161385D01*
X147955865Y-91266077D01*
X147955884Y-91266147D01*
X147955908Y-91266234D01*
X147982820Y-91361770D01*
X147982861Y-91361902D01*
X148007572Y-91441375D01*
X148006756Y-91450293D01*
X148004304Y-91453476D01*
X147632904Y-91793758D01*
X147624489Y-91796820D01*
X147617096Y-91793758D01*
X147245695Y-91453476D01*
X147241910Y-91445360D01*
X147242426Y-91441379D01*
X147267179Y-91361770D01*
X147267228Y-91361600D01*
X147294134Y-91266077D01*
X147294159Y-91265979D01*
X147321089Y-91161385D01*
X147348044Y-91047692D01*
X147372981Y-90934189D01*
X147378103Y-90926844D01*
X147384408Y-90925000D01*
X147865592Y-90925000D01*
X147873865Y-90928427D01*
G37*
%TD.AperFunction*%
%TD*%
%TA.AperFunction,Conductor*%
%TO.N,/GPIO0*%
G36*
X148651417Y-93441276D02*
G01*
X148651712Y-93441926D01*
X148799123Y-93795497D01*
X148799144Y-93804451D01*
X148799123Y-93804501D01*
X148651712Y-94158073D01*
X148645365Y-94164391D01*
X148636411Y-94164370D01*
X148635761Y-94164075D01*
X148509861Y-94102321D01*
X148508796Y-94101729D01*
X148413591Y-94042016D01*
X148413418Y-94041915D01*
X148329996Y-93993781D01*
X148329995Y-93993780D01*
X148329994Y-93993780D01*
X148228727Y-93961666D01*
X148228724Y-93961665D01*
X148090785Y-93950845D01*
X148082805Y-93946782D01*
X148080000Y-93939181D01*
X148080000Y-93660817D01*
X148083427Y-93652544D01*
X148090782Y-93649154D01*
X148228727Y-93638333D01*
X148329994Y-93606219D01*
X148413591Y-93557983D01*
X148413788Y-93557862D01*
X148484592Y-93513450D01*
X148508808Y-93498262D01*
X148509849Y-93497683D01*
X148635762Y-93435923D01*
X148644698Y-93435357D01*
X148651417Y-93441276D01*
G37*
%TD.AperFunction*%
%TD*%
%TA.AperFunction,Conductor*%
%TO.N,/PWM_Colour*%
G36*
X158458282Y-94458346D02*
G01*
X158459100Y-94459089D01*
X158656479Y-94656236D01*
X159292712Y-95291722D01*
X159296144Y-95299993D01*
X159292722Y-95308268D01*
X159292712Y-95308278D01*
X158459104Y-96140906D01*
X158450829Y-96144328D01*
X158442558Y-96140896D01*
X158441811Y-96140074D01*
X158280151Y-95944115D01*
X158280150Y-95944114D01*
X158280000Y-95943932D01*
X158110000Y-95770898D01*
X157939999Y-95630898D01*
X157769999Y-95523932D01*
X157769996Y-95523930D01*
X157607034Y-95453059D01*
X157600814Y-95446617D01*
X157600000Y-95442330D01*
X157600000Y-95157669D01*
X157603427Y-95149396D01*
X157607030Y-95146942D01*
X157769999Y-95076067D01*
X157939999Y-94969101D01*
X158110000Y-94829101D01*
X158280000Y-94656067D01*
X158441813Y-94459923D01*
X158449719Y-94455724D01*
X158458282Y-94458346D01*
G37*
%TD.AperFunction*%
%TD*%
%TA.AperFunction,Conductor*%
%TO.N,+3V3*%
G36*
X137970056Y-99600037D02*
G01*
X138295401Y-100017811D01*
X138297781Y-100026444D01*
X138295401Y-100032189D01*
X137969649Y-100450484D01*
X137961862Y-100454906D01*
X137955425Y-100453876D01*
X137948236Y-100450484D01*
X137933039Y-100443313D01*
X137846354Y-100402410D01*
X137846348Y-100402407D01*
X137846116Y-100402298D01*
X137840445Y-100400200D01*
X137728581Y-100358813D01*
X137728575Y-100358811D01*
X137728337Y-100358723D01*
X137728099Y-100358659D01*
X137728086Y-100358655D01*
X137637152Y-100334278D01*
X137610558Y-100327149D01*
X137610285Y-100327103D01*
X137610273Y-100327101D01*
X137493072Y-100307622D01*
X137493058Y-100307620D01*
X137492779Y-100307574D01*
X137492495Y-100307555D01*
X137492480Y-100307554D01*
X137385949Y-100300704D01*
X137377913Y-100296753D01*
X137375000Y-100289028D01*
X137375000Y-99810083D01*
X137378427Y-99801810D01*
X137384970Y-99798512D01*
X137492779Y-99782425D01*
X137610558Y-99752850D01*
X137728337Y-99711276D01*
X137846116Y-99657701D01*
X137955136Y-99597003D01*
X137964029Y-99595973D01*
X137970056Y-99600037D01*
G37*
%TD.AperFunction*%
%TD*%
%TA.AperFunction,Conductor*%
%TO.N,+3V3*%
G36*
X145315026Y-101383677D02*
G01*
X145981293Y-101647150D01*
X145987725Y-101653378D01*
X145988686Y-101657748D01*
X145995419Y-101937519D01*
X145992192Y-101945872D01*
X145984003Y-101949497D01*
X145983722Y-101949500D01*
X145978452Y-101949500D01*
X145978116Y-101949495D01*
X145786575Y-101944000D01*
X145577431Y-101941000D01*
X145368287Y-101941000D01*
X145159143Y-101944000D01*
X144967680Y-101949492D01*
X144967345Y-101949497D01*
X144961700Y-101949497D01*
X144953427Y-101946070D01*
X144950000Y-101937797D01*
X144950000Y-101460541D01*
X144953427Y-101452268D01*
X144960482Y-101448905D01*
X145022283Y-101442450D01*
X145022431Y-101442428D01*
X145022507Y-101442419D01*
X145094567Y-101431900D01*
X145166850Y-101418350D01*
X145166955Y-101418325D01*
X145167070Y-101418302D01*
X145228318Y-101404276D01*
X145239134Y-101401800D01*
X145239259Y-101401766D01*
X145239344Y-101401745D01*
X145284736Y-101389466D01*
X145307671Y-101383264D01*
X145315026Y-101383677D01*
G37*
%TD.AperFunction*%
%TD*%
%TA.AperFunction,Conductor*%
%TO.N,/SENS_esp*%
G36*
X147320625Y-100223560D02*
G01*
X147320664Y-100223593D01*
X147693469Y-100543537D01*
X147697515Y-100551526D01*
X147695852Y-100558485D01*
X147428471Y-100999218D01*
X147421250Y-101004513D01*
X147412510Y-101003219D01*
X147318257Y-100947455D01*
X147318245Y-100947449D01*
X147317975Y-100947289D01*
X147213481Y-100900467D01*
X147213129Y-100900359D01*
X147213119Y-100900356D01*
X147109375Y-100868762D01*
X147109376Y-100868762D01*
X147108988Y-100868644D01*
X147108596Y-100868580D01*
X147108588Y-100868579D01*
X147004493Y-100851821D01*
X146911496Y-100850200D01*
X146903284Y-100846630D01*
X146900000Y-100838502D01*
X146900000Y-100557585D01*
X146903427Y-100549312D01*
X146906923Y-100546905D01*
X146982349Y-100513188D01*
X147064698Y-100461376D01*
X147147048Y-100394563D01*
X147229397Y-100312751D01*
X147304133Y-100224890D01*
X147312103Y-100220810D01*
X147320625Y-100223560D01*
G37*
%TD.AperFunction*%
%TD*%
%TA.AperFunction,Conductor*%
%TO.N,+3V3*%
G36*
X145046717Y-95083427D02*
G01*
X145050143Y-95091555D01*
X145051790Y-95224510D01*
X145051805Y-95224695D01*
X145051806Y-95224717D01*
X145060120Y-95327222D01*
X145060153Y-95327625D01*
X145079576Y-95415178D01*
X145079695Y-95415512D01*
X145079698Y-95415521D01*
X145114499Y-95512867D01*
X145114547Y-95513001D01*
X145114591Y-95513107D01*
X145114599Y-95513127D01*
X145165130Y-95636161D01*
X145165103Y-95645116D01*
X145158809Y-95651405D01*
X144804502Y-95799123D01*
X144795548Y-95799144D01*
X144795498Y-95799123D01*
X144441190Y-95651405D01*
X144434872Y-95645058D01*
X144434869Y-95636162D01*
X144485452Y-95513001D01*
X144520422Y-95415178D01*
X144539845Y-95327625D01*
X144548209Y-95224510D01*
X144549856Y-95091555D01*
X144553386Y-95083325D01*
X144561556Y-95080000D01*
X145038444Y-95080000D01*
X145046717Y-95083427D01*
G37*
%TD.AperFunction*%
%TD*%
%TA.AperFunction,Conductor*%
%TO.N,+3V3*%
G36*
X142097480Y-102637390D02*
G01*
X142104289Y-102643205D01*
X142105449Y-102650156D01*
X142067359Y-102919359D01*
X142142874Y-103109100D01*
X142289967Y-103267803D01*
X142464342Y-103452671D01*
X142465906Y-103454751D01*
X142618454Y-103713128D01*
X142619709Y-103721994D01*
X142614327Y-103729151D01*
X142612866Y-103729881D01*
X141844180Y-104049086D01*
X141835225Y-104049094D01*
X141835203Y-104049085D01*
X141065857Y-103729354D01*
X141059532Y-103723015D01*
X141059543Y-103714060D01*
X141059676Y-103713752D01*
X141194626Y-103416255D01*
X141194986Y-103415529D01*
X141309807Y-103203115D01*
X141309806Y-103203115D01*
X141412429Y-103020890D01*
X141515361Y-102803669D01*
X141627430Y-102496523D01*
X141633485Y-102489926D01*
X141642035Y-102489407D01*
X142097480Y-102637390D01*
G37*
%TD.AperFunction*%
%TD*%
%TA.AperFunction,Conductor*%
%TO.N,+3V3*%
G36*
X145628739Y-93406941D02*
G01*
X145969155Y-93792253D01*
X145972065Y-93800722D01*
X145969155Y-93807747D01*
X145628739Y-94193058D01*
X145620693Y-94196989D01*
X145614442Y-94195622D01*
X145533298Y-94152114D01*
X145533293Y-94152111D01*
X145533085Y-94152000D01*
X145532878Y-94151910D01*
X145532862Y-94151902D01*
X145443791Y-94113097D01*
X145443773Y-94113090D01*
X145443564Y-94112999D01*
X145443348Y-94112926D01*
X145443336Y-94112922D01*
X145354291Y-94083083D01*
X145354282Y-94083080D01*
X145354042Y-94083000D01*
X145353782Y-94082939D01*
X145264793Y-94062063D01*
X145264777Y-94062060D01*
X145264521Y-94062000D01*
X145185146Y-94051360D01*
X145177401Y-94046865D01*
X145175000Y-94039764D01*
X145175000Y-93560235D01*
X145178427Y-93551962D01*
X145185143Y-93548640D01*
X145264521Y-93538000D01*
X145354042Y-93516999D01*
X145443564Y-93487000D01*
X145533085Y-93448000D01*
X145614444Y-93404376D01*
X145623353Y-93403487D01*
X145628739Y-93406941D01*
G37*
%TD.AperFunction*%
%TD*%
%TA.AperFunction,Conductor*%
%TO.N,/SENS_esp*%
G36*
X144762579Y-100414431D02*
G01*
X144835922Y-100457134D01*
X144914441Y-100493850D01*
X144992961Y-100521567D01*
X145071480Y-100540283D01*
X145139739Y-100548730D01*
X145147526Y-100553145D01*
X145150000Y-100560340D01*
X145150000Y-100839658D01*
X145146573Y-100847931D01*
X145139737Y-100851269D01*
X145071798Y-100859676D01*
X145071786Y-100859678D01*
X145071480Y-100859716D01*
X145071185Y-100859786D01*
X145071170Y-100859789D01*
X144993264Y-100878359D01*
X144993250Y-100878363D01*
X144992961Y-100878432D01*
X144992682Y-100878530D01*
X144992670Y-100878534D01*
X144914705Y-100906055D01*
X144914690Y-100906060D01*
X144914441Y-100906149D01*
X144914200Y-100906261D01*
X144914187Y-100906267D01*
X144836160Y-100942753D01*
X144836147Y-100942759D01*
X144835922Y-100942865D01*
X144835700Y-100942993D01*
X144835689Y-100943000D01*
X144762586Y-100985564D01*
X144753712Y-100986765D01*
X144751926Y-100986135D01*
X144750648Y-100985564D01*
X144135407Y-100710681D01*
X144129253Y-100704179D01*
X144129499Y-100695227D01*
X144135408Y-100689318D01*
X144751928Y-100413863D01*
X144760878Y-100413618D01*
X144762579Y-100414431D01*
G37*
%TD.AperFunction*%
%TD*%
%TA.AperFunction,Conductor*%
%TO.N,+3V3*%
G36*
X162490739Y-89520772D02*
G01*
X162537924Y-89573820D01*
X162550000Y-89627646D01*
X162550000Y-94550000D01*
X162549999Y-94550000D01*
X163548031Y-95475447D01*
X164859173Y-96691233D01*
X164895523Y-96752216D01*
X164899500Y-96783623D01*
X164899500Y-105773500D01*
X164879498Y-105841621D01*
X164825842Y-105888114D01*
X164773500Y-105899500D01*
X156426000Y-105899500D01*
X156357879Y-105879498D01*
X156311386Y-105825842D01*
X156300000Y-105773500D01*
X156300000Y-102919999D01*
X158190767Y-102919999D01*
X158209654Y-103123819D01*
X158265672Y-103320702D01*
X158356910Y-103503933D01*
X158356912Y-103503935D01*
X158480268Y-103667285D01*
X158631538Y-103805186D01*
X158805573Y-103912944D01*
X158996444Y-103986888D01*
X159197653Y-104024500D01*
X159197655Y-104024500D01*
X159402345Y-104024500D01*
X159402347Y-104024500D01*
X159603556Y-103986888D01*
X159794427Y-103912944D01*
X159968462Y-103805186D01*
X160119732Y-103667285D01*
X160243088Y-103503935D01*
X160334328Y-103320701D01*
X160390345Y-103123821D01*
X160409232Y-102920000D01*
X160390345Y-102716179D01*
X160334328Y-102519299D01*
X160333585Y-102517807D01*
X160243089Y-102336066D01*
X160212886Y-102296071D01*
X160119732Y-102172715D01*
X159968462Y-102034814D01*
X159920087Y-102004861D01*
X159794428Y-101927056D01*
X159698991Y-101890084D01*
X159603556Y-101853112D01*
X159402347Y-101815500D01*
X159197653Y-101815500D01*
X158996443Y-101853111D01*
X158996444Y-101853112D01*
X158805571Y-101927056D01*
X158631539Y-102034813D01*
X158480267Y-102172716D01*
X158356910Y-102336066D01*
X158265672Y-102519297D01*
X158209654Y-102716180D01*
X158190767Y-102919999D01*
X156300000Y-102919999D01*
X156300000Y-97184149D01*
X156320002Y-97116028D01*
X156333530Y-97098561D01*
X157532941Y-95802818D01*
X157593890Y-95766417D01*
X157664848Y-95768746D01*
X157692505Y-95781767D01*
X157781014Y-95837458D01*
X157794000Y-95846833D01*
X157929343Y-95958291D01*
X157939123Y-95967249D01*
X158083167Y-96113863D01*
X158090470Y-96121972D01*
X158195512Y-96249301D01*
X158241637Y-96305212D01*
X158242615Y-96306355D01*
X158249765Y-96314598D01*
X158250778Y-96315727D01*
X158250512Y-96315420D01*
X158251509Y-96316479D01*
X158255863Y-96321037D01*
X158256193Y-96321383D01*
X158265151Y-96332572D01*
X158266516Y-96333484D01*
X158350699Y-96389734D01*
X158424933Y-96404500D01*
X160175066Y-96404499D01*
X160175068Y-96404499D01*
X160224555Y-96394655D01*
X160249301Y-96389734D01*
X160333484Y-96333484D01*
X160389734Y-96249301D01*
X160404500Y-96175067D01*
X160404499Y-94424934D01*
X160404499Y-94424933D01*
X160404499Y-94424931D01*
X160389734Y-94350699D01*
X160333484Y-94266515D01*
X160249301Y-94210266D01*
X160249300Y-94210266D01*
X160175067Y-94195500D01*
X160175066Y-94195500D01*
X158826000Y-94195500D01*
X158757879Y-94175498D01*
X158711386Y-94121842D01*
X158700000Y-94069500D01*
X158700000Y-89674373D01*
X158720002Y-89606252D01*
X158773658Y-89559759D01*
X158824359Y-89548384D01*
X162422366Y-89501657D01*
X162490739Y-89520772D01*
G37*
%TD.AperFunction*%
%TD*%
%TA.AperFunction,Conductor*%
%TO.N,+3V3*%
G36*
X139344443Y-99991734D02*
G01*
X139344946Y-99992253D01*
X139459156Y-100117620D01*
X139460484Y-100119388D01*
X139527377Y-100228612D01*
X139528403Y-100230746D01*
X139567585Y-100339138D01*
X139567817Y-100339848D01*
X139605889Y-100470787D01*
X139605895Y-100470806D01*
X139605940Y-100470960D01*
X139605996Y-100471117D01*
X139606002Y-100471133D01*
X139665761Y-100636440D01*
X139665351Y-100645386D01*
X139659260Y-100651217D01*
X139302887Y-100799790D01*
X139298365Y-100800691D01*
X138914355Y-100800024D01*
X138906087Y-100796583D01*
X138902675Y-100788304D01*
X138902919Y-100785949D01*
X138924887Y-100680222D01*
X138926207Y-100676759D01*
X138979221Y-100584989D01*
X138979491Y-100584547D01*
X139029634Y-100506163D01*
X139043530Y-100429555D01*
X138993326Y-100349725D01*
X138991823Y-100340898D01*
X138994833Y-100335351D01*
X139327900Y-99991985D01*
X139336119Y-99988433D01*
X139344443Y-99991734D01*
G37*
%TD.AperFunction*%
%TD*%
%TA.AperFunction,Conductor*%
%TO.N,+3V3*%
G36*
X145628739Y-95406941D02*
G01*
X145969155Y-95792253D01*
X145972065Y-95800722D01*
X145969155Y-95807747D01*
X145628739Y-96193058D01*
X145620693Y-96196989D01*
X145614442Y-96195622D01*
X145533298Y-96152114D01*
X145533293Y-96152111D01*
X145533085Y-96152000D01*
X145532878Y-96151910D01*
X145532862Y-96151902D01*
X145443791Y-96113097D01*
X145443773Y-96113090D01*
X145443564Y-96112999D01*
X145443348Y-96112926D01*
X145443336Y-96112922D01*
X145354291Y-96083083D01*
X145354282Y-96083080D01*
X145354042Y-96083000D01*
X145353782Y-96082939D01*
X145264793Y-96062063D01*
X145264777Y-96062060D01*
X145264521Y-96062000D01*
X145185146Y-96051360D01*
X145177401Y-96046865D01*
X145175000Y-96039764D01*
X145175000Y-95560235D01*
X145178427Y-95551962D01*
X145185143Y-95548640D01*
X145264521Y-95538000D01*
X145354042Y-95516999D01*
X145443564Y-95487000D01*
X145533085Y-95448000D01*
X145614444Y-95404376D01*
X145623353Y-95403487D01*
X145628739Y-95406941D01*
G37*
%TD.AperFunction*%
%TD*%
%TA.AperFunction,Conductor*%
%TO.N,+3V3*%
G36*
X145158809Y-93948594D02*
G01*
X145165127Y-93954941D01*
X145165130Y-93963838D01*
X145114599Y-94086871D01*
X145114547Y-94086998D01*
X145114505Y-94087114D01*
X145114499Y-94087131D01*
X145079698Y-94184476D01*
X145079693Y-94184490D01*
X145079576Y-94184820D01*
X145079498Y-94185169D01*
X145079496Y-94185178D01*
X145060241Y-94271974D01*
X145060239Y-94271981D01*
X145060153Y-94272373D01*
X145060120Y-94272769D01*
X145060120Y-94272775D01*
X145051806Y-94375281D01*
X145051804Y-94375305D01*
X145051790Y-94375489D01*
X145051787Y-94375692D01*
X145051787Y-94375703D01*
X145050143Y-94508445D01*
X145046614Y-94516675D01*
X145038444Y-94520000D01*
X144561556Y-94520000D01*
X144553283Y-94516573D01*
X144549857Y-94508445D01*
X144549460Y-94476450D01*
X144548209Y-94375489D01*
X144539845Y-94272373D01*
X144520422Y-94184820D01*
X144485452Y-94086998D01*
X144434869Y-93963837D01*
X144434896Y-93954883D01*
X144441189Y-93948594D01*
X144795500Y-93800875D01*
X144804449Y-93800855D01*
X145158809Y-93948594D01*
G37*
%TD.AperFunction*%
%TD*%
%TA.AperFunction,Conductor*%
%TO.N,+3V3*%
G36*
X134466329Y-87595237D02*
G01*
X134472647Y-87601583D01*
X134472954Y-87602420D01*
X134512942Y-87725481D01*
X134513328Y-87727013D01*
X134532136Y-87830901D01*
X134532160Y-87831023D01*
X134550302Y-87919990D01*
X134592094Y-88009096D01*
X134674985Y-88105723D01*
X134677771Y-88114234D01*
X134674524Y-88121465D01*
X134481060Y-88321947D01*
X134472849Y-88325521D01*
X134465260Y-88322901D01*
X134464087Y-88321947D01*
X134365302Y-88241629D01*
X134275270Y-88199341D01*
X134186670Y-88179414D01*
X134186558Y-88179391D01*
X134083376Y-88158589D01*
X134081988Y-88158220D01*
X133958315Y-88116998D01*
X133951550Y-88111131D01*
X133950915Y-88102198D01*
X133951183Y-88101477D01*
X134096925Y-87747299D01*
X134103242Y-87740954D01*
X134457376Y-87595216D01*
X134466329Y-87595237D01*
G37*
%TD.AperFunction*%
%TD*%
%TA.AperFunction,Conductor*%
%TO.N,Net-(U1-GPIO15)*%
G36*
X148651417Y-97441276D02*
G01*
X148651712Y-97441926D01*
X148799123Y-97795497D01*
X148799144Y-97804451D01*
X148799123Y-97804501D01*
X148651712Y-98158073D01*
X148645365Y-98164391D01*
X148636411Y-98164370D01*
X148635761Y-98164075D01*
X148509861Y-98102321D01*
X148508796Y-98101729D01*
X148413591Y-98042016D01*
X148413418Y-98041915D01*
X148329996Y-97993781D01*
X148329995Y-97993780D01*
X148329994Y-97993780D01*
X148228727Y-97961666D01*
X148228724Y-97961665D01*
X148090785Y-97950845D01*
X148082805Y-97946782D01*
X148080000Y-97939181D01*
X148080000Y-97660817D01*
X148083427Y-97652544D01*
X148090782Y-97649154D01*
X148228727Y-97638333D01*
X148329994Y-97606219D01*
X148413591Y-97557983D01*
X148413788Y-97557862D01*
X148484592Y-97513450D01*
X148508808Y-97498262D01*
X148509849Y-97497683D01*
X148635762Y-97435923D01*
X148644698Y-97435357D01*
X148651417Y-97441276D01*
G37*
%TD.AperFunction*%
%TD*%
%TA.AperFunction,Conductor*%
%TO.N,Net-(U1-EN)*%
G36*
X144963588Y-91435629D02*
G01*
X144964227Y-91435919D01*
X145090141Y-91497679D01*
X145091202Y-91498269D01*
X145186407Y-91557983D01*
X145186580Y-91558084D01*
X145254492Y-91597268D01*
X145270004Y-91606219D01*
X145371272Y-91638333D01*
X145509217Y-91649154D01*
X145517195Y-91653216D01*
X145520000Y-91660817D01*
X145520000Y-91939181D01*
X145516573Y-91947454D01*
X145509215Y-91950845D01*
X145371274Y-91961665D01*
X145270001Y-91993780D01*
X145186407Y-92042016D01*
X145186210Y-92042137D01*
X145091202Y-92101729D01*
X145090137Y-92102321D01*
X144964238Y-92164075D01*
X144955302Y-92164642D01*
X144948582Y-92158723D01*
X144948287Y-92158073D01*
X144925043Y-92102321D01*
X144800875Y-91804499D01*
X144800855Y-91795550D01*
X144948288Y-91441924D01*
X144954634Y-91435608D01*
X144963588Y-91435629D01*
G37*
%TD.AperFunction*%
%TD*%
%TA.AperFunction,Conductor*%
%TO.N,+3V3*%
G36*
X145938155Y-92851401D02*
G01*
X145939867Y-92852348D01*
X146339277Y-93119224D01*
X146344252Y-93126669D01*
X146344454Y-93128219D01*
X146350273Y-93220952D01*
X146356455Y-93310464D01*
X146362636Y-93390977D01*
X146368818Y-93462488D01*
X146374320Y-93518128D01*
X146371724Y-93526698D01*
X146369313Y-93528915D01*
X145983688Y-93794465D01*
X145974930Y-93796335D01*
X145967701Y-93791860D01*
X145656527Y-93377949D01*
X145654296Y-93369278D01*
X145655993Y-93364664D01*
X145707008Y-93284122D01*
X145762345Y-93187756D01*
X145762448Y-93187564D01*
X145817683Y-93082390D01*
X145817775Y-93082205D01*
X145873020Y-92968024D01*
X145873089Y-92967873D01*
X145906921Y-92892446D01*
X145922693Y-92857287D01*
X145929204Y-92851142D01*
X145938155Y-92851401D01*
G37*
%TD.AperFunction*%
%TD*%
%TA.AperFunction,Conductor*%
%TO.N,Net-(U1-GPIO2)*%
G36*
X147986116Y-95407795D02*
G01*
X148066914Y-95479999D01*
X148116695Y-95516144D01*
X148156156Y-95544797D01*
X148156162Y-95544801D01*
X148156435Y-95544999D01*
X148156729Y-95545163D01*
X148156735Y-95545167D01*
X148203492Y-95571282D01*
X148245957Y-95595000D01*
X148335478Y-95630000D01*
X148415853Y-95647956D01*
X148423178Y-95653104D01*
X148425000Y-95659374D01*
X148425000Y-95940624D01*
X148421573Y-95948897D01*
X148415851Y-95952042D01*
X148335481Y-95969997D01*
X148246332Y-96004852D01*
X148246327Y-96004854D01*
X148245957Y-96004999D01*
X148245611Y-96005191D01*
X148245605Y-96005195D01*
X148156735Y-96054831D01*
X148156717Y-96054842D01*
X148156435Y-96055000D01*
X148156174Y-96055189D01*
X148156156Y-96055201D01*
X148067145Y-96119832D01*
X148066914Y-96120000D01*
X148066709Y-96120182D01*
X148066698Y-96120192D01*
X147986166Y-96192159D01*
X147977714Y-96195117D01*
X147969646Y-96191231D01*
X147969602Y-96191182D01*
X147849465Y-96055201D01*
X147630843Y-95807746D01*
X147627934Y-95799278D01*
X147630844Y-95792253D01*
X147969604Y-95408815D01*
X147977648Y-95404886D01*
X147986116Y-95407795D01*
G37*
%TD.AperFunction*%
%TD*%
%TA.AperFunction,Conductor*%
%TO.N,+3V3*%
G36*
X135312561Y-99530963D02*
G01*
X135665128Y-99558000D01*
X135667186Y-99558346D01*
X135921201Y-99624902D01*
X135922240Y-99625227D01*
X136051129Y-99672330D01*
X136140149Y-99704863D01*
X136140152Y-99704864D01*
X136140415Y-99704960D01*
X136395973Y-99771920D01*
X136751340Y-99799171D01*
X136759327Y-99803221D01*
X136762145Y-99810837D01*
X136762145Y-100289697D01*
X136758718Y-100297970D01*
X136751926Y-100301303D01*
X136499062Y-100333565D01*
X136333684Y-100427937D01*
X136213911Y-100573421D01*
X136213902Y-100573432D01*
X136213739Y-100573631D01*
X136213597Y-100573840D01*
X136213588Y-100573853D01*
X136087301Y-100760638D01*
X136086543Y-100761639D01*
X135909247Y-100971335D01*
X135901288Y-100975440D01*
X135892758Y-100972716D01*
X135892046Y-100972061D01*
X135680271Y-100760638D01*
X135302438Y-100383432D01*
X135299005Y-100375165D01*
X135299985Y-99542615D01*
X135303422Y-99534347D01*
X135311699Y-99530930D01*
X135312561Y-99530963D01*
G37*
%TD.AperFunction*%
%TD*%
%TA.AperFunction,Conductor*%
%TO.N,/SENS_esp*%
G36*
X143473979Y-100414271D02*
G01*
X143848560Y-100581706D01*
X144089584Y-100689444D01*
X144095738Y-100695948D01*
X144095490Y-100704900D01*
X144089580Y-100710808D01*
X143473610Y-100985896D01*
X143464659Y-100986141D01*
X143462181Y-100984834D01*
X143400889Y-100942419D01*
X143400658Y-100942259D01*
X143400418Y-100942125D01*
X143400413Y-100942122D01*
X143333988Y-100905086D01*
X143333719Y-100904936D01*
X143266780Y-100876613D01*
X143266453Y-100876518D01*
X143266443Y-100876515D01*
X143200201Y-100857394D01*
X143200202Y-100857394D01*
X143199841Y-100857290D01*
X143199471Y-100857233D01*
X143199467Y-100857232D01*
X143144213Y-100848711D01*
X143136559Y-100844064D01*
X143134396Y-100835622D01*
X143170925Y-100558156D01*
X143175403Y-100550403D01*
X143180643Y-100548137D01*
X143231168Y-100539911D01*
X143290275Y-100521288D01*
X143349382Y-100493664D01*
X143408489Y-100457041D01*
X143462062Y-100415690D01*
X143470702Y-100413349D01*
X143473979Y-100414271D01*
G37*
%TD.AperFunction*%
%TD*%
%TA.AperFunction,Conductor*%
%TO.N,/RST*%
G36*
X146311358Y-85971233D02*
G01*
X146332715Y-85980138D01*
X146339033Y-85986485D01*
X146339012Y-85995439D01*
X146338555Y-85996408D01*
X146270858Y-86124375D01*
X146269784Y-86126044D01*
X146197780Y-86219507D01*
X146135288Y-86300363D01*
X146091501Y-86400348D01*
X146076135Y-86541566D01*
X146071834Y-86549420D01*
X146064504Y-86552000D01*
X145885496Y-86552000D01*
X145877223Y-86548573D01*
X145873865Y-86541566D01*
X145858497Y-86400348D01*
X145814710Y-86300363D01*
X145814710Y-86300362D01*
X145752219Y-86219507D01*
X145752219Y-86219506D01*
X145680212Y-86126042D01*
X145679138Y-86124372D01*
X145611444Y-85996408D01*
X145610604Y-85987493D01*
X145616315Y-85980595D01*
X145617277Y-85980141D01*
X145970500Y-85832875D01*
X145979449Y-85832855D01*
X146311358Y-85971233D01*
G37*
%TD.AperFunction*%
%TD*%
%TA.AperFunction,Conductor*%
%TO.N,+3V3*%
G36*
X145086998Y-93485452D02*
G01*
X145126923Y-93499724D01*
X145184464Y-93520295D01*
X145184467Y-93520296D01*
X145184820Y-93520422D01*
X145272373Y-93539845D01*
X145375489Y-93548209D01*
X145508446Y-93549856D01*
X145516675Y-93553385D01*
X145520000Y-93561555D01*
X145520000Y-94038444D01*
X145516573Y-94046717D01*
X145508445Y-94050143D01*
X145375703Y-94051787D01*
X145375692Y-94051787D01*
X145375489Y-94051790D01*
X145375305Y-94051804D01*
X145375281Y-94051806D01*
X145272775Y-94060120D01*
X145272769Y-94060120D01*
X145272373Y-94060153D01*
X145271981Y-94060239D01*
X145271974Y-94060241D01*
X145185178Y-94079496D01*
X145185169Y-94079498D01*
X145184820Y-94079576D01*
X145184490Y-94079693D01*
X145184476Y-94079698D01*
X145087131Y-94114499D01*
X145087114Y-94114505D01*
X145086998Y-94114547D01*
X145086877Y-94114596D01*
X145086871Y-94114599D01*
X144963838Y-94165130D01*
X144954883Y-94165103D01*
X144948594Y-94158809D01*
X144907499Y-94060241D01*
X144800875Y-93804499D01*
X144800855Y-93795550D01*
X144948594Y-93441189D01*
X144954941Y-93434872D01*
X144963837Y-93434869D01*
X145086998Y-93485452D01*
G37*
%TD.AperFunction*%
%TD*%
%TA.AperFunction,Conductor*%
%TO.N,GND*%
G36*
X148279029Y-86320002D02*
G01*
X148325522Y-86373658D01*
X148335626Y-86443932D01*
X148314604Y-86497576D01*
X148284212Y-86541605D01*
X148227850Y-86690219D01*
X148208693Y-86848000D01*
X148227850Y-87005781D01*
X148262330Y-87096697D01*
X148266293Y-87109021D01*
X148270941Y-87126517D01*
X148280242Y-87145478D01*
X148284922Y-87156264D01*
X148285297Y-87157253D01*
X148289716Y-87164794D01*
X148332694Y-87252414D01*
X148332725Y-87252474D01*
X148333429Y-87253841D01*
X148338863Y-87264216D01*
X148339642Y-87265638D01*
X148339455Y-87265281D01*
X148340294Y-87266722D01*
X148346435Y-87277091D01*
X148347318Y-87278519D01*
X148398395Y-87359910D01*
X148402218Y-87366004D01*
X148404581Y-87369931D01*
X148428496Y-87411377D01*
X148428535Y-87411444D01*
X148439504Y-87436327D01*
X148445582Y-87455493D01*
X148451091Y-87483726D01*
X148458448Y-87577509D01*
X148459422Y-87581242D01*
X148463500Y-87613037D01*
X148463500Y-87897452D01*
X148459688Y-87928210D01*
X148458268Y-87933849D01*
X148453121Y-88036124D01*
X148450511Y-88056061D01*
X148442963Y-88091467D01*
X148436035Y-88113668D01*
X148420241Y-88151568D01*
X148420198Y-88151670D01*
X148416287Y-88160152D01*
X148374605Y-88242408D01*
X148372115Y-88247452D01*
X148371802Y-88248106D01*
X148369728Y-88252547D01*
X148321822Y-88357714D01*
X148315131Y-88372404D01*
X148312177Y-88378888D01*
X148311664Y-88380057D01*
X148310468Y-88382869D01*
X148307766Y-88396287D01*
X148302058Y-88416091D01*
X148274514Y-88488718D01*
X148255357Y-88646500D01*
X148274514Y-88804281D01*
X148330876Y-88952895D01*
X148367805Y-89006395D01*
X148421166Y-89083702D01*
X148540135Y-89189100D01*
X148680871Y-89262964D01*
X148835193Y-89301001D01*
X148835195Y-89301001D01*
X148994133Y-89301001D01*
X148994135Y-89301001D01*
X149148457Y-89262964D01*
X149289193Y-89189100D01*
X149408162Y-89083702D01*
X149498451Y-88952896D01*
X149554813Y-88804283D01*
X149573971Y-88646501D01*
X149567674Y-88594644D01*
X149554813Y-88488720D01*
X149554812Y-88488718D01*
X149513939Y-88380946D01*
X149511051Y-88372423D01*
X149507510Y-88360594D01*
X149506658Y-88358987D01*
X149500184Y-88344676D01*
X149498451Y-88340107D01*
X149498451Y-88340106D01*
X149494908Y-88334973D01*
X149487272Y-88322399D01*
X149440898Y-88234874D01*
X149429683Y-88215733D01*
X149428599Y-88214052D01*
X149415762Y-88195901D01*
X149344310Y-88103543D01*
X149311752Y-88061660D01*
X149295882Y-88035028D01*
X149295722Y-88034665D01*
X149285825Y-87997686D01*
X149282270Y-87965205D01*
X149277100Y-87917973D01*
X149277099Y-87917970D01*
X149276656Y-87913920D01*
X149272500Y-87884226D01*
X149272500Y-87612844D01*
X149277220Y-87578679D01*
X149277551Y-87577506D01*
X149284906Y-87483725D01*
X149290412Y-87455499D01*
X149296494Y-87436322D01*
X149307458Y-87411451D01*
X149331265Y-87370193D01*
X149333582Y-87366341D01*
X149389566Y-87277085D01*
X149389604Y-87277019D01*
X149390425Y-87275653D01*
X149396543Y-87265281D01*
X149397357Y-87263838D01*
X149397135Y-87264216D01*
X149397901Y-87262774D01*
X149403303Y-87252416D01*
X149404028Y-87250962D01*
X149446257Y-87164842D01*
X149450693Y-87157275D01*
X149451069Y-87156286D01*
X149455763Y-87145464D01*
X149465059Y-87126514D01*
X149466019Y-87124478D01*
X149468377Y-87119483D01*
X149468672Y-87118833D01*
X149471883Y-87111456D01*
X149474155Y-87100172D01*
X149479866Y-87080355D01*
X149504819Y-87014562D01*
X149508149Y-87005782D01*
X149527307Y-86848000D01*
X149508149Y-86690218D01*
X149451787Y-86541605D01*
X149421396Y-86497576D01*
X149399160Y-86430151D01*
X149416907Y-86361409D01*
X149469002Y-86313173D01*
X149525092Y-86300000D01*
X155586894Y-86300000D01*
X155655015Y-86320002D01*
X155701508Y-86373658D01*
X155711343Y-86406291D01*
X155714354Y-86425304D01*
X155771951Y-86538344D01*
X155861655Y-86628048D01*
X155861657Y-86628049D01*
X155861658Y-86628050D01*
X155974696Y-86685646D01*
X156078274Y-86702051D01*
X156099999Y-86705492D01*
X156099999Y-86705491D01*
X156100000Y-86705492D01*
X156121726Y-86702050D01*
X156141437Y-86700500D01*
X164773500Y-86700500D01*
X164841621Y-86720502D01*
X164888114Y-86774158D01*
X164899500Y-86826500D01*
X164899500Y-96086062D01*
X164879498Y-96154183D01*
X164825842Y-96200676D01*
X164755568Y-96210780D01*
X164690988Y-96181286D01*
X164687828Y-96178454D01*
X162849827Y-94474127D01*
X162813476Y-94413142D01*
X162809499Y-94381735D01*
X162809499Y-92094500D01*
X162809500Y-89627646D01*
X162803206Y-89570839D01*
X162791130Y-89517013D01*
X162783061Y-89488683D01*
X162731820Y-89401354D01*
X162697357Y-89362609D01*
X162686503Y-89350406D01*
X162686501Y-89350404D01*
X162684635Y-89348306D01*
X162682591Y-89346384D01*
X162682584Y-89346377D01*
X162650928Y-89316615D01*
X162560608Y-89270854D01*
X162492237Y-89251740D01*
X162462939Y-89247915D01*
X162418996Y-89242179D01*
X162418993Y-89242179D01*
X158824267Y-89288863D01*
X158824258Y-89288863D01*
X158820989Y-89288906D01*
X158817752Y-89289285D01*
X158817735Y-89289287D01*
X158770796Y-89294797D01*
X158770793Y-89294797D01*
X158767551Y-89295178D01*
X158764382Y-89295888D01*
X158764364Y-89295892D01*
X158718402Y-89306204D01*
X158718372Y-89306211D01*
X158716850Y-89306553D01*
X158715325Y-89306976D01*
X158715324Y-89306977D01*
X158691706Y-89313539D01*
X158603724Y-89363639D01*
X158556286Y-89404745D01*
X158550066Y-89410135D01*
X158548125Y-89412145D01*
X158548116Y-89412155D01*
X158517942Y-89443425D01*
X158471012Y-89533142D01*
X158454494Y-89589401D01*
X158451011Y-89601264D01*
X158440500Y-89674373D01*
X158440500Y-94069500D01*
X158440859Y-94072841D01*
X158440860Y-94072856D01*
X158441120Y-94075272D01*
X158441019Y-94075827D01*
X158441041Y-94076223D01*
X158441012Y-94075867D01*
X158428509Y-94145139D01*
X158380126Y-94197097D01*
X158357341Y-94205827D01*
X158266515Y-94266516D01*
X158265287Y-94268355D01*
X158245266Y-94290386D01*
X158090476Y-94478018D01*
X158083161Y-94486139D01*
X157939128Y-94632741D01*
X157929348Y-94641700D01*
X157793999Y-94753164D01*
X157781003Y-94762546D01*
X157656552Y-94840852D01*
X157639701Y-94849752D01*
X157558551Y-94885045D01*
X157508299Y-94895500D01*
X157209771Y-94895500D01*
X157197417Y-94894893D01*
X157181201Y-94893295D01*
X157128314Y-94888083D01*
X157104094Y-94883264D01*
X157043599Y-94864912D01*
X157020779Y-94855459D01*
X156965032Y-94825660D01*
X156944496Y-94811938D01*
X156890845Y-94767907D01*
X156881684Y-94759603D01*
X156816027Y-94693946D01*
X156655815Y-94577549D01*
X156479372Y-94487652D01*
X156479371Y-94487651D01*
X156479368Y-94487650D01*
X156377329Y-94454500D01*
X156291027Y-94426462D01*
X156095432Y-94395493D01*
X155996420Y-94395500D01*
X153064850Y-94395500D01*
X153030683Y-94390779D01*
X153029511Y-94390449D01*
X153029510Y-94390448D01*
X153029507Y-94390448D01*
X152935726Y-94383091D01*
X152907491Y-94377582D01*
X152888329Y-94371505D01*
X152863448Y-94360536D01*
X152854613Y-94355438D01*
X152822239Y-94336758D01*
X152818279Y-94334375D01*
X152810278Y-94329357D01*
X152729087Y-94278433D01*
X152727650Y-94277570D01*
X152717317Y-94271476D01*
X152715900Y-94270676D01*
X152716256Y-94270886D01*
X152714802Y-94270113D01*
X152704418Y-94264696D01*
X152702967Y-94263973D01*
X152578504Y-94202936D01*
X152571470Y-94199616D01*
X152570831Y-94199326D01*
X152563456Y-94196116D01*
X152563415Y-94196107D01*
X152551102Y-94190739D01*
X152551217Y-94190474D01*
X152538232Y-94185866D01*
X152533794Y-94183536D01*
X152404947Y-94151779D01*
X152379471Y-94145500D01*
X152220529Y-94145500D01*
X152066207Y-94183537D01*
X152066206Y-94183537D01*
X152066204Y-94183538D01*
X151925472Y-94257400D01*
X151806501Y-94362799D01*
X151716212Y-94493605D01*
X151659850Y-94642219D01*
X151640693Y-94799999D01*
X151659850Y-94957780D01*
X151716212Y-95106394D01*
X151800491Y-95228492D01*
X151806502Y-95237201D01*
X151925471Y-95342599D01*
X152066207Y-95416463D01*
X152220529Y-95454500D01*
X152220531Y-95454500D01*
X152379469Y-95454500D01*
X152379471Y-95454500D01*
X152533793Y-95416463D01*
X152550294Y-95407801D01*
X152576498Y-95397593D01*
X152578517Y-95397057D01*
X152704416Y-95335303D01*
X152705859Y-95334560D01*
X152716216Y-95329135D01*
X152717622Y-95328365D01*
X152717281Y-95328543D01*
X152718739Y-95327695D01*
X152729089Y-95321564D01*
X152730500Y-95320691D01*
X152816154Y-95266940D01*
X152817966Y-95265803D01*
X152821916Y-95263424D01*
X152863449Y-95239460D01*
X152888329Y-95228492D01*
X152907495Y-95222414D01*
X152935725Y-95216906D01*
X153029508Y-95209550D01*
X153033243Y-95208576D01*
X153065033Y-95204500D01*
X155920652Y-95204500D01*
X155920688Y-95204504D01*
X155938309Y-95204502D01*
X155938313Y-95204504D01*
X155990288Y-95204500D01*
X156002624Y-95205105D01*
X156071722Y-95211907D01*
X156095948Y-95216725D01*
X156140888Y-95230355D01*
X156156436Y-95235071D01*
X156179249Y-95244519D01*
X156235003Y-95274318D01*
X156255536Y-95288037D01*
X156304677Y-95328365D01*
X156309032Y-95331939D01*
X156318184Y-95340234D01*
X156355099Y-95377149D01*
X156368038Y-95390088D01*
X156368146Y-95390168D01*
X156379204Y-95401226D01*
X156384000Y-95406022D01*
X156544191Y-95522410D01*
X156544194Y-95522412D01*
X156720625Y-95612313D01*
X156908947Y-95673510D01*
X157016131Y-95690491D01*
X157080283Y-95720906D01*
X157117807Y-95781176D01*
X157116790Y-95852166D01*
X157088881Y-95900531D01*
X156144036Y-96921262D01*
X156144010Y-96921291D01*
X156143093Y-96922282D01*
X156142216Y-96923316D01*
X156142194Y-96923342D01*
X156129266Y-96938602D01*
X156129250Y-96938621D01*
X156128367Y-96939664D01*
X156127525Y-96940750D01*
X156127517Y-96940761D01*
X156114838Y-96957131D01*
X156071011Y-97042920D01*
X156051012Y-97111033D01*
X156051010Y-97111040D01*
X156051011Y-97111040D01*
X156040589Y-97183536D01*
X156040500Y-97184152D01*
X156040500Y-105773500D01*
X156020498Y-105841621D01*
X155966842Y-105888114D01*
X155914500Y-105899500D01*
X133826500Y-105899500D01*
X133758379Y-105879498D01*
X133711886Y-105825842D01*
X133700500Y-105773500D01*
X133700500Y-102665999D01*
X134224450Y-102665999D01*
X134224451Y-102666000D01*
X134868884Y-102666000D01*
X134840507Y-102710156D01*
X134800000Y-102848111D01*
X134800000Y-102991889D01*
X134840507Y-103129844D01*
X134868884Y-103174000D01*
X134224451Y-103174000D01*
X134266140Y-103320522D01*
X134357337Y-103503669D01*
X134480638Y-103666945D01*
X134631844Y-103804788D01*
X134805795Y-103912493D01*
X134996580Y-103986404D01*
X135045999Y-103995642D01*
X135046000Y-103995642D01*
X135046000Y-103353674D01*
X135157685Y-103404680D01*
X135264237Y-103420000D01*
X135335763Y-103420000D01*
X135442315Y-103404680D01*
X135554000Y-103353674D01*
X135554000Y-103995642D01*
X135603419Y-103986404D01*
X135794204Y-103912493D01*
X135968155Y-103804788D01*
X135977795Y-103796000D01*
X138196000Y-103796000D01*
X138868884Y-103796000D01*
X138840507Y-103840156D01*
X138800000Y-103978111D01*
X138800000Y-104121889D01*
X138840507Y-104259844D01*
X138868884Y-104304000D01*
X138196001Y-104304000D01*
X138196001Y-104925018D01*
X138210736Y-104999105D01*
X138266876Y-105083124D01*
X138350893Y-105139263D01*
X138424981Y-105153999D01*
X139046000Y-105153999D01*
X139046000Y-104483674D01*
X139157685Y-104534680D01*
X139264237Y-104550000D01*
X139335763Y-104550000D01*
X139442315Y-104534680D01*
X139554000Y-104483674D01*
X139554000Y-105153999D01*
X140175018Y-105153999D01*
X140249105Y-105139263D01*
X140333124Y-105083123D01*
X140389263Y-104999106D01*
X140404000Y-104925018D01*
X140404000Y-104304000D01*
X139731116Y-104304000D01*
X139759493Y-104259844D01*
X139800000Y-104121889D01*
X139800000Y-103978111D01*
X139759493Y-103840156D01*
X139731116Y-103796000D01*
X140403999Y-103796000D01*
X140403999Y-103174981D01*
X140389263Y-103100894D01*
X140333123Y-103016875D01*
X140249106Y-102960736D01*
X140175019Y-102946000D01*
X139554000Y-102946000D01*
X139554000Y-103616325D01*
X139442315Y-103565320D01*
X139335763Y-103550000D01*
X139264237Y-103550000D01*
X139157685Y-103565320D01*
X139046000Y-103616325D01*
X139046000Y-102946000D01*
X138424981Y-102946000D01*
X138350894Y-102960736D01*
X138266875Y-103016876D01*
X138210736Y-103100893D01*
X138196000Y-103174981D01*
X138196000Y-103796000D01*
X135977795Y-103796000D01*
X136119361Y-103666945D01*
X136242662Y-103503669D01*
X136333859Y-103320522D01*
X136375549Y-103174000D01*
X135731116Y-103174000D01*
X135759493Y-103129844D01*
X135800000Y-102991889D01*
X135800000Y-102848111D01*
X135759493Y-102710156D01*
X135731116Y-102666000D01*
X136375549Y-102666000D01*
X136375549Y-102665999D01*
X136333859Y-102519477D01*
X136242662Y-102336330D01*
X136119361Y-102173054D01*
X135968155Y-102035211D01*
X135794204Y-101927506D01*
X135603422Y-101853596D01*
X135554000Y-101844357D01*
X135554000Y-102486325D01*
X135442315Y-102435320D01*
X135335763Y-102420000D01*
X135264237Y-102420000D01*
X135157685Y-102435320D01*
X135046000Y-102486325D01*
X135046000Y-101844357D01*
X134996577Y-101853596D01*
X134805795Y-101927506D01*
X134631844Y-102035211D01*
X134480638Y-102173054D01*
X134357337Y-102336330D01*
X134266140Y-102519477D01*
X134224450Y-102665999D01*
X133700500Y-102665999D01*
X133700500Y-101829000D01*
X137571000Y-101829000D01*
X137571000Y-101842452D01*
X137571359Y-101849168D01*
X137577133Y-101902865D01*
X137625268Y-102031922D01*
X137707812Y-102142187D01*
X137818077Y-102224731D01*
X137947134Y-102272866D01*
X138000831Y-102278640D01*
X138007547Y-102279000D01*
X138046000Y-102279000D01*
X138046000Y-101829000D01*
X138554000Y-101829000D01*
X138554000Y-102279000D01*
X138592453Y-102279000D01*
X138599168Y-102278640D01*
X138652865Y-102272866D01*
X138781922Y-102224731D01*
X138892187Y-102142187D01*
X138974731Y-102031922D01*
X139022866Y-101902865D01*
X139028640Y-101849168D01*
X139029000Y-101842452D01*
X139029000Y-101829000D01*
X138554000Y-101829000D01*
X138046000Y-101829000D01*
X137571000Y-101829000D01*
X133700500Y-101829000D01*
X133700500Y-100379999D01*
X134190767Y-100379999D01*
X134209654Y-100583819D01*
X134265672Y-100780702D01*
X134356910Y-100963933D01*
X134390046Y-101007812D01*
X134480268Y-101127285D01*
X134631538Y-101265186D01*
X134711233Y-101314531D01*
X134805569Y-101372942D01*
X134805573Y-101372944D01*
X134996444Y-101446888D01*
X135197653Y-101484500D01*
X135197655Y-101484500D01*
X135402345Y-101484500D01*
X135402347Y-101484500D01*
X135603556Y-101446888D01*
X135794427Y-101372944D01*
X135794428Y-101372942D01*
X135794431Y-101372942D01*
X135968462Y-101265186D01*
X136101149Y-101144225D01*
X136107564Y-101138757D01*
X136109794Y-101136981D01*
X136114823Y-101131760D01*
X136119730Y-101127287D01*
X136119732Y-101127285D01*
X136138699Y-101102167D01*
X136143001Y-101096783D01*
X136284707Y-100929184D01*
X136285767Y-100927878D01*
X136293422Y-100918296D01*
X136294464Y-100916940D01*
X136294180Y-100917295D01*
X136295174Y-100915926D01*
X136302276Y-100905986D01*
X136303217Y-100904614D01*
X136417996Y-100734830D01*
X136418538Y-100734028D01*
X136425616Y-100724553D01*
X136489003Y-100647558D01*
X136523824Y-100618212D01*
X136561260Y-100596849D01*
X136607758Y-100581299D01*
X136784768Y-100558716D01*
X136784769Y-100558715D01*
X136795081Y-100557400D01*
X136795126Y-100557757D01*
X136817315Y-100554500D01*
X137333400Y-100554500D01*
X137365859Y-100558752D01*
X137369296Y-100559669D01*
X137456775Y-100565294D01*
X137469340Y-100566738D01*
X137549514Y-100580063D01*
X137561471Y-100582653D01*
X137643932Y-100604759D01*
X137655025Y-100608290D01*
X137740420Y-100639883D01*
X137750461Y-100644100D01*
X137842801Y-100687672D01*
X137895871Y-100734830D01*
X137915021Y-100803195D01*
X137894170Y-100871061D01*
X137839939Y-100916880D01*
X137833066Y-100919677D01*
X137818078Y-100925267D01*
X137707812Y-101007812D01*
X137625268Y-101118077D01*
X137577133Y-101247134D01*
X137571359Y-101300831D01*
X137571000Y-101307547D01*
X137571000Y-101321000D01*
X138853306Y-101321000D01*
X138910685Y-101337848D01*
X138911924Y-101335489D01*
X138925470Y-101342598D01*
X138925471Y-101342599D01*
X139066207Y-101416463D01*
X139220529Y-101454500D01*
X139220531Y-101454500D01*
X139379469Y-101454500D01*
X139379471Y-101454500D01*
X139533793Y-101416463D01*
X139674529Y-101342599D01*
X139793498Y-101237201D01*
X139883787Y-101106395D01*
X139940149Y-100957782D01*
X139959307Y-100800000D01*
X139940149Y-100642218D01*
X139918090Y-100584054D01*
X139911330Y-100558281D01*
X139909804Y-100548218D01*
X139854161Y-100394298D01*
X139851689Y-100386711D01*
X139816997Y-100267395D01*
X139814482Y-100259247D01*
X139814250Y-100258537D01*
X139811630Y-100250920D01*
X139811629Y-100250918D01*
X139811567Y-100250736D01*
X139772998Y-100144049D01*
X139772995Y-100144042D01*
X139772448Y-100142528D01*
X139762276Y-100118303D01*
X139761250Y-100116169D01*
X139748673Y-100093082D01*
X139681780Y-99983858D01*
X139678682Y-99979299D01*
X139668821Y-99964788D01*
X139668810Y-99964773D01*
X139667971Y-99963538D01*
X139666643Y-99961770D01*
X139650988Y-99942860D01*
X139536778Y-99817493D01*
X139536198Y-99816876D01*
X139531343Y-99811710D01*
X139531336Y-99811703D01*
X139531290Y-99811654D01*
X139530787Y-99811135D01*
X139525135Y-99805480D01*
X139525103Y-99805459D01*
X139525102Y-99805458D01*
X139518869Y-99801429D01*
X139498183Y-99784713D01*
X139472270Y-99758800D01*
X139472269Y-99758799D01*
X139465111Y-99751641D01*
X139341014Y-99661477D01*
X139341013Y-99661476D01*
X139341011Y-99661475D01*
X139204430Y-99591877D01*
X139058643Y-99544498D01*
X139058640Y-99544497D01*
X138994619Y-99534352D01*
X138930469Y-99503934D01*
X138913472Y-99485413D01*
X138892543Y-99457454D01*
X138782163Y-99374825D01*
X138741270Y-99359573D01*
X138652973Y-99326640D01*
X138646158Y-99325907D01*
X138599210Y-99320859D01*
X138599196Y-99320858D01*
X138595864Y-99320500D01*
X138004136Y-99320500D01*
X138000804Y-99320858D01*
X138000789Y-99320859D01*
X137947023Y-99326640D01*
X137839891Y-99366597D01*
X137834515Y-99368465D01*
X137824807Y-99371593D01*
X137817882Y-99374790D01*
X137816231Y-99376026D01*
X137802023Y-99385238D01*
X137733552Y-99423360D01*
X137724431Y-99427965D01*
X137636256Y-99468074D01*
X137626025Y-99472197D01*
X137541149Y-99502157D01*
X137529896Y-99505548D01*
X137447892Y-99526140D01*
X137435801Y-99528554D01*
X137367180Y-99538793D01*
X137346672Y-99541854D01*
X137346671Y-99541854D01*
X137336721Y-99543339D01*
X137336560Y-99542261D01*
X137315666Y-99545500D01*
X136806592Y-99545500D01*
X136772636Y-99540838D01*
X136771182Y-99540431D01*
X136450449Y-99515835D01*
X136428148Y-99512090D01*
X136366734Y-99495999D01*
X136223757Y-99458537D01*
X136212444Y-99454996D01*
X136011315Y-99381493D01*
X136009922Y-99381012D01*
X135999710Y-99377561D01*
X135998298Y-99377110D01*
X135998671Y-99377236D01*
X135997240Y-99376816D01*
X135986974Y-99373876D01*
X135985541Y-99373491D01*
X135734321Y-99307676D01*
X135734284Y-99307667D01*
X135732959Y-99307320D01*
X135731596Y-99307027D01*
X135731573Y-99307022D01*
X135711582Y-99302732D01*
X135711563Y-99302728D01*
X135710210Y-99302438D01*
X135708152Y-99302092D01*
X135706722Y-99301917D01*
X135706720Y-99301917D01*
X135686367Y-99299430D01*
X135686338Y-99299427D01*
X135684970Y-99299260D01*
X135683580Y-99299153D01*
X135683566Y-99299152D01*
X135428083Y-99279560D01*
X135414566Y-99277784D01*
X135402347Y-99275500D01*
X135379958Y-99275500D01*
X135370324Y-99275131D01*
X135332403Y-99272223D01*
X135322583Y-99271658D01*
X135322570Y-99271657D01*
X135322488Y-99271653D01*
X135321626Y-99271620D01*
X135312005Y-99271430D01*
X135311958Y-99271439D01*
X135311954Y-99271439D01*
X135303517Y-99273108D01*
X135279081Y-99275500D01*
X135197653Y-99275500D01*
X134996444Y-99313111D01*
X134996444Y-99313112D01*
X134805571Y-99387056D01*
X134631539Y-99494813D01*
X134480267Y-99632716D01*
X134356910Y-99796066D01*
X134265672Y-99979297D01*
X134209654Y-100176180D01*
X134190767Y-100379999D01*
X133700500Y-100379999D01*
X133700500Y-97839999D01*
X134190767Y-97839999D01*
X134209654Y-98043819D01*
X134265672Y-98240702D01*
X134356910Y-98423933D01*
X134400284Y-98481369D01*
X134480268Y-98587285D01*
X134631538Y-98725186D01*
X134805573Y-98832944D01*
X134996444Y-98906888D01*
X135197653Y-98944500D01*
X135197655Y-98944500D01*
X135402345Y-98944500D01*
X135402347Y-98944500D01*
X135603556Y-98906888D01*
X135794427Y-98832944D01*
X135968462Y-98725186D01*
X136119732Y-98587285D01*
X136243088Y-98423935D01*
X136334328Y-98240701D01*
X136390345Y-98043821D01*
X136409232Y-97840000D01*
X136405525Y-97800000D01*
X140640693Y-97800000D01*
X140659850Y-97957781D01*
X140694330Y-98048697D01*
X140698293Y-98061021D01*
X140702941Y-98078517D01*
X140712242Y-98097478D01*
X140716922Y-98108264D01*
X140717297Y-98109253D01*
X140721716Y-98116794D01*
X140764694Y-98204414D01*
X140764725Y-98204474D01*
X140765429Y-98205841D01*
X140770863Y-98216216D01*
X140771642Y-98217638D01*
X140771455Y-98217281D01*
X140772294Y-98218722D01*
X140778435Y-98229091D01*
X140779318Y-98230519D01*
X140830207Y-98311610D01*
X140834218Y-98318004D01*
X140836581Y-98321931D01*
X140860496Y-98363377D01*
X140860535Y-98363444D01*
X140871504Y-98388327D01*
X140877582Y-98407493D01*
X140883091Y-98435726D01*
X140890448Y-98529509D01*
X140891422Y-98533242D01*
X140895500Y-98565037D01*
X140895500Y-98692802D01*
X140895510Y-98692945D01*
X140895510Y-98785687D01*
X140895510Y-98789225D01*
X140895904Y-98792724D01*
X140895905Y-98792738D01*
X140913003Y-98944500D01*
X140926355Y-99063011D01*
X140927139Y-99066448D01*
X140927140Y-99066451D01*
X140982195Y-99307676D01*
X140987661Y-99331623D01*
X140988822Y-99334943D01*
X140988825Y-99334951D01*
X141077493Y-99588356D01*
X141077496Y-99588364D01*
X141078657Y-99591681D01*
X141080187Y-99594858D01*
X141196662Y-99836725D01*
X141196668Y-99836736D01*
X141198199Y-99839915D01*
X141200076Y-99842903D01*
X141200082Y-99842913D01*
X141314221Y-100024564D01*
X141344783Y-100073204D01*
X141346993Y-100075976D01*
X141346995Y-100075978D01*
X141359550Y-100091722D01*
X141516565Y-100288614D01*
X141519061Y-100291110D01*
X141519062Y-100291111D01*
X141584086Y-100356134D01*
X141584102Y-100356153D01*
X141695656Y-100467707D01*
X141695709Y-100467752D01*
X141756330Y-100528373D01*
X141759088Y-100530572D01*
X141759092Y-100530576D01*
X141842196Y-100596850D01*
X141956150Y-100687726D01*
X142172556Y-100823704D01*
X142402826Y-100934597D01*
X142590929Y-101000418D01*
X142648621Y-101041796D01*
X142674783Y-101107797D01*
X142661110Y-101177464D01*
X142611942Y-101228680D01*
X142581927Y-101241053D01*
X142445212Y-101277687D01*
X142441234Y-101278753D01*
X142437448Y-101280321D01*
X142437431Y-101280327D01*
X142247481Y-101359009D01*
X142247478Y-101359010D01*
X142243684Y-101360582D01*
X142240128Y-101362634D01*
X142240120Y-101362639D01*
X142062075Y-101465434D01*
X142062065Y-101465440D01*
X142058505Y-101467496D01*
X142055236Y-101470003D01*
X142055232Y-101470007D01*
X141892140Y-101595152D01*
X141892130Y-101595159D01*
X141888865Y-101597666D01*
X141885954Y-101600576D01*
X141885947Y-101600583D01*
X141813265Y-101673265D01*
X141757490Y-101729039D01*
X141757475Y-101729057D01*
X141740587Y-101745946D01*
X141740580Y-101745953D01*
X141737668Y-101748866D01*
X141735159Y-101752135D01*
X141735157Y-101752138D01*
X141610009Y-101915234D01*
X141610004Y-101915240D01*
X141607499Y-101918506D01*
X141605441Y-101922070D01*
X141605434Y-101922081D01*
X141502642Y-102100121D01*
X141502637Y-102100129D01*
X141500585Y-102103685D01*
X141499013Y-102107479D01*
X141499012Y-102107482D01*
X141420330Y-102297432D01*
X141420324Y-102297449D01*
X141418756Y-102301235D01*
X141417690Y-102305212D01*
X141417690Y-102305213D01*
X141400141Y-102370704D01*
X141386107Y-102403534D01*
X141383653Y-102407570D01*
X141383651Y-102407574D01*
X141383651Y-102407575D01*
X141377065Y-102425624D01*
X141277707Y-102697930D01*
X141273203Y-102708695D01*
X141183720Y-102897534D01*
X141179656Y-102905387D01*
X141081523Y-103079717D01*
X140966698Y-103292139D01*
X140962539Y-103300167D01*
X140962538Y-103300170D01*
X140962499Y-103300246D01*
X140962139Y-103300972D01*
X140958317Y-103309024D01*
X140958210Y-103309250D01*
X140821436Y-103610883D01*
X140820905Y-103612103D01*
X140815489Y-103624902D01*
X140810365Y-103639873D01*
X140805671Y-103649298D01*
X140749654Y-103846180D01*
X140730767Y-104049999D01*
X140749654Y-104253819D01*
X140805672Y-104450702D01*
X140896910Y-104633933D01*
X140896912Y-104633935D01*
X141020268Y-104797285D01*
X141171538Y-104935186D01*
X141274771Y-104999105D01*
X141344844Y-105042493D01*
X141345573Y-105042944D01*
X141536444Y-105116888D01*
X141737653Y-105154500D01*
X141737655Y-105154500D01*
X141942345Y-105154500D01*
X141942347Y-105154500D01*
X142143556Y-105116888D01*
X142334427Y-105042944D01*
X142508462Y-104935186D01*
X142659732Y-104797285D01*
X142783088Y-104633935D01*
X142874328Y-104450701D01*
X142930345Y-104253821D01*
X142949232Y-104050000D01*
X142930345Y-103846179D01*
X142874328Y-103649299D01*
X142848975Y-103598384D01*
X142842855Y-103583885D01*
X142841913Y-103581196D01*
X142834639Y-103568875D01*
X142830358Y-103560996D01*
X142783088Y-103466065D01*
X142745464Y-103416243D01*
X142737513Y-103404370D01*
X142690258Y-103324332D01*
X142689365Y-103322819D01*
X142673314Y-103298796D01*
X142671750Y-103296716D01*
X142653115Y-103274612D01*
X142480291Y-103091403D01*
X142382056Y-102985414D01*
X142357401Y-102946359D01*
X142353430Y-102936381D01*
X142344500Y-102889790D01*
X142344500Y-102832879D01*
X142345105Y-102820549D01*
X142348700Y-102784047D01*
X142349323Y-102778856D01*
X142361232Y-102694692D01*
X142365409Y-102675792D01*
X142388262Y-102600459D01*
X142397713Y-102577647D01*
X142420206Y-102535566D01*
X142443512Y-102491962D01*
X142457228Y-102471435D01*
X142518875Y-102396318D01*
X142536340Y-102378854D01*
X142573983Y-102347961D01*
X142611428Y-102317230D01*
X142631963Y-102303510D01*
X142717648Y-102257709D01*
X142740461Y-102248258D01*
X142833437Y-102220054D01*
X142857656Y-102215236D01*
X142948426Y-102206296D01*
X142960502Y-102205107D01*
X142972852Y-102204500D01*
X143980592Y-102204500D01*
X144048713Y-102224502D01*
X144095206Y-102278158D01*
X144105310Y-102348432D01*
X144092857Y-102387706D01*
X144085605Y-102401938D01*
X144065438Y-102430720D01*
X144062364Y-102434012D01*
X143896989Y-102700855D01*
X143892854Y-102707104D01*
X143808956Y-102826053D01*
X143760578Y-102894643D01*
X143641495Y-103064049D01*
X143641416Y-103064166D01*
X143640726Y-103065182D01*
X143635261Y-103073338D01*
X143634511Y-103074494D01*
X143634725Y-103074175D01*
X143634010Y-103075333D01*
X143628828Y-103083841D01*
X143628135Y-103085021D01*
X143509788Y-103288910D01*
X143509020Y-103290290D01*
X143503619Y-103300170D01*
X143502909Y-103301526D01*
X143503107Y-103301162D01*
X143502433Y-103302528D01*
X143497633Y-103312428D01*
X143496995Y-103313803D01*
X143363635Y-103606001D01*
X143361327Y-103611203D01*
X143361036Y-103611881D01*
X143355412Y-103625172D01*
X143350414Y-103639775D01*
X143345672Y-103649298D01*
X143289654Y-103846181D01*
X143270767Y-104050000D01*
X143289654Y-104253819D01*
X143345672Y-104450702D01*
X143436910Y-104633933D01*
X143436912Y-104633935D01*
X143560268Y-104797285D01*
X143711538Y-104935186D01*
X143814771Y-104999105D01*
X143884844Y-105042493D01*
X143885573Y-105042944D01*
X144076444Y-105116888D01*
X144277653Y-105154500D01*
X144277655Y-105154500D01*
X144482345Y-105154500D01*
X144482347Y-105154500D01*
X144683556Y-105116888D01*
X144874427Y-105042944D01*
X145048462Y-104935186D01*
X145199732Y-104797285D01*
X145323088Y-104633935D01*
X145414328Y-104450701D01*
X145470345Y-104253821D01*
X145489232Y-104050000D01*
X145470345Y-103846179D01*
X145414328Y-103649299D01*
X145402168Y-103624878D01*
X145323089Y-103466066D01*
X145276498Y-103404370D01*
X145199732Y-103302715D01*
X145048462Y-103164814D01*
X145018638Y-103146347D01*
X145001624Y-103135812D01*
X144988596Y-103126552D01*
X144925466Y-103075359D01*
X144924404Y-103074525D01*
X144922234Y-103072849D01*
X144922234Y-103072848D01*
X144833985Y-103005407D01*
X144792011Y-102948155D01*
X144784500Y-102905301D01*
X144784500Y-102854552D01*
X144785577Y-102838112D01*
X144787080Y-102826694D01*
X144787165Y-102826046D01*
X144795688Y-102794251D01*
X144797164Y-102790690D01*
X144813580Y-102762259D01*
X144815951Y-102759169D01*
X144839222Y-102735897D01*
X144842243Y-102733579D01*
X144870699Y-102717150D01*
X144874256Y-102715676D01*
X144906036Y-102707157D01*
X144918045Y-102705576D01*
X144934474Y-102704500D01*
X146747133Y-102704500D01*
X146815254Y-102724502D01*
X146861747Y-102778158D01*
X146871851Y-102848432D01*
X146842357Y-102913012D01*
X146782631Y-102951396D01*
X146770294Y-102954352D01*
X146616444Y-102983112D01*
X146425571Y-103057056D01*
X146251539Y-103164813D01*
X146241461Y-103174000D01*
X146131096Y-103274612D01*
X146100267Y-103302716D01*
X145976910Y-103466066D01*
X145885672Y-103649297D01*
X145829654Y-103846180D01*
X145810767Y-104049999D01*
X145829654Y-104253819D01*
X145885672Y-104450702D01*
X145976910Y-104633933D01*
X145976912Y-104633935D01*
X146100268Y-104797285D01*
X146251538Y-104935186D01*
X146354771Y-104999105D01*
X146424844Y-105042493D01*
X146425573Y-105042944D01*
X146616444Y-105116888D01*
X146817653Y-105154500D01*
X146817655Y-105154500D01*
X147022345Y-105154500D01*
X147022347Y-105154500D01*
X147223556Y-105116888D01*
X147414427Y-105042944D01*
X147588462Y-104935186D01*
X147739732Y-104797285D01*
X147863088Y-104633935D01*
X147954328Y-104450701D01*
X148010345Y-104253821D01*
X148029232Y-104050000D01*
X148350767Y-104050000D01*
X148369654Y-104253819D01*
X148425672Y-104450702D01*
X148516910Y-104633933D01*
X148516912Y-104633935D01*
X148640268Y-104797285D01*
X148791538Y-104935186D01*
X148894771Y-104999105D01*
X148964844Y-105042493D01*
X148965573Y-105042944D01*
X149156444Y-105116888D01*
X149357653Y-105154500D01*
X149357655Y-105154500D01*
X149562345Y-105154500D01*
X149562347Y-105154500D01*
X149763556Y-105116888D01*
X149954427Y-105042944D01*
X150128462Y-104935186D01*
X150279732Y-104797285D01*
X150403088Y-104633935D01*
X150494328Y-104450701D01*
X150550345Y-104253821D01*
X150569232Y-104050000D01*
X150890767Y-104050000D01*
X150909654Y-104253819D01*
X150965672Y-104450702D01*
X151056910Y-104633933D01*
X151056912Y-104633935D01*
X151180268Y-104797285D01*
X151331538Y-104935186D01*
X151434771Y-104999105D01*
X151504844Y-105042493D01*
X151505573Y-105042944D01*
X151696444Y-105116888D01*
X151897653Y-105154500D01*
X151897655Y-105154500D01*
X152102345Y-105154500D01*
X152102347Y-105154500D01*
X152303556Y-105116888D01*
X152494427Y-105042944D01*
X152668462Y-104935186D01*
X152819732Y-104797285D01*
X152943088Y-104633935D01*
X153034328Y-104450701D01*
X153090345Y-104253821D01*
X153109232Y-104050000D01*
X153090345Y-103846179D01*
X153076068Y-103795999D01*
X153464450Y-103795999D01*
X153464451Y-103796000D01*
X154108884Y-103796000D01*
X154080507Y-103840156D01*
X154040000Y-103978111D01*
X154040000Y-104121889D01*
X154080507Y-104259844D01*
X154108884Y-104304000D01*
X153464451Y-104304000D01*
X153506140Y-104450522D01*
X153597337Y-104633669D01*
X153720638Y-104796945D01*
X153871844Y-104934788D01*
X154045795Y-105042493D01*
X154236580Y-105116404D01*
X154285999Y-105125642D01*
X154286000Y-105125642D01*
X154286000Y-104483674D01*
X154397685Y-104534680D01*
X154504237Y-104550000D01*
X154575763Y-104550000D01*
X154682315Y-104534680D01*
X154794000Y-104483674D01*
X154794000Y-105125642D01*
X154843419Y-105116404D01*
X155034204Y-105042493D01*
X155208155Y-104934788D01*
X155359361Y-104796945D01*
X155482662Y-104633669D01*
X155573859Y-104450522D01*
X155615549Y-104304000D01*
X154971116Y-104304000D01*
X154999493Y-104259844D01*
X155040000Y-104121889D01*
X155040000Y-103978111D01*
X154999493Y-103840156D01*
X154971116Y-103796000D01*
X155615549Y-103796000D01*
X155615549Y-103795999D01*
X155573859Y-103649477D01*
X155482662Y-103466330D01*
X155359361Y-103303054D01*
X155208155Y-103165211D01*
X155034204Y-103057506D01*
X154843422Y-102983596D01*
X154794000Y-102974357D01*
X154794000Y-103616325D01*
X154682315Y-103565320D01*
X154575763Y-103550000D01*
X154504237Y-103550000D01*
X154397685Y-103565320D01*
X154286000Y-103616325D01*
X154286000Y-102974357D01*
X154236577Y-102983596D01*
X154045795Y-103057506D01*
X153871844Y-103165211D01*
X153720638Y-103303054D01*
X153597337Y-103466330D01*
X153506140Y-103649477D01*
X153464450Y-103795999D01*
X153076068Y-103795999D01*
X153034328Y-103649299D01*
X153022168Y-103624878D01*
X152943089Y-103466066D01*
X152896498Y-103404370D01*
X152819732Y-103302715D01*
X152668462Y-103164814D01*
X152565228Y-103100894D01*
X152494428Y-103057056D01*
X152390708Y-103016875D01*
X152303556Y-102983112D01*
X152102347Y-102945500D01*
X151897653Y-102945500D01*
X151743280Y-102974357D01*
X151696444Y-102983112D01*
X151505571Y-103057056D01*
X151331539Y-103164813D01*
X151321461Y-103174000D01*
X151211096Y-103274612D01*
X151180267Y-103302716D01*
X151056910Y-103466066D01*
X150965672Y-103649297D01*
X150909654Y-103846180D01*
X150890767Y-104050000D01*
X150569232Y-104050000D01*
X150550345Y-103846179D01*
X150494328Y-103649299D01*
X150482168Y-103624878D01*
X150403089Y-103466066D01*
X150356498Y-103404370D01*
X150279732Y-103302715D01*
X150128462Y-103164814D01*
X150025228Y-103100894D01*
X149954428Y-103057056D01*
X149850708Y-103016875D01*
X149763556Y-102983112D01*
X149562347Y-102945500D01*
X149357653Y-102945500D01*
X149203280Y-102974357D01*
X149156444Y-102983112D01*
X148965571Y-103057056D01*
X148791539Y-103164813D01*
X148781461Y-103174000D01*
X148671096Y-103274612D01*
X148640267Y-103302716D01*
X148516910Y-103466066D01*
X148425672Y-103649297D01*
X148369654Y-103846180D01*
X148350767Y-104050000D01*
X148029232Y-104050000D01*
X148010345Y-103846179D01*
X147954328Y-103649299D01*
X147942168Y-103624878D01*
X147863089Y-103466066D01*
X147816498Y-103404370D01*
X147739732Y-103302715D01*
X147588462Y-103164814D01*
X147485228Y-103100894D01*
X147414428Y-103057056D01*
X147310708Y-103016875D01*
X147223556Y-102983112D01*
X147069713Y-102954354D01*
X147006429Y-102922176D01*
X146970587Y-102860891D01*
X146973568Y-102789957D01*
X147014425Y-102731895D01*
X147080188Y-102705140D01*
X147092867Y-102704500D01*
X148111852Y-102704500D01*
X148112013Y-102704486D01*
X148180089Y-102704488D01*
X148399061Y-102675665D01*
X148612396Y-102618505D01*
X148816445Y-102533988D01*
X149007717Y-102423560D01*
X149182938Y-102289109D01*
X149261024Y-102211024D01*
X149282470Y-102189579D01*
X149282469Y-102189578D01*
X149309287Y-102162763D01*
X149314758Y-102157292D01*
X149314764Y-102157285D01*
X149319358Y-102152691D01*
X149319375Y-102152671D01*
X149329859Y-102142187D01*
X149357161Y-102114886D01*
X149485769Y-101947282D01*
X149591400Y-101764325D01*
X149672246Y-101569146D01*
X149675940Y-101555357D01*
X149681583Y-101538929D01*
X149684231Y-101532661D01*
X149684234Y-101532658D01*
X149734374Y-101414007D01*
X149736590Y-101409065D01*
X149786173Y-101304651D01*
X149789198Y-101298695D01*
X149835806Y-101212690D01*
X149840020Y-101205497D01*
X149846329Y-101195500D01*
X149872723Y-101153670D01*
X149877894Y-101146101D01*
X149956369Y-101039773D01*
X150001621Y-100910451D01*
X150004500Y-100879749D01*
X150004499Y-100220252D01*
X150001621Y-100189549D01*
X149956369Y-100060227D01*
X149896640Y-99979297D01*
X149875010Y-99949989D01*
X149764771Y-99868629D01*
X149635453Y-99823379D01*
X149607685Y-99820775D01*
X149607678Y-99820774D01*
X149604749Y-99820500D01*
X149601795Y-99820500D01*
X149098188Y-99820500D01*
X149098166Y-99820500D01*
X149095252Y-99820501D01*
X149092328Y-99820775D01*
X149092329Y-99820775D01*
X149064547Y-99823379D01*
X148935228Y-99868630D01*
X148824989Y-99949989D01*
X148743629Y-100060228D01*
X148698379Y-100189546D01*
X148698379Y-100189549D01*
X148695500Y-100220251D01*
X148695500Y-100223203D01*
X148695500Y-100223204D01*
X148695500Y-100876811D01*
X148695500Y-100876832D01*
X148695501Y-100879748D01*
X148695775Y-100882670D01*
X148698379Y-100910452D01*
X148743629Y-101039772D01*
X148754668Y-101054728D01*
X148759808Y-101062246D01*
X148774382Y-101085311D01*
X148780162Y-101095475D01*
X148804177Y-101142671D01*
X148807805Y-101150446D01*
X148836859Y-101218673D01*
X148839251Y-101224716D01*
X148868023Y-101303294D01*
X148872663Y-101374139D01*
X148866113Y-101394836D01*
X148861815Y-101405212D01*
X148852839Y-101422828D01*
X148797396Y-101513302D01*
X148785775Y-101529298D01*
X148713634Y-101613763D01*
X148706922Y-101621024D01*
X148692472Y-101635475D01*
X148685203Y-101642194D01*
X148592012Y-101721786D01*
X148576017Y-101733408D01*
X148475746Y-101794854D01*
X148458129Y-101803829D01*
X148414643Y-101821842D01*
X148349483Y-101848831D01*
X148330678Y-101854940D01*
X148216329Y-101882390D01*
X148196802Y-101885483D01*
X148074441Y-101895111D01*
X148064553Y-101895499D01*
X147993885Y-101895497D01*
X147993865Y-101895500D01*
X147105500Y-101895500D01*
X147037379Y-101875498D01*
X146990886Y-101821842D01*
X146979500Y-101769500D01*
X146979500Y-101468167D01*
X146979067Y-101465434D01*
X146964498Y-101373445D01*
X146931669Y-101309016D01*
X146918565Y-101239240D01*
X146945264Y-101173455D01*
X147003292Y-101132548D01*
X147074223Y-101129507D01*
X147080610Y-101131269D01*
X147114701Y-101141651D01*
X147129490Y-101147192D01*
X147191963Y-101175185D01*
X147204592Y-101181724D01*
X147266473Y-101218335D01*
X147277135Y-101225396D01*
X147285227Y-101231369D01*
X147414549Y-101276621D01*
X147445251Y-101279500D01*
X147954748Y-101279499D01*
X147985451Y-101276621D01*
X148114773Y-101231369D01*
X148225010Y-101150010D01*
X148306369Y-101039773D01*
X148351621Y-100910451D01*
X148354500Y-100879749D01*
X148354499Y-100220252D01*
X148351621Y-100189549D01*
X148306369Y-100060227D01*
X148246640Y-99979297D01*
X148225010Y-99949989D01*
X148114771Y-99868629D01*
X147985453Y-99823379D01*
X147957685Y-99820775D01*
X147957678Y-99820774D01*
X147954749Y-99820500D01*
X147951795Y-99820500D01*
X147448188Y-99820500D01*
X147448166Y-99820500D01*
X147445252Y-99820501D01*
X147442328Y-99820775D01*
X147442329Y-99820775D01*
X147414547Y-99823379D01*
X147285228Y-99868630D01*
X147174988Y-99949990D01*
X147151635Y-99981633D01*
X147095090Y-100024564D01*
X147024310Y-100030109D01*
X146975713Y-100004000D01*
X145007437Y-100004000D01*
X145011462Y-100029421D01*
X145002359Y-100099831D01*
X144956635Y-100154143D01*
X144888806Y-100175113D01*
X144865817Y-100173331D01*
X144863555Y-100172945D01*
X144827551Y-100161009D01*
X144826556Y-100160502D01*
X144779194Y-100153000D01*
X144731834Y-100145500D01*
X143493166Y-100145500D01*
X143461592Y-100150500D01*
X143398443Y-100160502D01*
X143284277Y-100218673D01*
X143268167Y-100234783D01*
X143245438Y-100252792D01*
X143231973Y-100261135D01*
X143218954Y-100268178D01*
X143203883Y-100275221D01*
X143142300Y-100286801D01*
X143091828Y-100283494D01*
X143075484Y-100281343D01*
X142903534Y-100247139D01*
X142887615Y-100242873D01*
X142721616Y-100186524D01*
X142706388Y-100180217D01*
X142549149Y-100102674D01*
X142534876Y-100094433D01*
X142430310Y-100024564D01*
X142389112Y-99997036D01*
X142376039Y-99987004D01*
X142241064Y-99868633D01*
X142235047Y-99862997D01*
X142210318Y-99838268D01*
X142188927Y-99816876D01*
X142183295Y-99810862D01*
X142049681Y-99658504D01*
X142039648Y-99645428D01*
X141939804Y-99495999D01*
X145007436Y-99495999D01*
X145007437Y-99496000D01*
X145733500Y-99496000D01*
X145733500Y-99196000D01*
X146241500Y-99196000D01*
X146241500Y-99496000D01*
X146967563Y-99496000D01*
X146967563Y-99495999D01*
X146964016Y-99473602D01*
X146905915Y-99359572D01*
X146815427Y-99269084D01*
X146701399Y-99210984D01*
X146606794Y-99196000D01*
X146241500Y-99196000D01*
X145733500Y-99196000D01*
X145368206Y-99196000D01*
X145273601Y-99210984D01*
X145159572Y-99269084D01*
X145069083Y-99359573D01*
X145010983Y-99473601D01*
X145007436Y-99495999D01*
X141939804Y-99495999D01*
X141929348Y-99480351D01*
X141921107Y-99466078D01*
X141917388Y-99458537D01*
X141833302Y-99288024D01*
X141826995Y-99272798D01*
X141826606Y-99271653D01*
X141763179Y-99084795D01*
X141758914Y-99068876D01*
X141758432Y-99066451D01*
X141720182Y-98874149D01*
X141718034Y-98857833D01*
X141704769Y-98655413D01*
X141704500Y-98647174D01*
X141704501Y-98593318D01*
X141704500Y-98593314D01*
X141704500Y-98564844D01*
X141709220Y-98530679D01*
X141709551Y-98529506D01*
X141709551Y-98529501D01*
X141709552Y-98529499D01*
X141713361Y-98480922D01*
X141716906Y-98435725D01*
X141722412Y-98407499D01*
X141728494Y-98388322D01*
X141739458Y-98363451D01*
X141763265Y-98322193D01*
X141765582Y-98318341D01*
X141821566Y-98229085D01*
X141821604Y-98229019D01*
X141822425Y-98227653D01*
X141828543Y-98217281D01*
X141829357Y-98215838D01*
X141829135Y-98216216D01*
X141829901Y-98214774D01*
X141835303Y-98204416D01*
X141836028Y-98202962D01*
X141878257Y-98116842D01*
X141882693Y-98109275D01*
X141883069Y-98108286D01*
X141887763Y-98097464D01*
X141897059Y-98078514D01*
X141898019Y-98076478D01*
X141900377Y-98071483D01*
X141900672Y-98070833D01*
X141903883Y-98063456D01*
X141905787Y-98054000D01*
X145321000Y-98054000D01*
X145321000Y-98126752D01*
X145321273Y-98132603D01*
X145323876Y-98160358D01*
X145369077Y-98289535D01*
X145450347Y-98399652D01*
X145560464Y-98480922D01*
X145689641Y-98526123D01*
X145717396Y-98528726D01*
X145721000Y-98528894D01*
X145721000Y-98054000D01*
X146229000Y-98054000D01*
X146229000Y-98528894D01*
X146232603Y-98528726D01*
X146260358Y-98526123D01*
X146389535Y-98480922D01*
X146499652Y-98399652D01*
X146580922Y-98289535D01*
X146626123Y-98160358D01*
X146628726Y-98132603D01*
X146628996Y-98126832D01*
X146970500Y-98126832D01*
X146970501Y-98129748D01*
X146970775Y-98132670D01*
X146973379Y-98160452D01*
X147018630Y-98289771D01*
X147099989Y-98400010D01*
X147210228Y-98481370D01*
X147338126Y-98526123D01*
X147339549Y-98526621D01*
X147370251Y-98529500D01*
X147879748Y-98529499D01*
X147910451Y-98526621D01*
X148039773Y-98481369D01*
X148150010Y-98400010D01*
X148155831Y-98392121D01*
X148173256Y-98372986D01*
X148207260Y-98342599D01*
X148217937Y-98333057D01*
X148282059Y-98302581D01*
X148352480Y-98311610D01*
X148368842Y-98320267D01*
X148370910Y-98321564D01*
X148372345Y-98322425D01*
X148382717Y-98328543D01*
X148384160Y-98329357D01*
X148383782Y-98329135D01*
X148385223Y-98329900D01*
X148395583Y-98335303D01*
X148397021Y-98336020D01*
X148521483Y-98397057D01*
X148528403Y-98400324D01*
X148528412Y-98400328D01*
X148528516Y-98400377D01*
X148529166Y-98400672D01*
X148536543Y-98403883D01*
X148536584Y-98403891D01*
X148548902Y-98409262D01*
X148548786Y-98409526D01*
X148561764Y-98414131D01*
X148566207Y-98416463D01*
X148720529Y-98454500D01*
X148720531Y-98454500D01*
X148879469Y-98454500D01*
X148879471Y-98454500D01*
X149033793Y-98416463D01*
X149174529Y-98342599D01*
X149293498Y-98237201D01*
X149383787Y-98106395D01*
X149440149Y-97957782D01*
X149459307Y-97800000D01*
X149440149Y-97642218D01*
X149383787Y-97493605D01*
X149293498Y-97362799D01*
X149174529Y-97257401D01*
X149070762Y-97202940D01*
X149033795Y-97183538D01*
X149033794Y-97183537D01*
X149033793Y-97183537D01*
X148879471Y-97145500D01*
X148720529Y-97145500D01*
X148695052Y-97151779D01*
X148566206Y-97183536D01*
X148549709Y-97192195D01*
X148523515Y-97202400D01*
X148521488Y-97202938D01*
X148395572Y-97264700D01*
X148394120Y-97265447D01*
X148383714Y-97270901D01*
X148382300Y-97271675D01*
X148382673Y-97271480D01*
X148381254Y-97272307D01*
X148370920Y-97278428D01*
X148369508Y-97279301D01*
X148368811Y-97279750D01*
X148300468Y-97298979D01*
X148232578Y-97278206D01*
X148217938Y-97266940D01*
X148173250Y-97227006D01*
X148155828Y-97207873D01*
X148150010Y-97199990D01*
X148039771Y-97118629D01*
X147910453Y-97073379D01*
X147882685Y-97070775D01*
X147882678Y-97070774D01*
X147879749Y-97070500D01*
X147876795Y-97070500D01*
X147373188Y-97070500D01*
X147373166Y-97070500D01*
X147370252Y-97070501D01*
X147367328Y-97070775D01*
X147367329Y-97070775D01*
X147339547Y-97073379D01*
X147210228Y-97118630D01*
X147099989Y-97199989D01*
X147018629Y-97310228D01*
X146973379Y-97439546D01*
X146973379Y-97439549D01*
X146970500Y-97470251D01*
X146970500Y-97473203D01*
X146970500Y-97473204D01*
X146970500Y-98126811D01*
X146970500Y-98126832D01*
X146628996Y-98126832D01*
X146629000Y-98126752D01*
X146629000Y-98054000D01*
X146229000Y-98054000D01*
X145721000Y-98054000D01*
X145321000Y-98054000D01*
X141905787Y-98054000D01*
X141906155Y-98052172D01*
X141911866Y-98032355D01*
X141940149Y-97957781D01*
X141959307Y-97800000D01*
X141940149Y-97642219D01*
X141937858Y-97636179D01*
X141903658Y-97546000D01*
X145321000Y-97546000D01*
X145721000Y-97546000D01*
X145721000Y-97071105D01*
X146229000Y-97071105D01*
X146229000Y-97546000D01*
X146629000Y-97546000D01*
X146629000Y-97473247D01*
X146628726Y-97467396D01*
X146626123Y-97439641D01*
X146580922Y-97310464D01*
X146499652Y-97200347D01*
X146389535Y-97119077D01*
X146260358Y-97073876D01*
X146232603Y-97071273D01*
X146229000Y-97071105D01*
X145721000Y-97071105D01*
X145717396Y-97071273D01*
X145689641Y-97073876D01*
X145560464Y-97119077D01*
X145450347Y-97200347D01*
X145369077Y-97310464D01*
X145323876Y-97439641D01*
X145321273Y-97467396D01*
X145321000Y-97473247D01*
X145321000Y-97546000D01*
X141903658Y-97546000D01*
X141883787Y-97493605D01*
X141793498Y-97362799D01*
X141674529Y-97257401D01*
X141570762Y-97202940D01*
X141533795Y-97183538D01*
X141533794Y-97183537D01*
X141533793Y-97183537D01*
X141379471Y-97145500D01*
X141220529Y-97145500D01*
X141066207Y-97183537D01*
X141066206Y-97183537D01*
X141066204Y-97183538D01*
X140925472Y-97257400D01*
X140806501Y-97362799D01*
X140716212Y-97493605D01*
X140659850Y-97642219D01*
X140640693Y-97800000D01*
X136405525Y-97800000D01*
X136390345Y-97636179D01*
X136334328Y-97439299D01*
X136333585Y-97437807D01*
X136243089Y-97256066D01*
X136188782Y-97184152D01*
X136119732Y-97092715D01*
X135968462Y-96954814D01*
X135914274Y-96921262D01*
X135794428Y-96847056D01*
X135698991Y-96810083D01*
X135603556Y-96773112D01*
X135402347Y-96735500D01*
X135197653Y-96735500D01*
X134996443Y-96773111D01*
X134996444Y-96773112D01*
X134805571Y-96847056D01*
X134631539Y-96954813D01*
X134480267Y-97092716D01*
X134356910Y-97256066D01*
X134265672Y-97439297D01*
X134209654Y-97636180D01*
X134190767Y-97839999D01*
X133700500Y-97839999D01*
X133700500Y-96175068D01*
X134195500Y-96175068D01*
X134210265Y-96249300D01*
X134266515Y-96333484D01*
X134302672Y-96357643D01*
X134350699Y-96389734D01*
X134424933Y-96404500D01*
X136175066Y-96404499D01*
X136175068Y-96404499D01*
X136224555Y-96394655D01*
X136249301Y-96389734D01*
X136333484Y-96333484D01*
X136389734Y-96249301D01*
X136404500Y-96175067D01*
X136404500Y-95800000D01*
X144140693Y-95800000D01*
X144159850Y-95957780D01*
X144216212Y-96106394D01*
X144281291Y-96200676D01*
X144306502Y-96237201D01*
X144425471Y-96342599D01*
X144566207Y-96416463D01*
X144720529Y-96454500D01*
X144720531Y-96454500D01*
X144879469Y-96454500D01*
X144879471Y-96454500D01*
X145033793Y-96416463D01*
X145034769Y-96415950D01*
X145051079Y-96410212D01*
X145050946Y-96409888D01*
X145177322Y-96357984D01*
X145182752Y-96355899D01*
X145223416Y-96341361D01*
X145294291Y-96337264D01*
X145305859Y-96340535D01*
X145345109Y-96353688D01*
X145355385Y-96357640D01*
X145390609Y-96372986D01*
X145415068Y-96383642D01*
X145424271Y-96388105D01*
X145451340Y-96402618D01*
X145466613Y-96412278D01*
X145517612Y-96449917D01*
X145560228Y-96481370D01*
X145689546Y-96526620D01*
X145689549Y-96526621D01*
X145720251Y-96529500D01*
X146229748Y-96529499D01*
X146260451Y-96526621D01*
X146389773Y-96481369D01*
X146500010Y-96400010D01*
X146581369Y-96289773D01*
X146586723Y-96274474D01*
X146609010Y-96210780D01*
X146626621Y-96160451D01*
X146629500Y-96129749D01*
X146629500Y-96126832D01*
X146970500Y-96126832D01*
X146970501Y-96129748D01*
X146970775Y-96132670D01*
X146973379Y-96160452D01*
X147018630Y-96289771D01*
X147099989Y-96400010D01*
X147210228Y-96481370D01*
X147339546Y-96526620D01*
X147339549Y-96526621D01*
X147370251Y-96529500D01*
X147879748Y-96529499D01*
X147910451Y-96526621D01*
X148039773Y-96481369D01*
X148150010Y-96400010D01*
X148155831Y-96392121D01*
X148173256Y-96372986D01*
X148207260Y-96342599D01*
X148217937Y-96333057D01*
X148282059Y-96302581D01*
X148352480Y-96311610D01*
X148368842Y-96320267D01*
X148370910Y-96321564D01*
X148372345Y-96322425D01*
X148382717Y-96328543D01*
X148384160Y-96329357D01*
X148383782Y-96329135D01*
X148385223Y-96329900D01*
X148395583Y-96335303D01*
X148397021Y-96336020D01*
X148521483Y-96397057D01*
X148528403Y-96400324D01*
X148528412Y-96400328D01*
X148528516Y-96400377D01*
X148529166Y-96400672D01*
X148536543Y-96403883D01*
X148536584Y-96403891D01*
X148548902Y-96409262D01*
X148548786Y-96409526D01*
X148561764Y-96414131D01*
X148566207Y-96416463D01*
X148720529Y-96454500D01*
X148720531Y-96454500D01*
X148879469Y-96454500D01*
X148879471Y-96454500D01*
X149033793Y-96416463D01*
X149174529Y-96342599D01*
X149293498Y-96237201D01*
X149383787Y-96106395D01*
X149440149Y-95957782D01*
X149459307Y-95800000D01*
X149440149Y-95642218D01*
X149383787Y-95493605D01*
X149293498Y-95362799D01*
X149174529Y-95257401D01*
X149088768Y-95212390D01*
X149033795Y-95183538D01*
X149033794Y-95183537D01*
X149033793Y-95183537D01*
X148879471Y-95145500D01*
X148720529Y-95145500D01*
X148695052Y-95151779D01*
X148566206Y-95183536D01*
X148549709Y-95192195D01*
X148523515Y-95202400D01*
X148521488Y-95202938D01*
X148395572Y-95264700D01*
X148394120Y-95265447D01*
X148383714Y-95270901D01*
X148382300Y-95271675D01*
X148382673Y-95271480D01*
X148381254Y-95272307D01*
X148370920Y-95278428D01*
X148369508Y-95279301D01*
X148368811Y-95279750D01*
X148300468Y-95298979D01*
X148232578Y-95278206D01*
X148217938Y-95266940D01*
X148173250Y-95227006D01*
X148155828Y-95207873D01*
X148150010Y-95199990D01*
X148039771Y-95118629D01*
X147910453Y-95073379D01*
X147882685Y-95070775D01*
X147882678Y-95070774D01*
X147879749Y-95070500D01*
X147876795Y-95070500D01*
X147373188Y-95070500D01*
X147373166Y-95070500D01*
X147370252Y-95070501D01*
X147367328Y-95070775D01*
X147367329Y-95070775D01*
X147339547Y-95073379D01*
X147210228Y-95118630D01*
X147099989Y-95199989D01*
X147018629Y-95310228D01*
X146973379Y-95439546D01*
X146973379Y-95439549D01*
X146970500Y-95470251D01*
X146970500Y-95473203D01*
X146970500Y-95473204D01*
X146970500Y-96126811D01*
X146970500Y-96126832D01*
X146629500Y-96126832D01*
X146629499Y-95470252D01*
X146626621Y-95439549D01*
X146581369Y-95310227D01*
X146529142Y-95239462D01*
X146500010Y-95199989D01*
X146389771Y-95118629D01*
X146260453Y-95073379D01*
X146232685Y-95070775D01*
X146232678Y-95070774D01*
X146229749Y-95070500D01*
X146226795Y-95070500D01*
X145723188Y-95070500D01*
X145723166Y-95070500D01*
X145720252Y-95070501D01*
X145717328Y-95070775D01*
X145717329Y-95070775D01*
X145689547Y-95073379D01*
X145560228Y-95118629D01*
X145506585Y-95158220D01*
X145439897Y-95182577D01*
X145370627Y-95167014D01*
X145320768Y-95116471D01*
X145308419Y-95082567D01*
X145307155Y-95076507D01*
X145304500Y-95050780D01*
X145304500Y-94549043D01*
X145307231Y-94522951D01*
X145308480Y-94517051D01*
X145342154Y-94454553D01*
X145404275Y-94420179D01*
X145475118Y-94424846D01*
X145506570Y-94441768D01*
X145560228Y-94481370D01*
X145662211Y-94517055D01*
X145689549Y-94526621D01*
X145720251Y-94529500D01*
X146229748Y-94529499D01*
X146260451Y-94526621D01*
X146389773Y-94481369D01*
X146500010Y-94400010D01*
X146581369Y-94289773D01*
X146583380Y-94284028D01*
X146626620Y-94160453D01*
X146626621Y-94160451D01*
X146629500Y-94129749D01*
X146629499Y-93529960D01*
X146630101Y-93517659D01*
X146632560Y-93492592D01*
X146627354Y-93440138D01*
X146623627Y-93397116D01*
X146621375Y-93371114D01*
X146620914Y-93365129D01*
X146635638Y-93295695D01*
X146685577Y-93245231D01*
X146746541Y-93229500D01*
X146869298Y-93229500D01*
X146937419Y-93249502D01*
X146983912Y-93303158D01*
X146994016Y-93373432D01*
X146988227Y-93397116D01*
X146973379Y-93439547D01*
X146973378Y-93439549D01*
X146973379Y-93439549D01*
X146970500Y-93470251D01*
X146970500Y-93473203D01*
X146970500Y-93473204D01*
X146970500Y-94126811D01*
X146970500Y-94126832D01*
X146970501Y-94129748D01*
X146970775Y-94132670D01*
X146973379Y-94160452D01*
X147018630Y-94289771D01*
X147018631Y-94289773D01*
X147022330Y-94294785D01*
X147099989Y-94400010D01*
X147210228Y-94481370D01*
X147312211Y-94517055D01*
X147339549Y-94526621D01*
X147370251Y-94529500D01*
X147879748Y-94529499D01*
X147910451Y-94526621D01*
X148039773Y-94481369D01*
X148150010Y-94400010D01*
X148155831Y-94392121D01*
X148173256Y-94372986D01*
X148213784Y-94336769D01*
X148217937Y-94333057D01*
X148282059Y-94302581D01*
X148352480Y-94311610D01*
X148368842Y-94320267D01*
X148370910Y-94321564D01*
X148372345Y-94322425D01*
X148382717Y-94328543D01*
X148384160Y-94329357D01*
X148383782Y-94329135D01*
X148385223Y-94329900D01*
X148395583Y-94335303D01*
X148397021Y-94336020D01*
X148521483Y-94397057D01*
X148528403Y-94400324D01*
X148528412Y-94400328D01*
X148528516Y-94400377D01*
X148529166Y-94400672D01*
X148536543Y-94403883D01*
X148536584Y-94403891D01*
X148548902Y-94409262D01*
X148548786Y-94409526D01*
X148561764Y-94414131D01*
X148566207Y-94416463D01*
X148720529Y-94454500D01*
X148720531Y-94454500D01*
X148879469Y-94454500D01*
X148879471Y-94454500D01*
X149033793Y-94416463D01*
X149174529Y-94342599D01*
X149293498Y-94237201D01*
X149383787Y-94106395D01*
X149440149Y-93957782D01*
X149459307Y-93800000D01*
X149440149Y-93642218D01*
X149383787Y-93493605D01*
X149293498Y-93362799D01*
X149174529Y-93257401D01*
X149070762Y-93202940D01*
X149033795Y-93183538D01*
X149033794Y-93183537D01*
X149033793Y-93183537D01*
X148879471Y-93145500D01*
X148720529Y-93145500D01*
X148711847Y-93147640D01*
X148566206Y-93183536D01*
X148549709Y-93192195D01*
X148523515Y-93202400D01*
X148521488Y-93202938D01*
X148395572Y-93264700D01*
X148394120Y-93265447D01*
X148383714Y-93270901D01*
X148382300Y-93271675D01*
X148382673Y-93271480D01*
X148381254Y-93272307D01*
X148370920Y-93278428D01*
X148369508Y-93279301D01*
X148368811Y-93279750D01*
X148300468Y-93298979D01*
X148232578Y-93278206D01*
X148217938Y-93266940D01*
X148173250Y-93227006D01*
X148155828Y-93207873D01*
X148150010Y-93199990D01*
X148039771Y-93118629D01*
X147971233Y-93094647D01*
X147913541Y-93053269D01*
X147887379Y-92987268D01*
X147901052Y-92917601D01*
X147910905Y-92901667D01*
X147994711Y-92786321D01*
X148061260Y-92655718D01*
X148106560Y-92516314D01*
X148113592Y-92471924D01*
X148139997Y-92416227D01*
X148138731Y-92415292D01*
X148143513Y-92408812D01*
X148144005Y-92407775D01*
X148144841Y-92407013D01*
X148150008Y-92400010D01*
X148150010Y-92400010D01*
X148231369Y-92289773D01*
X148276621Y-92160451D01*
X148279500Y-92129749D01*
X148279499Y-91470252D01*
X148276621Y-91439549D01*
X148262396Y-91398899D01*
X148256021Y-91370500D01*
X148255650Y-91366980D01*
X148255370Y-91364326D01*
X148232141Y-91289624D01*
X148231184Y-91286390D01*
X148206823Y-91199906D01*
X148206121Y-91197303D01*
X148204359Y-91190474D01*
X148181411Y-91101521D01*
X148174729Y-91073379D01*
X148155404Y-90991982D01*
X148146604Y-90951933D01*
X148146604Y-90897962D01*
X148154456Y-90862170D01*
X148180219Y-90753298D01*
X148185865Y-90731369D01*
X148206094Y-90652796D01*
X148206816Y-90650121D01*
X148206843Y-90650027D01*
X148215897Y-90617882D01*
X148231194Y-90563577D01*
X148232157Y-90560327D01*
X148247764Y-90510133D01*
X148255370Y-90485673D01*
X148262176Y-90454533D01*
X148266337Y-90439836D01*
X148276621Y-90410451D01*
X148279500Y-90379749D01*
X148279499Y-89720252D01*
X148276621Y-89689549D01*
X148231369Y-89560227D01*
X148178567Y-89488683D01*
X148150010Y-89449989D01*
X148039771Y-89368629D01*
X147910453Y-89323379D01*
X147882685Y-89320775D01*
X147882678Y-89320774D01*
X147879749Y-89320500D01*
X147876795Y-89320500D01*
X147373188Y-89320500D01*
X147373166Y-89320500D01*
X147370252Y-89320501D01*
X147367328Y-89320775D01*
X147367329Y-89320775D01*
X147339547Y-89323379D01*
X147210228Y-89368630D01*
X147099989Y-89449989D01*
X147018629Y-89560228D01*
X146973379Y-89689546D01*
X146971828Y-89706092D01*
X146970500Y-89720251D01*
X146970500Y-89723203D01*
X146970500Y-89723204D01*
X146970500Y-90376811D01*
X146970500Y-90376832D01*
X146970501Y-90379748D01*
X146970775Y-90382670D01*
X146973379Y-90410451D01*
X146987603Y-90451103D01*
X146993977Y-90479492D01*
X146994628Y-90485669D01*
X147017842Y-90560327D01*
X147018804Y-90563574D01*
X147043157Y-90650027D01*
X147043881Y-90652713D01*
X147068588Y-90748479D01*
X147094589Y-90857991D01*
X147103393Y-90898064D01*
X147103395Y-90952032D01*
X147095543Y-90987827D01*
X147095543Y-90987828D01*
X147069785Y-91096682D01*
X147043906Y-91197188D01*
X147043187Y-91199854D01*
X147018794Y-91286453D01*
X147017832Y-91289700D01*
X146995438Y-91361722D01*
X146995431Y-91361747D01*
X146994628Y-91364331D01*
X146994049Y-91366979D01*
X146994049Y-91366980D01*
X146987826Y-91395453D01*
X146983662Y-91410161D01*
X146973380Y-91439547D01*
X146973379Y-91439549D01*
X146970500Y-91470251D01*
X146970500Y-91799999D01*
X146970501Y-92094500D01*
X146950499Y-92162621D01*
X146896843Y-92209114D01*
X146844501Y-92220500D01*
X146755500Y-92220500D01*
X146687379Y-92200498D01*
X146640886Y-92146842D01*
X146629500Y-92094500D01*
X146629499Y-91473188D01*
X146629499Y-91470252D01*
X146626621Y-91439549D01*
X146581369Y-91310227D01*
X146513551Y-91218337D01*
X146500010Y-91199989D01*
X146389771Y-91118629D01*
X146260453Y-91073379D01*
X146232685Y-91070775D01*
X146232678Y-91070774D01*
X146229749Y-91070500D01*
X146226795Y-91070500D01*
X145723188Y-91070500D01*
X145723166Y-91070500D01*
X145720252Y-91070501D01*
X145717328Y-91070775D01*
X145717329Y-91070775D01*
X145689547Y-91073379D01*
X145560228Y-91118629D01*
X145449989Y-91199990D01*
X145444167Y-91207879D01*
X145426751Y-91227002D01*
X145382062Y-91266938D01*
X145317940Y-91297416D01*
X145247520Y-91288388D01*
X145231170Y-91279739D01*
X145229103Y-91278443D01*
X145229101Y-91278442D01*
X145229087Y-91278433D01*
X145229047Y-91278409D01*
X145227650Y-91277570D01*
X145217317Y-91271476D01*
X145215900Y-91270676D01*
X145216256Y-91270886D01*
X145214802Y-91270113D01*
X145204418Y-91264696D01*
X145202967Y-91263973D01*
X145078504Y-91202936D01*
X145071470Y-91199616D01*
X145070831Y-91199326D01*
X145063456Y-91196116D01*
X145063415Y-91196107D01*
X145051102Y-91190739D01*
X145051217Y-91190474D01*
X145038232Y-91185866D01*
X145033794Y-91183536D01*
X144904947Y-91151779D01*
X144879471Y-91145500D01*
X144720529Y-91145500D01*
X144566207Y-91183537D01*
X144566206Y-91183537D01*
X144566204Y-91183538D01*
X144425472Y-91257400D01*
X144306501Y-91362799D01*
X144216212Y-91493605D01*
X144159850Y-91642219D01*
X144140693Y-91799999D01*
X144159850Y-91957780D01*
X144216212Y-92106394D01*
X144281168Y-92200498D01*
X144306502Y-92237201D01*
X144425471Y-92342599D01*
X144566207Y-92416463D01*
X144720529Y-92454500D01*
X144720531Y-92454500D01*
X144879469Y-92454500D01*
X144879471Y-92454500D01*
X145033793Y-92416463D01*
X145050294Y-92407801D01*
X145076498Y-92397593D01*
X145078517Y-92397057D01*
X145204416Y-92335303D01*
X145205859Y-92334560D01*
X145216216Y-92329135D01*
X145217622Y-92328365D01*
X145217281Y-92328543D01*
X145218739Y-92327695D01*
X145229089Y-92321564D01*
X145230508Y-92320687D01*
X145231049Y-92320333D01*
X145231100Y-92320302D01*
X145299424Y-92301017D01*
X145367331Y-92321733D01*
X145382061Y-92333059D01*
X145426750Y-92372995D01*
X145444169Y-92392123D01*
X145448204Y-92397591D01*
X145449990Y-92400010D01*
X145470696Y-92415292D01*
X145560228Y-92481370D01*
X145651727Y-92513387D01*
X145709419Y-92554765D01*
X145735581Y-92620766D01*
X145721908Y-92690433D01*
X145712050Y-92706374D01*
X145698804Y-92724606D01*
X145623102Y-92873179D01*
X145610350Y-92912425D01*
X145603948Y-92928345D01*
X145587091Y-92963199D01*
X145585220Y-92966909D01*
X145578530Y-92979651D01*
X145536129Y-93060404D01*
X145533838Y-93064573D01*
X145486138Y-93147640D01*
X145483315Y-93152319D01*
X145474257Y-93166619D01*
X145427361Y-93210236D01*
X145424286Y-93211885D01*
X145415062Y-93216358D01*
X145355392Y-93242353D01*
X145345104Y-93246310D01*
X145305865Y-93259459D01*
X145234919Y-93262137D01*
X145223417Y-93258635D01*
X145182759Y-93244101D01*
X145177304Y-93242007D01*
X145094192Y-93207873D01*
X145062424Y-93194826D01*
X145062423Y-93194825D01*
X145051026Y-93190145D01*
X145051154Y-93189833D01*
X145034801Y-93184066D01*
X145033793Y-93183537D01*
X145001567Y-93175594D01*
X144879471Y-93145500D01*
X144720529Y-93145500D01*
X144566207Y-93183537D01*
X144566206Y-93183537D01*
X144566204Y-93183538D01*
X144425472Y-93257400D01*
X144306501Y-93362799D01*
X144216212Y-93493605D01*
X144159850Y-93642219D01*
X144140693Y-93800000D01*
X144159850Y-93957781D01*
X144186010Y-94026758D01*
X144191847Y-94047216D01*
X144194826Y-94062424D01*
X144194827Y-94062428D01*
X144242007Y-94177304D01*
X144244100Y-94182757D01*
X144267942Y-94249450D01*
X144272305Y-94264576D01*
X144280758Y-94302679D01*
X144283337Y-94319782D01*
X144288490Y-94383314D01*
X144288892Y-94391938D01*
X144290376Y-94511658D01*
X144292845Y-94523492D01*
X144295500Y-94549222D01*
X144295499Y-95050951D01*
X144292765Y-95077057D01*
X144290375Y-95088340D01*
X144288892Y-95208058D01*
X144288490Y-95216683D01*
X144283337Y-95280216D01*
X144280758Y-95297321D01*
X144272306Y-95335417D01*
X144267944Y-95350540D01*
X144244096Y-95417252D01*
X144242002Y-95422706D01*
X144194824Y-95537576D01*
X144191770Y-95553063D01*
X144185965Y-95573358D01*
X144159850Y-95642219D01*
X144140693Y-95800000D01*
X136404500Y-95800000D01*
X136404499Y-94424934D01*
X136404499Y-94424933D01*
X136404499Y-94424931D01*
X136389734Y-94350699D01*
X136333484Y-94266515D01*
X136249301Y-94210266D01*
X136249296Y-94210265D01*
X136175067Y-94195500D01*
X136175066Y-94195500D01*
X134424931Y-94195500D01*
X134350699Y-94210265D01*
X134266515Y-94266515D01*
X134210266Y-94350698D01*
X134195500Y-94424933D01*
X134195500Y-96175068D01*
X133700500Y-96175068D01*
X133700500Y-93085714D01*
X133720502Y-93017593D01*
X133774158Y-92971100D01*
X133844432Y-92960996D01*
X133907492Y-92989193D01*
X134036385Y-93097349D01*
X134078758Y-93118629D01*
X134192185Y-93175594D01*
X134361829Y-93215800D01*
X134361831Y-93215800D01*
X134488767Y-93215800D01*
X134492436Y-93215800D01*
X134622164Y-93200637D01*
X134785993Y-93141008D01*
X134931654Y-93045205D01*
X135051296Y-92918393D01*
X135138467Y-92767407D01*
X135188469Y-92600388D01*
X135193521Y-92513660D01*
X135731393Y-92513660D01*
X135734186Y-92529499D01*
X135761668Y-92685355D01*
X135830721Y-92845439D01*
X135934830Y-92985281D01*
X136068385Y-93097349D01*
X136110758Y-93118629D01*
X136224185Y-93175594D01*
X136393829Y-93215800D01*
X136393831Y-93215800D01*
X136520767Y-93215800D01*
X136524436Y-93215800D01*
X136654164Y-93200637D01*
X136817993Y-93141008D01*
X136963654Y-93045205D01*
X137083296Y-92918393D01*
X137170467Y-92767407D01*
X137220469Y-92600388D01*
X137230607Y-92426340D01*
X137200332Y-92254646D01*
X137131279Y-92094562D01*
X137029448Y-91957780D01*
X137027169Y-91954718D01*
X136893614Y-91842650D01*
X136737817Y-91764407D01*
X136737816Y-91764406D01*
X136737815Y-91764406D01*
X136568171Y-91724200D01*
X136437564Y-91724200D01*
X136433936Y-91724623D01*
X136433919Y-91724625D01*
X136307834Y-91739363D01*
X136144006Y-91798991D01*
X135998348Y-91894792D01*
X135878703Y-92021607D01*
X135806400Y-92146842D01*
X135791533Y-92172593D01*
X135741531Y-92339612D01*
X135731393Y-92513660D01*
X135193521Y-92513660D01*
X135198607Y-92426340D01*
X135168332Y-92254646D01*
X135099279Y-92094562D01*
X134997448Y-91957780D01*
X134995169Y-91954718D01*
X134861614Y-91842650D01*
X134705817Y-91764407D01*
X134705816Y-91764406D01*
X134705815Y-91764406D01*
X134536171Y-91724200D01*
X134405564Y-91724200D01*
X134401936Y-91724623D01*
X134401919Y-91724625D01*
X134275834Y-91739363D01*
X134112006Y-91798991D01*
X133966348Y-91894792D01*
X133918147Y-91945882D01*
X133856850Y-91981704D01*
X133785917Y-91978700D01*
X133727869Y-91937823D01*
X133701134Y-91872053D01*
X133700499Y-91859429D01*
X133700499Y-90069486D01*
X133720501Y-90001366D01*
X133774157Y-89954873D01*
X133844431Y-89944769D01*
X133856653Y-89947148D01*
X133865702Y-89949378D01*
X133865707Y-89949381D01*
X134020029Y-89987418D01*
X134020031Y-89987418D01*
X134178969Y-89987418D01*
X134178971Y-89987418D01*
X134333293Y-89949381D01*
X134357901Y-89936465D01*
X134380381Y-89927308D01*
X134385255Y-89925853D01*
X134513222Y-89858156D01*
X134532301Y-89846998D01*
X134533970Y-89845924D01*
X134551915Y-89833272D01*
X134645697Y-89761021D01*
X134688969Y-89727575D01*
X134715485Y-89711850D01*
X134717810Y-89710831D01*
X134754697Y-89700999D01*
X134837137Y-89692030D01*
X134837142Y-89692028D01*
X134840657Y-89691646D01*
X134870924Y-89687418D01*
X142755023Y-89687418D01*
X142767375Y-89688025D01*
X142901868Y-89701273D01*
X142926091Y-89706092D01*
X142963133Y-89717329D01*
X143049468Y-89743519D01*
X143072283Y-89752970D01*
X143185988Y-89813749D01*
X143206525Y-89827472D01*
X143311065Y-89913268D01*
X143320224Y-89921569D01*
X143343425Y-89944769D01*
X143384998Y-89986341D01*
X143540297Y-90105504D01*
X143709821Y-90203377D01*
X143890670Y-90278286D01*
X144079749Y-90328950D01*
X144273823Y-90354500D01*
X144312542Y-90354500D01*
X145090913Y-90354500D01*
X145135774Y-90362757D01*
X145141451Y-90364920D01*
X145158925Y-90373163D01*
X145197794Y-90395290D01*
X145211536Y-90404350D01*
X145261177Y-90441950D01*
X145271670Y-90450839D01*
X145330235Y-90506218D01*
X145338147Y-90514409D01*
X145404804Y-90589982D01*
X145405138Y-90590347D01*
X145413208Y-90600173D01*
X145449990Y-90650010D01*
X145505108Y-90690689D01*
X145560228Y-90731370D01*
X145689546Y-90776620D01*
X145689549Y-90776621D01*
X145720251Y-90779500D01*
X146229748Y-90779499D01*
X146260451Y-90776621D01*
X146389773Y-90731369D01*
X146500010Y-90650010D01*
X146581369Y-90539773D01*
X146590240Y-90514423D01*
X146612396Y-90451103D01*
X146626621Y-90410451D01*
X146629500Y-90379749D01*
X146629499Y-89720252D01*
X146626621Y-89689549D01*
X146606386Y-89631724D01*
X146604865Y-89627088D01*
X146603405Y-89622330D01*
X146603405Y-89622328D01*
X146600778Y-89613767D01*
X146600773Y-89613752D01*
X146600772Y-89613750D01*
X146600304Y-89612315D01*
X146599229Y-89609101D01*
X146595562Y-89600790D01*
X146581369Y-89560227D01*
X146500010Y-89449990D01*
X146500008Y-89449989D01*
X146490167Y-89436654D01*
X146478690Y-89424525D01*
X146471547Y-89413637D01*
X146466225Y-89404745D01*
X146422683Y-89324708D01*
X146419099Y-89317592D01*
X146371321Y-89214771D01*
X146368832Y-89209046D01*
X146338735Y-89134828D01*
X146329500Y-89087480D01*
X146329500Y-86603646D01*
X146332827Y-86581979D01*
X146332769Y-86581973D01*
X146334110Y-86569640D01*
X146334112Y-86569637D01*
X146343082Y-86487194D01*
X146352928Y-86450274D01*
X146353946Y-86447950D01*
X146369660Y-86421466D01*
X146403350Y-86377878D01*
X146425518Y-86349103D01*
X146482936Y-86307347D01*
X146525332Y-86300000D01*
X148210908Y-86300000D01*
X148279029Y-86320002D01*
G37*
%TD.AperFunction*%
%TD*%
%TA.AperFunction,Conductor*%
%TO.N,/SENS*%
G36*
X149358219Y-100556599D02*
G01*
X149721339Y-100903162D01*
X149724958Y-100911353D01*
X149722598Y-100918677D01*
X149671456Y-100986397D01*
X149671447Y-100986409D01*
X149671308Y-100986594D01*
X149671188Y-100986783D01*
X149671177Y-100986800D01*
X149613837Y-101077669D01*
X149613829Y-101077681D01*
X149613736Y-101077830D01*
X149613648Y-101077991D01*
X149613647Y-101077994D01*
X149556234Y-101183936D01*
X149556221Y-101183961D01*
X149556165Y-101184065D01*
X149498593Y-101305301D01*
X149498562Y-101305372D01*
X149498545Y-101305412D01*
X149445201Y-101431645D01*
X149438824Y-101437932D01*
X149430808Y-101438218D01*
X149161400Y-101350679D01*
X149154591Y-101344864D01*
X149153876Y-101343129D01*
X149141763Y-101305412D01*
X149117610Y-101230201D01*
X149079513Y-101126158D01*
X149041417Y-101036699D01*
X149003320Y-100961826D01*
X148970451Y-100909809D01*
X148968929Y-100900984D01*
X148972440Y-100894931D01*
X149342242Y-100556432D01*
X149350658Y-100553374D01*
X149358219Y-100556599D01*
G37*
%TD.AperFunction*%
%TD*%
M02*
