M48
; DRILL file {KiCad 7.0.2} date Tue Jun 20 09:36:15 2023
; FORMAT={-:-/ absolute / inch / decimal}
; #@! TF.CreationDate,2023-06-20T09:36:15+02:00
; #@! TF.GenerationSoftware,Kicad,Pcbnew,7.0.2
; #@! TF.FileFunction,MixedPlating,1,2
FMAT,2
INCH
; #@! TA.AperFunction,Plated,PTH,ViaDrill
T1C0.0157
; #@! TA.AperFunction,Plated,PTH,ComponentDrill
T2C0.0394
; #@! TA.AperFunction,NonPlated,NPTH,ComponentDrill
T3C0.0390
%
G90
G05
T1
X5.2795Y-3.4545
X5.2795Y-3.517
X5.3309Y-3.6792
X5.4843Y-3.9685
X5.563Y-3.8504
X5.7008Y-3.4921
X5.7008Y-3.6142
X5.7008Y-3.6929
X5.7008Y-3.7717
X5.747Y-3.3792
X5.8583Y-3.6929
X5.8583Y-3.7717
X5.8583Y-3.8504
X5.8609Y-3.4192
X5.8628Y-3.49
X5.9862Y-3.9291
X5.9961Y-3.7323
X6.1772Y-3.9252
X6.1929Y-3.6929
X6.3268Y-3.5551
X6.3268Y-3.6339
X6.3583Y-4.0276
X6.3583Y-4.0827
X6.4213Y-4.0276
X6.4213Y-4.0827
X6.439Y-3.5059
X6.4685Y-3.9252
X6.4764Y-4.0276
X6.4764Y-4.0827
T2
X5.3268Y-3.752
X5.3268Y-3.852
X5.3268Y-3.952
X5.3268Y-4.052
X5.4843Y-4.0965
X5.5843Y-4.0965
X5.6843Y-4.0965
X5.7843Y-4.0965
X5.8843Y-4.0965
X5.9843Y-4.0965
X6.0843Y-4.0965
X6.2717Y-3.752
X6.2717Y-4.052
T3
X5.2933Y-3.6406
X5.3333Y-3.4406
X5.3733Y-3.6406
T0
M30
