%TF.GenerationSoftware,KiCad,Pcbnew,7.0.2*%
%TF.CreationDate,2023-06-20T09:38:12+02:00*%
%TF.ProjectId,esp-lvl,6573702d-6c76-46c2-9e6b-696361645f70,2.0.0*%
%TF.SameCoordinates,Original*%
%TF.FileFunction,Legend,Top*%
%TF.FilePolarity,Positive*%
%FSLAX46Y46*%
G04 Gerber Fmt 4.6, Leading zero omitted, Abs format (unit mm)*
G04 Created by KiCad (PCBNEW 7.0.2) date 2023-06-20 09:38:12*
%MOMM*%
%LPD*%
G01*
G04 APERTURE LIST*
%ADD10C,0.200000*%
%ADD11C,0.150000*%
%ADD12C,0.120000*%
%ADD13C,0.100000*%
G04 APERTURE END LIST*
D10*
X143704762Y-92928809D02*
X144038095Y-92928809D01*
X144180952Y-93452619D02*
X143704762Y-93452619D01*
X143704762Y-93452619D02*
X143704762Y-92452619D01*
X143704762Y-92452619D02*
X144180952Y-92452619D01*
X144561905Y-93405000D02*
X144704762Y-93452619D01*
X144704762Y-93452619D02*
X144942857Y-93452619D01*
X144942857Y-93452619D02*
X145038095Y-93405000D01*
X145038095Y-93405000D02*
X145085714Y-93357380D01*
X145085714Y-93357380D02*
X145133333Y-93262142D01*
X145133333Y-93262142D02*
X145133333Y-93166904D01*
X145133333Y-93166904D02*
X145085714Y-93071666D01*
X145085714Y-93071666D02*
X145038095Y-93024047D01*
X145038095Y-93024047D02*
X144942857Y-92976428D01*
X144942857Y-92976428D02*
X144752381Y-92928809D01*
X144752381Y-92928809D02*
X144657143Y-92881190D01*
X144657143Y-92881190D02*
X144609524Y-92833571D01*
X144609524Y-92833571D02*
X144561905Y-92738333D01*
X144561905Y-92738333D02*
X144561905Y-92643095D01*
X144561905Y-92643095D02*
X144609524Y-92547857D01*
X144609524Y-92547857D02*
X144657143Y-92500238D01*
X144657143Y-92500238D02*
X144752381Y-92452619D01*
X144752381Y-92452619D02*
X144990476Y-92452619D01*
X144990476Y-92452619D02*
X145133333Y-92500238D01*
X145561905Y-93452619D02*
X145561905Y-92452619D01*
X145561905Y-92452619D02*
X145942857Y-92452619D01*
X145942857Y-92452619D02*
X146038095Y-92500238D01*
X146038095Y-92500238D02*
X146085714Y-92547857D01*
X146085714Y-92547857D02*
X146133333Y-92643095D01*
X146133333Y-92643095D02*
X146133333Y-92785952D01*
X146133333Y-92785952D02*
X146085714Y-92881190D01*
X146085714Y-92881190D02*
X146038095Y-92928809D01*
X146038095Y-92928809D02*
X145942857Y-92976428D01*
X145942857Y-92976428D02*
X145561905Y-92976428D01*
X146704762Y-92881190D02*
X146609524Y-92833571D01*
X146609524Y-92833571D02*
X146561905Y-92785952D01*
X146561905Y-92785952D02*
X146514286Y-92690714D01*
X146514286Y-92690714D02*
X146514286Y-92643095D01*
X146514286Y-92643095D02*
X146561905Y-92547857D01*
X146561905Y-92547857D02*
X146609524Y-92500238D01*
X146609524Y-92500238D02*
X146704762Y-92452619D01*
X146704762Y-92452619D02*
X146895238Y-92452619D01*
X146895238Y-92452619D02*
X146990476Y-92500238D01*
X146990476Y-92500238D02*
X147038095Y-92547857D01*
X147038095Y-92547857D02*
X147085714Y-92643095D01*
X147085714Y-92643095D02*
X147085714Y-92690714D01*
X147085714Y-92690714D02*
X147038095Y-92785952D01*
X147038095Y-92785952D02*
X146990476Y-92833571D01*
X146990476Y-92833571D02*
X146895238Y-92881190D01*
X146895238Y-92881190D02*
X146704762Y-92881190D01*
X146704762Y-92881190D02*
X146609524Y-92928809D01*
X146609524Y-92928809D02*
X146561905Y-92976428D01*
X146561905Y-92976428D02*
X146514286Y-93071666D01*
X146514286Y-93071666D02*
X146514286Y-93262142D01*
X146514286Y-93262142D02*
X146561905Y-93357380D01*
X146561905Y-93357380D02*
X146609524Y-93405000D01*
X146609524Y-93405000D02*
X146704762Y-93452619D01*
X146704762Y-93452619D02*
X146895238Y-93452619D01*
X146895238Y-93452619D02*
X146990476Y-93405000D01*
X146990476Y-93405000D02*
X147038095Y-93357380D01*
X147038095Y-93357380D02*
X147085714Y-93262142D01*
X147085714Y-93262142D02*
X147085714Y-93071666D01*
X147085714Y-93071666D02*
X147038095Y-92976428D01*
X147038095Y-92976428D02*
X146990476Y-92928809D01*
X146990476Y-92928809D02*
X146895238Y-92881190D01*
X147466667Y-92547857D02*
X147514286Y-92500238D01*
X147514286Y-92500238D02*
X147609524Y-92452619D01*
X147609524Y-92452619D02*
X147847619Y-92452619D01*
X147847619Y-92452619D02*
X147942857Y-92500238D01*
X147942857Y-92500238D02*
X147990476Y-92547857D01*
X147990476Y-92547857D02*
X148038095Y-92643095D01*
X148038095Y-92643095D02*
X148038095Y-92738333D01*
X148038095Y-92738333D02*
X147990476Y-92881190D01*
X147990476Y-92881190D02*
X147419048Y-93452619D01*
X147419048Y-93452619D02*
X148038095Y-93452619D01*
X148895238Y-92452619D02*
X148704762Y-92452619D01*
X148704762Y-92452619D02*
X148609524Y-92500238D01*
X148609524Y-92500238D02*
X148561905Y-92547857D01*
X148561905Y-92547857D02*
X148466667Y-92690714D01*
X148466667Y-92690714D02*
X148419048Y-92881190D01*
X148419048Y-92881190D02*
X148419048Y-93262142D01*
X148419048Y-93262142D02*
X148466667Y-93357380D01*
X148466667Y-93357380D02*
X148514286Y-93405000D01*
X148514286Y-93405000D02*
X148609524Y-93452619D01*
X148609524Y-93452619D02*
X148800000Y-93452619D01*
X148800000Y-93452619D02*
X148895238Y-93405000D01*
X148895238Y-93405000D02*
X148942857Y-93357380D01*
X148942857Y-93357380D02*
X148990476Y-93262142D01*
X148990476Y-93262142D02*
X148990476Y-93024047D01*
X148990476Y-93024047D02*
X148942857Y-92928809D01*
X148942857Y-92928809D02*
X148895238Y-92881190D01*
X148895238Y-92881190D02*
X148800000Y-92833571D01*
X148800000Y-92833571D02*
X148609524Y-92833571D01*
X148609524Y-92833571D02*
X148514286Y-92881190D01*
X148514286Y-92881190D02*
X148466667Y-92928809D01*
X148466667Y-92928809D02*
X148419048Y-93024047D01*
X149847619Y-92452619D02*
X149657143Y-92452619D01*
X149657143Y-92452619D02*
X149561905Y-92500238D01*
X149561905Y-92500238D02*
X149514286Y-92547857D01*
X149514286Y-92547857D02*
X149419048Y-92690714D01*
X149419048Y-92690714D02*
X149371429Y-92881190D01*
X149371429Y-92881190D02*
X149371429Y-93262142D01*
X149371429Y-93262142D02*
X149419048Y-93357380D01*
X149419048Y-93357380D02*
X149466667Y-93405000D01*
X149466667Y-93405000D02*
X149561905Y-93452619D01*
X149561905Y-93452619D02*
X149752381Y-93452619D01*
X149752381Y-93452619D02*
X149847619Y-93405000D01*
X149847619Y-93405000D02*
X149895238Y-93357380D01*
X149895238Y-93357380D02*
X149942857Y-93262142D01*
X149942857Y-93262142D02*
X149942857Y-93024047D01*
X149942857Y-93024047D02*
X149895238Y-92928809D01*
X149895238Y-92928809D02*
X149847619Y-92881190D01*
X149847619Y-92881190D02*
X149752381Y-92833571D01*
X149752381Y-92833571D02*
X149561905Y-92833571D01*
X149561905Y-92833571D02*
X149466667Y-92881190D01*
X149466667Y-92881190D02*
X149419048Y-92928809D01*
X149419048Y-92928809D02*
X149371429Y-93024047D01*
X145561904Y-95072619D02*
X144990476Y-95072619D01*
X145276190Y-95072619D02*
X145276190Y-94072619D01*
X145276190Y-94072619D02*
X145180952Y-94215476D01*
X145180952Y-94215476D02*
X145085714Y-94310714D01*
X145085714Y-94310714D02*
X144990476Y-94358333D01*
X145942857Y-94167857D02*
X145990476Y-94120238D01*
X145990476Y-94120238D02*
X146085714Y-94072619D01*
X146085714Y-94072619D02*
X146323809Y-94072619D01*
X146323809Y-94072619D02*
X146419047Y-94120238D01*
X146419047Y-94120238D02*
X146466666Y-94167857D01*
X146466666Y-94167857D02*
X146514285Y-94263095D01*
X146514285Y-94263095D02*
X146514285Y-94358333D01*
X146514285Y-94358333D02*
X146466666Y-94501190D01*
X146466666Y-94501190D02*
X145895238Y-95072619D01*
X145895238Y-95072619D02*
X146514285Y-95072619D01*
X146942857Y-94691666D02*
X147704762Y-94691666D01*
X148514285Y-94548809D02*
X148180952Y-94548809D01*
X148180952Y-95072619D02*
X148180952Y-94072619D01*
X148180952Y-94072619D02*
X148657142Y-94072619D01*
D11*
%TO.C,D1*%
X157283333Y-90423833D02*
X157283333Y-89723833D01*
X157283333Y-89723833D02*
X157450000Y-89723833D01*
X157450000Y-89723833D02*
X157550000Y-89757166D01*
X157550000Y-89757166D02*
X157616667Y-89823833D01*
X157616667Y-89823833D02*
X157650000Y-89890500D01*
X157650000Y-89890500D02*
X157683333Y-90023833D01*
X157683333Y-90023833D02*
X157683333Y-90123833D01*
X157683333Y-90123833D02*
X157650000Y-90257166D01*
X157650000Y-90257166D02*
X157616667Y-90323833D01*
X157616667Y-90323833D02*
X157550000Y-90390500D01*
X157550000Y-90390500D02*
X157450000Y-90423833D01*
X157450000Y-90423833D02*
X157283333Y-90423833D01*
X158350000Y-90423833D02*
X157950000Y-90423833D01*
X158150000Y-90423833D02*
X158150000Y-89723833D01*
X158150000Y-89723833D02*
X158083333Y-89823833D01*
X158083333Y-89823833D02*
X158016667Y-89890500D01*
X158016667Y-89890500D02*
X157950000Y-89923833D01*
%TO.C,R8*%
X162183333Y-96923833D02*
X161950000Y-96590500D01*
X161783333Y-96923833D02*
X161783333Y-96223833D01*
X161783333Y-96223833D02*
X162050000Y-96223833D01*
X162050000Y-96223833D02*
X162116667Y-96257166D01*
X162116667Y-96257166D02*
X162150000Y-96290500D01*
X162150000Y-96290500D02*
X162183333Y-96357166D01*
X162183333Y-96357166D02*
X162183333Y-96457166D01*
X162183333Y-96457166D02*
X162150000Y-96523833D01*
X162150000Y-96523833D02*
X162116667Y-96557166D01*
X162116667Y-96557166D02*
X162050000Y-96590500D01*
X162050000Y-96590500D02*
X161783333Y-96590500D01*
X162583333Y-96523833D02*
X162516667Y-96490500D01*
X162516667Y-96490500D02*
X162483333Y-96457166D01*
X162483333Y-96457166D02*
X162450000Y-96390500D01*
X162450000Y-96390500D02*
X162450000Y-96357166D01*
X162450000Y-96357166D02*
X162483333Y-96290500D01*
X162483333Y-96290500D02*
X162516667Y-96257166D01*
X162516667Y-96257166D02*
X162583333Y-96223833D01*
X162583333Y-96223833D02*
X162716667Y-96223833D01*
X162716667Y-96223833D02*
X162783333Y-96257166D01*
X162783333Y-96257166D02*
X162816667Y-96290500D01*
X162816667Y-96290500D02*
X162850000Y-96357166D01*
X162850000Y-96357166D02*
X162850000Y-96390500D01*
X162850000Y-96390500D02*
X162816667Y-96457166D01*
X162816667Y-96457166D02*
X162783333Y-96490500D01*
X162783333Y-96490500D02*
X162716667Y-96523833D01*
X162716667Y-96523833D02*
X162583333Y-96523833D01*
X162583333Y-96523833D02*
X162516667Y-96557166D01*
X162516667Y-96557166D02*
X162483333Y-96590500D01*
X162483333Y-96590500D02*
X162450000Y-96657166D01*
X162450000Y-96657166D02*
X162450000Y-96790500D01*
X162450000Y-96790500D02*
X162483333Y-96857166D01*
X162483333Y-96857166D02*
X162516667Y-96890500D01*
X162516667Y-96890500D02*
X162583333Y-96923833D01*
X162583333Y-96923833D02*
X162716667Y-96923833D01*
X162716667Y-96923833D02*
X162783333Y-96890500D01*
X162783333Y-96890500D02*
X162816667Y-96857166D01*
X162816667Y-96857166D02*
X162850000Y-96790500D01*
X162850000Y-96790500D02*
X162850000Y-96657166D01*
X162850000Y-96657166D02*
X162816667Y-96590500D01*
X162816667Y-96590500D02*
X162783333Y-96557166D01*
X162783333Y-96557166D02*
X162716667Y-96523833D01*
%TO.C,D2*%
X163083333Y-92823833D02*
X163083333Y-92123833D01*
X163083333Y-92123833D02*
X163250000Y-92123833D01*
X163250000Y-92123833D02*
X163350000Y-92157166D01*
X163350000Y-92157166D02*
X163416667Y-92223833D01*
X163416667Y-92223833D02*
X163450000Y-92290500D01*
X163450000Y-92290500D02*
X163483333Y-92423833D01*
X163483333Y-92423833D02*
X163483333Y-92523833D01*
X163483333Y-92523833D02*
X163450000Y-92657166D01*
X163450000Y-92657166D02*
X163416667Y-92723833D01*
X163416667Y-92723833D02*
X163350000Y-92790500D01*
X163350000Y-92790500D02*
X163250000Y-92823833D01*
X163250000Y-92823833D02*
X163083333Y-92823833D01*
X163750000Y-92190500D02*
X163783333Y-92157166D01*
X163783333Y-92157166D02*
X163850000Y-92123833D01*
X163850000Y-92123833D02*
X164016667Y-92123833D01*
X164016667Y-92123833D02*
X164083333Y-92157166D01*
X164083333Y-92157166D02*
X164116667Y-92190500D01*
X164116667Y-92190500D02*
X164150000Y-92257166D01*
X164150000Y-92257166D02*
X164150000Y-92323833D01*
X164150000Y-92323833D02*
X164116667Y-92423833D01*
X164116667Y-92423833D02*
X163716667Y-92823833D01*
X163716667Y-92823833D02*
X164150000Y-92823833D01*
%TO.C,R6*%
X158683333Y-97023833D02*
X158450000Y-96690500D01*
X158283333Y-97023833D02*
X158283333Y-96323833D01*
X158283333Y-96323833D02*
X158550000Y-96323833D01*
X158550000Y-96323833D02*
X158616667Y-96357166D01*
X158616667Y-96357166D02*
X158650000Y-96390500D01*
X158650000Y-96390500D02*
X158683333Y-96457166D01*
X158683333Y-96457166D02*
X158683333Y-96557166D01*
X158683333Y-96557166D02*
X158650000Y-96623833D01*
X158650000Y-96623833D02*
X158616667Y-96657166D01*
X158616667Y-96657166D02*
X158550000Y-96690500D01*
X158550000Y-96690500D02*
X158283333Y-96690500D01*
X159283333Y-96323833D02*
X159150000Y-96323833D01*
X159150000Y-96323833D02*
X159083333Y-96357166D01*
X159083333Y-96357166D02*
X159050000Y-96390500D01*
X159050000Y-96390500D02*
X158983333Y-96490500D01*
X158983333Y-96490500D02*
X158950000Y-96623833D01*
X158950000Y-96623833D02*
X158950000Y-96890500D01*
X158950000Y-96890500D02*
X158983333Y-96957166D01*
X158983333Y-96957166D02*
X159016667Y-96990500D01*
X159016667Y-96990500D02*
X159083333Y-97023833D01*
X159083333Y-97023833D02*
X159216667Y-97023833D01*
X159216667Y-97023833D02*
X159283333Y-96990500D01*
X159283333Y-96990500D02*
X159316667Y-96957166D01*
X159316667Y-96957166D02*
X159350000Y-96890500D01*
X159350000Y-96890500D02*
X159350000Y-96723833D01*
X159350000Y-96723833D02*
X159316667Y-96657166D01*
X159316667Y-96657166D02*
X159283333Y-96623833D01*
X159283333Y-96623833D02*
X159216667Y-96590500D01*
X159216667Y-96590500D02*
X159083333Y-96590500D01*
X159083333Y-96590500D02*
X159016667Y-96623833D01*
X159016667Y-96623833D02*
X158983333Y-96657166D01*
X158983333Y-96657166D02*
X158950000Y-96723833D01*
%TO.C,U1*%
X146038095Y-88262619D02*
X146038095Y-89072142D01*
X146038095Y-89072142D02*
X146085714Y-89167380D01*
X146085714Y-89167380D02*
X146133333Y-89215000D01*
X146133333Y-89215000D02*
X146228571Y-89262619D01*
X146228571Y-89262619D02*
X146419047Y-89262619D01*
X146419047Y-89262619D02*
X146514285Y-89215000D01*
X146514285Y-89215000D02*
X146561904Y-89167380D01*
X146561904Y-89167380D02*
X146609523Y-89072142D01*
X146609523Y-89072142D02*
X146609523Y-88262619D01*
X147609523Y-89262619D02*
X147038095Y-89262619D01*
X147323809Y-89262619D02*
X147323809Y-88262619D01*
X147323809Y-88262619D02*
X147228571Y-88405476D01*
X147228571Y-88405476D02*
X147133333Y-88500714D01*
X147133333Y-88500714D02*
X147038095Y-88548333D01*
%TO.C,R10*%
X161849999Y-101423833D02*
X161616666Y-101090500D01*
X161449999Y-101423833D02*
X161449999Y-100723833D01*
X161449999Y-100723833D02*
X161716666Y-100723833D01*
X161716666Y-100723833D02*
X161783333Y-100757166D01*
X161783333Y-100757166D02*
X161816666Y-100790500D01*
X161816666Y-100790500D02*
X161849999Y-100857166D01*
X161849999Y-100857166D02*
X161849999Y-100957166D01*
X161849999Y-100957166D02*
X161816666Y-101023833D01*
X161816666Y-101023833D02*
X161783333Y-101057166D01*
X161783333Y-101057166D02*
X161716666Y-101090500D01*
X161716666Y-101090500D02*
X161449999Y-101090500D01*
X162516666Y-101423833D02*
X162116666Y-101423833D01*
X162316666Y-101423833D02*
X162316666Y-100723833D01*
X162316666Y-100723833D02*
X162249999Y-100823833D01*
X162249999Y-100823833D02*
X162183333Y-100890500D01*
X162183333Y-100890500D02*
X162116666Y-100923833D01*
X162950000Y-100723833D02*
X163016666Y-100723833D01*
X163016666Y-100723833D02*
X163083333Y-100757166D01*
X163083333Y-100757166D02*
X163116666Y-100790500D01*
X163116666Y-100790500D02*
X163150000Y-100857166D01*
X163150000Y-100857166D02*
X163183333Y-100990500D01*
X163183333Y-100990500D02*
X163183333Y-101157166D01*
X163183333Y-101157166D02*
X163150000Y-101290500D01*
X163150000Y-101290500D02*
X163116666Y-101357166D01*
X163116666Y-101357166D02*
X163083333Y-101390500D01*
X163083333Y-101390500D02*
X163016666Y-101423833D01*
X163016666Y-101423833D02*
X162950000Y-101423833D01*
X162950000Y-101423833D02*
X162883333Y-101390500D01*
X162883333Y-101390500D02*
X162850000Y-101357166D01*
X162850000Y-101357166D02*
X162816666Y-101290500D01*
X162816666Y-101290500D02*
X162783333Y-101157166D01*
X162783333Y-101157166D02*
X162783333Y-100990500D01*
X162783333Y-100990500D02*
X162816666Y-100857166D01*
X162816666Y-100857166D02*
X162850000Y-100790500D01*
X162850000Y-100790500D02*
X162883333Y-100757166D01*
X162883333Y-100757166D02*
X162950000Y-100723833D01*
%TO.C,R7*%
X158683333Y-101423833D02*
X158450000Y-101090500D01*
X158283333Y-101423833D02*
X158283333Y-100723833D01*
X158283333Y-100723833D02*
X158550000Y-100723833D01*
X158550000Y-100723833D02*
X158616667Y-100757166D01*
X158616667Y-100757166D02*
X158650000Y-100790500D01*
X158650000Y-100790500D02*
X158683333Y-100857166D01*
X158683333Y-100857166D02*
X158683333Y-100957166D01*
X158683333Y-100957166D02*
X158650000Y-101023833D01*
X158650000Y-101023833D02*
X158616667Y-101057166D01*
X158616667Y-101057166D02*
X158550000Y-101090500D01*
X158550000Y-101090500D02*
X158283333Y-101090500D01*
X158916667Y-100723833D02*
X159383333Y-100723833D01*
X159383333Y-100723833D02*
X159083333Y-101423833D01*
D12*
%TO.C,D1*%
X160360000Y-91300000D02*
X160360000Y-90650000D01*
X160360000Y-91300000D02*
X160360000Y-91950000D01*
X157240000Y-91300000D02*
X157240000Y-90650000D01*
X157240000Y-91300000D02*
X157240000Y-92975000D01*
%TO.C,J2*%
X157970000Y-93970000D02*
X159300000Y-93970000D01*
X157970000Y-94635000D02*
X158635000Y-93970000D01*
X157970000Y-95300000D02*
X157970000Y-93970000D01*
X159300000Y-104250000D02*
X160630000Y-104250000D01*
X160630000Y-102920000D02*
X160630000Y-104250000D01*
%TO.C,R8*%
X162537258Y-97277500D02*
X162062742Y-97277500D01*
X162537258Y-98322500D02*
X162062742Y-98322500D01*
%TO.C,D2*%
X161040000Y-91300000D02*
X161040000Y-91950000D01*
X161040000Y-91300000D02*
X161040000Y-90650000D01*
X164160000Y-91300000D02*
X164160000Y-91950000D01*
X164160000Y-91300000D02*
X164160000Y-89625000D01*
%TO.C,R6*%
X158562742Y-98322500D02*
X159037258Y-98322500D01*
X158562742Y-97277500D02*
X159037258Y-97277500D01*
%TO.C,U1*%
X154920000Y-101420000D02*
X152800000Y-101420000D01*
X154920000Y-100800000D02*
X154920000Y-101420000D01*
X154920000Y-77180000D02*
X154920000Y-84800000D01*
X140800000Y-101420000D02*
X138680000Y-101420000D01*
X138680000Y-101420000D02*
X138680000Y-100800000D01*
X138680000Y-84800000D02*
X138680000Y-77180000D01*
X138680000Y-84800000D02*
X138070000Y-84800000D01*
X138680000Y-77180000D02*
X154920000Y-77180000D01*
%TO.C,R10*%
X162062742Y-100322500D02*
X162537258Y-100322500D01*
X162062742Y-99277500D02*
X162537258Y-99277500D01*
%TO.C,R7*%
X159037258Y-99277500D02*
X158562742Y-99277500D01*
X159037258Y-100322500D02*
X158562742Y-100322500D01*
%TO.C,kibuzzard-6485EB90*%
G36*
X157146710Y-86516345D02*
G01*
X157209497Y-86588434D01*
X157254456Y-86687653D01*
X157271509Y-86798499D01*
X157283136Y-86951396D01*
X157296313Y-87087628D01*
X157328094Y-87321722D01*
X157368402Y-87518610D01*
X157418787Y-87696118D01*
X157475372Y-87510858D01*
X157552112Y-87333350D01*
X157607922Y-87228705D01*
X157698615Y-87071350D01*
X157812561Y-86892291D01*
X157937360Y-86724860D01*
X158060608Y-86600836D01*
X158169128Y-86552002D01*
X158201685Y-86557428D01*
X158224939Y-86570605D01*
X158243542Y-86587659D01*
X158286176Y-86665173D01*
X158315631Y-86748889D01*
X158332684Y-86829504D01*
X158338110Y-86896167D01*
X158328809Y-86985309D01*
X158306329Y-87091504D01*
X158277649Y-87207001D01*
X158249744Y-87322498D01*
X158222420Y-87452528D01*
X158196259Y-87591473D01*
X158172423Y-87733519D01*
X158152075Y-87872852D01*
X158122620Y-88133301D01*
X158111768Y-88341040D01*
X158112543Y-88404602D01*
X158113318Y-88471265D01*
X158109442Y-88559631D01*
X158093164Y-88637146D01*
X158057507Y-88691406D01*
X157995496Y-88711560D01*
X157869922Y-88677454D01*
X157771478Y-88589087D01*
X157707141Y-88467389D01*
X157683887Y-88331738D01*
X157691444Y-88185429D01*
X157714117Y-88019354D01*
X157748805Y-87840102D01*
X157792407Y-87654260D01*
X157842986Y-87464543D01*
X157898602Y-87273663D01*
X157956157Y-87087434D01*
X158012549Y-86911670D01*
X157929414Y-87030655D01*
X157850543Y-87148865D01*
X157776517Y-87267656D01*
X157707916Y-87388385D01*
X157645323Y-87512021D01*
X157589319Y-87639532D01*
X157540872Y-87772276D01*
X157500952Y-87911609D01*
X157525757Y-87971295D01*
X157557538Y-88048035D01*
X157585443Y-88119348D01*
X157597070Y-88161206D01*
X157559088Y-88254224D01*
X157463745Y-88282129D01*
X157354449Y-88263525D01*
X157244379Y-88213141D01*
X157152136Y-88141052D01*
X157097876Y-88057336D01*
X157032182Y-87832350D01*
X156980829Y-87606976D01*
X156946916Y-87378889D01*
X156933545Y-87145764D01*
X156866366Y-87326287D01*
X156805387Y-87508188D01*
X156750610Y-87691467D01*
X156703757Y-87876986D01*
X156666550Y-88065605D01*
X156638989Y-88257324D01*
X156629687Y-88364294D01*
X156617285Y-88482892D01*
X156594031Y-88579785D01*
X156550623Y-88623193D01*
X156486285Y-88591412D01*
X156441327Y-88512347D01*
X156414972Y-88410803D01*
X156406445Y-88311584D01*
X156425049Y-88096869D01*
X156474658Y-87857349D01*
X156546747Y-87605426D01*
X156588992Y-87478496D01*
X156633563Y-87353503D01*
X156727356Y-87113983D01*
X156820374Y-86899268D01*
X156906221Y-86716139D01*
X156974628Y-86588434D01*
X157074622Y-86488440D01*
X157146710Y-86516345D01*
G37*
G36*
X162262677Y-87295367D02*
G01*
X162327014Y-87358929D01*
X162371973Y-87441870D01*
X162389026Y-87524036D01*
X162385150Y-87562793D01*
X162373523Y-87600000D01*
X162298334Y-87819366D01*
X162244849Y-88044934D01*
X162292133Y-87937189D01*
X162362671Y-87803088D01*
X162451038Y-87663562D01*
X162552582Y-87538763D01*
X162661102Y-87448846D01*
X162770398Y-87413965D01*
X162824658Y-87433344D01*
X162884344Y-87479852D01*
X162935504Y-87535663D01*
X162965735Y-87584497D01*
X162979688Y-87688367D01*
X162968060Y-87828668D01*
X162940155Y-87981372D01*
X162906049Y-88123999D01*
X162875818Y-88230969D01*
X162936279Y-88174384D01*
X163029297Y-88098419D01*
X163132391Y-88031757D01*
X163221533Y-88003076D01*
X163239362Y-88005402D01*
X163263391Y-88013153D01*
X163285095Y-88026331D01*
X163294397Y-88044934D01*
X163139368Y-88152679D01*
X162990540Y-88280579D01*
X162857990Y-88415454D01*
X162751794Y-88544128D01*
X162729315Y-88582111D01*
X162708386Y-88620093D01*
X162683582Y-88648773D01*
X162649475Y-88660400D01*
X162580487Y-88636371D01*
X162520026Y-88576685D01*
X162476617Y-88497620D01*
X162460339Y-88413904D01*
X162464990Y-88368170D01*
X162482043Y-88323987D01*
X162574286Y-88133301D01*
X162649475Y-87931763D01*
X162703735Y-87725574D01*
X162733191Y-87520935D01*
X162602191Y-87652710D01*
X162481268Y-87824792D01*
X162376624Y-88009277D01*
X162292908Y-88181360D01*
X162262677Y-88250348D01*
X162230896Y-88335614D01*
X162205316Y-88430957D01*
X162193689Y-88531726D01*
X162187488Y-88573584D01*
X162159583Y-88592188D01*
X162098346Y-88572034D01*
X162034784Y-88521649D01*
X161981299Y-88458087D01*
X161950293Y-88398401D01*
X161939441Y-88327087D01*
X161936340Y-88241821D01*
X161945836Y-88032726D01*
X161974323Y-87820917D01*
X162020250Y-87611433D01*
X162082068Y-87409314D01*
X162099896Y-87361255D01*
X162122375Y-87316296D01*
X162150281Y-87282965D01*
X162185938Y-87269788D01*
X162262677Y-87295367D01*
G37*
G36*
X158994659Y-87238782D02*
G01*
X159014038Y-87333350D01*
X159005511Y-87417841D01*
X158986133Y-87488379D01*
X159048145Y-87444971D01*
X159117908Y-87472101D01*
X159179144Y-87537988D01*
X159222552Y-87619379D01*
X159238831Y-87693018D01*
X159231079Y-87739526D01*
X159189996Y-87940289D01*
X159178369Y-88147253D01*
X159180695Y-88251898D01*
X159190771Y-88354993D01*
X159227979Y-88244922D01*
X159289215Y-88136401D01*
X159363629Y-88054236D01*
X159443469Y-88021680D01*
X159490753Y-88037183D01*
X159508582Y-88065088D01*
X159400061Y-88162756D01*
X159317896Y-88296857D01*
X159265961Y-88451886D01*
X159248132Y-88613892D01*
X159250458Y-88634821D01*
X159252783Y-88651099D01*
X159209375Y-88675903D01*
X159096979Y-88644897D01*
X159009387Y-88573584D01*
X158968304Y-88490643D01*
X158937299Y-88372046D01*
X158915594Y-88248022D01*
X158905518Y-88148804D01*
X158855133Y-88246472D01*
X158776068Y-88369720D01*
X158681500Y-88475916D01*
X158606311Y-88510803D01*
X158584607Y-88520874D01*
X158522595Y-88509247D01*
X158461359Y-88477466D01*
X158405548Y-88429407D01*
X158363690Y-88366620D01*
X158340839Y-88291431D01*
X158601660Y-88291431D01*
X158606311Y-88403052D01*
X158740218Y-88215854D01*
X158841180Y-88010828D01*
X158908812Y-87792624D01*
X158942725Y-87565894D01*
X158786145Y-87730225D01*
X158679950Y-87913934D01*
X158619489Y-88107721D01*
X158601660Y-88291431D01*
X158340839Y-88291431D01*
X158339661Y-88287555D01*
X158331909Y-88086017D01*
X158355357Y-87912772D01*
X158425702Y-87707745D01*
X158541393Y-87503300D01*
X158700879Y-87331799D01*
X158744287Y-87296143D01*
X158804749Y-87253510D01*
X158871411Y-87217853D01*
X158934973Y-87203125D01*
X158994659Y-87238782D01*
G37*
G36*
X161289093Y-87207776D02*
G01*
X161292969Y-87232581D01*
X161320874Y-87388966D01*
X161364282Y-87544965D01*
X161429007Y-87701738D01*
X161520862Y-87860449D01*
X161516211Y-87865100D01*
X161506909Y-87866650D01*
X161423193Y-87829443D01*
X161345679Y-87738751D01*
X161282117Y-87626355D01*
X161240259Y-87525586D01*
X161217780Y-87748828D01*
X161176697Y-87970520D01*
X161146466Y-88075165D01*
X161099957Y-88204614D01*
X161038721Y-88342590D01*
X160965082Y-88470490D01*
X160879816Y-88570483D01*
X160786023Y-88624744D01*
X160762769Y-88627844D01*
X160699207Y-88611566D01*
X160632544Y-88570483D01*
X160573633Y-88518549D01*
X160536426Y-88468164D01*
X160500769Y-88359644D01*
X160479065Y-88220117D01*
X160468213Y-88075940D01*
X160465112Y-87951917D01*
X160469182Y-87806770D01*
X160481390Y-87662787D01*
X160500188Y-87523454D01*
X160524023Y-87392261D01*
X160538751Y-87333350D01*
X160558905Y-87280640D01*
X160586810Y-87242657D01*
X160626343Y-87227930D01*
X160705408Y-87251959D01*
X160775171Y-87313196D01*
X160825555Y-87395361D01*
X160844934Y-87483728D01*
X160837958Y-87544189D01*
X160821680Y-87625580D01*
X160803851Y-87707745D01*
X160792224Y-87770532D01*
X160770520Y-87955792D01*
X160762769Y-88145703D01*
X160769745Y-88325537D01*
X160793774Y-88511572D01*
X160884854Y-88380185D01*
X160959656Y-88237170D01*
X161020892Y-88085823D01*
X161071277Y-87929437D01*
X161111972Y-87769563D01*
X161144141Y-87607751D01*
X161170883Y-87446909D01*
X161195300Y-87289941D01*
X161200726Y-87258160D01*
X161213129Y-87227930D01*
X161237158Y-87204675D01*
X161279016Y-87195374D01*
X161289093Y-87207776D01*
G37*
G36*
X160449609Y-87285291D02*
G01*
X160468213Y-87348853D01*
X160451935Y-87475201D01*
X160408527Y-87615503D01*
X160347290Y-87747278D01*
X160279077Y-87849597D01*
X160219391Y-87884479D01*
X160141101Y-87896106D01*
X160103119Y-87893005D01*
X160066687Y-87884479D01*
X160038782Y-87872076D01*
X160027930Y-87855798D01*
X160031030Y-87844946D01*
X160113583Y-87677127D01*
X160162805Y-87499231D01*
X160032581Y-87657361D01*
X159916309Y-87838745D01*
X159817865Y-88031757D01*
X159741125Y-88223218D01*
X159708569Y-88319336D01*
X159694617Y-88429407D01*
X159698492Y-88537927D01*
X159705469Y-88630945D01*
X159698492Y-88658075D01*
X159672913Y-88668152D01*
X159609351Y-88651099D01*
X159543463Y-88606915D01*
X159486877Y-88548004D01*
X159451221Y-88485217D01*
X159432617Y-88414679D01*
X159424091Y-88337164D01*
X159420990Y-88261200D01*
X159420215Y-88196863D01*
X159427191Y-87999200D01*
X159448120Y-87806189D01*
X159484552Y-87622479D01*
X159538037Y-87452722D01*
X159557416Y-87403888D01*
X159580670Y-87356604D01*
X159610126Y-87320947D01*
X159648108Y-87306995D01*
X159712445Y-87330249D01*
X159776007Y-87390710D01*
X159824066Y-87475201D01*
X159843445Y-87570544D01*
X159829492Y-87644958D01*
X159780658Y-87789911D01*
X159745776Y-87937964D01*
X159821741Y-87781384D01*
X159918634Y-87620929D01*
X160033356Y-87472876D01*
X160159705Y-87353503D01*
X160196136Y-87327924D01*
X160245746Y-87300018D01*
X160310083Y-87277539D01*
X160390698Y-87268237D01*
X160449609Y-87285291D01*
G37*
G36*
X164375726Y-87201575D02*
G01*
X164393555Y-87263586D01*
X164387354Y-87323273D01*
X164369525Y-87393811D01*
X164342395Y-87462024D01*
X164308289Y-87513184D01*
X164287360Y-87523260D01*
X164250928Y-87536438D01*
X164212170Y-87550391D01*
X164184265Y-87561243D01*
X164067993Y-87653485D01*
X163985828Y-87776733D01*
X164045514Y-87768207D01*
X164111401Y-87759680D01*
X164183490Y-87780609D01*
X164252478Y-87833319D01*
X164303638Y-87903857D01*
X164323792Y-87978271D01*
X164296661Y-88103070D01*
X164223798Y-88256549D01*
X164118378Y-88416229D01*
X163992804Y-88558856D01*
X163858704Y-88661176D01*
X163730029Y-88700708D01*
X163672668Y-88665826D01*
X163626935Y-88582886D01*
X163596704Y-88482892D01*
X163585852Y-88398401D01*
X163626160Y-88222443D01*
X163726929Y-88054236D01*
X163751733Y-88021680D01*
X163773438Y-87998425D01*
X163792041Y-87987573D01*
X163799792Y-87994550D01*
X163801343Y-88010828D01*
X163788165Y-88092993D01*
X163757935Y-88172833D01*
X163725378Y-88252673D01*
X163703674Y-88334839D01*
X163825372Y-88248798D01*
X163937769Y-88138727D01*
X164031561Y-88012378D01*
X164097449Y-87877502D01*
X164013733Y-87886804D01*
X163924591Y-87872076D01*
X163843976Y-87828668D01*
X163785065Y-87758905D01*
X163762585Y-87666663D01*
X163786615Y-87562018D01*
X163852502Y-87453497D01*
X163949396Y-87350403D01*
X164066443Y-87263586D01*
X164193567Y-87204675D01*
X164319141Y-87182971D01*
X164375726Y-87201575D01*
G37*
G36*
X161627832Y-87359705D02*
G01*
X161704572Y-87412415D01*
X161758832Y-87486829D01*
X161779761Y-87573645D01*
X161771234Y-87641083D01*
X161750305Y-87759680D01*
X161723950Y-87896106D01*
X161697595Y-88017029D01*
X161754181Y-87949591D01*
X161841772Y-87865100D01*
X161937891Y-87793011D01*
X162020056Y-87762781D01*
X162049512Y-87767432D01*
X162068115Y-87778284D01*
X162078967Y-87793787D01*
X161923163Y-87953467D01*
X161765033Y-88151904D01*
X161690813Y-88262169D01*
X161621631Y-88379022D01*
X161560782Y-88500139D01*
X161511560Y-88623193D01*
X161483655Y-88649548D01*
X161431720Y-88620093D01*
X161382111Y-88550330D01*
X161344904Y-88467389D01*
X161330176Y-88396851D01*
X161337927Y-88317010D01*
X161355756Y-88206940D01*
X161376685Y-88092218D01*
X161392188Y-87999976D01*
X161411179Y-87858705D01*
X161424744Y-87720148D01*
X161437146Y-87581978D01*
X161452649Y-87441870D01*
X161458850Y-87401562D01*
X161470477Y-87369006D01*
X161494507Y-87347302D01*
X161537915Y-87339551D01*
X161627832Y-87359705D01*
G37*
G36*
X163649414Y-86657422D02*
G01*
X163648639Y-86712457D01*
X163644763Y-86818652D01*
X163635461Y-86953528D01*
X163618408Y-87096155D01*
X163591278Y-87225604D01*
X163551746Y-87319397D01*
X163520740Y-87348077D01*
X163473456Y-87379083D01*
X163421521Y-87403888D01*
X163376563Y-87413965D01*
X163359509Y-87410089D01*
X163350208Y-87393811D01*
X163367067Y-87245952D01*
X163377338Y-87103131D01*
X163384314Y-86843457D01*
X163382764Y-86755090D01*
X163381213Y-86665173D01*
X163401367Y-86611688D01*
X163450977Y-86570605D01*
X163515314Y-86544250D01*
X163578101Y-86534949D01*
X163649414Y-86657422D01*
G37*
G36*
X161820068Y-86788422D02*
G01*
X161883630Y-86823303D01*
X161937115Y-86871362D01*
X161959595Y-86924072D01*
X161951843Y-86948877D01*
X161923163Y-86995386D01*
X161878979Y-87064374D01*
X161826270Y-87141888D01*
X161772784Y-87213977D01*
X161727051Y-87267462D01*
X161696045Y-87288391D01*
X161666589Y-87266687D01*
X161637909Y-87216302D01*
X161615430Y-87157391D01*
X161606128Y-87110107D01*
X161615430Y-87073676D01*
X161639459Y-87007788D01*
X161672015Y-86929498D01*
X161707672Y-86854309D01*
X161741779Y-86797723D01*
X161767358Y-86775244D01*
X161820068Y-86788422D01*
G37*
%TO.C,kibuzzard-64859500*%
G36*
X143128460Y-102300000D02*
G01*
X142758044Y-102855625D01*
X142559606Y-102855625D01*
X142345294Y-102855625D01*
X141961436Y-102855625D01*
X141392794Y-102855625D01*
X141240394Y-102855625D01*
X141041956Y-102855625D01*
X140671540Y-102855625D01*
X140824151Y-102626708D01*
X141240394Y-102626708D01*
X141315165Y-102649568D01*
X141392794Y-102657188D01*
X141458278Y-102651367D01*
X141511856Y-102633904D01*
X141553528Y-102604800D01*
X141583294Y-102564054D01*
X141601153Y-102511667D01*
X141607106Y-102447638D01*
X141599367Y-102380724D01*
X141576150Y-102329528D01*
X141537455Y-102294047D01*
X141483281Y-102274283D01*
X141483281Y-102273330D01*
X141533287Y-102249101D01*
X141569006Y-102212608D01*
X141590437Y-102163852D01*
X141597581Y-102102833D01*
X141585675Y-102035800D01*
X141549956Y-101985199D01*
X141492092Y-101953409D01*
X141484174Y-101952338D01*
X141683306Y-101952338D01*
X141837611Y-102647663D01*
X141961436Y-102647663D01*
X141966115Y-102626708D01*
X142192894Y-102626708D01*
X142267665Y-102649568D01*
X142345294Y-102657188D01*
X142410778Y-102651367D01*
X142464356Y-102633904D01*
X142506028Y-102604800D01*
X142535794Y-102564054D01*
X142553653Y-102511667D01*
X142559606Y-102447638D01*
X142551867Y-102380724D01*
X142528650Y-102329528D01*
X142489955Y-102294047D01*
X142435781Y-102274283D01*
X142435781Y-102273330D01*
X142485787Y-102249101D01*
X142521506Y-102212608D01*
X142542937Y-102163852D01*
X142550081Y-102102833D01*
X142538175Y-102035800D01*
X142502456Y-101985199D01*
X142444592Y-101953409D01*
X142366249Y-101942812D01*
X142314602Y-101946517D01*
X142261262Y-101957629D01*
X142206229Y-101976150D01*
X142206229Y-102064733D01*
X142280047Y-102034729D01*
X142347199Y-102024728D01*
X142402232Y-102034888D01*
X142435252Y-102065368D01*
X142446259Y-102116168D01*
X142437686Y-102169746D01*
X142411969Y-102206655D01*
X142366963Y-102228086D01*
X142300526Y-102235230D01*
X142281476Y-102235230D01*
X142281476Y-102319050D01*
X142300526Y-102319050D01*
X142371964Y-102326313D01*
X142418636Y-102348101D01*
X142444354Y-102386320D01*
X142452926Y-102442875D01*
X142445425Y-102500382D01*
X142422922Y-102541459D01*
X142385418Y-102566105D01*
X142332911Y-102574320D01*
X142262188Y-102564557D01*
X142192894Y-102535268D01*
X142192894Y-102626708D01*
X141966115Y-102626708D01*
X142116694Y-101952338D01*
X142010966Y-101952338D01*
X141902381Y-102552413D01*
X141901429Y-102552413D01*
X141792844Y-101952338D01*
X141683306Y-101952338D01*
X141484174Y-101952338D01*
X141413749Y-101942812D01*
X141362102Y-101946517D01*
X141308762Y-101957629D01*
X141253729Y-101976150D01*
X141253729Y-102064733D01*
X141327547Y-102034729D01*
X141394699Y-102024728D01*
X141449732Y-102034888D01*
X141482752Y-102065368D01*
X141493759Y-102116168D01*
X141485186Y-102169746D01*
X141459469Y-102206655D01*
X141414463Y-102228086D01*
X141348026Y-102235230D01*
X141328976Y-102235230D01*
X141328976Y-102319050D01*
X141348026Y-102319050D01*
X141419464Y-102326313D01*
X141466136Y-102348101D01*
X141491854Y-102386320D01*
X141500426Y-102442875D01*
X141492925Y-102500382D01*
X141470422Y-102541459D01*
X141432918Y-102566105D01*
X141380411Y-102574320D01*
X141309688Y-102564557D01*
X141240394Y-102535268D01*
X141240394Y-102626708D01*
X140824151Y-102626708D01*
X141041956Y-102300000D01*
X140671540Y-101744375D01*
X141041956Y-101744375D01*
X141240394Y-101744375D01*
X142559606Y-101744375D01*
X142758044Y-101744375D01*
X143128460Y-102300000D01*
G37*
%TO.C,J4*%
X134195000Y-88660000D02*
X134195000Y-88025000D01*
X134195000Y-88025000D02*
X134830000Y-88025000D01*
%TO.C,kibuzzard-6485947F*%
G36*
X140645830Y-102300000D02*
G01*
X140275413Y-102855625D01*
X140076975Y-102855625D01*
X139826468Y-102855625D01*
X139208295Y-102855625D01*
X138946358Y-102855625D01*
X138708233Y-102855625D01*
X138509795Y-102855625D01*
X138455335Y-102852950D01*
X138401398Y-102844949D01*
X138348506Y-102831700D01*
X138297167Y-102813331D01*
X138247876Y-102790017D01*
X138201107Y-102761985D01*
X138157311Y-102729504D01*
X138116909Y-102692886D01*
X138080291Y-102652485D01*
X138047810Y-102608689D01*
X138019778Y-102561920D01*
X137996465Y-102512628D01*
X137978095Y-102461289D01*
X137964847Y-102408397D01*
X137956846Y-102354461D01*
X137954170Y-102300000D01*
X137954404Y-102295238D01*
X138708233Y-102295238D01*
X138711954Y-102380070D01*
X138723116Y-102453591D01*
X138741719Y-102515801D01*
X138767764Y-102566700D01*
X138801250Y-102606288D01*
X138842178Y-102634566D01*
X138890547Y-102651532D01*
X138946358Y-102657188D01*
X139003296Y-102653483D01*
X139057271Y-102642371D01*
X139108283Y-102623850D01*
X139108283Y-102233325D01*
X138886350Y-102233325D01*
X138886350Y-102314288D01*
X139006365Y-102314288D01*
X139006365Y-102563843D01*
X138949215Y-102575273D01*
X138891113Y-102559080D01*
X138848250Y-102510503D01*
X138828671Y-102457798D01*
X138816924Y-102386043D01*
X138813008Y-102295238D01*
X138817135Y-102206496D01*
X138829518Y-102137123D01*
X138850155Y-102087116D01*
X138897542Y-102041753D01*
X138965408Y-102026633D01*
X139023749Y-102032348D01*
X139084470Y-102049492D01*
X139084470Y-101963768D01*
X139042043Y-101952338D01*
X139208295Y-101952338D01*
X139208295Y-102647663D01*
X139313070Y-102647663D01*
X139313070Y-102142838D01*
X139314975Y-102142838D01*
X139463565Y-102647663D01*
X139570245Y-102647663D01*
X139570245Y-102638138D01*
X139676925Y-102638138D01*
X139748601Y-102652425D01*
X139826468Y-102657188D01*
X139905525Y-102648972D01*
X139967438Y-102624326D01*
X140014468Y-102579440D01*
X140048877Y-102510503D01*
X140064487Y-102450072D01*
X140073853Y-102376729D01*
X140076975Y-102290475D01*
X140073314Y-102201446D01*
X140062331Y-102126764D01*
X140044025Y-102066429D01*
X140018397Y-102020441D01*
X139971036Y-101977314D01*
X139907060Y-101951438D01*
X139826468Y-101942812D01*
X139751459Y-101947575D01*
X139676925Y-101961862D01*
X139676925Y-102638138D01*
X139570245Y-102638138D01*
X139570245Y-101952338D01*
X139470233Y-101952338D01*
X139470233Y-102457163D01*
X139467375Y-102457163D01*
X139318785Y-101952338D01*
X139208295Y-101952338D01*
X139042043Y-101952338D01*
X139026130Y-101948051D01*
X138965408Y-101942812D01*
X138886827Y-101952232D01*
X138822533Y-101980489D01*
X138772527Y-102027585D01*
X138744398Y-102076103D01*
X138724306Y-102136884D01*
X138712251Y-102209929D01*
X138708233Y-102295238D01*
X137954404Y-102295238D01*
X137956846Y-102245539D01*
X137964847Y-102191603D01*
X137978095Y-102138711D01*
X137996465Y-102087372D01*
X138019778Y-102038080D01*
X138047810Y-101991311D01*
X138080291Y-101947515D01*
X138116909Y-101907114D01*
X138157311Y-101870496D01*
X138201107Y-101838015D01*
X138247876Y-101809983D01*
X138297167Y-101786669D01*
X138348506Y-101768300D01*
X138401398Y-101755051D01*
X138455335Y-101747050D01*
X138509795Y-101744375D01*
X138708233Y-101744375D01*
X140076975Y-101744375D01*
X140275413Y-101744375D01*
X140645830Y-102300000D01*
G37*
G36*
X139892429Y-102040444D02*
G01*
X139937910Y-102084735D01*
X139957490Y-102133842D01*
X139969237Y-102202422D01*
X139973153Y-102290475D01*
X139969290Y-102387736D01*
X139957701Y-102462348D01*
X139938387Y-102514313D01*
X139893024Y-102560033D01*
X139826468Y-102575273D01*
X139783605Y-102566700D01*
X139783605Y-102034253D01*
X139826468Y-102025680D01*
X139892429Y-102040444D01*
G37*
%TO.C,kibuzzard-64859916*%
G36*
X137054461Y-93545400D02*
G01*
X137108397Y-93553401D01*
X137161289Y-93566650D01*
X137212628Y-93585019D01*
X137261920Y-93608332D01*
X137308689Y-93636365D01*
X137352485Y-93668846D01*
X137392886Y-93705464D01*
X137429504Y-93745865D01*
X137461985Y-93789661D01*
X137490018Y-93836430D01*
X137513331Y-93885722D01*
X137531700Y-93937061D01*
X137544949Y-93989953D01*
X137552950Y-94043889D01*
X137555625Y-94098350D01*
X137555625Y-94296787D01*
X137555625Y-95125462D01*
X137555625Y-95323900D01*
X137555625Y-95657275D01*
X136444375Y-95323900D01*
X136444375Y-95125462D01*
X136444375Y-94999732D01*
X136642812Y-94999732D01*
X136648766Y-95063312D01*
X136666625Y-95120700D01*
X136754255Y-95120700D01*
X136732109Y-95066407D01*
X136724727Y-95015925D01*
X136732639Y-94969358D01*
X136756372Y-94931258D01*
X136795927Y-94901625D01*
X136851304Y-94880458D01*
X136922504Y-94867758D01*
X137009525Y-94863525D01*
X137090144Y-94867361D01*
X137156104Y-94878871D01*
X137207407Y-94898053D01*
X137244052Y-94924908D01*
X137266039Y-94959436D01*
X137273367Y-95001637D01*
X137269557Y-95023545D01*
X137120967Y-95023545D01*
X137120967Y-95125462D01*
X137336232Y-95125462D01*
X137351949Y-95064741D01*
X137357188Y-94996875D01*
X137351755Y-94941064D01*
X137335459Y-94892695D01*
X137308297Y-94851768D01*
X137270272Y-94818281D01*
X137221382Y-94792236D01*
X137161627Y-94773633D01*
X137091008Y-94762471D01*
X137009525Y-94758750D01*
X136923577Y-94762515D01*
X136849088Y-94773811D01*
X136786060Y-94792638D01*
X136734491Y-94818996D01*
X136694381Y-94852884D01*
X136665732Y-94894303D01*
X136648542Y-94943252D01*
X136642812Y-94999732D01*
X136444375Y-94999732D01*
X136444375Y-94296787D01*
X136652337Y-94296787D01*
X136652337Y-94401562D01*
X137157162Y-94401562D01*
X137157162Y-94403467D01*
X136652337Y-94552057D01*
X136652337Y-94658737D01*
X137347662Y-94658737D01*
X137347662Y-94558725D01*
X136842837Y-94558725D01*
X136842837Y-94555867D01*
X137347662Y-94407277D01*
X137347662Y-94296787D01*
X136652337Y-94296787D01*
X136444375Y-94296787D01*
X136444375Y-94098350D01*
X136447050Y-94043889D01*
X136455051Y-93989953D01*
X136468300Y-93937061D01*
X136486669Y-93885722D01*
X136509982Y-93836430D01*
X136538015Y-93789661D01*
X136570496Y-93745865D01*
X136607114Y-93705464D01*
X136647515Y-93668846D01*
X136691311Y-93636365D01*
X136738080Y-93608332D01*
X136787372Y-93585019D01*
X136838711Y-93566650D01*
X136891603Y-93553401D01*
X136945539Y-93545400D01*
X137000000Y-93542725D01*
X137054461Y-93545400D01*
G37*
%TO.C,kibuzzard-64859551*%
G36*
X148348463Y-102300000D02*
G01*
X147978046Y-102855625D01*
X147779609Y-102855625D01*
X147327171Y-102855625D01*
X147038564Y-102855625D01*
X146587079Y-102855625D01*
X146420391Y-102855625D01*
X146221954Y-102855625D01*
X145851537Y-102855625D01*
X146221954Y-102300000D01*
X146104479Y-102123787D01*
X146420391Y-102123787D01*
X146430273Y-102191415D01*
X146459920Y-102247613D01*
X146492675Y-102280633D01*
X146538237Y-102312383D01*
X146596604Y-102342863D01*
X146637442Y-102367389D01*
X146664707Y-102395250D01*
X146680067Y-102429064D01*
X146685186Y-102471450D01*
X146678519Y-102515860D01*
X146658516Y-102548126D01*
X146626607Y-102567772D01*
X146584221Y-102574320D01*
X146528447Y-102567441D01*
X146475425Y-102546803D01*
X146425154Y-102512408D01*
X146425154Y-102611468D01*
X146474049Y-102636868D01*
X146528024Y-102652108D01*
X146587079Y-102657188D01*
X146660802Y-102649568D01*
X146689473Y-102638138D01*
X146889021Y-102638138D01*
X146960697Y-102652425D01*
X147038564Y-102657188D01*
X147117621Y-102648972D01*
X147120909Y-102647663D01*
X147327171Y-102647663D01*
X147433851Y-102647663D01*
X147470046Y-102464783D01*
X147632924Y-102464783D01*
X147669119Y-102647663D01*
X147779609Y-102647663D01*
X147614826Y-101952338D01*
X147491001Y-101952338D01*
X147327171Y-102647663D01*
X147120909Y-102647663D01*
X147179534Y-102624326D01*
X147226563Y-102579440D01*
X147260972Y-102510503D01*
X147276583Y-102450072D01*
X147285949Y-102376729D01*
X147289071Y-102290475D01*
X147285410Y-102201446D01*
X147274427Y-102126764D01*
X147256121Y-102066429D01*
X147230492Y-102020441D01*
X147183132Y-101977314D01*
X147119156Y-101951438D01*
X147038564Y-101942812D01*
X146963554Y-101947575D01*
X146889021Y-101961862D01*
X146889021Y-102638138D01*
X146689473Y-102638138D01*
X146718143Y-102626708D01*
X146759100Y-102588608D01*
X146783675Y-102535268D01*
X146791866Y-102466687D01*
X146781627Y-102393107D01*
X146750909Y-102334290D01*
X146716090Y-102300318D01*
X146666242Y-102266980D01*
X146601366Y-102234278D01*
X146559033Y-102205808D01*
X146533633Y-102167391D01*
X146525166Y-102119025D01*
X146531834Y-102079973D01*
X146551836Y-102050445D01*
X146583507Y-102031871D01*
X146625179Y-102025680D01*
X146699236Y-102035919D01*
X146772816Y-102066638D01*
X146772816Y-101971388D01*
X146721593Y-101955512D01*
X146668253Y-101945987D01*
X146612796Y-101942812D01*
X146555911Y-101948104D01*
X146508445Y-101963979D01*
X146470397Y-101990438D01*
X146432893Y-102047588D01*
X146420391Y-102123787D01*
X146104479Y-102123787D01*
X145851537Y-101744375D01*
X146221954Y-101744375D01*
X146420391Y-101744375D01*
X147779609Y-101744375D01*
X147978046Y-101744375D01*
X148348463Y-102300000D01*
G37*
G36*
X147104524Y-102040444D02*
G01*
X147150006Y-102084735D01*
X147169585Y-102133842D01*
X147181333Y-102202422D01*
X147185249Y-102290475D01*
X147181386Y-102387736D01*
X147169797Y-102462348D01*
X147150482Y-102514313D01*
X147105120Y-102560033D01*
X147038564Y-102575273D01*
X146995701Y-102566700D01*
X146995701Y-102034253D01*
X147038564Y-102025680D01*
X147104524Y-102040444D01*
G37*
G36*
X147616731Y-102383820D02*
G01*
X147486239Y-102383820D01*
X147551009Y-102057113D01*
X147551961Y-102057113D01*
X147616731Y-102383820D01*
G37*
%TO.C,kibuzzard-648599E7*%
G36*
X164209451Y-94677050D02*
G01*
X164263387Y-94685051D01*
X164316279Y-94698300D01*
X164367618Y-94716669D01*
X164416910Y-94739982D01*
X164463679Y-94768015D01*
X164507475Y-94800496D01*
X164547876Y-94837114D01*
X164584494Y-94877515D01*
X164616975Y-94921311D01*
X164645007Y-94968080D01*
X164668321Y-95017372D01*
X164686690Y-95068711D01*
X164699939Y-95121603D01*
X164707940Y-95175539D01*
X164710615Y-95230000D01*
X164707940Y-95284461D01*
X164699939Y-95338397D01*
X164686690Y-95391289D01*
X164668321Y-95442628D01*
X164645007Y-95491920D01*
X164616975Y-95538689D01*
X164584494Y-95582485D01*
X164547876Y-95622886D01*
X164507475Y-95659504D01*
X164463679Y-95691985D01*
X164416910Y-95720018D01*
X164367618Y-95743331D01*
X164316279Y-95761700D01*
X164263387Y-95774949D01*
X164209451Y-95782950D01*
X164154990Y-95785625D01*
X163956552Y-95785625D01*
X163747002Y-95785625D01*
X163321235Y-95785625D01*
X162835460Y-95785625D01*
X162535422Y-95785625D01*
X161882960Y-95785625D01*
X161452430Y-95785625D01*
X161211447Y-95785625D01*
X161013010Y-95785625D01*
X160958549Y-95782950D01*
X160904613Y-95774949D01*
X160851721Y-95761700D01*
X160800382Y-95743331D01*
X160751090Y-95720018D01*
X160704321Y-95691985D01*
X160660525Y-95659504D01*
X160620124Y-95622886D01*
X160583506Y-95582485D01*
X160551025Y-95538689D01*
X160522992Y-95491920D01*
X160499679Y-95442628D01*
X160481310Y-95391289D01*
X160468061Y-95338397D01*
X160460060Y-95284461D01*
X160457385Y-95230000D01*
X160457853Y-95220475D01*
X161211447Y-95220475D01*
X161215213Y-95306423D01*
X161226509Y-95380912D01*
X161245336Y-95443940D01*
X161271693Y-95495509D01*
X161305581Y-95535619D01*
X161347000Y-95564268D01*
X161395950Y-95581458D01*
X161452430Y-95587187D01*
X161516009Y-95581234D01*
X161573397Y-95563375D01*
X161573397Y-95475745D01*
X161519105Y-95497891D01*
X161468622Y-95505272D01*
X161422056Y-95497361D01*
X161383956Y-95473628D01*
X161354322Y-95434073D01*
X161333156Y-95378696D01*
X161324472Y-95330012D01*
X161682935Y-95330012D01*
X161688438Y-95411927D01*
X161704948Y-95477333D01*
X161732465Y-95526228D01*
X161771200Y-95560094D01*
X161821365Y-95580414D01*
X161882960Y-95587187D01*
X161944555Y-95580414D01*
X161994720Y-95560094D01*
X162033455Y-95526228D01*
X162060972Y-95477333D01*
X162077482Y-95411927D01*
X162082985Y-95330012D01*
X162077482Y-95248097D01*
X162060972Y-95182692D01*
X162033455Y-95133797D01*
X161994720Y-95099931D01*
X161944555Y-95079611D01*
X161882960Y-95072837D01*
X161821365Y-95079611D01*
X161771200Y-95099931D01*
X161732465Y-95133797D01*
X161704948Y-95182692D01*
X161688438Y-95248097D01*
X161682935Y-95330012D01*
X161324472Y-95330012D01*
X161320456Y-95307496D01*
X161316222Y-95220475D01*
X161320059Y-95139856D01*
X161331568Y-95073896D01*
X161350751Y-95022593D01*
X161377606Y-94985948D01*
X161412134Y-94963961D01*
X161454335Y-94956632D01*
X161476242Y-94960442D01*
X161476242Y-95109032D01*
X161578160Y-95109032D01*
X161578160Y-94893767D01*
X161533998Y-94882337D01*
X162173472Y-94882337D01*
X162173472Y-94959490D01*
X162301107Y-94959490D01*
X162301107Y-95577663D01*
X162535422Y-95577663D01*
X162535422Y-95500510D01*
X162407787Y-95500510D01*
X162407787Y-95330012D01*
X162635435Y-95330012D01*
X162640938Y-95411927D01*
X162657448Y-95477333D01*
X162684965Y-95526228D01*
X162723700Y-95560094D01*
X162773865Y-95580414D01*
X162835460Y-95587187D01*
X162897055Y-95580414D01*
X162947220Y-95560094D01*
X162985955Y-95526228D01*
X163013472Y-95477333D01*
X163029982Y-95411927D01*
X163035485Y-95330012D01*
X163029982Y-95248097D01*
X163013472Y-95182692D01*
X162985955Y-95133797D01*
X162947220Y-95099931D01*
X162903847Y-95082362D01*
X163135497Y-95082362D01*
X163135497Y-95420500D01*
X163145261Y-95501462D01*
X163174550Y-95551945D01*
X163208205Y-95571524D01*
X163257100Y-95583272D01*
X163321235Y-95587187D01*
X163382512Y-95582743D01*
X163403677Y-95577663D01*
X163642227Y-95577663D01*
X163747002Y-95577663D01*
X163746050Y-95179517D01*
X163813466Y-95164172D01*
X163883633Y-95154964D01*
X163956552Y-95151895D01*
X163956552Y-95072837D01*
X163891554Y-95074819D01*
X163827622Y-95080762D01*
X163764757Y-95090668D01*
X163702959Y-95104537D01*
X163642227Y-95122368D01*
X163642227Y-95577663D01*
X163403677Y-95577663D01*
X163438075Y-95569407D01*
X163487922Y-95547183D01*
X163487922Y-95082362D01*
X163383147Y-95082362D01*
X163384100Y-95490033D01*
X163319330Y-95509082D01*
X163255036Y-95490509D01*
X163237415Y-95420500D01*
X163237415Y-95082362D01*
X163135497Y-95082362D01*
X162903847Y-95082362D01*
X162897055Y-95079611D01*
X162835460Y-95072837D01*
X162773865Y-95079611D01*
X162723700Y-95099931D01*
X162684965Y-95133797D01*
X162657448Y-95182692D01*
X162640938Y-95248097D01*
X162635435Y-95330012D01*
X162407787Y-95330012D01*
X162407787Y-94882337D01*
X162173472Y-94882337D01*
X161533998Y-94882337D01*
X161517438Y-94878051D01*
X161449572Y-94872812D01*
X161393762Y-94878245D01*
X161345393Y-94894541D01*
X161304465Y-94921703D01*
X161270979Y-94959728D01*
X161244934Y-95008618D01*
X161226330Y-95068373D01*
X161215168Y-95138992D01*
X161211447Y-95220475D01*
X160457853Y-95220475D01*
X160460060Y-95175539D01*
X160468061Y-95121603D01*
X160481310Y-95068711D01*
X160499679Y-95017372D01*
X160522992Y-94968080D01*
X160551025Y-94921311D01*
X160583506Y-94877515D01*
X160620124Y-94837114D01*
X160660525Y-94800496D01*
X160704321Y-94768015D01*
X160751090Y-94739982D01*
X160800382Y-94716669D01*
X160851721Y-94698300D01*
X160904613Y-94685051D01*
X160958549Y-94677050D01*
X161013010Y-94674375D01*
X161211447Y-94674375D01*
X163956552Y-94674375D01*
X164154990Y-94674375D01*
X164209451Y-94677050D01*
G37*
G36*
X162878680Y-95160348D02*
G01*
X162907374Y-95188566D01*
X162923447Y-95242740D01*
X162928805Y-95330012D01*
X162923447Y-95417285D01*
X162907374Y-95471459D01*
X162878680Y-95499677D01*
X162835460Y-95509082D01*
X162792240Y-95499677D01*
X162763546Y-95471459D01*
X162747473Y-95417285D01*
X162742115Y-95330012D01*
X162747473Y-95242740D01*
X162763546Y-95188566D01*
X162792240Y-95160348D01*
X162835460Y-95150942D01*
X162878680Y-95160348D01*
G37*
G36*
X161926180Y-95160348D02*
G01*
X161954874Y-95188566D01*
X161970947Y-95242740D01*
X161976305Y-95330012D01*
X161970947Y-95417285D01*
X161954874Y-95471459D01*
X161926180Y-95499677D01*
X161882960Y-95509082D01*
X161839740Y-95499677D01*
X161811046Y-95471459D01*
X161794973Y-95417285D01*
X161789615Y-95330012D01*
X161794973Y-95242740D01*
X161811046Y-95188566D01*
X161839740Y-95160348D01*
X161882960Y-95150942D01*
X161926180Y-95160348D01*
G37*
%TO.C,kibuzzard-64859561*%
G36*
X155344665Y-101747050D02*
G01*
X155398602Y-101755051D01*
X155451494Y-101768300D01*
X155502833Y-101786669D01*
X155552124Y-101809982D01*
X155598893Y-101838015D01*
X155642689Y-101870496D01*
X155683091Y-101907114D01*
X155719709Y-101947515D01*
X155752190Y-101991311D01*
X155780222Y-102038080D01*
X155803535Y-102087372D01*
X155821905Y-102138711D01*
X155835153Y-102191603D01*
X155843154Y-102245539D01*
X155845830Y-102300000D01*
X155843154Y-102354461D01*
X155835153Y-102408397D01*
X155821905Y-102461289D01*
X155803535Y-102512628D01*
X155780222Y-102561920D01*
X155752190Y-102608689D01*
X155719709Y-102652485D01*
X155683091Y-102692886D01*
X155642689Y-102729504D01*
X155598893Y-102761985D01*
X155552124Y-102790018D01*
X155502833Y-102813331D01*
X155451494Y-102831700D01*
X155398602Y-102844949D01*
X155344665Y-102852950D01*
X155290205Y-102855625D01*
X155091767Y-102855625D01*
X154841260Y-102855625D01*
X154223087Y-102855625D01*
X153961150Y-102855625D01*
X153723025Y-102855625D01*
X153524587Y-102855625D01*
X153154170Y-102855625D01*
X153524587Y-102300000D01*
X153521412Y-102295237D01*
X153723025Y-102295237D01*
X153726745Y-102380070D01*
X153737907Y-102453591D01*
X153756511Y-102515801D01*
X153782556Y-102566700D01*
X153816042Y-102606288D01*
X153856970Y-102634566D01*
X153905339Y-102651532D01*
X153961150Y-102657187D01*
X154018088Y-102653483D01*
X154072063Y-102642371D01*
X154123075Y-102623850D01*
X154123075Y-102233325D01*
X153901142Y-102233325D01*
X153901142Y-102314287D01*
X154021157Y-102314287D01*
X154021157Y-102563842D01*
X153964007Y-102575272D01*
X153905905Y-102559080D01*
X153863042Y-102510503D01*
X153843463Y-102457798D01*
X153831715Y-102386043D01*
X153827800Y-102295237D01*
X153831927Y-102206496D01*
X153844310Y-102137123D01*
X153864947Y-102087116D01*
X153912334Y-102041753D01*
X153980200Y-102026632D01*
X154038540Y-102032347D01*
X154099262Y-102049492D01*
X154099262Y-101963767D01*
X154056832Y-101952337D01*
X154223087Y-101952337D01*
X154223087Y-102647663D01*
X154327862Y-102647663D01*
X154327862Y-102142837D01*
X154329767Y-102142837D01*
X154478357Y-102647663D01*
X154585037Y-102647663D01*
X154585037Y-102638138D01*
X154691717Y-102638138D01*
X154763393Y-102652425D01*
X154841260Y-102657187D01*
X154920317Y-102648972D01*
X154982230Y-102624326D01*
X155029259Y-102579440D01*
X155063668Y-102510503D01*
X155079279Y-102450072D01*
X155088645Y-102376729D01*
X155091767Y-102290475D01*
X155088106Y-102201446D01*
X155077122Y-102126764D01*
X155058817Y-102066429D01*
X155033188Y-102020441D01*
X154985828Y-101977314D01*
X154921852Y-101951438D01*
X154841260Y-101942812D01*
X154766250Y-101947575D01*
X154691717Y-101961862D01*
X154691717Y-102638138D01*
X154585037Y-102638138D01*
X154585037Y-101952337D01*
X154485025Y-101952337D01*
X154485025Y-102457162D01*
X154482167Y-102457162D01*
X154333577Y-101952337D01*
X154223087Y-101952337D01*
X154056832Y-101952337D01*
X154040921Y-101948051D01*
X153980200Y-101942812D01*
X153901618Y-101952232D01*
X153837325Y-101980489D01*
X153787318Y-102027585D01*
X153759190Y-102076103D01*
X153739098Y-102136884D01*
X153727043Y-102209929D01*
X153723025Y-102295237D01*
X153521412Y-102295237D01*
X153154170Y-101744375D01*
X153524587Y-101744375D01*
X153723025Y-101744375D01*
X155091767Y-101744375D01*
X155290205Y-101744375D01*
X155344665Y-101747050D01*
G37*
G36*
X154907220Y-102040444D02*
G01*
X154952702Y-102084735D01*
X154972281Y-102133842D01*
X154984029Y-102202422D01*
X154987945Y-102290475D01*
X154984082Y-102387736D01*
X154972493Y-102462348D01*
X154953178Y-102514313D01*
X154907816Y-102560033D01*
X154841260Y-102575272D01*
X154798397Y-102566700D01*
X154798397Y-102034253D01*
X154841260Y-102025680D01*
X154907220Y-102040444D01*
G37*
%TO.C,J1*%
X133970000Y-93970000D02*
X135300000Y-93970000D01*
X133970000Y-94635000D02*
X134635000Y-93970000D01*
X133970000Y-95300000D02*
X133970000Y-93970000D01*
X135300000Y-104250000D02*
X136630000Y-104250000D01*
X136630000Y-102920000D02*
X136630000Y-104250000D01*
%TO.C,kibuzzard-64859500*%
G36*
X153144460Y-102300000D02*
G01*
X152774044Y-102855625D01*
X152575606Y-102855625D01*
X152361294Y-102855625D01*
X151977436Y-102855625D01*
X151408794Y-102855625D01*
X151256394Y-102855625D01*
X151057956Y-102855625D01*
X150687540Y-102855625D01*
X150840151Y-102626708D01*
X151256394Y-102626708D01*
X151331165Y-102649568D01*
X151408794Y-102657188D01*
X151474278Y-102651367D01*
X151527856Y-102633904D01*
X151569528Y-102604800D01*
X151599294Y-102564054D01*
X151617153Y-102511667D01*
X151623106Y-102447638D01*
X151615367Y-102380724D01*
X151592150Y-102329528D01*
X151553455Y-102294047D01*
X151499281Y-102274283D01*
X151499281Y-102273330D01*
X151549287Y-102249101D01*
X151585006Y-102212608D01*
X151606437Y-102163852D01*
X151613581Y-102102833D01*
X151601675Y-102035800D01*
X151565956Y-101985199D01*
X151508092Y-101953409D01*
X151500174Y-101952338D01*
X151699306Y-101952338D01*
X151853611Y-102647663D01*
X151977436Y-102647663D01*
X151982115Y-102626708D01*
X152208894Y-102626708D01*
X152283665Y-102649568D01*
X152361294Y-102657188D01*
X152426778Y-102651367D01*
X152480356Y-102633904D01*
X152522028Y-102604800D01*
X152551794Y-102564054D01*
X152569653Y-102511667D01*
X152575606Y-102447638D01*
X152567867Y-102380724D01*
X152544650Y-102329528D01*
X152505955Y-102294047D01*
X152451781Y-102274283D01*
X152451781Y-102273330D01*
X152501787Y-102249101D01*
X152537506Y-102212608D01*
X152558937Y-102163852D01*
X152566081Y-102102833D01*
X152554175Y-102035800D01*
X152518456Y-101985199D01*
X152460592Y-101953409D01*
X152382249Y-101942812D01*
X152330602Y-101946517D01*
X152277262Y-101957629D01*
X152222229Y-101976150D01*
X152222229Y-102064733D01*
X152296047Y-102034729D01*
X152363199Y-102024728D01*
X152418232Y-102034888D01*
X152451252Y-102065368D01*
X152462259Y-102116168D01*
X152453686Y-102169746D01*
X152427969Y-102206655D01*
X152382963Y-102228086D01*
X152316526Y-102235230D01*
X152297476Y-102235230D01*
X152297476Y-102319050D01*
X152316526Y-102319050D01*
X152387964Y-102326313D01*
X152434636Y-102348101D01*
X152460354Y-102386320D01*
X152468926Y-102442875D01*
X152461425Y-102500382D01*
X152438922Y-102541459D01*
X152401418Y-102566105D01*
X152348911Y-102574320D01*
X152278188Y-102564557D01*
X152208894Y-102535268D01*
X152208894Y-102626708D01*
X151982115Y-102626708D01*
X152132694Y-101952338D01*
X152026966Y-101952338D01*
X151918381Y-102552413D01*
X151917429Y-102552413D01*
X151808844Y-101952338D01*
X151699306Y-101952338D01*
X151500174Y-101952338D01*
X151429749Y-101942812D01*
X151378102Y-101946517D01*
X151324762Y-101957629D01*
X151269729Y-101976150D01*
X151269729Y-102064733D01*
X151343547Y-102034729D01*
X151410699Y-102024728D01*
X151465732Y-102034888D01*
X151498752Y-102065368D01*
X151509759Y-102116168D01*
X151501186Y-102169746D01*
X151475469Y-102206655D01*
X151430463Y-102228086D01*
X151364026Y-102235230D01*
X151344976Y-102235230D01*
X151344976Y-102319050D01*
X151364026Y-102319050D01*
X151435464Y-102326313D01*
X151482136Y-102348101D01*
X151507854Y-102386320D01*
X151516426Y-102442875D01*
X151508925Y-102500382D01*
X151486422Y-102541459D01*
X151448918Y-102566105D01*
X151396411Y-102574320D01*
X151325688Y-102564557D01*
X151256394Y-102535268D01*
X151256394Y-102626708D01*
X150840151Y-102626708D01*
X151057956Y-102300000D01*
X150687540Y-101744375D01*
X151057956Y-101744375D01*
X151256394Y-101744375D01*
X152575606Y-101744375D01*
X152774044Y-101744375D01*
X153144460Y-102300000D01*
G37*
%TO.C,kibuzzard-64859557*%
G36*
X150726079Y-102300000D02*
G01*
X150355663Y-102855625D01*
X150157225Y-102855625D01*
X149545720Y-102855625D01*
X149009462Y-102855625D01*
X148842775Y-102855625D01*
X148644337Y-102855625D01*
X148273921Y-102855625D01*
X148644337Y-102300000D01*
X148526862Y-102123787D01*
X148842775Y-102123787D01*
X148852657Y-102191415D01*
X148882304Y-102247613D01*
X148915059Y-102280633D01*
X148960620Y-102312383D01*
X149018987Y-102342863D01*
X149059826Y-102367389D01*
X149087091Y-102395250D01*
X149102450Y-102429064D01*
X149107570Y-102471450D01*
X149100902Y-102515860D01*
X149080900Y-102548126D01*
X149048991Y-102567772D01*
X149006605Y-102574320D01*
X148950831Y-102567441D01*
X148897808Y-102546803D01*
X148847537Y-102512408D01*
X148847537Y-102611468D01*
X148896432Y-102636868D01*
X148950407Y-102652108D01*
X149009462Y-102657188D01*
X149083186Y-102649568D01*
X149140526Y-102626708D01*
X149181484Y-102588608D01*
X149206058Y-102535268D01*
X149214250Y-102466687D01*
X149204011Y-102393107D01*
X149173292Y-102334290D01*
X149138473Y-102300318D01*
X149123756Y-102290475D01*
X149304737Y-102290475D01*
X149308503Y-102376423D01*
X149319799Y-102450912D01*
X149338626Y-102513940D01*
X149364983Y-102565509D01*
X149398871Y-102605619D01*
X149440290Y-102634268D01*
X149489240Y-102651458D01*
X149545720Y-102657188D01*
X149609299Y-102651234D01*
X149666687Y-102633375D01*
X149666687Y-102545745D01*
X149612395Y-102567891D01*
X149561912Y-102575273D01*
X149515346Y-102567361D01*
X149477246Y-102543628D01*
X149447612Y-102504073D01*
X149426446Y-102448696D01*
X149413746Y-102377496D01*
X149409512Y-102290475D01*
X149413349Y-102209856D01*
X149424858Y-102143896D01*
X149444041Y-102092593D01*
X149470896Y-102055948D01*
X149505424Y-102033961D01*
X149547625Y-102026633D01*
X149569532Y-102030443D01*
X149569532Y-102179033D01*
X149671450Y-102179033D01*
X149671450Y-101963768D01*
X149627291Y-101952338D01*
X149828612Y-101952338D01*
X149828612Y-102647663D01*
X150157225Y-102647663D01*
X150157225Y-102564795D01*
X149935292Y-102564795D01*
X149935292Y-101952338D01*
X149828612Y-101952338D01*
X149627291Y-101952338D01*
X149610728Y-101948051D01*
X149542862Y-101942812D01*
X149487052Y-101948245D01*
X149438683Y-101964541D01*
X149397755Y-101991703D01*
X149364269Y-102029728D01*
X149338224Y-102078618D01*
X149319620Y-102138373D01*
X149308458Y-102208992D01*
X149304737Y-102290475D01*
X149123756Y-102290475D01*
X149088626Y-102266980D01*
X149023750Y-102234278D01*
X148981417Y-102205808D01*
X148956017Y-102167391D01*
X148947550Y-102119025D01*
X148954217Y-102079973D01*
X148974220Y-102050445D01*
X149005891Y-102031871D01*
X149047562Y-102025680D01*
X149121619Y-102035919D01*
X149195200Y-102066638D01*
X149195200Y-101971388D01*
X149143977Y-101955512D01*
X149090637Y-101945987D01*
X149035180Y-101942812D01*
X148978295Y-101948104D01*
X148930828Y-101963979D01*
X148892781Y-101990438D01*
X148855277Y-102047588D01*
X148842775Y-102123787D01*
X148526862Y-102123787D01*
X148273921Y-101744375D01*
X148644337Y-101744375D01*
X148842775Y-101744375D01*
X150157225Y-101744375D01*
X150355663Y-101744375D01*
X150726079Y-102300000D01*
G37*
%TO.C,kibuzzard-64859B50*%
G36*
X162967236Y-102447050D02*
G01*
X163021172Y-102455051D01*
X163074064Y-102468300D01*
X163125403Y-102486669D01*
X163174695Y-102509982D01*
X163221464Y-102538015D01*
X163265260Y-102570496D01*
X163305661Y-102607114D01*
X163342279Y-102647515D01*
X163374760Y-102691311D01*
X163402792Y-102738080D01*
X163426106Y-102787372D01*
X163444475Y-102838711D01*
X163457724Y-102891603D01*
X163465725Y-102945539D01*
X163468400Y-103000000D01*
X163465725Y-103054461D01*
X163457724Y-103108397D01*
X163444475Y-103161289D01*
X163426106Y-103212628D01*
X163402792Y-103261920D01*
X163374760Y-103308689D01*
X163342279Y-103352485D01*
X163305661Y-103392886D01*
X163265260Y-103429504D01*
X163221464Y-103461985D01*
X163174695Y-103490018D01*
X163125403Y-103513331D01*
X163074064Y-103531700D01*
X163021172Y-103544949D01*
X162967236Y-103552950D01*
X162912775Y-103555625D01*
X162714337Y-103555625D01*
X162588607Y-103555625D01*
X161885662Y-103555625D01*
X161687225Y-103555625D01*
X161632764Y-103552950D01*
X161578828Y-103544949D01*
X161525936Y-103531700D01*
X161474597Y-103513331D01*
X161425305Y-103490018D01*
X161378536Y-103461985D01*
X161334740Y-103429504D01*
X161294339Y-103392886D01*
X161257721Y-103352485D01*
X161225240Y-103308689D01*
X161197207Y-103261920D01*
X161173894Y-103212628D01*
X161155525Y-103161289D01*
X161142276Y-103108397D01*
X161134275Y-103054461D01*
X161131600Y-103000000D01*
X161134275Y-102945539D01*
X161142276Y-102891603D01*
X161155525Y-102838711D01*
X161173894Y-102787372D01*
X161197207Y-102738080D01*
X161225240Y-102691311D01*
X161254145Y-102652337D01*
X161885662Y-102652337D01*
X161885662Y-103347663D01*
X161990437Y-103347663D01*
X161990437Y-102842837D01*
X161992342Y-102842837D01*
X162140932Y-103347663D01*
X162247612Y-103347663D01*
X162247612Y-102990475D01*
X162347625Y-102990475D01*
X162351390Y-103076423D01*
X162362686Y-103150912D01*
X162381513Y-103213940D01*
X162407871Y-103265509D01*
X162441759Y-103305619D01*
X162483178Y-103334268D01*
X162532127Y-103351458D01*
X162588607Y-103357187D01*
X162652187Y-103351234D01*
X162709575Y-103333375D01*
X162709575Y-103245745D01*
X162655282Y-103267891D01*
X162604800Y-103275272D01*
X162558233Y-103267361D01*
X162520133Y-103243628D01*
X162490500Y-103204073D01*
X162469333Y-103148696D01*
X162456633Y-103077496D01*
X162452400Y-102990475D01*
X162456236Y-102909856D01*
X162467746Y-102843896D01*
X162486928Y-102792593D01*
X162513783Y-102755948D01*
X162548311Y-102733961D01*
X162590512Y-102726632D01*
X162612420Y-102730442D01*
X162612420Y-102879032D01*
X162714337Y-102879032D01*
X162714337Y-102663767D01*
X162653616Y-102648051D01*
X162585750Y-102642812D01*
X162529939Y-102648245D01*
X162481570Y-102664541D01*
X162440643Y-102691703D01*
X162407156Y-102729728D01*
X162381111Y-102778618D01*
X162362508Y-102838373D01*
X162351346Y-102908992D01*
X162347625Y-102990475D01*
X162247612Y-102990475D01*
X162247612Y-102652337D01*
X162147600Y-102652337D01*
X162147600Y-103157162D01*
X162144742Y-103157162D01*
X161996152Y-102652337D01*
X161885662Y-102652337D01*
X161254145Y-102652337D01*
X161257721Y-102647515D01*
X161294339Y-102607114D01*
X161334740Y-102570496D01*
X161378536Y-102538015D01*
X161425305Y-102509982D01*
X161474597Y-102486669D01*
X161525936Y-102468300D01*
X161578828Y-102455051D01*
X161632764Y-102447050D01*
X161687225Y-102444375D01*
X161885662Y-102444375D01*
X162714337Y-102444375D01*
X162912775Y-102444375D01*
X162967236Y-102447050D01*
G37*
%TO.C,kibuzzard-64859549*%
G36*
X145962775Y-102300000D02*
G01*
X145592359Y-102855625D01*
X145393921Y-102855625D01*
X145210089Y-102855625D01*
X144920529Y-102855625D01*
X144289021Y-102855625D01*
X143772766Y-102855625D01*
X143606079Y-102855625D01*
X143407641Y-102855625D01*
X143037225Y-102855625D01*
X143407641Y-102300000D01*
X143290166Y-102123787D01*
X143606079Y-102123787D01*
X143615961Y-102191415D01*
X143645607Y-102247613D01*
X143678363Y-102280633D01*
X143723924Y-102312383D01*
X143782291Y-102342863D01*
X143823130Y-102367389D01*
X143850395Y-102395250D01*
X143865754Y-102429064D01*
X143870874Y-102471450D01*
X143864206Y-102515860D01*
X143844204Y-102548126D01*
X143812295Y-102567772D01*
X143769909Y-102574320D01*
X143714135Y-102567441D01*
X143661112Y-102546803D01*
X143610841Y-102512408D01*
X143610841Y-102611468D01*
X143659736Y-102636868D01*
X143713711Y-102652108D01*
X143772766Y-102657188D01*
X143846490Y-102649568D01*
X143903830Y-102626708D01*
X143944788Y-102588608D01*
X143969362Y-102535268D01*
X143977554Y-102466687D01*
X143968275Y-102400012D01*
X144069946Y-102400012D01*
X144074417Y-102468243D01*
X144087830Y-102525976D01*
X144110185Y-102573212D01*
X144141481Y-102609951D01*
X144181719Y-102636194D01*
X144230899Y-102651939D01*
X144289021Y-102657188D01*
X144355458Y-102651234D01*
X144369409Y-102647663D01*
X144558579Y-102647663D01*
X144663354Y-102647663D01*
X144663354Y-102241898D01*
X144728124Y-102220943D01*
X144798609Y-102239993D01*
X144817659Y-102309525D01*
X144817659Y-102647663D01*
X144920529Y-102647663D01*
X144920529Y-102314288D01*
X144916632Y-102280950D01*
X145041496Y-102280950D01*
X145051021Y-102335838D01*
X145079596Y-102378581D01*
X145130793Y-102411800D01*
X145208184Y-102438113D01*
X145271049Y-102466687D01*
X145288194Y-102514313D01*
X145266286Y-102564319D01*
X145193896Y-102580035D01*
X145122221Y-102570748D01*
X145046259Y-102542888D01*
X145046259Y-102626708D01*
X145097059Y-102643641D01*
X145151669Y-102653801D01*
X145210089Y-102657188D01*
X145287837Y-102647901D01*
X145345820Y-102620040D01*
X145381896Y-102575034D01*
X145393921Y-102514313D01*
X145384753Y-102453353D01*
X145357250Y-102409538D01*
X145304505Y-102377153D01*
X145219614Y-102350483D01*
X145162940Y-102323813D01*
X145146271Y-102280950D01*
X145166988Y-102234516D01*
X145229139Y-102219038D01*
X145301529Y-102224991D01*
X145377729Y-102242850D01*
X145377729Y-102163793D01*
X145327987Y-102152151D01*
X145275282Y-102145166D01*
X145219614Y-102142838D01*
X145141985Y-102151767D01*
X145086264Y-102178556D01*
X145052688Y-102222014D01*
X145041496Y-102280950D01*
X144916632Y-102280950D01*
X144910647Y-102229753D01*
X144881000Y-102178080D01*
X144846128Y-102158501D01*
X144794217Y-102146753D01*
X144725266Y-102142838D01*
X144663989Y-102147283D01*
X144608426Y-102160618D01*
X144558579Y-102182843D01*
X144558579Y-102647663D01*
X144369409Y-102647663D01*
X144425229Y-102633375D01*
X144425229Y-102554318D01*
X144359982Y-102573606D01*
X144301404Y-102580035D01*
X144250326Y-102571820D01*
X144213297Y-102547174D01*
X144189604Y-102503002D01*
X144178531Y-102436208D01*
X144449041Y-102436208D01*
X144450946Y-102398108D01*
X144445972Y-102316775D01*
X144431050Y-102251846D01*
X144406179Y-102203321D01*
X144371148Y-102169719D01*
X144325745Y-102149558D01*
X144269971Y-102142838D01*
X144208852Y-102149981D01*
X144158846Y-102171413D01*
X144119952Y-102207131D01*
X144092171Y-102257137D01*
X144075502Y-102321431D01*
X144069946Y-102400012D01*
X143968275Y-102400012D01*
X143967314Y-102393107D01*
X143936596Y-102334290D01*
X143901777Y-102300318D01*
X143851930Y-102266980D01*
X143787054Y-102234278D01*
X143744720Y-102205808D01*
X143719320Y-102167391D01*
X143710854Y-102119025D01*
X143717521Y-102079973D01*
X143737524Y-102050445D01*
X143769194Y-102031871D01*
X143810866Y-102025680D01*
X143884923Y-102035919D01*
X143958504Y-102066638D01*
X143958504Y-101971388D01*
X143907280Y-101955512D01*
X143853940Y-101945987D01*
X143798484Y-101942812D01*
X143741598Y-101948104D01*
X143694132Y-101963979D01*
X143656085Y-101990438D01*
X143618580Y-102047588D01*
X143606079Y-102123787D01*
X143290166Y-102123787D01*
X143037225Y-101744375D01*
X143407641Y-101744375D01*
X143606079Y-101744375D01*
X145393921Y-101744375D01*
X145592359Y-101744375D01*
X145962775Y-102300000D01*
G37*
G36*
X144327121Y-102250946D02*
G01*
X144342361Y-102295118D01*
X144348076Y-102361913D01*
X144178531Y-102361913D01*
X144186627Y-102293333D01*
X144203296Y-102249518D01*
X144229728Y-102225943D01*
X144267114Y-102218085D01*
X144327121Y-102250946D01*
G37*
%TO.C,kibuzzard-64859928*%
G36*
X137555625Y-102106066D02*
G01*
X137555625Y-102304504D01*
X137555625Y-103673246D01*
X137555625Y-103871684D01*
X137552950Y-103926145D01*
X137544949Y-103980081D01*
X137531700Y-104032973D01*
X137513331Y-104084312D01*
X137490018Y-104133604D01*
X137461985Y-104180372D01*
X137429504Y-104224169D01*
X137392886Y-104264570D01*
X137352485Y-104301188D01*
X137308689Y-104333669D01*
X137261920Y-104361701D01*
X137212628Y-104385014D01*
X137161289Y-104403384D01*
X137108397Y-104416633D01*
X137054461Y-104424633D01*
X137000000Y-104427309D01*
X136945539Y-104424633D01*
X136891603Y-104416633D01*
X136838711Y-104403384D01*
X136787372Y-104385014D01*
X136738080Y-104361701D01*
X136691311Y-104333669D01*
X136647515Y-104301188D01*
X136607114Y-104264570D01*
X136570496Y-104224169D01*
X136538015Y-104180372D01*
X136509982Y-104133604D01*
X136486669Y-104084312D01*
X136468300Y-104032973D01*
X136455051Y-103980081D01*
X136447050Y-103926145D01*
X136444375Y-103871684D01*
X136444375Y-103673246D01*
X136444375Y-103422739D01*
X136642813Y-103422739D01*
X136651028Y-103501796D01*
X136675674Y-103563709D01*
X136720560Y-103610738D01*
X136789497Y-103645148D01*
X136849928Y-103660758D01*
X136923271Y-103670124D01*
X137009525Y-103673246D01*
X137098554Y-103669585D01*
X137173236Y-103658602D01*
X137233571Y-103640296D01*
X137279559Y-103614668D01*
X137322686Y-103567307D01*
X137348562Y-103503331D01*
X137357188Y-103422739D01*
X137352425Y-103347729D01*
X137338138Y-103273196D01*
X136661862Y-103273196D01*
X136647575Y-103344872D01*
X136642813Y-103422739D01*
X136444375Y-103422739D01*
X136444375Y-102804566D01*
X136652337Y-102804566D01*
X136652337Y-102909341D01*
X137157163Y-102909341D01*
X137157163Y-102911246D01*
X136652337Y-103059836D01*
X136652337Y-103166516D01*
X137347663Y-103166516D01*
X137347663Y-103066504D01*
X136842838Y-103066504D01*
X136842838Y-103063646D01*
X137347663Y-102915056D01*
X137347663Y-102804566D01*
X136652337Y-102804566D01*
X136444375Y-102804566D01*
X136444375Y-102542629D01*
X136642813Y-102542629D01*
X136646517Y-102599567D01*
X136657629Y-102653542D01*
X136676150Y-102704554D01*
X137066675Y-102704554D01*
X137066675Y-102482621D01*
X136985713Y-102482621D01*
X136985713Y-102602636D01*
X136736158Y-102602636D01*
X136724728Y-102545486D01*
X136740920Y-102487384D01*
X136789497Y-102444521D01*
X136842202Y-102424942D01*
X136913957Y-102413195D01*
X137004763Y-102409279D01*
X137093504Y-102413406D01*
X137162877Y-102425789D01*
X137212884Y-102446426D01*
X137258247Y-102493813D01*
X137273368Y-102561679D01*
X137267653Y-102620019D01*
X137250508Y-102680741D01*
X137336233Y-102680741D01*
X137351949Y-102622401D01*
X137357188Y-102561679D01*
X137347768Y-102483097D01*
X137319511Y-102418804D01*
X137272415Y-102368797D01*
X137223897Y-102340669D01*
X137163116Y-102320577D01*
X137090071Y-102308522D01*
X137004763Y-102304504D01*
X136919930Y-102308224D01*
X136846409Y-102319387D01*
X136784199Y-102337990D01*
X136733300Y-102364035D01*
X136693712Y-102397521D01*
X136665434Y-102438449D01*
X136648468Y-102486818D01*
X136642813Y-102542629D01*
X136444375Y-102542629D01*
X136444375Y-102304504D01*
X136444375Y-102106066D01*
X136444375Y-101772691D01*
X137555625Y-102106066D01*
G37*
G36*
X137274320Y-103422739D02*
G01*
X137259556Y-103488699D01*
X137215265Y-103534181D01*
X137166158Y-103553760D01*
X137097578Y-103565508D01*
X137009525Y-103569424D01*
X136912264Y-103565561D01*
X136837652Y-103553972D01*
X136785687Y-103534657D01*
X136739967Y-103489295D01*
X136724728Y-103422739D01*
X136733300Y-103379876D01*
X137265747Y-103379876D01*
X137274320Y-103422739D01*
G37*
%TO.C,kibuzzard-64860007*%
G36*
X164565038Y-106256411D02*
G01*
X164366601Y-106256411D01*
X164178916Y-106256411D01*
X163840122Y-106256411D01*
X163636507Y-106256411D01*
X163409409Y-106256411D01*
X162882859Y-106256411D01*
X162700899Y-106256411D01*
X162367759Y-106256411D01*
X161858195Y-106256411D01*
X161576667Y-106256411D01*
X161144547Y-106256411D01*
X160422406Y-106256411D01*
X159953195Y-106256411D01*
X159346034Y-106256411D01*
X159244309Y-106256411D01*
X159021340Y-106256411D01*
X158548374Y-106256411D01*
X157938399Y-106256411D01*
X157578983Y-106256411D01*
X157339309Y-106256411D01*
X157309655Y-106256411D01*
X156671527Y-106256411D01*
X156386809Y-106256411D01*
X156371232Y-106256411D01*
X156033399Y-106256411D01*
X155834962Y-106256411D01*
X155201115Y-106256411D01*
X155239649Y-106127964D01*
X156033399Y-106127964D01*
X156371232Y-106127964D01*
X156371232Y-106046321D01*
X156142256Y-106046321D01*
X156142256Y-106044444D01*
X156197301Y-105978872D01*
X156244192Y-105917288D01*
X156282932Y-105859692D01*
X156313518Y-105806085D01*
X156322603Y-105785440D01*
X156483842Y-105785440D01*
X156486293Y-105868699D01*
X156493644Y-105939550D01*
X156505895Y-105997992D01*
X156532288Y-106064386D01*
X156567362Y-106106850D01*
X156613110Y-106129724D01*
X156671527Y-106137348D01*
X156729944Y-106129724D01*
X156733464Y-106127964D01*
X156971823Y-106127964D01*
X157309655Y-106127964D01*
X157309655Y-106107319D01*
X157428835Y-106107319D01*
X157502501Y-106129841D01*
X157578983Y-106137348D01*
X157643499Y-106131614D01*
X157696286Y-106114409D01*
X157737342Y-106085735D01*
X157766667Y-106045591D01*
X157784263Y-105993978D01*
X157790128Y-105930895D01*
X157785352Y-105889605D01*
X157938399Y-105889605D01*
X158219926Y-105889605D01*
X158219926Y-105811715D01*
X158156554Y-105811715D01*
X157938399Y-105811715D01*
X157938399Y-105889605D01*
X157785352Y-105889605D01*
X157782503Y-105864971D01*
X157759629Y-105814531D01*
X157727903Y-105785440D01*
X158360690Y-105785440D01*
X158363140Y-105868699D01*
X158370491Y-105939550D01*
X158382743Y-105997992D01*
X158409136Y-106064386D01*
X158444209Y-106106850D01*
X158489958Y-106129724D01*
X158548374Y-106137348D01*
X158606791Y-106129724D01*
X158652539Y-106106850D01*
X158687613Y-106064386D01*
X158714006Y-105997992D01*
X158726258Y-105939550D01*
X158733609Y-105868699D01*
X158734816Y-105827669D01*
X158836470Y-105827669D01*
X158838764Y-105902013D01*
X158845646Y-105964887D01*
X158857116Y-106016292D01*
X158882336Y-106074239D01*
X158916706Y-106111073D01*
X158962337Y-106130779D01*
X159021340Y-106137348D01*
X159079053Y-106131144D01*
X159125818Y-106112532D01*
X159161634Y-106081512D01*
X159186920Y-106035999D01*
X159202091Y-105973906D01*
X159207148Y-105895235D01*
X159206821Y-105889605D01*
X159346034Y-105889605D01*
X159627562Y-105889605D01*
X159627562Y-105811715D01*
X159606259Y-105811715D01*
X159346034Y-105811715D01*
X159346034Y-105889605D01*
X159206821Y-105889605D01*
X159202873Y-105821725D01*
X159190048Y-105763856D01*
X159168672Y-105721627D01*
X159118701Y-105682917D01*
X159045739Y-105670013D01*
X158992718Y-105680101D01*
X158944389Y-105710366D01*
X158942512Y-105710366D01*
X158947986Y-105642278D01*
X158950286Y-105630600D01*
X159789909Y-105630600D01*
X159951318Y-105540511D01*
X159953195Y-105541449D01*
X159953195Y-106127964D01*
X160058298Y-106127964D01*
X160058298Y-105630600D01*
X160259121Y-105630600D01*
X160420530Y-105540511D01*
X160422406Y-105541449D01*
X160422406Y-106127964D01*
X160527510Y-106127964D01*
X161182530Y-106127964D01*
X161287633Y-106127964D01*
X161287633Y-105843622D01*
X161324232Y-105843622D01*
X161381006Y-105861921D01*
X161414320Y-105930895D01*
X161468749Y-106127964D01*
X161576667Y-106127964D01*
X161518485Y-105936526D01*
X161497063Y-105883974D01*
X161642357Y-105883974D01*
X161648353Y-105961394D01*
X161666339Y-106024738D01*
X161696317Y-106074005D01*
X161738285Y-106109196D01*
X161792244Y-106130310D01*
X161858195Y-106137348D01*
X161923650Y-106131483D01*
X161992389Y-106113888D01*
X161992389Y-106035999D01*
X161928107Y-106055002D01*
X161870394Y-106061336D01*
X161820071Y-106053242D01*
X161783590Y-106028960D01*
X161760247Y-105985441D01*
X161749337Y-105919634D01*
X162015850Y-105919634D01*
X162017727Y-105882097D01*
X162012826Y-105801966D01*
X161998124Y-105737997D01*
X161973621Y-105690190D01*
X161939108Y-105657084D01*
X161901784Y-105640510D01*
X161900599Y-105639984D01*
X162105000Y-105639984D01*
X162236379Y-106127964D01*
X162367759Y-106127964D01*
X162410710Y-105968432D01*
X162700899Y-105968432D01*
X162700899Y-106127964D01*
X162841663Y-106127964D01*
X163071576Y-106127964D01*
X163409409Y-106127964D01*
X163409409Y-106046321D01*
X163180433Y-106046321D01*
X163180433Y-106044444D01*
X163235478Y-105978872D01*
X163243427Y-105968432D01*
X163636507Y-105968432D01*
X163636507Y-106127964D01*
X163786655Y-106127964D01*
X163786655Y-105968432D01*
X163636507Y-105968432D01*
X163243427Y-105968432D01*
X163282370Y-105917288D01*
X163321109Y-105859692D01*
X163351696Y-105806085D01*
X163360780Y-105785440D01*
X163991232Y-105785440D01*
X163993682Y-105868699D01*
X164001033Y-105939550D01*
X164013284Y-105997992D01*
X164039678Y-106064386D01*
X164074751Y-106106850D01*
X164120499Y-106129724D01*
X164178916Y-106137348D01*
X164237333Y-106129724D01*
X164283081Y-106106850D01*
X164318155Y-106064386D01*
X164344548Y-105997992D01*
X164356800Y-105939550D01*
X164364151Y-105868699D01*
X164366601Y-105785440D01*
X164364151Y-105702180D01*
X164356800Y-105631329D01*
X164344548Y-105572887D01*
X164318155Y-105506493D01*
X164283081Y-105464029D01*
X164237333Y-105441155D01*
X164178916Y-105433531D01*
X164120499Y-105441155D01*
X164074751Y-105464029D01*
X164039678Y-105506493D01*
X164013284Y-105572887D01*
X164001033Y-105631329D01*
X163993682Y-105702180D01*
X163991232Y-105785440D01*
X163360780Y-105785440D01*
X163381152Y-105739144D01*
X163398826Y-105675957D01*
X163404717Y-105616523D01*
X163394042Y-105537344D01*
X163362018Y-105479983D01*
X163309819Y-105445144D01*
X163308627Y-105444949D01*
X163238616Y-105433531D01*
X163179182Y-105438953D01*
X163123502Y-105455219D01*
X163071576Y-105482329D01*
X163071576Y-105570540D01*
X163124441Y-105539781D01*
X163172926Y-105521325D01*
X163217032Y-105515173D01*
X163278499Y-105540511D01*
X163293631Y-105573356D01*
X163298675Y-105621215D01*
X163294040Y-105672637D01*
X163280136Y-105727161D01*
X163256963Y-105784788D01*
X163224520Y-105845518D01*
X163182808Y-105909350D01*
X163131827Y-105976284D01*
X163071576Y-106046321D01*
X163071576Y-106127964D01*
X162841663Y-106127964D01*
X162841663Y-105968432D01*
X162700899Y-105968432D01*
X162410710Y-105968432D01*
X162499138Y-105639984D01*
X162397084Y-105639984D01*
X162395911Y-105639984D01*
X162304884Y-106052890D01*
X162303007Y-106052890D01*
X162211980Y-105639984D01*
X162105000Y-105639984D01*
X161900599Y-105639984D01*
X161894376Y-105637221D01*
X161839426Y-105630600D01*
X161779211Y-105637638D01*
X161729943Y-105658752D01*
X161691624Y-105693943D01*
X161664254Y-105743210D01*
X161647831Y-105806554D01*
X161642357Y-105883974D01*
X161497063Y-105883974D01*
X161488456Y-105862859D01*
X161452796Y-105816407D01*
X161452796Y-105814531D01*
X161498778Y-105787668D01*
X161531623Y-105749310D01*
X161551330Y-105699456D01*
X161557899Y-105638107D01*
X161554694Y-105602447D01*
X162700899Y-105602447D01*
X162700899Y-105761979D01*
X162841663Y-105761979D01*
X162841663Y-105602447D01*
X162700899Y-105602447D01*
X161554694Y-105602447D01*
X161552112Y-105573721D01*
X161534751Y-105521951D01*
X161505817Y-105482798D01*
X161464474Y-105455427D01*
X161409889Y-105439005D01*
X161342062Y-105433531D01*
X161288050Y-105435616D01*
X161234873Y-105441872D01*
X161182530Y-105452299D01*
X161182530Y-106127964D01*
X160527510Y-106127964D01*
X160527510Y-105442915D01*
X160492084Y-105442915D01*
X160423345Y-105442915D01*
X160259121Y-105538634D01*
X160259121Y-105630600D01*
X160058298Y-105630600D01*
X160058298Y-105442915D01*
X159974877Y-105442915D01*
X159954133Y-105442915D01*
X159789909Y-105538634D01*
X159789909Y-105630600D01*
X158950286Y-105630600D01*
X158958153Y-105590664D01*
X158973011Y-105555526D01*
X159007381Y-105525262D01*
X159058877Y-105515173D01*
X159113071Y-105521742D01*
X159164919Y-105541449D01*
X159164919Y-105452299D01*
X159107440Y-105438223D01*
X159047616Y-105433531D01*
X158980753Y-105442211D01*
X158928436Y-105468252D01*
X158888788Y-105516112D01*
X158859931Y-105590247D01*
X158849667Y-105637814D01*
X158842336Y-105693239D01*
X158837937Y-105756524D01*
X158836470Y-105827669D01*
X158734816Y-105827669D01*
X158736059Y-105785440D01*
X158733609Y-105702180D01*
X158726258Y-105631329D01*
X158714006Y-105572887D01*
X158687613Y-105506493D01*
X158652539Y-105464029D01*
X158606791Y-105441155D01*
X158587084Y-105438583D01*
X158548374Y-105433531D01*
X158489958Y-105441155D01*
X158444209Y-105464029D01*
X158409136Y-105506493D01*
X158382743Y-105572887D01*
X158370491Y-105631329D01*
X158363140Y-105702180D01*
X158360690Y-105785440D01*
X157727903Y-105785440D01*
X157721506Y-105779574D01*
X157668133Y-105760102D01*
X157668133Y-105759164D01*
X157717400Y-105735292D01*
X157752591Y-105699339D01*
X157773706Y-105651304D01*
X157780744Y-105591186D01*
X157769014Y-105525144D01*
X157733823Y-105475290D01*
X157676813Y-105443971D01*
X157599628Y-105433531D01*
X157548745Y-105437180D01*
X157496193Y-105448128D01*
X157441973Y-105466375D01*
X157441973Y-105553649D01*
X157514701Y-105524089D01*
X157580860Y-105514235D01*
X157635080Y-105524245D01*
X157667612Y-105554274D01*
X157678456Y-105604324D01*
X157670010Y-105657110D01*
X157644672Y-105693474D01*
X157600332Y-105714589D01*
X157534877Y-105721627D01*
X157516108Y-105721627D01*
X157516108Y-105804208D01*
X157534877Y-105804208D01*
X157605259Y-105811363D01*
X157651241Y-105832830D01*
X157676579Y-105870484D01*
X157685025Y-105926203D01*
X157677635Y-105982860D01*
X157655464Y-106023330D01*
X157618514Y-106047612D01*
X157566783Y-106055706D01*
X157497105Y-106046087D01*
X157428835Y-106017230D01*
X157428835Y-106107319D01*
X157309655Y-106107319D01*
X157309655Y-106046321D01*
X157080680Y-106046321D01*
X157080680Y-106044444D01*
X157135724Y-105978872D01*
X157182616Y-105917288D01*
X157221355Y-105859692D01*
X157251942Y-105806085D01*
X157281398Y-105739144D01*
X157299072Y-105675957D01*
X157304963Y-105616523D01*
X157294288Y-105537344D01*
X157262265Y-105479983D01*
X157210065Y-105445144D01*
X157138862Y-105433531D01*
X157079429Y-105438953D01*
X157023749Y-105455219D01*
X156971823Y-105482329D01*
X156971823Y-105570540D01*
X157024687Y-105539781D01*
X157073172Y-105521325D01*
X157117278Y-105515173D01*
X157178745Y-105540511D01*
X157193877Y-105573356D01*
X157198921Y-105621215D01*
X157194287Y-105672637D01*
X157180383Y-105727161D01*
X157157209Y-105784788D01*
X157124767Y-105845518D01*
X157083055Y-105909350D01*
X157032073Y-105976284D01*
X156971823Y-106046321D01*
X156971823Y-106127964D01*
X156733464Y-106127964D01*
X156775692Y-106106850D01*
X156810766Y-106064386D01*
X156837159Y-105997992D01*
X156849411Y-105939550D01*
X156856761Y-105868699D01*
X156859212Y-105785440D01*
X156856761Y-105702180D01*
X156849411Y-105631329D01*
X156837159Y-105572887D01*
X156810766Y-105506493D01*
X156775692Y-105464029D01*
X156743044Y-105447706D01*
X156729944Y-105441155D01*
X156671527Y-105433531D01*
X156613110Y-105441155D01*
X156567362Y-105464029D01*
X156532288Y-105506493D01*
X156505895Y-105572887D01*
X156493644Y-105631329D01*
X156486293Y-105702180D01*
X156483842Y-105785440D01*
X156322603Y-105785440D01*
X156342975Y-105739144D01*
X156360648Y-105675957D01*
X156366539Y-105616523D01*
X156355865Y-105537344D01*
X156323841Y-105479983D01*
X156271641Y-105445144D01*
X156200438Y-105433531D01*
X156141005Y-105438953D01*
X156085325Y-105455219D01*
X156033399Y-105482329D01*
X156033399Y-105570540D01*
X156086264Y-105539781D01*
X156134749Y-105521325D01*
X156178855Y-105515173D01*
X156240321Y-105540511D01*
X156255454Y-105573356D01*
X156260498Y-105621215D01*
X156255863Y-105672637D01*
X156241959Y-105727161D01*
X156218786Y-105784788D01*
X156186343Y-105845518D01*
X156144631Y-105909350D01*
X156093650Y-105976284D01*
X156033399Y-106046321D01*
X156033399Y-106127964D01*
X155239649Y-106127964D01*
X155805434Y-104242014D01*
X156058197Y-104242014D01*
X156058197Y-104937339D01*
X156386809Y-104937339D01*
X156386809Y-104854472D01*
X156164877Y-104854472D01*
X156164877Y-104242014D01*
X156464914Y-104242014D01*
X156619219Y-104937339D01*
X156743044Y-104937339D01*
X156898302Y-104242014D01*
X157010697Y-104242014D01*
X157010697Y-104937339D01*
X157339309Y-104937339D01*
X157339309Y-104854472D01*
X157117377Y-104854472D01*
X157117377Y-104580152D01*
X157915572Y-104580152D01*
X157919337Y-104666100D01*
X157930633Y-104740588D01*
X157949460Y-104803617D01*
X157975817Y-104855186D01*
X158009706Y-104895295D01*
X158051125Y-104923945D01*
X158100074Y-104941134D01*
X158156554Y-104946864D01*
X158220134Y-104940911D01*
X158277522Y-104923052D01*
X158277522Y-104835422D01*
X158223229Y-104857567D01*
X158172747Y-104864949D01*
X158126180Y-104857038D01*
X158088080Y-104833305D01*
X158058447Y-104793750D01*
X158037280Y-104738372D01*
X158028596Y-104689689D01*
X158387059Y-104689689D01*
X158392563Y-104771604D01*
X158409073Y-104837009D01*
X158436589Y-104885904D01*
X158475324Y-104919771D01*
X158525489Y-104940091D01*
X158587084Y-104946864D01*
X158648679Y-104940091D01*
X158655473Y-104937339D01*
X158882359Y-104937339D01*
X158987134Y-104937339D01*
X158987134Y-104531574D01*
X159051904Y-104510619D01*
X159122389Y-104529669D01*
X159141439Y-104599202D01*
X159141439Y-104937339D01*
X159244309Y-104937339D01*
X159244309Y-104603964D01*
X159236626Y-104538242D01*
X159353847Y-104538242D01*
X159451954Y-104538242D01*
X159451954Y-104794464D01*
X159460408Y-104868283D01*
X159485768Y-104914479D01*
X159532798Y-104938768D01*
X159606259Y-104946864D01*
X159658885Y-104944007D01*
X159695742Y-104937339D01*
X159870102Y-104937339D01*
X159974877Y-104937339D01*
X159974284Y-104689689D01*
X160292059Y-104689689D01*
X160297563Y-104771604D01*
X160314073Y-104837009D01*
X160341589Y-104885904D01*
X160380324Y-104919771D01*
X160430489Y-104940091D01*
X160492084Y-104946864D01*
X160553679Y-104940091D01*
X160603844Y-104919771D01*
X160642579Y-104885904D01*
X160670096Y-104837009D01*
X160686606Y-104771604D01*
X160692109Y-104689689D01*
X160686606Y-104607774D01*
X160670096Y-104542369D01*
X160642579Y-104493474D01*
X160603844Y-104459607D01*
X160553679Y-104439287D01*
X160492084Y-104432514D01*
X160430489Y-104439287D01*
X160380324Y-104459607D01*
X160341589Y-104493474D01*
X160314073Y-104542369D01*
X160297563Y-104607774D01*
X160292059Y-104689689D01*
X159974284Y-104689689D01*
X159973924Y-104539194D01*
X160041340Y-104523848D01*
X160111508Y-104514641D01*
X160184427Y-104511572D01*
X160184427Y-104432514D01*
X160119428Y-104434495D01*
X160055496Y-104440439D01*
X159992631Y-104450345D01*
X159930833Y-104464213D01*
X159870102Y-104482044D01*
X159870102Y-104937339D01*
X159695742Y-104937339D01*
X159706272Y-104935434D01*
X159706272Y-104848757D01*
X159665552Y-104859472D01*
X159625309Y-104863044D01*
X159568159Y-104847328D01*
X159555777Y-104775414D01*
X159555777Y-104538242D01*
X159715797Y-104538242D01*
X159715797Y-104461089D01*
X159555777Y-104461089D01*
X159555777Y-104280114D01*
X159451954Y-104280114D01*
X159451954Y-104461089D01*
X159353847Y-104461089D01*
X159353847Y-104538242D01*
X159236626Y-104538242D01*
X159234427Y-104519430D01*
X159204781Y-104467757D01*
X159169909Y-104448177D01*
X159117997Y-104436430D01*
X159049047Y-104432514D01*
X158987769Y-104436959D01*
X158932207Y-104450294D01*
X158882359Y-104472519D01*
X158882359Y-104937339D01*
X158655473Y-104937339D01*
X158698844Y-104919771D01*
X158737579Y-104885904D01*
X158765096Y-104837009D01*
X158781606Y-104771604D01*
X158787109Y-104689689D01*
X158781606Y-104607774D01*
X158765096Y-104542369D01*
X158737579Y-104493474D01*
X158698844Y-104459607D01*
X158648679Y-104439287D01*
X158587084Y-104432514D01*
X158525489Y-104439287D01*
X158475324Y-104459607D01*
X158436589Y-104493474D01*
X158409073Y-104542369D01*
X158392563Y-104607774D01*
X158387059Y-104689689D01*
X158028596Y-104689689D01*
X158024580Y-104667173D01*
X158020347Y-104580152D01*
X158024183Y-104499533D01*
X158035693Y-104433572D01*
X158054875Y-104382270D01*
X158081730Y-104345625D01*
X158116258Y-104323638D01*
X158158459Y-104316309D01*
X158180367Y-104320119D01*
X158180367Y-104468709D01*
X158282284Y-104468709D01*
X158282284Y-104253444D01*
X158238122Y-104242014D01*
X160782597Y-104242014D01*
X160782597Y-104319167D01*
X160910232Y-104319167D01*
X160910232Y-104937339D01*
X161144547Y-104937339D01*
X161144547Y-104927814D01*
X161741764Y-104927814D01*
X161794258Y-104938397D01*
X161847598Y-104944747D01*
X161901784Y-104946864D01*
X161969306Y-104941043D01*
X162024551Y-104923581D01*
X162067519Y-104894477D01*
X162098211Y-104853731D01*
X162116626Y-104801343D01*
X162122764Y-104737314D01*
X162115923Y-104689689D01*
X162197059Y-104689689D01*
X162202563Y-104771604D01*
X162219073Y-104837009D01*
X162246589Y-104885904D01*
X162285324Y-104919771D01*
X162335489Y-104940091D01*
X162397084Y-104946864D01*
X162458679Y-104940091D01*
X162508844Y-104919771D01*
X162547579Y-104885904D01*
X162575096Y-104837009D01*
X162587759Y-104786844D01*
X162687597Y-104786844D01*
X162700337Y-104854472D01*
X162738556Y-104904954D01*
X162777238Y-104928237D01*
X162825339Y-104942207D01*
X162882859Y-104946864D01*
X162940750Y-104943477D01*
X162974317Y-104937339D01*
X163203852Y-104937339D01*
X163308627Y-104937339D01*
X163308034Y-104689689D01*
X163630572Y-104689689D01*
X163636181Y-104773985D01*
X163653009Y-104840184D01*
X163681054Y-104888285D01*
X163721165Y-104920829D01*
X163774188Y-104940355D01*
X163840122Y-104946864D01*
X163899177Y-104943477D01*
X163953152Y-104933317D01*
X164002047Y-104916384D01*
X164002047Y-104222964D01*
X163897272Y-104222964D01*
X163897272Y-104453469D01*
X163853219Y-104437753D01*
X163806784Y-104432514D01*
X163752227Y-104439182D01*
X163707936Y-104459184D01*
X163673911Y-104492522D01*
X163649834Y-104541099D01*
X163635387Y-104606822D01*
X163630572Y-104689689D01*
X163308034Y-104689689D01*
X163307674Y-104539194D01*
X163375090Y-104523848D01*
X163445258Y-104514641D01*
X163518177Y-104511572D01*
X163518177Y-104432514D01*
X163453178Y-104434495D01*
X163389246Y-104440439D01*
X163326381Y-104450345D01*
X163264583Y-104464213D01*
X163203852Y-104482044D01*
X163203852Y-104937339D01*
X162974317Y-104937339D01*
X162996313Y-104933317D01*
X163049547Y-104916384D01*
X163049547Y-104621109D01*
X163045472Y-104554434D01*
X163033249Y-104504269D01*
X163012876Y-104470614D01*
X162959178Y-104442039D01*
X162871429Y-104432514D01*
X162820206Y-104435901D01*
X162766866Y-104446061D01*
X162711409Y-104462994D01*
X162711409Y-104544909D01*
X162766654Y-104525859D01*
X162818089Y-104514429D01*
X162865714Y-104510619D01*
X162930961Y-104528240D01*
X162945724Y-104602059D01*
X162945724Y-104618252D01*
X162919054Y-104618252D01*
X162848093Y-104623067D01*
X162790149Y-104637513D01*
X162745223Y-104661590D01*
X162702003Y-104714573D01*
X162687597Y-104786844D01*
X162587759Y-104786844D01*
X162591606Y-104771604D01*
X162597109Y-104689689D01*
X162591606Y-104607774D01*
X162575096Y-104542369D01*
X162547579Y-104493474D01*
X162508844Y-104459607D01*
X162458679Y-104439287D01*
X162397084Y-104432514D01*
X162335489Y-104439287D01*
X162285324Y-104459607D01*
X162246589Y-104493474D01*
X162219073Y-104542369D01*
X162202563Y-104607774D01*
X162197059Y-104689689D01*
X162115923Y-104689689D01*
X162113597Y-104673497D01*
X162086093Y-104619204D01*
X162044778Y-104579437D01*
X161994177Y-104559197D01*
X161994177Y-104558244D01*
X162038825Y-104538718D01*
X162073711Y-104504904D01*
X162096213Y-104459660D01*
X162103714Y-104405844D01*
X162095409Y-104343436D01*
X162070491Y-104294897D01*
X162028962Y-104260226D01*
X161970822Y-104239423D01*
X161896069Y-104232489D01*
X161817488Y-104237252D01*
X161741764Y-104251539D01*
X161741764Y-104927814D01*
X161144547Y-104927814D01*
X161144547Y-104860187D01*
X161016912Y-104860187D01*
X161016912Y-104242014D01*
X160782597Y-104242014D01*
X158238122Y-104242014D01*
X158221562Y-104237728D01*
X158153697Y-104232489D01*
X158097886Y-104237921D01*
X158049517Y-104254218D01*
X158008589Y-104281379D01*
X157975103Y-104319405D01*
X157949058Y-104368295D01*
X157930455Y-104428049D01*
X157919293Y-104498668D01*
X157915572Y-104580152D01*
X157117377Y-104580152D01*
X157117377Y-104242014D01*
X157010697Y-104242014D01*
X156898302Y-104242014D01*
X156792574Y-104242014D01*
X156683989Y-104842089D01*
X156683037Y-104842089D01*
X156574452Y-104242014D01*
X156464914Y-104242014D01*
X156164877Y-104242014D01*
X156058197Y-104242014D01*
X155805434Y-104242014D01*
X155834962Y-104143589D01*
X156033399Y-104143589D01*
X164366601Y-104143589D01*
X164565038Y-104143589D01*
X165198885Y-104143589D01*
X164565038Y-106256411D01*
G37*
G36*
X162440304Y-104520025D02*
G01*
X162468998Y-104548243D01*
X162485072Y-104602416D01*
X162490429Y-104689689D01*
X162485072Y-104776962D01*
X162468998Y-104831135D01*
X162440304Y-104859353D01*
X162397084Y-104868759D01*
X162353865Y-104859353D01*
X162325171Y-104831135D01*
X162309097Y-104776962D01*
X162303739Y-104689689D01*
X162309097Y-104602416D01*
X162325171Y-104548243D01*
X162353865Y-104520025D01*
X162397084Y-104510619D01*
X162440304Y-104520025D01*
G37*
G36*
X160535304Y-104520025D02*
G01*
X160563998Y-104548243D01*
X160580072Y-104602416D01*
X160585429Y-104689689D01*
X160580072Y-104776962D01*
X160563998Y-104831135D01*
X160535304Y-104859353D01*
X160492084Y-104868759D01*
X160448865Y-104859353D01*
X160420171Y-104831135D01*
X160404097Y-104776962D01*
X160398739Y-104689689D01*
X160404097Y-104602416D01*
X160420171Y-104548243D01*
X160448865Y-104520025D01*
X160492084Y-104510619D01*
X160535304Y-104520025D01*
G37*
G36*
X158630304Y-104520025D02*
G01*
X158658998Y-104548243D01*
X158675072Y-104602416D01*
X158680429Y-104689689D01*
X158675072Y-104776962D01*
X158658998Y-104831135D01*
X158630304Y-104859353D01*
X158587084Y-104868759D01*
X158543865Y-104859353D01*
X158515171Y-104831135D01*
X158499097Y-104776962D01*
X158493739Y-104689689D01*
X158499097Y-104602416D01*
X158515171Y-104548243D01*
X158543865Y-104520025D01*
X158587084Y-104510619D01*
X158630304Y-104520025D01*
G37*
G36*
X159086560Y-105780747D02*
G01*
X159099581Y-105824384D01*
X159103921Y-105895235D01*
X159099112Y-105974649D01*
X159084683Y-106023330D01*
X159059229Y-106048315D01*
X159021340Y-106056644D01*
X158985563Y-106047612D01*
X158960812Y-106020515D01*
X158946383Y-105970192D01*
X158941574Y-105891481D01*
X158946853Y-105826378D01*
X158962688Y-105783093D01*
X158989316Y-105758812D01*
X159026970Y-105750718D01*
X159086560Y-105780747D01*
G37*
G36*
X163862744Y-104518715D02*
G01*
X163897272Y-104543004D01*
X163897272Y-104860187D01*
X163835359Y-104872569D01*
X163791306Y-104862330D01*
X163760112Y-104831612D01*
X163741538Y-104775652D01*
X163735347Y-104689689D01*
X163740467Y-104605988D01*
X163755826Y-104551100D01*
X163781662Y-104520739D01*
X163818214Y-104510619D01*
X163862744Y-104518715D01*
G37*
G36*
X164268301Y-105734530D02*
G01*
X164269005Y-105785440D01*
X164267754Y-105852172D01*
X164264000Y-105908477D01*
X164257744Y-105954356D01*
X164244723Y-106005500D01*
X164228183Y-106036937D01*
X164178916Y-106058521D01*
X164131995Y-106039283D01*
X164102904Y-105973124D01*
X164266190Y-105690659D01*
X164268301Y-105734530D01*
G37*
G36*
X161947028Y-104611822D02*
G01*
X161987509Y-104635397D01*
X162011084Y-104676116D01*
X162018942Y-104735409D01*
X162011679Y-104793869D01*
X161989891Y-104833993D01*
X161953338Y-104857210D01*
X161901784Y-104864949D01*
X161848444Y-104857329D01*
X161848444Y-104603964D01*
X161888449Y-104603964D01*
X161947028Y-104611822D01*
G37*
G36*
X161392033Y-105522564D02*
G01*
X161427458Y-105544734D01*
X161448573Y-105582857D01*
X161455611Y-105638107D01*
X161448103Y-105695820D01*
X161425581Y-105733826D01*
X161385229Y-105754941D01*
X161324232Y-105761979D01*
X161287633Y-105761979D01*
X161287633Y-105522681D01*
X161342062Y-105515173D01*
X161392033Y-105522564D01*
G37*
G36*
X158637759Y-105734530D02*
G01*
X158638463Y-105785440D01*
X158637212Y-105852172D01*
X158633458Y-105908477D01*
X158627202Y-105954356D01*
X158614181Y-106005500D01*
X158597642Y-106036937D01*
X158548374Y-106058521D01*
X158501453Y-106039283D01*
X158472362Y-105973124D01*
X158635648Y-105690659D01*
X158637759Y-105734530D01*
G37*
G36*
X156760912Y-105734530D02*
G01*
X156761616Y-105785440D01*
X156760365Y-105852172D01*
X156756611Y-105908477D01*
X156750355Y-105954356D01*
X156737334Y-106005500D01*
X156720794Y-106036937D01*
X156671527Y-106058521D01*
X156624606Y-106039283D01*
X156595515Y-105973124D01*
X156758800Y-105690659D01*
X156760912Y-105734530D01*
G37*
G36*
X164223022Y-105528781D02*
G01*
X164251175Y-105584617D01*
X164090704Y-105863329D01*
X164088828Y-105785440D01*
X164090079Y-105718707D01*
X164093833Y-105662402D01*
X164100089Y-105616523D01*
X164113109Y-105565379D01*
X164129649Y-105533942D01*
X164178916Y-105512358D01*
X164223022Y-105528781D01*
G37*
G36*
X161954807Y-104325305D02*
G01*
X161990049Y-104358007D01*
X162001797Y-104412512D01*
X161994177Y-104462637D01*
X161971317Y-104496808D01*
X161932264Y-104516453D01*
X161876067Y-104523002D01*
X161848444Y-104523002D01*
X161848444Y-104322024D01*
X161896069Y-104314404D01*
X161954807Y-104325305D01*
G37*
G36*
X158592480Y-105528781D02*
G01*
X158620633Y-105584617D01*
X158460163Y-105863329D01*
X158458286Y-105785440D01*
X158459537Y-105718707D01*
X158463291Y-105662402D01*
X158469547Y-105616523D01*
X158482567Y-105565379D01*
X158499107Y-105533942D01*
X158548374Y-105512358D01*
X158592480Y-105528781D01*
G37*
G36*
X156715633Y-105528781D02*
G01*
X156743786Y-105584617D01*
X156583315Y-105863329D01*
X156581438Y-105785440D01*
X156582690Y-105718707D01*
X156586443Y-105662402D01*
X156592700Y-105616523D01*
X156605720Y-105565379D01*
X156622260Y-105533942D01*
X156671527Y-105512358D01*
X156715633Y-105528781D01*
G37*
G36*
X162945724Y-104860187D02*
G01*
X162882859Y-104872569D01*
X162813327Y-104850185D01*
X162788562Y-104786844D01*
X162796301Y-104743744D01*
X162819518Y-104713502D01*
X162859880Y-104695642D01*
X162919054Y-104689689D01*
X162945724Y-104689689D01*
X162945724Y-104860187D01*
G37*
G36*
X161895732Y-105737111D02*
G01*
X161910746Y-105780630D01*
X161916377Y-105846437D01*
X161749337Y-105846437D01*
X161757314Y-105778871D01*
X161773736Y-105735703D01*
X161799778Y-105712477D01*
X161836611Y-105704735D01*
X161895732Y-105737111D01*
G37*
%TO.C,J3*%
X154400000Y-102720000D02*
X155870000Y-102720000D01*
X155870000Y-104050000D02*
X155870000Y-102720000D01*
D13*
X138665000Y-105320000D02*
X138030000Y-104685000D01*
D12*
X139300000Y-105380000D02*
X137970000Y-105380000D01*
X137970000Y-105380000D02*
X137970000Y-104050000D01*
%TO.C,kibuzzard-64859921*%
G36*
X137555625Y-99741956D02*
G01*
X137555625Y-99940394D01*
X137555625Y-101259606D01*
X137555625Y-101458044D01*
X137555625Y-101791419D01*
X136444375Y-101458044D01*
X136444375Y-101259606D01*
X136444375Y-101045294D01*
X136642812Y-101045294D01*
X136648633Y-101110778D01*
X136666096Y-101164356D01*
X136695200Y-101206028D01*
X136735946Y-101235794D01*
X136788333Y-101253653D01*
X136852362Y-101259606D01*
X136919276Y-101251867D01*
X136970472Y-101228650D01*
X137005953Y-101189955D01*
X137025717Y-101135781D01*
X137026670Y-101135781D01*
X137050899Y-101185787D01*
X137087392Y-101221506D01*
X137136148Y-101242937D01*
X137197167Y-101250081D01*
X137264200Y-101238175D01*
X137314801Y-101202456D01*
X137346591Y-101144592D01*
X137357188Y-101066249D01*
X137353483Y-101014602D01*
X137342371Y-100961262D01*
X137323850Y-100906229D01*
X137235267Y-100906229D01*
X137265271Y-100980047D01*
X137275272Y-101047199D01*
X137265112Y-101102232D01*
X137234632Y-101135252D01*
X137183832Y-101146259D01*
X137130254Y-101137686D01*
X137093345Y-101111969D01*
X137071914Y-101066963D01*
X137064770Y-101000526D01*
X137064770Y-100981476D01*
X136980950Y-100981476D01*
X136980950Y-101000526D01*
X136973687Y-101071964D01*
X136951899Y-101118636D01*
X136913680Y-101144354D01*
X136857125Y-101152926D01*
X136799618Y-101145425D01*
X136758541Y-101122922D01*
X136733895Y-101085418D01*
X136725680Y-101032911D01*
X136735443Y-100962188D01*
X136764732Y-100892894D01*
X136673292Y-100892894D01*
X136650432Y-100967665D01*
X136642812Y-101045294D01*
X136444375Y-101045294D01*
X136444375Y-100661436D01*
X136652337Y-100661436D01*
X137347662Y-100816694D01*
X137347662Y-100710966D01*
X136747587Y-100602381D01*
X136747587Y-100601429D01*
X137347662Y-100492844D01*
X137347662Y-100383306D01*
X136652337Y-100537611D01*
X136652337Y-100661436D01*
X136444375Y-100661436D01*
X136444375Y-100092794D01*
X136642812Y-100092794D01*
X136648633Y-100158278D01*
X136666096Y-100211856D01*
X136695200Y-100253528D01*
X136735946Y-100283294D01*
X136788333Y-100301153D01*
X136852362Y-100307106D01*
X136919276Y-100299367D01*
X136970472Y-100276150D01*
X137005953Y-100237455D01*
X137025717Y-100183281D01*
X137026670Y-100183281D01*
X137050899Y-100233287D01*
X137087392Y-100269006D01*
X137136148Y-100290437D01*
X137197167Y-100297581D01*
X137264200Y-100285675D01*
X137314801Y-100249956D01*
X137346591Y-100192092D01*
X137357188Y-100113749D01*
X137353483Y-100062102D01*
X137342371Y-100008762D01*
X137323850Y-99953729D01*
X137235267Y-99953729D01*
X137265271Y-100027547D01*
X137275272Y-100094699D01*
X137265112Y-100149732D01*
X137234632Y-100182752D01*
X137183832Y-100193759D01*
X137130254Y-100185186D01*
X137093345Y-100159469D01*
X137071914Y-100114463D01*
X137064770Y-100048026D01*
X137064770Y-100028976D01*
X136980950Y-100028976D01*
X136980950Y-100048026D01*
X136973687Y-100119464D01*
X136951899Y-100166136D01*
X136913680Y-100191854D01*
X136857125Y-100200426D01*
X136799618Y-100192925D01*
X136758541Y-100170422D01*
X136733895Y-100132918D01*
X136725680Y-100080411D01*
X136735443Y-100009688D01*
X136764732Y-99940394D01*
X136673292Y-99940394D01*
X136650432Y-100015165D01*
X136642812Y-100092794D01*
X136444375Y-100092794D01*
X136444375Y-99940394D01*
X136444375Y-99741956D01*
X136444375Y-99408581D01*
X137555625Y-99741956D01*
G37*
%TO.C,kibuzzard-6485998B*%
G36*
X137550863Y-95933296D02*
G01*
X137550863Y-96131734D01*
X137550863Y-98868266D01*
X137550863Y-99066704D01*
X137550863Y-99397221D01*
X136449138Y-99066704D01*
X136449138Y-98868266D01*
X136449138Y-98758729D01*
X136738063Y-98758729D01*
X136740920Y-98811354D01*
X136749492Y-98858741D01*
X136836170Y-98858741D01*
X136825454Y-98818022D01*
X136821883Y-98777779D01*
X136837599Y-98720629D01*
X136909512Y-98708246D01*
X137146685Y-98708246D01*
X137146685Y-98868266D01*
X137223838Y-98868266D01*
X137223838Y-98708246D01*
X137404812Y-98708246D01*
X137404812Y-98604424D01*
X137223838Y-98604424D01*
X137223838Y-98506316D01*
X137146685Y-98506316D01*
X137146685Y-98604424D01*
X136890463Y-98604424D01*
X136816644Y-98612877D01*
X136770448Y-98638238D01*
X136746159Y-98685267D01*
X136738063Y-98758729D01*
X136449138Y-98758729D01*
X136449138Y-98401541D01*
X136747588Y-98401541D01*
X137079058Y-98401541D01*
X137158472Y-98392731D01*
X137211931Y-98366299D01*
X137242292Y-98320579D01*
X137252413Y-98253904D01*
X137245269Y-98197944D01*
X137223838Y-98144366D01*
X137461963Y-98144366D01*
X137461963Y-98039591D01*
X136747588Y-98039591D01*
X136747588Y-98144366D01*
X137136208Y-98144366D01*
X137164783Y-98183181D01*
X137174308Y-98227234D01*
X137150495Y-98285336D01*
X137114062Y-98296766D01*
X137052388Y-98300576D01*
X136747588Y-98299624D01*
X136747588Y-98401541D01*
X136449138Y-98401541D01*
X136449138Y-97610966D01*
X136528513Y-97610966D01*
X136532799Y-97680231D01*
X136545657Y-97741340D01*
X136567089Y-97794293D01*
X136597092Y-97839090D01*
X136648527Y-97884334D01*
X136711393Y-97911480D01*
X136785688Y-97920529D01*
X137231458Y-97920529D01*
X137247174Y-97848139D01*
X137252413Y-97768129D01*
X137246168Y-97697855D01*
X137227436Y-97641975D01*
X137196215Y-97600489D01*
X137150495Y-97571914D01*
X137088265Y-97554769D01*
X137009525Y-97549054D01*
X136935309Y-97554134D01*
X136874588Y-97569374D01*
X136827359Y-97594774D01*
X136793625Y-97630334D01*
X136773384Y-97676054D01*
X136766638Y-97731934D01*
X136771400Y-97775273D01*
X136785688Y-97815754D01*
X136771400Y-97815754D01*
X136702820Y-97802538D01*
X136651385Y-97762890D01*
X136627572Y-97722515D01*
X136613285Y-97671873D01*
X136608522Y-97610966D01*
X136528513Y-97610966D01*
X136449138Y-97610966D01*
X136449138Y-97349029D01*
X136747588Y-97349029D01*
X137242888Y-97349029D01*
X137242888Y-97223299D01*
X137352425Y-97223299D01*
X137352425Y-97349029D01*
X137471488Y-97349029D01*
X137471488Y-97223299D01*
X137352425Y-97223299D01*
X137242888Y-97223299D01*
X137242888Y-97115666D01*
X137165735Y-97115666D01*
X137165735Y-97242349D01*
X136747588Y-97242349D01*
X136747588Y-97349029D01*
X136449138Y-97349029D01*
X136449138Y-96746096D01*
X136747588Y-96746096D01*
X137145733Y-96745144D01*
X137161078Y-96812560D01*
X137170286Y-96882727D01*
X137173355Y-96955646D01*
X137252413Y-96955646D01*
X137250431Y-96890648D01*
X137244488Y-96826716D01*
X137234582Y-96763851D01*
X137220713Y-96702053D01*
X137202883Y-96641321D01*
X136747588Y-96641321D01*
X136747588Y-96746096D01*
X136449138Y-96746096D01*
X136449138Y-96291754D01*
X136738063Y-96291754D01*
X136743883Y-96359275D01*
X136761346Y-96414520D01*
X136790450Y-96457489D01*
X136831196Y-96488180D01*
X136883583Y-96506595D01*
X136947612Y-96512734D01*
X137011430Y-96503566D01*
X137065723Y-96476062D01*
X137105489Y-96434748D01*
X137125730Y-96384146D01*
X137126683Y-96384146D01*
X137146209Y-96428795D01*
X137180023Y-96463680D01*
X137225266Y-96486183D01*
X137279083Y-96493684D01*
X137341490Y-96485378D01*
X137390030Y-96460461D01*
X137424701Y-96418932D01*
X137445503Y-96360791D01*
X137452438Y-96286039D01*
X137447675Y-96207457D01*
X137433388Y-96131734D01*
X136757112Y-96131734D01*
X136746529Y-96184227D01*
X136740179Y-96237567D01*
X136738063Y-96291754D01*
X136449138Y-96291754D01*
X136449138Y-96131734D01*
X136449138Y-95933296D01*
X136449138Y-95602779D01*
X137550863Y-95933296D01*
G37*
G36*
X137086678Y-97660377D02*
G01*
X137137160Y-97680023D01*
X137165021Y-97713955D01*
X137174308Y-97763366D01*
X137168593Y-97815754D01*
X136865697Y-97815754D01*
X136843790Y-97744316D01*
X136854148Y-97704728D01*
X136885224Y-97676451D01*
X136937016Y-97659484D01*
X137009525Y-97653829D01*
X137086678Y-97660377D01*
G37*
G36*
X137080963Y-96278419D02*
G01*
X137073104Y-96336997D01*
X137049530Y-96377479D01*
X137008811Y-96401053D01*
X136949518Y-96408911D01*
X136891058Y-96401648D01*
X136850934Y-96379860D01*
X136827717Y-96343308D01*
X136819978Y-96291754D01*
X136827597Y-96238414D01*
X137080963Y-96238414D01*
X137080963Y-96278419D01*
G37*
G36*
X137370523Y-96286039D02*
G01*
X137359622Y-96344776D01*
X137326919Y-96380019D01*
X137272415Y-96391766D01*
X137222290Y-96384146D01*
X137188119Y-96361286D01*
X137168473Y-96322234D01*
X137161925Y-96266036D01*
X137161925Y-96238414D01*
X137362903Y-96238414D01*
X137370523Y-96286039D01*
G37*
%TD*%
M02*
