%TF.GenerationSoftware,KiCad,Pcbnew,(6.0.1)*%
%TF.CreationDate,2022-06-04T23:11:39+02:00*%
%TF.ProjectId,esp-lvl,6573702d-6c76-46c2-9e6b-696361645f70,rev?*%
%TF.SameCoordinates,Original*%
%TF.FileFunction,Legend,Bot*%
%TF.FilePolarity,Positive*%
%FSLAX46Y46*%
G04 Gerber Fmt 4.6, Leading zero omitted, Abs format (unit mm)*
G04 Created by KiCad (PCBNEW (6.0.1)) date 2022-06-04 23:11:39*
%MOMM*%
%LPD*%
G01*
G04 APERTURE LIST*
%ADD10C,0.150000*%
G04 APERTURE END LIST*
D10*
%TO.C,R2*%
X101116666Y-75816666D02*
X101350000Y-75483333D01*
X101516666Y-75816666D02*
X101516666Y-75116666D01*
X101250000Y-75116666D01*
X101183333Y-75150000D01*
X101150000Y-75183333D01*
X101116666Y-75250000D01*
X101116666Y-75350000D01*
X101150000Y-75416666D01*
X101183333Y-75450000D01*
X101250000Y-75483333D01*
X101516666Y-75483333D01*
X100850000Y-75183333D02*
X100816666Y-75150000D01*
X100750000Y-75116666D01*
X100583333Y-75116666D01*
X100516666Y-75150000D01*
X100483333Y-75183333D01*
X100450000Y-75250000D01*
X100450000Y-75316666D01*
X100483333Y-75416666D01*
X100883333Y-75816666D01*
X100450000Y-75816666D01*
%TO.C,R1*%
X101116666Y-73816666D02*
X101350000Y-73483333D01*
X101516666Y-73816666D02*
X101516666Y-73116666D01*
X101250000Y-73116666D01*
X101183333Y-73150000D01*
X101150000Y-73183333D01*
X101116666Y-73250000D01*
X101116666Y-73350000D01*
X101150000Y-73416666D01*
X101183333Y-73450000D01*
X101250000Y-73483333D01*
X101516666Y-73483333D01*
X100450000Y-73816666D02*
X100850000Y-73816666D01*
X100650000Y-73816666D02*
X100650000Y-73116666D01*
X100716666Y-73216666D01*
X100783333Y-73283333D01*
X100850000Y-73316666D01*
%TO.C,R5*%
X101116666Y-77816666D02*
X101350000Y-77483333D01*
X101516666Y-77816666D02*
X101516666Y-77116666D01*
X101250000Y-77116666D01*
X101183333Y-77150000D01*
X101150000Y-77183333D01*
X101116666Y-77250000D01*
X101116666Y-77350000D01*
X101150000Y-77416666D01*
X101183333Y-77450000D01*
X101250000Y-77483333D01*
X101516666Y-77483333D01*
X100483333Y-77116666D02*
X100816666Y-77116666D01*
X100850000Y-77450000D01*
X100816666Y-77416666D01*
X100750000Y-77383333D01*
X100583333Y-77383333D01*
X100516666Y-77416666D01*
X100483333Y-77450000D01*
X100450000Y-77516666D01*
X100450000Y-77683333D01*
X100483333Y-77750000D01*
X100516666Y-77783333D01*
X100583333Y-77816666D01*
X100750000Y-77816666D01*
X100816666Y-77783333D01*
X100850000Y-77750000D01*
%TO.C,R2*%
X96250000Y-76200000D02*
X97000000Y-76200000D01*
X96250000Y-74800000D02*
X96250000Y-76200000D01*
X98750000Y-76200000D02*
X98000000Y-76200000D01*
X97000000Y-74800000D02*
X96250000Y-74800000D01*
X98750000Y-74800000D02*
X98750000Y-76200000D01*
X98000000Y-74800000D02*
X98750000Y-74800000D01*
%TO.C,R1*%
X98000000Y-72800000D02*
X98750000Y-72800000D01*
X98750000Y-74200000D02*
X98000000Y-74200000D01*
X96250000Y-74200000D02*
X97000000Y-74200000D01*
X97000000Y-72800000D02*
X96250000Y-72800000D01*
X98750000Y-72800000D02*
X98750000Y-74200000D01*
X96250000Y-72800000D02*
X96250000Y-74200000D01*
%TO.C,R5*%
X98750000Y-76800000D02*
X98750000Y-78200000D01*
X97000000Y-76800000D02*
X96250000Y-76800000D01*
X96250000Y-76800000D02*
X96250000Y-78200000D01*
X96250000Y-78200000D02*
X97000000Y-78200000D01*
X98000000Y-76800000D02*
X98750000Y-76800000D01*
X98750000Y-78200000D02*
X98000000Y-78200000D01*
%TD*%
M02*
