%TF.GenerationSoftware,KiCad,Pcbnew,(6.0.1)*%
%TF.CreationDate,2022-06-04T23:11:39+02:00*%
%TF.ProjectId,esp-lvl,6573702d-6c76-46c2-9e6b-696361645f70,rev?*%
%TF.SameCoordinates,Original*%
%TF.FileFunction,Copper,L2,Bot*%
%TF.FilePolarity,Positive*%
%FSLAX46Y46*%
G04 Gerber Fmt 4.6, Leading zero omitted, Abs format (unit mm)*
G04 Created by KiCad (PCBNEW (6.0.1)) date 2022-06-04 23:11:39*
%MOMM*%
%LPD*%
G01*
G04 APERTURE LIST*
%TA.AperFunction,ComponentPad*%
%ADD10R,1.700000X1.700000*%
%TD*%
%TA.AperFunction,ComponentPad*%
%ADD11O,1.700000X1.700000*%
%TD*%
%TA.AperFunction,SMDPad,CuDef*%
%ADD12R,0.600000X0.900000*%
%TD*%
%TA.AperFunction,ViaPad*%
%ADD13C,0.800000*%
%TD*%
%TA.AperFunction,Conductor*%
%ADD14C,0.500000*%
%TD*%
%TA.AperFunction,Conductor*%
%ADD15C,0.300000*%
%TD*%
G04 APERTURE END LIST*
D10*
%TO.P,J2,1,P1*%
%TO.N,/PWM_Colour*%
X110000000Y-75000000D03*
D11*
%TO.P,J2,4,P4*%
%TO.N,unconnected-(J2-Pad4)*%
X110000000Y-82620000D03*
%TD*%
D10*
%TO.P,J1,1,P1*%
%TO.N,unconnected-(J1-Pad1)*%
X86000000Y-75000000D03*
D11*
%TO.P,J1,2,P2*%
%TO.N,/PWM_Bright*%
X86000000Y-77540000D03*
%TO.P,J1,3,P3*%
%TO.N,+5V*%
X86000000Y-80080000D03*
%TO.P,J1,4,P4*%
%TO.N,GND*%
X86000000Y-82620000D03*
%TD*%
D10*
%TO.P,J3,1,P1*%
%TO.N,GND*%
X91380000Y-84000000D03*
D11*
%TO.P,J3,2,P2*%
%TO.N,/SENS*%
X93920000Y-84000000D03*
%TO.P,J3,3,P3*%
%TO.N,+5V*%
X96460000Y-84000000D03*
%TO.P,J3,4,P4*%
%TO.N,+3V3*%
X99000000Y-84000000D03*
%TO.P,J3,5,P5*%
%TO.N,/SCL*%
X101540000Y-84000000D03*
%TO.P,J3,6,6*%
%TO.N,/SDA*%
X104080000Y-84000000D03*
%TD*%
D12*
%TO.P,R2,1*%
%TO.N,Net-(R2-Pad1)*%
X98250000Y-75500000D03*
%TO.P,R2,2*%
%TO.N,+3V3*%
X96750000Y-75500000D03*
%TD*%
%TO.P,R1,1*%
%TO.N,Net-(R1-Pad1)*%
X98250000Y-73500000D03*
%TO.P,R1,2*%
%TO.N,+3V3*%
X96750000Y-73500000D03*
%TD*%
%TO.P,R5,1*%
%TO.N,Net-(R5-Pad1)*%
X98250000Y-77500000D03*
%TO.P,R5,2*%
%TO.N,GND*%
X96750000Y-77500000D03*
%TD*%
D13*
%TO.N,GND*%
X105100000Y-80700000D03*
X108300000Y-72000000D03*
X114300000Y-72000000D03*
%TO.N,+3V3*%
X95500000Y-75500000D03*
X95500000Y-73500000D03*
%TO.N,/SENS*%
X92000000Y-77500000D03*
X92000000Y-80750500D03*
%TO.N,/PWM_Bright*%
X92000000Y-75000000D03*
%TO.N,/SCL*%
X109200000Y-78950498D03*
%TO.N,/SDA*%
X109200000Y-81100000D03*
%TO.N,/PWM_Colour*%
X103000000Y-74500000D03*
%TO.N,Net-(R1-Pad1)*%
X99500000Y-73500000D03*
%TO.N,Net-(R2-Pad1)*%
X99500000Y-75500000D03*
%TO.N,Net-(R5-Pad1)*%
X99500000Y-77500000D03*
%TD*%
D14*
%TO.N,GND*%
X91380000Y-82620000D02*
X91380000Y-84000000D01*
X96750000Y-77500000D02*
X96750000Y-80350000D01*
X91380000Y-84000000D02*
X86500000Y-84000000D01*
X95100000Y-82000000D02*
X92000000Y-82000000D01*
D15*
X86000000Y-82620000D02*
X86000000Y-83500000D01*
D14*
X86500000Y-84000000D02*
X86000000Y-83500000D01*
X92000000Y-82000000D02*
X91380000Y-82620000D01*
X96750000Y-80350000D02*
X95100000Y-82000000D01*
X108300000Y-72000000D02*
X114300000Y-72000000D01*
%TO.N,+3V3*%
X95500000Y-75500000D02*
X96750000Y-75500000D01*
X95500000Y-73500000D02*
X95500000Y-75500000D01*
X95500000Y-73500000D02*
X96750000Y-73500000D01*
D15*
%TO.N,/SENS*%
X92000000Y-80750500D02*
X92000000Y-77500000D01*
%TO.N,/PWM_Bright*%
X90460000Y-75000000D02*
X87920000Y-77540000D01*
X92000000Y-75000000D02*
X90460000Y-75000000D01*
X87920000Y-77540000D02*
X86000000Y-77540000D01*
%TO.N,/SCL*%
X103540000Y-82000000D02*
X105400000Y-82000000D01*
X101540000Y-84000000D02*
X103540000Y-82000000D01*
X105400000Y-82000000D02*
X108449502Y-78950498D01*
X108449502Y-78950498D02*
X109200000Y-78950498D01*
%TO.N,/SDA*%
X107006428Y-81100000D02*
X109200000Y-81100000D01*
X104080000Y-84000000D02*
X104106428Y-84000000D01*
X104106428Y-84000000D02*
X107006428Y-81100000D01*
%TO.N,/PWM_Colour*%
X103500000Y-75000000D02*
X110000000Y-75000000D01*
X103000000Y-74500000D02*
X103500000Y-75000000D01*
%TO.N,Net-(R1-Pad1)*%
X99500000Y-73500000D02*
X98250000Y-73500000D01*
%TO.N,Net-(R2-Pad1)*%
X99500000Y-75500000D02*
X98250000Y-75500000D01*
%TO.N,Net-(R5-Pad1)*%
X99500000Y-77500000D02*
X98250000Y-77500000D01*
%TD*%
%TA.AperFunction,Conductor*%
%TO.N,GND*%
G36*
X115434121Y-67528002D02*
G01*
X115480614Y-67581658D01*
X115492000Y-67634000D01*
X115492000Y-85366000D01*
X115471998Y-85434121D01*
X115418342Y-85480614D01*
X115366000Y-85492000D01*
X104666139Y-85492000D01*
X104598018Y-85471998D01*
X104551525Y-85418342D01*
X104541421Y-85348068D01*
X104570915Y-85283488D01*
X104610707Y-85252849D01*
X104664021Y-85226731D01*
X104777994Y-85170896D01*
X104959860Y-85041173D01*
X105118096Y-84883489D01*
X105248453Y-84702077D01*
X105269320Y-84659857D01*
X105345136Y-84506453D01*
X105345137Y-84506451D01*
X105347430Y-84501811D01*
X105412370Y-84288069D01*
X105441529Y-84066590D01*
X105443156Y-84000000D01*
X105424852Y-83777361D01*
X105416616Y-83744570D01*
X105409225Y-83715143D01*
X105412030Y-83644202D01*
X105442334Y-83595354D01*
X107242282Y-81795405D01*
X107304594Y-81761380D01*
X107331377Y-81758500D01*
X108519776Y-81758500D01*
X108587897Y-81778502D01*
X108593837Y-81782564D01*
X108732119Y-81883032D01*
X108775473Y-81939254D01*
X108781548Y-82009991D01*
X108772345Y-82038019D01*
X108722869Y-82144604D01*
X108722865Y-82144616D01*
X108720688Y-82149305D01*
X108660989Y-82364570D01*
X108637251Y-82586695D01*
X108637548Y-82591848D01*
X108637548Y-82591851D01*
X108646191Y-82741750D01*
X108650110Y-82809715D01*
X108651247Y-82814761D01*
X108651248Y-82814767D01*
X108671096Y-82902837D01*
X108699222Y-83027639D01*
X108783266Y-83234616D01*
X108899987Y-83425088D01*
X109046250Y-83593938D01*
X109218126Y-83736632D01*
X109411000Y-83849338D01*
X109619692Y-83929030D01*
X109624760Y-83930061D01*
X109624763Y-83930062D01*
X109719862Y-83949410D01*
X109838597Y-83973567D01*
X109843772Y-83973757D01*
X109843774Y-83973757D01*
X110056673Y-83981564D01*
X110056677Y-83981564D01*
X110061837Y-83981753D01*
X110066957Y-83981097D01*
X110066959Y-83981097D01*
X110278288Y-83954025D01*
X110278289Y-83954025D01*
X110283416Y-83953368D01*
X110288366Y-83951883D01*
X110492429Y-83890661D01*
X110492434Y-83890659D01*
X110497384Y-83889174D01*
X110697994Y-83790896D01*
X110879860Y-83661173D01*
X110896891Y-83644202D01*
X110961209Y-83580107D01*
X111038096Y-83503489D01*
X111097594Y-83420689D01*
X111165435Y-83326277D01*
X111168453Y-83322077D01*
X111267430Y-83121811D01*
X111332370Y-82908069D01*
X111361529Y-82686590D01*
X111361611Y-82683240D01*
X111363074Y-82623365D01*
X111363074Y-82623361D01*
X111363156Y-82620000D01*
X111344852Y-82397361D01*
X111290431Y-82180702D01*
X111201354Y-81975840D01*
X111141314Y-81883032D01*
X111082822Y-81792617D01*
X111082820Y-81792614D01*
X111080014Y-81788277D01*
X110929670Y-81623051D01*
X110925619Y-81619852D01*
X110925615Y-81619848D01*
X110758414Y-81487800D01*
X110758410Y-81487798D01*
X110754359Y-81484598D01*
X110748128Y-81481158D01*
X110649960Y-81426967D01*
X110558789Y-81376638D01*
X110553920Y-81374914D01*
X110553916Y-81374912D01*
X110353087Y-81303795D01*
X110353083Y-81303794D01*
X110348212Y-81302069D01*
X110343119Y-81301162D01*
X110343116Y-81301161D01*
X110212444Y-81277885D01*
X110148886Y-81246247D01*
X110112523Y-81185270D01*
X110109230Y-81140668D01*
X110112814Y-81106566D01*
X110112814Y-81106565D01*
X110113504Y-81100000D01*
X110098715Y-80959292D01*
X110094232Y-80916635D01*
X110094232Y-80916633D01*
X110093542Y-80910072D01*
X110034527Y-80728444D01*
X109939040Y-80563056D01*
X109915766Y-80537207D01*
X109815675Y-80426045D01*
X109815674Y-80426044D01*
X109811253Y-80421134D01*
X109656752Y-80308882D01*
X109650724Y-80306198D01*
X109650722Y-80306197D01*
X109488319Y-80233891D01*
X109488318Y-80233891D01*
X109482288Y-80231206D01*
X109376162Y-80208648D01*
X109301944Y-80192872D01*
X109301939Y-80192872D01*
X109295487Y-80191500D01*
X109104513Y-80191500D01*
X109098061Y-80192872D01*
X109098056Y-80192872D01*
X109023838Y-80208648D01*
X108917712Y-80231206D01*
X108911682Y-80233891D01*
X108911681Y-80233891D01*
X108749278Y-80306197D01*
X108749276Y-80306198D01*
X108743248Y-80308882D01*
X108594092Y-80417251D01*
X108593837Y-80417436D01*
X108526969Y-80441294D01*
X108519776Y-80441500D01*
X108193950Y-80441500D01*
X108125829Y-80421498D01*
X108079336Y-80367842D01*
X108069232Y-80297568D01*
X108098726Y-80232988D01*
X108104855Y-80226405D01*
X108578187Y-79753073D01*
X108640499Y-79719047D01*
X108711314Y-79724112D01*
X108731800Y-79735108D01*
X108732189Y-79734434D01*
X108737906Y-79737735D01*
X108743248Y-79741616D01*
X108749276Y-79744300D01*
X108749278Y-79744301D01*
X108911681Y-79816607D01*
X108917712Y-79819292D01*
X109011112Y-79839145D01*
X109098056Y-79857626D01*
X109098061Y-79857626D01*
X109104513Y-79858998D01*
X109295487Y-79858998D01*
X109301939Y-79857626D01*
X109301944Y-79857626D01*
X109388888Y-79839145D01*
X109482288Y-79819292D01*
X109488319Y-79816607D01*
X109650722Y-79744301D01*
X109650724Y-79744300D01*
X109656752Y-79741616D01*
X109665710Y-79735108D01*
X109788741Y-79645720D01*
X109811253Y-79629364D01*
X109829314Y-79609305D01*
X109934621Y-79492350D01*
X109934622Y-79492349D01*
X109939040Y-79487442D01*
X110034527Y-79322054D01*
X110093542Y-79140426D01*
X110101536Y-79064373D01*
X110112814Y-78957063D01*
X110113504Y-78950498D01*
X110098926Y-78811797D01*
X110094232Y-78767133D01*
X110094232Y-78767131D01*
X110093542Y-78760570D01*
X110034527Y-78578942D01*
X109939040Y-78413554D01*
X109934490Y-78408500D01*
X109815675Y-78276543D01*
X109815674Y-78276542D01*
X109811253Y-78271632D01*
X109665690Y-78165874D01*
X109662094Y-78163261D01*
X109662093Y-78163260D01*
X109656752Y-78159380D01*
X109650724Y-78156696D01*
X109650722Y-78156695D01*
X109488319Y-78084389D01*
X109488318Y-78084389D01*
X109482288Y-78081704D01*
X109381666Y-78060316D01*
X109301944Y-78043370D01*
X109301939Y-78043370D01*
X109295487Y-78041998D01*
X109104513Y-78041998D01*
X109098061Y-78043370D01*
X109098056Y-78043370D01*
X109018334Y-78060316D01*
X108917712Y-78081704D01*
X108911682Y-78084389D01*
X108911681Y-78084389D01*
X108749278Y-78156695D01*
X108749276Y-78156696D01*
X108743248Y-78159380D01*
X108737907Y-78163260D01*
X108737906Y-78163261D01*
X108734310Y-78165874D01*
X108617181Y-78250974D01*
X108595193Y-78266949D01*
X108528326Y-78290807D01*
X108515838Y-78290576D01*
X108511965Y-78289710D01*
X108504038Y-78289959D01*
X108504037Y-78289959D01*
X108441133Y-78291936D01*
X108437175Y-78291998D01*
X108408070Y-78291998D01*
X108403670Y-78292554D01*
X108391838Y-78293486D01*
X108345671Y-78294936D01*
X108325081Y-78300918D01*
X108305720Y-78304928D01*
X108299416Y-78305724D01*
X108292298Y-78306623D01*
X108292297Y-78306623D01*
X108284438Y-78307616D01*
X108277073Y-78310532D01*
X108277069Y-78310533D01*
X108241481Y-78324624D01*
X108230271Y-78328463D01*
X108185902Y-78341353D01*
X108167437Y-78352273D01*
X108149697Y-78360964D01*
X108129746Y-78368863D01*
X108094066Y-78394786D01*
X108092376Y-78396014D01*
X108082454Y-78402531D01*
X108049525Y-78422005D01*
X108049521Y-78422008D01*
X108042695Y-78426045D01*
X108027531Y-78441209D01*
X108012498Y-78454049D01*
X107995145Y-78466657D01*
X107965700Y-78502250D01*
X107957710Y-78511030D01*
X105164145Y-81304595D01*
X105101833Y-81338621D01*
X105075050Y-81341500D01*
X103622056Y-81341500D01*
X103610200Y-81340941D01*
X103610197Y-81340941D01*
X103602463Y-81339212D01*
X103547446Y-81340941D01*
X103531631Y-81341438D01*
X103527673Y-81341500D01*
X103498568Y-81341500D01*
X103494168Y-81342056D01*
X103482336Y-81342988D01*
X103436169Y-81344438D01*
X103415579Y-81350420D01*
X103396218Y-81354430D01*
X103389230Y-81355312D01*
X103382796Y-81356125D01*
X103382795Y-81356125D01*
X103374936Y-81357118D01*
X103367571Y-81360034D01*
X103367567Y-81360035D01*
X103331979Y-81374126D01*
X103320769Y-81377965D01*
X103276400Y-81390855D01*
X103257935Y-81401775D01*
X103240195Y-81410466D01*
X103220244Y-81418365D01*
X103188053Y-81441753D01*
X103182874Y-81445516D01*
X103172952Y-81452033D01*
X103140023Y-81471507D01*
X103140019Y-81471510D01*
X103133193Y-81475547D01*
X103118029Y-81490711D01*
X103102996Y-81503551D01*
X103085643Y-81516159D01*
X103056198Y-81551752D01*
X103048208Y-81560532D01*
X101967335Y-82641405D01*
X101905023Y-82675431D01*
X101856145Y-82676357D01*
X101808971Y-82667954D01*
X101673373Y-82643800D01*
X101673367Y-82643799D01*
X101668284Y-82642894D01*
X101594452Y-82641992D01*
X101450081Y-82640228D01*
X101450079Y-82640228D01*
X101444911Y-82640165D01*
X101224091Y-82673955D01*
X101011756Y-82743357D01*
X100813607Y-82846507D01*
X100809474Y-82849610D01*
X100809471Y-82849612D01*
X100639100Y-82977530D01*
X100634965Y-82980635D01*
X100631393Y-82984373D01*
X100543950Y-83075877D01*
X100480629Y-83142138D01*
X100373201Y-83299621D01*
X100318293Y-83344621D01*
X100247768Y-83352792D01*
X100184021Y-83321538D01*
X100163324Y-83297054D01*
X100082822Y-83172617D01*
X100082820Y-83172614D01*
X100080014Y-83168277D01*
X99929670Y-83003051D01*
X99925619Y-82999852D01*
X99925615Y-82999848D01*
X99758414Y-82867800D01*
X99758410Y-82867798D01*
X99754359Y-82864598D01*
X99558789Y-82756638D01*
X99553920Y-82754914D01*
X99553916Y-82754912D01*
X99353087Y-82683795D01*
X99353083Y-82683794D01*
X99348212Y-82682069D01*
X99343119Y-82681162D01*
X99343116Y-82681161D01*
X99133373Y-82643800D01*
X99133367Y-82643799D01*
X99128284Y-82642894D01*
X99054452Y-82641992D01*
X98910081Y-82640228D01*
X98910079Y-82640228D01*
X98904911Y-82640165D01*
X98684091Y-82673955D01*
X98471756Y-82743357D01*
X98273607Y-82846507D01*
X98269474Y-82849610D01*
X98269471Y-82849612D01*
X98099100Y-82977530D01*
X98094965Y-82980635D01*
X98091393Y-82984373D01*
X98003950Y-83075877D01*
X97940629Y-83142138D01*
X97833201Y-83299621D01*
X97778293Y-83344621D01*
X97707768Y-83352792D01*
X97644021Y-83321538D01*
X97623324Y-83297054D01*
X97542822Y-83172617D01*
X97542820Y-83172614D01*
X97540014Y-83168277D01*
X97389670Y-83003051D01*
X97385619Y-82999852D01*
X97385615Y-82999848D01*
X97218414Y-82867800D01*
X97218410Y-82867798D01*
X97214359Y-82864598D01*
X97018789Y-82756638D01*
X97013920Y-82754914D01*
X97013916Y-82754912D01*
X96813087Y-82683795D01*
X96813083Y-82683794D01*
X96808212Y-82682069D01*
X96803119Y-82681162D01*
X96803116Y-82681161D01*
X96593373Y-82643800D01*
X96593367Y-82643799D01*
X96588284Y-82642894D01*
X96514452Y-82641992D01*
X96370081Y-82640228D01*
X96370079Y-82640228D01*
X96364911Y-82640165D01*
X96144091Y-82673955D01*
X95931756Y-82743357D01*
X95733607Y-82846507D01*
X95729474Y-82849610D01*
X95729471Y-82849612D01*
X95559100Y-82977530D01*
X95554965Y-82980635D01*
X95551393Y-82984373D01*
X95463950Y-83075877D01*
X95400629Y-83142138D01*
X95293201Y-83299621D01*
X95238293Y-83344621D01*
X95167768Y-83352792D01*
X95104021Y-83321538D01*
X95083324Y-83297054D01*
X95002822Y-83172617D01*
X95002820Y-83172614D01*
X95000014Y-83168277D01*
X94849670Y-83003051D01*
X94845619Y-82999852D01*
X94845615Y-82999848D01*
X94678414Y-82867800D01*
X94678410Y-82867798D01*
X94674359Y-82864598D01*
X94478789Y-82756638D01*
X94473920Y-82754914D01*
X94473916Y-82754912D01*
X94273087Y-82683795D01*
X94273083Y-82683794D01*
X94268212Y-82682069D01*
X94263119Y-82681162D01*
X94263116Y-82681161D01*
X94053373Y-82643800D01*
X94053367Y-82643799D01*
X94048284Y-82642894D01*
X93974452Y-82641992D01*
X93830081Y-82640228D01*
X93830079Y-82640228D01*
X93824911Y-82640165D01*
X93604091Y-82673955D01*
X93391756Y-82743357D01*
X93193607Y-82846507D01*
X93189474Y-82849610D01*
X93189471Y-82849612D01*
X93019100Y-82977530D01*
X93014965Y-82980635D01*
X93011393Y-82984373D01*
X92933898Y-83065466D01*
X92872374Y-83100895D01*
X92801462Y-83097438D01*
X92743676Y-83056192D01*
X92724823Y-83022644D01*
X92683324Y-82911946D01*
X92674786Y-82896351D01*
X92598285Y-82794276D01*
X92585724Y-82781715D01*
X92483649Y-82705214D01*
X92468054Y-82696676D01*
X92347606Y-82651522D01*
X92332351Y-82647895D01*
X92281486Y-82642369D01*
X92274672Y-82642000D01*
X91652115Y-82642000D01*
X91636876Y-82646475D01*
X91635671Y-82647865D01*
X91634000Y-82655548D01*
X91634000Y-84128000D01*
X91613998Y-84196121D01*
X91560342Y-84242614D01*
X91508000Y-84254000D01*
X90040116Y-84254000D01*
X90024877Y-84258475D01*
X90023672Y-84259865D01*
X90022001Y-84267548D01*
X90022001Y-84894669D01*
X90022371Y-84901490D01*
X90027895Y-84952352D01*
X90031521Y-84967604D01*
X90076676Y-85088054D01*
X90085214Y-85103649D01*
X90161715Y-85205724D01*
X90174276Y-85218285D01*
X90236840Y-85265174D01*
X90279355Y-85322033D01*
X90284381Y-85392851D01*
X90250321Y-85455145D01*
X90187990Y-85489135D01*
X90161275Y-85492000D01*
X84634000Y-85492000D01*
X84565879Y-85471998D01*
X84519386Y-85418342D01*
X84508000Y-85366000D01*
X84508000Y-83200595D01*
X84528002Y-83132474D01*
X84581658Y-83085981D01*
X84651932Y-83075877D01*
X84716512Y-83105371D01*
X84750743Y-83153191D01*
X84781770Y-83229603D01*
X84786413Y-83238794D01*
X84897694Y-83420388D01*
X84903777Y-83428699D01*
X85043213Y-83589667D01*
X85050580Y-83596883D01*
X85214434Y-83732916D01*
X85222881Y-83738831D01*
X85406756Y-83846279D01*
X85416042Y-83850729D01*
X85615001Y-83926703D01*
X85624899Y-83929579D01*
X85728250Y-83950606D01*
X85742299Y-83949410D01*
X85746000Y-83939065D01*
X85746000Y-83938517D01*
X86254000Y-83938517D01*
X86258064Y-83952359D01*
X86271478Y-83954393D01*
X86278184Y-83953534D01*
X86288262Y-83951392D01*
X86492255Y-83890191D01*
X86501842Y-83886433D01*
X86693095Y-83792739D01*
X86701945Y-83787464D01*
X86785472Y-83727885D01*
X90022000Y-83727885D01*
X90026475Y-83743124D01*
X90027865Y-83744329D01*
X90035548Y-83746000D01*
X91107885Y-83746000D01*
X91123124Y-83741525D01*
X91124329Y-83740135D01*
X91126000Y-83732452D01*
X91126000Y-82660116D01*
X91121525Y-82644877D01*
X91120135Y-82643672D01*
X91112452Y-82642001D01*
X90485331Y-82642001D01*
X90478510Y-82642371D01*
X90427648Y-82647895D01*
X90412396Y-82651521D01*
X90291946Y-82696676D01*
X90276351Y-82705214D01*
X90174276Y-82781715D01*
X90161715Y-82794276D01*
X90085214Y-82896351D01*
X90076676Y-82911946D01*
X90031522Y-83032394D01*
X90027895Y-83047649D01*
X90022369Y-83098514D01*
X90022000Y-83105328D01*
X90022000Y-83727885D01*
X86785472Y-83727885D01*
X86875328Y-83663792D01*
X86883200Y-83657139D01*
X87034052Y-83506812D01*
X87040730Y-83498965D01*
X87165003Y-83326020D01*
X87170313Y-83317183D01*
X87264670Y-83126267D01*
X87268469Y-83116672D01*
X87330377Y-82912910D01*
X87332555Y-82902837D01*
X87333986Y-82891962D01*
X87331775Y-82877778D01*
X87318617Y-82874000D01*
X86272115Y-82874000D01*
X86256876Y-82878475D01*
X86255671Y-82879865D01*
X86254000Y-82887548D01*
X86254000Y-83938517D01*
X85746000Y-83938517D01*
X85746000Y-82492000D01*
X85766002Y-82423879D01*
X85819658Y-82377386D01*
X85872000Y-82366000D01*
X87318344Y-82366000D01*
X87331875Y-82362027D01*
X87333180Y-82352947D01*
X87291214Y-82185875D01*
X87287894Y-82176124D01*
X87202972Y-81980814D01*
X87198105Y-81971739D01*
X87082426Y-81792926D01*
X87076136Y-81784757D01*
X86932806Y-81627240D01*
X86925273Y-81620215D01*
X86758139Y-81488222D01*
X86749556Y-81482520D01*
X86712602Y-81462120D01*
X86662631Y-81411687D01*
X86647859Y-81342245D01*
X86672975Y-81275839D01*
X86700327Y-81249232D01*
X86723797Y-81232491D01*
X86879860Y-81121173D01*
X87038096Y-80963489D01*
X87097594Y-80880689D01*
X87165435Y-80786277D01*
X87168453Y-80782077D01*
X87184060Y-80750500D01*
X91086496Y-80750500D01*
X91087186Y-80757065D01*
X91102608Y-80903794D01*
X91106458Y-80940428D01*
X91165473Y-81122056D01*
X91260960Y-81287444D01*
X91265378Y-81292351D01*
X91265379Y-81292352D01*
X91371735Y-81410472D01*
X91388747Y-81429366D01*
X91543248Y-81541618D01*
X91549276Y-81544302D01*
X91549278Y-81544303D01*
X91669671Y-81597905D01*
X91717712Y-81619294D01*
X91811113Y-81639147D01*
X91898056Y-81657628D01*
X91898061Y-81657628D01*
X91904513Y-81659000D01*
X92095487Y-81659000D01*
X92101939Y-81657628D01*
X92101944Y-81657628D01*
X92188887Y-81639147D01*
X92282288Y-81619294D01*
X92330329Y-81597905D01*
X92450722Y-81544303D01*
X92450724Y-81544302D01*
X92456752Y-81541618D01*
X92611253Y-81429366D01*
X92628265Y-81410472D01*
X92734621Y-81292352D01*
X92734622Y-81292351D01*
X92739040Y-81287444D01*
X92834527Y-81122056D01*
X92893542Y-80940428D01*
X92897393Y-80903794D01*
X92912814Y-80757065D01*
X92913504Y-80750500D01*
X92893542Y-80560572D01*
X92834527Y-80378944D01*
X92825287Y-80362939D01*
X92742341Y-80219274D01*
X92739040Y-80213556D01*
X92690864Y-80160051D01*
X92660146Y-80096044D01*
X92658500Y-80075741D01*
X92658500Y-78174759D01*
X92678502Y-78106638D01*
X92690864Y-78090449D01*
X92734621Y-78041852D01*
X92734622Y-78041851D01*
X92739040Y-78036944D01*
X92763448Y-77994669D01*
X95942001Y-77994669D01*
X95942371Y-78001490D01*
X95947895Y-78052352D01*
X95951521Y-78067604D01*
X95996676Y-78188054D01*
X96005214Y-78203649D01*
X96081715Y-78305724D01*
X96094276Y-78318285D01*
X96196351Y-78394786D01*
X96211946Y-78403324D01*
X96332394Y-78448478D01*
X96347649Y-78452105D01*
X96398514Y-78457631D01*
X96405328Y-78458000D01*
X96477885Y-78458000D01*
X96493124Y-78453525D01*
X96494329Y-78452135D01*
X96496000Y-78444452D01*
X96496000Y-77772115D01*
X96491525Y-77756876D01*
X96490135Y-77755671D01*
X96482452Y-77754000D01*
X95960116Y-77754000D01*
X95944877Y-77758475D01*
X95943672Y-77759865D01*
X95942001Y-77767548D01*
X95942001Y-77994669D01*
X92763448Y-77994669D01*
X92834527Y-77871556D01*
X92893542Y-77689928D01*
X92913504Y-77500000D01*
X92893542Y-77310072D01*
X92834527Y-77128444D01*
X92739040Y-76963056D01*
X92733404Y-76956796D01*
X92615675Y-76826045D01*
X92615674Y-76826044D01*
X92611253Y-76821134D01*
X92456752Y-76708882D01*
X92450724Y-76706198D01*
X92450722Y-76706197D01*
X92288319Y-76633891D01*
X92288318Y-76633891D01*
X92282288Y-76631206D01*
X92188887Y-76611353D01*
X92101944Y-76592872D01*
X92101939Y-76592872D01*
X92095487Y-76591500D01*
X91904513Y-76591500D01*
X91898061Y-76592872D01*
X91898056Y-76592872D01*
X91811113Y-76611353D01*
X91717712Y-76631206D01*
X91711682Y-76633891D01*
X91711681Y-76633891D01*
X91549278Y-76706197D01*
X91549276Y-76706198D01*
X91543248Y-76708882D01*
X91388747Y-76821134D01*
X91384326Y-76826044D01*
X91384325Y-76826045D01*
X91266597Y-76956796D01*
X91260960Y-76963056D01*
X91165473Y-77128444D01*
X91106458Y-77310072D01*
X91086496Y-77500000D01*
X91106458Y-77689928D01*
X91165473Y-77871556D01*
X91260960Y-78036944D01*
X91265378Y-78041851D01*
X91265379Y-78041852D01*
X91309136Y-78090449D01*
X91339854Y-78154456D01*
X91341500Y-78174759D01*
X91341500Y-80075741D01*
X91321498Y-80143862D01*
X91309136Y-80160051D01*
X91260960Y-80213556D01*
X91257659Y-80219274D01*
X91174714Y-80362939D01*
X91165473Y-80378944D01*
X91106458Y-80560572D01*
X91086496Y-80750500D01*
X87184060Y-80750500D01*
X87197789Y-80722721D01*
X87265136Y-80586453D01*
X87265137Y-80586451D01*
X87267430Y-80581811D01*
X87310060Y-80441500D01*
X87330865Y-80373023D01*
X87330865Y-80373021D01*
X87332370Y-80368069D01*
X87361529Y-80146590D01*
X87361611Y-80143240D01*
X87363074Y-80083365D01*
X87363074Y-80083361D01*
X87363156Y-80080000D01*
X87344852Y-79857361D01*
X87290431Y-79640702D01*
X87201354Y-79435840D01*
X87080014Y-79248277D01*
X86929670Y-79083051D01*
X86925619Y-79079852D01*
X86925615Y-79079848D01*
X86758414Y-78947800D01*
X86758410Y-78947798D01*
X86754359Y-78944598D01*
X86713053Y-78921796D01*
X86663084Y-78871364D01*
X86648312Y-78801921D01*
X86673428Y-78735516D01*
X86700780Y-78708909D01*
X86744603Y-78677650D01*
X86879860Y-78581173D01*
X87038096Y-78423489D01*
X87079328Y-78366109D01*
X87162060Y-78250974D01*
X87218055Y-78207326D01*
X87264383Y-78198500D01*
X87837944Y-78198500D01*
X87849800Y-78199059D01*
X87849803Y-78199059D01*
X87857537Y-78200788D01*
X87928369Y-78198562D01*
X87932327Y-78198500D01*
X87961432Y-78198500D01*
X87965832Y-78197944D01*
X87977664Y-78197012D01*
X88023831Y-78195562D01*
X88044421Y-78189580D01*
X88063782Y-78185570D01*
X88070770Y-78184688D01*
X88077204Y-78183875D01*
X88077205Y-78183875D01*
X88085064Y-78182882D01*
X88092429Y-78179966D01*
X88092433Y-78179965D01*
X88128021Y-78165874D01*
X88139231Y-78162035D01*
X88183600Y-78149145D01*
X88202065Y-78138225D01*
X88219805Y-78129534D01*
X88239756Y-78121635D01*
X88277129Y-78094482D01*
X88287048Y-78087967D01*
X88319977Y-78068493D01*
X88319981Y-78068490D01*
X88326807Y-78064453D01*
X88341971Y-78049289D01*
X88357005Y-78036448D01*
X88374357Y-78023841D01*
X88403803Y-77988247D01*
X88411792Y-77979468D01*
X89546665Y-76844595D01*
X90695854Y-75695405D01*
X90758166Y-75661380D01*
X90784949Y-75658500D01*
X91319776Y-75658500D01*
X91387897Y-75678502D01*
X91393834Y-75682562D01*
X91543248Y-75791118D01*
X91549276Y-75793802D01*
X91549278Y-75793803D01*
X91709799Y-75865271D01*
X91717712Y-75868794D01*
X91811112Y-75888647D01*
X91898056Y-75907128D01*
X91898061Y-75907128D01*
X91904513Y-75908500D01*
X92095487Y-75908500D01*
X92101939Y-75907128D01*
X92101944Y-75907128D01*
X92188888Y-75888647D01*
X92282288Y-75868794D01*
X92290201Y-75865271D01*
X92450722Y-75793803D01*
X92450724Y-75793802D01*
X92456752Y-75791118D01*
X92611253Y-75678866D01*
X92626290Y-75662166D01*
X92734621Y-75541852D01*
X92734622Y-75541851D01*
X92739040Y-75536944D01*
X92760370Y-75500000D01*
X94586496Y-75500000D01*
X94587186Y-75506565D01*
X94603458Y-75661380D01*
X94606458Y-75689928D01*
X94665473Y-75871556D01*
X94668776Y-75877278D01*
X94668777Y-75877279D01*
X94686803Y-75908500D01*
X94760960Y-76036944D01*
X94765378Y-76041851D01*
X94765379Y-76041852D01*
X94814769Y-76096705D01*
X94888747Y-76178866D01*
X94943494Y-76218642D01*
X95034631Y-76284857D01*
X95043248Y-76291118D01*
X95049276Y-76293802D01*
X95049278Y-76293803D01*
X95179419Y-76351745D01*
X95217712Y-76368794D01*
X95301045Y-76386507D01*
X95398056Y-76407128D01*
X95398061Y-76407128D01*
X95404513Y-76408500D01*
X95595487Y-76408500D01*
X95601939Y-76407128D01*
X95601944Y-76407128D01*
X95698955Y-76386507D01*
X95782288Y-76368794D01*
X95788315Y-76366111D01*
X95788323Y-76366108D01*
X95953509Y-76292563D01*
X96023876Y-76283129D01*
X96085935Y-76312188D01*
X96086739Y-76313261D01*
X96201372Y-76399174D01*
X96201790Y-76399487D01*
X96244304Y-76456347D01*
X96249329Y-76527165D01*
X96215270Y-76589458D01*
X96201789Y-76601139D01*
X96094276Y-76681715D01*
X96081715Y-76694276D01*
X96005214Y-76796351D01*
X95996676Y-76811946D01*
X95951522Y-76932394D01*
X95947895Y-76947649D01*
X95942369Y-76998514D01*
X95942000Y-77005328D01*
X95942000Y-77227885D01*
X95946475Y-77243124D01*
X95947865Y-77244329D01*
X95955548Y-77246000D01*
X96878000Y-77246000D01*
X96946121Y-77266002D01*
X96992614Y-77319658D01*
X97004000Y-77372000D01*
X97004000Y-78439884D01*
X97008475Y-78455123D01*
X97009865Y-78456328D01*
X97017548Y-78457999D01*
X97094669Y-78457999D01*
X97101490Y-78457629D01*
X97152352Y-78452105D01*
X97167604Y-78448479D01*
X97288054Y-78403324D01*
X97303649Y-78394786D01*
X97405724Y-78318285D01*
X97410548Y-78313461D01*
X97472860Y-78279435D01*
X97543675Y-78284500D01*
X97585171Y-78311168D01*
X97586739Y-78313261D01*
X97703295Y-78400615D01*
X97839684Y-78451745D01*
X97901866Y-78458500D01*
X98598134Y-78458500D01*
X98660316Y-78451745D01*
X98796705Y-78400615D01*
X98913261Y-78313261D01*
X98914021Y-78314276D01*
X98968460Y-78284549D01*
X99039275Y-78289614D01*
X99046491Y-78292563D01*
X99211677Y-78366108D01*
X99211685Y-78366111D01*
X99217712Y-78368794D01*
X99311113Y-78388647D01*
X99398056Y-78407128D01*
X99398061Y-78407128D01*
X99404513Y-78408500D01*
X99595487Y-78408500D01*
X99601939Y-78407128D01*
X99601944Y-78407128D01*
X99688887Y-78388647D01*
X99782288Y-78368794D01*
X99788321Y-78366108D01*
X99950722Y-78293803D01*
X99950724Y-78293802D01*
X99956752Y-78291118D01*
X99965794Y-78284549D01*
X100081080Y-78200788D01*
X100111253Y-78178866D01*
X100128798Y-78159380D01*
X100234621Y-78041852D01*
X100234622Y-78041851D01*
X100239040Y-78036944D01*
X100334527Y-77871556D01*
X100393542Y-77689928D01*
X100413504Y-77500000D01*
X100393542Y-77310072D01*
X100334527Y-77128444D01*
X100239040Y-76963056D01*
X100233404Y-76956796D01*
X100115675Y-76826045D01*
X100115674Y-76826044D01*
X100111253Y-76821134D01*
X99956752Y-76708882D01*
X99950724Y-76706198D01*
X99950722Y-76706197D01*
X99788319Y-76633891D01*
X99788318Y-76633891D01*
X99782288Y-76631206D01*
X99744844Y-76623247D01*
X99682371Y-76589518D01*
X99648049Y-76527369D01*
X99652777Y-76456530D01*
X99695053Y-76399492D01*
X99744844Y-76376753D01*
X99782288Y-76368794D01*
X99820581Y-76351745D01*
X99950722Y-76293803D01*
X99950724Y-76293802D01*
X99956752Y-76291118D01*
X99965370Y-76284857D01*
X100056506Y-76218642D01*
X100111253Y-76178866D01*
X100185231Y-76096705D01*
X100234621Y-76041852D01*
X100234622Y-76041851D01*
X100239040Y-76036944D01*
X100313197Y-75908500D01*
X100331223Y-75877279D01*
X100331224Y-75877278D01*
X100334527Y-75871556D01*
X100393542Y-75689928D01*
X100396543Y-75661380D01*
X100412814Y-75506565D01*
X100413504Y-75500000D01*
X100410660Y-75472945D01*
X100394232Y-75316635D01*
X100394232Y-75316633D01*
X100393542Y-75310072D01*
X100334527Y-75128444D01*
X100239040Y-74963056D01*
X100111253Y-74821134D01*
X99967748Y-74716871D01*
X99962094Y-74712763D01*
X99962093Y-74712762D01*
X99956752Y-74708882D01*
X99950724Y-74706198D01*
X99950722Y-74706197D01*
X99788319Y-74633891D01*
X99788318Y-74633891D01*
X99782288Y-74631206D01*
X99744844Y-74623247D01*
X99682371Y-74589518D01*
X99648049Y-74527369D01*
X99649876Y-74500000D01*
X102086496Y-74500000D01*
X102087186Y-74506565D01*
X102099450Y-74623247D01*
X102106458Y-74689928D01*
X102165473Y-74871556D01*
X102260960Y-75036944D01*
X102388747Y-75178866D01*
X102543248Y-75291118D01*
X102549276Y-75293802D01*
X102549278Y-75293803D01*
X102600560Y-75316635D01*
X102717712Y-75368794D01*
X102811113Y-75388647D01*
X102898056Y-75407128D01*
X102898061Y-75407128D01*
X102904513Y-75408500D01*
X102923171Y-75408500D01*
X102991292Y-75428502D01*
X103009424Y-75442650D01*
X103040257Y-75471604D01*
X103043099Y-75474359D01*
X103063667Y-75494927D01*
X103067170Y-75497644D01*
X103076195Y-75505352D01*
X103109867Y-75536972D01*
X103116818Y-75540793D01*
X103116819Y-75540794D01*
X103128658Y-75547303D01*
X103145182Y-75558157D01*
X103155271Y-75565982D01*
X103162132Y-75571304D01*
X103169404Y-75574451D01*
X103169406Y-75574452D01*
X103204535Y-75589654D01*
X103215196Y-75594876D01*
X103255663Y-75617124D01*
X103276441Y-75622459D01*
X103295131Y-75628858D01*
X103314824Y-75637380D01*
X103358596Y-75644313D01*
X103360448Y-75644606D01*
X103372071Y-75647013D01*
X103400072Y-75654202D01*
X103416812Y-75658500D01*
X103438259Y-75658500D01*
X103457969Y-75660051D01*
X103479152Y-75663406D01*
X103525141Y-75659059D01*
X103536996Y-75658500D01*
X108515500Y-75658500D01*
X108583621Y-75678502D01*
X108630114Y-75732158D01*
X108641500Y-75784500D01*
X108641500Y-75898134D01*
X108648255Y-75960316D01*
X108699385Y-76096705D01*
X108786739Y-76213261D01*
X108903295Y-76300615D01*
X109039684Y-76351745D01*
X109101866Y-76358500D01*
X110898134Y-76358500D01*
X110960316Y-76351745D01*
X111096705Y-76300615D01*
X111213261Y-76213261D01*
X111300615Y-76096705D01*
X111351745Y-75960316D01*
X111358500Y-75898134D01*
X111358500Y-74101866D01*
X111351745Y-74039684D01*
X111300615Y-73903295D01*
X111213261Y-73786739D01*
X111096705Y-73699385D01*
X110960316Y-73648255D01*
X110898134Y-73641500D01*
X109101866Y-73641500D01*
X109039684Y-73648255D01*
X108903295Y-73699385D01*
X108786739Y-73786739D01*
X108699385Y-73903295D01*
X108648255Y-74039684D01*
X108641500Y-74101866D01*
X108641500Y-74215500D01*
X108621498Y-74283621D01*
X108567842Y-74330114D01*
X108515500Y-74341500D01*
X103995298Y-74341500D01*
X103927177Y-74321498D01*
X103880684Y-74267842D01*
X103875465Y-74254437D01*
X103850910Y-74178866D01*
X103834527Y-74128444D01*
X103813990Y-74092872D01*
X103742341Y-73968774D01*
X103739040Y-73963056D01*
X103680933Y-73898521D01*
X103615675Y-73826045D01*
X103615674Y-73826044D01*
X103611253Y-73821134D01*
X103456752Y-73708882D01*
X103450724Y-73706198D01*
X103450722Y-73706197D01*
X103288319Y-73633891D01*
X103288318Y-73633891D01*
X103282288Y-73631206D01*
X103188888Y-73611353D01*
X103101944Y-73592872D01*
X103101939Y-73592872D01*
X103095487Y-73591500D01*
X102904513Y-73591500D01*
X102898061Y-73592872D01*
X102898056Y-73592872D01*
X102811112Y-73611353D01*
X102717712Y-73631206D01*
X102711682Y-73633891D01*
X102711681Y-73633891D01*
X102549278Y-73706197D01*
X102549276Y-73706198D01*
X102543248Y-73708882D01*
X102388747Y-73821134D01*
X102384326Y-73826044D01*
X102384325Y-73826045D01*
X102319068Y-73898521D01*
X102260960Y-73963056D01*
X102257659Y-73968774D01*
X102186011Y-74092872D01*
X102165473Y-74128444D01*
X102106458Y-74310072D01*
X102105768Y-74316633D01*
X102105768Y-74316635D01*
X102094586Y-74423024D01*
X102086496Y-74500000D01*
X99649876Y-74500000D01*
X99652777Y-74456530D01*
X99695053Y-74399492D01*
X99744844Y-74376753D01*
X99757212Y-74374124D01*
X99782288Y-74368794D01*
X99788321Y-74366108D01*
X99950722Y-74293803D01*
X99950724Y-74293802D01*
X99956752Y-74291118D01*
X99965370Y-74284857D01*
X100064598Y-74212763D01*
X100111253Y-74178866D01*
X100161806Y-74122721D01*
X100234621Y-74041852D01*
X100234622Y-74041851D01*
X100239040Y-74036944D01*
X100316057Y-73903547D01*
X100331223Y-73877279D01*
X100331224Y-73877278D01*
X100334527Y-73871556D01*
X100393542Y-73689928D01*
X100397631Y-73651029D01*
X100412814Y-73506565D01*
X100413504Y-73500000D01*
X100393542Y-73310072D01*
X100334527Y-73128444D01*
X100239040Y-72963056D01*
X100111253Y-72821134D01*
X99967748Y-72716871D01*
X99962094Y-72712763D01*
X99962093Y-72712762D01*
X99956752Y-72708882D01*
X99950724Y-72706198D01*
X99950722Y-72706197D01*
X99788319Y-72633891D01*
X99788318Y-72633891D01*
X99782288Y-72631206D01*
X99688887Y-72611353D01*
X99601944Y-72592872D01*
X99601939Y-72592872D01*
X99595487Y-72591500D01*
X99404513Y-72591500D01*
X99398061Y-72592872D01*
X99398056Y-72592872D01*
X99311113Y-72611353D01*
X99217712Y-72631206D01*
X99211685Y-72633889D01*
X99211677Y-72633892D01*
X99046491Y-72707437D01*
X98976124Y-72716871D01*
X98914065Y-72687812D01*
X98913261Y-72686739D01*
X98796705Y-72599385D01*
X98660316Y-72548255D01*
X98598134Y-72541500D01*
X97901866Y-72541500D01*
X97839684Y-72548255D01*
X97703295Y-72599385D01*
X97586739Y-72686739D01*
X97585813Y-72687974D01*
X97526783Y-72720208D01*
X97455968Y-72715143D01*
X97414645Y-72688586D01*
X97413261Y-72686739D01*
X97296705Y-72599385D01*
X97160316Y-72548255D01*
X97098134Y-72541500D01*
X96401866Y-72541500D01*
X96339684Y-72548255D01*
X96203295Y-72599385D01*
X96086739Y-72686739D01*
X96085979Y-72685724D01*
X96031540Y-72715451D01*
X95960725Y-72710386D01*
X95953509Y-72707437D01*
X95788323Y-72633892D01*
X95788315Y-72633889D01*
X95782288Y-72631206D01*
X95688887Y-72611353D01*
X95601944Y-72592872D01*
X95601939Y-72592872D01*
X95595487Y-72591500D01*
X95404513Y-72591500D01*
X95398061Y-72592872D01*
X95398056Y-72592872D01*
X95311113Y-72611353D01*
X95217712Y-72631206D01*
X95211682Y-72633891D01*
X95211681Y-72633891D01*
X95049278Y-72706197D01*
X95049276Y-72706198D01*
X95043248Y-72708882D01*
X95037907Y-72712762D01*
X95037906Y-72712763D01*
X95032252Y-72716871D01*
X94888747Y-72821134D01*
X94760960Y-72963056D01*
X94665473Y-73128444D01*
X94606458Y-73310072D01*
X94586496Y-73500000D01*
X94587186Y-73506565D01*
X94602370Y-73651029D01*
X94606458Y-73689928D01*
X94665473Y-73871556D01*
X94668776Y-73877278D01*
X94668777Y-73877279D01*
X94724619Y-73973999D01*
X94741500Y-74036999D01*
X94741500Y-74963001D01*
X94724619Y-75026000D01*
X94665473Y-75128444D01*
X94606458Y-75310072D01*
X94605768Y-75316633D01*
X94605768Y-75316635D01*
X94589340Y-75472945D01*
X94586496Y-75500000D01*
X92760370Y-75500000D01*
X92813197Y-75408500D01*
X92831223Y-75377279D01*
X92831224Y-75377278D01*
X92834527Y-75371556D01*
X92893542Y-75189928D01*
X92913504Y-75000000D01*
X92893542Y-74810072D01*
X92834527Y-74628444D01*
X92805802Y-74578690D01*
X92762420Y-74503551D01*
X92739040Y-74463056D01*
X92732717Y-74456033D01*
X92615675Y-74326045D01*
X92615674Y-74326044D01*
X92611253Y-74321134D01*
X92456752Y-74208882D01*
X92450724Y-74206198D01*
X92450722Y-74206197D01*
X92288319Y-74133891D01*
X92288318Y-74133891D01*
X92282288Y-74131206D01*
X92160331Y-74105283D01*
X92101944Y-74092872D01*
X92101939Y-74092872D01*
X92095487Y-74091500D01*
X91904513Y-74091500D01*
X91898061Y-74092872D01*
X91898056Y-74092872D01*
X91839669Y-74105283D01*
X91717712Y-74131206D01*
X91711682Y-74133891D01*
X91711681Y-74133891D01*
X91549278Y-74206197D01*
X91549276Y-74206198D01*
X91543248Y-74208882D01*
X91394092Y-74317251D01*
X91393837Y-74317436D01*
X91326969Y-74341294D01*
X91319776Y-74341500D01*
X90542056Y-74341500D01*
X90530200Y-74340941D01*
X90530197Y-74340941D01*
X90522463Y-74339212D01*
X90467446Y-74340941D01*
X90451631Y-74341438D01*
X90447673Y-74341500D01*
X90418568Y-74341500D01*
X90414168Y-74342056D01*
X90402336Y-74342988D01*
X90356169Y-74344438D01*
X90335579Y-74350420D01*
X90316218Y-74354430D01*
X90309230Y-74355312D01*
X90302796Y-74356125D01*
X90302795Y-74356125D01*
X90294936Y-74357118D01*
X90287571Y-74360034D01*
X90287567Y-74360035D01*
X90251982Y-74374124D01*
X90240752Y-74377969D01*
X90196399Y-74390855D01*
X90189575Y-74394891D01*
X90177943Y-74401770D01*
X90160187Y-74410469D01*
X90140244Y-74418365D01*
X90114224Y-74437270D01*
X90102868Y-74445520D01*
X90092949Y-74452035D01*
X90060023Y-74471508D01*
X90060019Y-74471511D01*
X90053193Y-74475548D01*
X90038032Y-74490709D01*
X90023000Y-74503548D01*
X90005643Y-74516159D01*
X89982638Y-74543967D01*
X89976193Y-74551758D01*
X89968203Y-74560538D01*
X87684145Y-76844595D01*
X87621833Y-76878621D01*
X87595050Y-76881500D01*
X87260632Y-76881500D01*
X87192511Y-76861498D01*
X87154840Y-76823940D01*
X87082822Y-76712617D01*
X87082820Y-76712614D01*
X87080014Y-76708277D01*
X87060234Y-76686539D01*
X86932798Y-76546488D01*
X86901746Y-76482642D01*
X86910141Y-76412143D01*
X86955317Y-76357375D01*
X86981761Y-76343706D01*
X87088297Y-76303767D01*
X87096705Y-76300615D01*
X87213261Y-76213261D01*
X87300615Y-76096705D01*
X87351745Y-75960316D01*
X87358500Y-75898134D01*
X87358500Y-74101866D01*
X87351745Y-74039684D01*
X87300615Y-73903295D01*
X87213261Y-73786739D01*
X87096705Y-73699385D01*
X86960316Y-73648255D01*
X86898134Y-73641500D01*
X85101866Y-73641500D01*
X85039684Y-73648255D01*
X84903295Y-73699385D01*
X84786739Y-73786739D01*
X84781358Y-73793919D01*
X84781357Y-73793920D01*
X84734826Y-73856006D01*
X84677967Y-73898521D01*
X84607148Y-73903547D01*
X84544855Y-73869487D01*
X84510865Y-73807155D01*
X84508000Y-73780441D01*
X84508000Y-67634000D01*
X84528002Y-67565879D01*
X84581658Y-67519386D01*
X84634000Y-67508000D01*
X115366000Y-67508000D01*
X115434121Y-67528002D01*
G37*
%TD.AperFunction*%
%TD*%
M02*
