%TF.GenerationSoftware,KiCad,Pcbnew,(6.0.1)*%
%TF.CreationDate,2022-06-04T23:11:39+02:00*%
%TF.ProjectId,esp-lvl,6573702d-6c76-46c2-9e6b-696361645f70,rev?*%
%TF.SameCoordinates,Original*%
%TF.FileFunction,Legend,Top*%
%TF.FilePolarity,Positive*%
%FSLAX46Y46*%
G04 Gerber Fmt 4.6, Leading zero omitted, Abs format (unit mm)*
G04 Created by KiCad (PCBNEW (6.0.1)) date 2022-06-04 23:11:39*
%MOMM*%
%LPD*%
G01*
G04 APERTURE LIST*
%ADD10C,0.150000*%
%ADD11C,0.200000*%
%ADD12C,0.120000*%
G04 APERTURE END LIST*
D10*
X98133333Y-82116666D02*
X98566666Y-82116666D01*
X98333333Y-82383333D01*
X98433333Y-82383333D01*
X98500000Y-82416666D01*
X98533333Y-82450000D01*
X98566666Y-82516666D01*
X98566666Y-82683333D01*
X98533333Y-82750000D01*
X98500000Y-82783333D01*
X98433333Y-82816666D01*
X98233333Y-82816666D01*
X98166666Y-82783333D01*
X98133333Y-82750000D01*
X98766666Y-82116666D02*
X99000000Y-82816666D01*
X99233333Y-82116666D01*
X99400000Y-82116666D02*
X99833333Y-82116666D01*
X99600000Y-82383333D01*
X99700000Y-82383333D01*
X99766666Y-82416666D01*
X99800000Y-82450000D01*
X99833333Y-82516666D01*
X99833333Y-82683333D01*
X99800000Y-82750000D01*
X99766666Y-82783333D01*
X99700000Y-82816666D01*
X99500000Y-82816666D01*
X99433333Y-82783333D01*
X99400000Y-82750000D01*
X103150000Y-82783333D02*
X103250000Y-82816666D01*
X103416666Y-82816666D01*
X103483333Y-82783333D01*
X103516666Y-82750000D01*
X103550000Y-82683333D01*
X103550000Y-82616666D01*
X103516666Y-82550000D01*
X103483333Y-82516666D01*
X103416666Y-82483333D01*
X103283333Y-82450000D01*
X103216666Y-82416666D01*
X103183333Y-82383333D01*
X103150000Y-82316666D01*
X103150000Y-82250000D01*
X103183333Y-82183333D01*
X103216666Y-82150000D01*
X103283333Y-82116666D01*
X103450000Y-82116666D01*
X103550000Y-82150000D01*
X103850000Y-82816666D02*
X103850000Y-82116666D01*
X104016666Y-82116666D01*
X104116666Y-82150000D01*
X104183333Y-82216666D01*
X104216666Y-82283333D01*
X104250000Y-82416666D01*
X104250000Y-82516666D01*
X104216666Y-82650000D01*
X104183333Y-82716666D01*
X104116666Y-82783333D01*
X104016666Y-82816666D01*
X103850000Y-82816666D01*
X104516666Y-82616666D02*
X104850000Y-82616666D01*
X104450000Y-82816666D02*
X104683333Y-82116666D01*
X104916666Y-82816666D01*
X100666666Y-82783333D02*
X100766666Y-82816666D01*
X100933333Y-82816666D01*
X101000000Y-82783333D01*
X101033333Y-82750000D01*
X101066666Y-82683333D01*
X101066666Y-82616666D01*
X101033333Y-82550000D01*
X101000000Y-82516666D01*
X100933333Y-82483333D01*
X100800000Y-82450000D01*
X100733333Y-82416666D01*
X100700000Y-82383333D01*
X100666666Y-82316666D01*
X100666666Y-82250000D01*
X100700000Y-82183333D01*
X100733333Y-82150000D01*
X100800000Y-82116666D01*
X100966666Y-82116666D01*
X101066666Y-82150000D01*
X101766666Y-82750000D02*
X101733333Y-82783333D01*
X101633333Y-82816666D01*
X101566666Y-82816666D01*
X101466666Y-82783333D01*
X101400000Y-82716666D01*
X101366666Y-82650000D01*
X101333333Y-82516666D01*
X101333333Y-82416666D01*
X101366666Y-82283333D01*
X101400000Y-82216666D01*
X101466666Y-82150000D01*
X101566666Y-82116666D01*
X101633333Y-82116666D01*
X101733333Y-82150000D01*
X101766666Y-82183333D01*
X102400000Y-82816666D02*
X102066666Y-82816666D01*
X102066666Y-82116666D01*
X113416666Y-74816666D02*
X113450000Y-74850000D01*
X113483333Y-74916666D01*
X113483333Y-75083333D01*
X113450000Y-75150000D01*
X113416666Y-75183333D01*
X113350000Y-75216666D01*
X113283333Y-75216666D01*
X113183333Y-75183333D01*
X112783333Y-74783333D01*
X112783333Y-75216666D01*
X113483333Y-75650000D02*
X113483333Y-75716666D01*
X113450000Y-75783333D01*
X113416666Y-75816666D01*
X113350000Y-75850000D01*
X113216666Y-75883333D01*
X113050000Y-75883333D01*
X112916666Y-75850000D01*
X112850000Y-75816666D01*
X112816666Y-75783333D01*
X112783333Y-75716666D01*
X112783333Y-75650000D01*
X112816666Y-75583333D01*
X112850000Y-75550000D01*
X112916666Y-75516666D01*
X113050000Y-75483333D01*
X113216666Y-75483333D01*
X113350000Y-75516666D01*
X113416666Y-75550000D01*
X113450000Y-75583333D01*
X113483333Y-75650000D01*
X113416666Y-76150000D02*
X113450000Y-76183333D01*
X113483333Y-76250000D01*
X113483333Y-76416666D01*
X113450000Y-76483333D01*
X113416666Y-76516666D01*
X113350000Y-76550000D01*
X113283333Y-76550000D01*
X113183333Y-76516666D01*
X112783333Y-76116666D01*
X112783333Y-76550000D01*
X113416666Y-76816666D02*
X113450000Y-76850000D01*
X113483333Y-76916666D01*
X113483333Y-77083333D01*
X113450000Y-77150000D01*
X113416666Y-77183333D01*
X113350000Y-77216666D01*
X113283333Y-77216666D01*
X113183333Y-77183333D01*
X112783333Y-76783333D01*
X112783333Y-77216666D01*
X113050000Y-77516666D02*
X113050000Y-78050000D01*
X113483333Y-78516666D02*
X113483333Y-78583333D01*
X113450000Y-78650000D01*
X113416666Y-78683333D01*
X113350000Y-78716666D01*
X113216666Y-78750000D01*
X113050000Y-78750000D01*
X112916666Y-78716666D01*
X112850000Y-78683333D01*
X112816666Y-78650000D01*
X112783333Y-78583333D01*
X112783333Y-78516666D01*
X112816666Y-78450000D01*
X112850000Y-78416666D01*
X112916666Y-78383333D01*
X113050000Y-78350000D01*
X113216666Y-78350000D01*
X113350000Y-78383333D01*
X113416666Y-78416666D01*
X113450000Y-78450000D01*
X113483333Y-78516666D01*
X113483333Y-79350000D02*
X113483333Y-79216666D01*
X113450000Y-79150000D01*
X113416666Y-79116666D01*
X113316666Y-79050000D01*
X113183333Y-79016666D01*
X112916666Y-79016666D01*
X112850000Y-79050000D01*
X112816666Y-79083333D01*
X112783333Y-79150000D01*
X112783333Y-79283333D01*
X112816666Y-79350000D01*
X112850000Y-79383333D01*
X112916666Y-79416666D01*
X113083333Y-79416666D01*
X113150000Y-79383333D01*
X113183333Y-79350000D01*
X113216666Y-79283333D01*
X113216666Y-79150000D01*
X113183333Y-79083333D01*
X113150000Y-79050000D01*
X113083333Y-79016666D01*
X113050000Y-79716666D02*
X113050000Y-80250000D01*
X113483333Y-80716666D02*
X113483333Y-80783333D01*
X113450000Y-80850000D01*
X113416666Y-80883333D01*
X113350000Y-80916666D01*
X113216666Y-80950000D01*
X113050000Y-80950000D01*
X112916666Y-80916666D01*
X112850000Y-80883333D01*
X112816666Y-80850000D01*
X112783333Y-80783333D01*
X112783333Y-80716666D01*
X112816666Y-80650000D01*
X112850000Y-80616666D01*
X112916666Y-80583333D01*
X113050000Y-80550000D01*
X113216666Y-80550000D01*
X113350000Y-80583333D01*
X113416666Y-80616666D01*
X113450000Y-80650000D01*
X113483333Y-80716666D01*
X113483333Y-81550000D02*
X113483333Y-81416666D01*
X113450000Y-81350000D01*
X113416666Y-81316666D01*
X113316666Y-81250000D01*
X113183333Y-81216666D01*
X112916666Y-81216666D01*
X112850000Y-81250000D01*
X112816666Y-81283333D01*
X112783333Y-81350000D01*
X112783333Y-81483333D01*
X112816666Y-81550000D01*
X112850000Y-81583333D01*
X112916666Y-81616666D01*
X113083333Y-81616666D01*
X113150000Y-81583333D01*
X113183333Y-81550000D01*
X113216666Y-81483333D01*
X113216666Y-81350000D01*
X113183333Y-81283333D01*
X113150000Y-81250000D01*
X113083333Y-81216666D01*
X112783333Y-82850000D02*
X113116666Y-82616666D01*
X112783333Y-82450000D02*
X113483333Y-82450000D01*
X113483333Y-82716666D01*
X113450000Y-82783333D01*
X113416666Y-82816666D01*
X113350000Y-82850000D01*
X113250000Y-82850000D01*
X113183333Y-82816666D01*
X113150000Y-82783333D01*
X113116666Y-82716666D01*
X113116666Y-82450000D01*
X112816666Y-83416666D02*
X112783333Y-83350000D01*
X112783333Y-83216666D01*
X112816666Y-83150000D01*
X112883333Y-83116666D01*
X113150000Y-83116666D01*
X113216666Y-83150000D01*
X113250000Y-83216666D01*
X113250000Y-83350000D01*
X113216666Y-83416666D01*
X113150000Y-83450000D01*
X113083333Y-83450000D01*
X113016666Y-83116666D01*
X113250000Y-83683333D02*
X112783333Y-83850000D01*
X113250000Y-84016666D01*
X112850000Y-84283333D02*
X112816666Y-84316666D01*
X112783333Y-84283333D01*
X112816666Y-84250000D01*
X112850000Y-84283333D01*
X112783333Y-84283333D01*
X112783333Y-84983333D02*
X112783333Y-84583333D01*
X112783333Y-84783333D02*
X113483333Y-84783333D01*
X113383333Y-84716666D01*
X113316666Y-84650000D01*
X113283333Y-84583333D01*
X94404761Y-72623571D02*
X94738095Y-72623571D01*
X94880952Y-73147380D02*
X94404761Y-73147380D01*
X94404761Y-72147380D01*
X94880952Y-72147380D01*
X95261904Y-73099761D02*
X95404761Y-73147380D01*
X95642857Y-73147380D01*
X95738095Y-73099761D01*
X95785714Y-73052142D01*
X95833333Y-72956904D01*
X95833333Y-72861666D01*
X95785714Y-72766428D01*
X95738095Y-72718809D01*
X95642857Y-72671190D01*
X95452380Y-72623571D01*
X95357142Y-72575952D01*
X95309523Y-72528333D01*
X95261904Y-72433095D01*
X95261904Y-72337857D01*
X95309523Y-72242619D01*
X95357142Y-72195000D01*
X95452380Y-72147380D01*
X95690476Y-72147380D01*
X95833333Y-72195000D01*
X96261904Y-73147380D02*
X96261904Y-72147380D01*
X96642857Y-72147380D01*
X96738095Y-72195000D01*
X96785714Y-72242619D01*
X96833333Y-72337857D01*
X96833333Y-72480714D01*
X96785714Y-72575952D01*
X96738095Y-72623571D01*
X96642857Y-72671190D01*
X96261904Y-72671190D01*
X97404761Y-72575952D02*
X97309523Y-72528333D01*
X97261904Y-72480714D01*
X97214285Y-72385476D01*
X97214285Y-72337857D01*
X97261904Y-72242619D01*
X97309523Y-72195000D01*
X97404761Y-72147380D01*
X97595238Y-72147380D01*
X97690476Y-72195000D01*
X97738095Y-72242619D01*
X97785714Y-72337857D01*
X97785714Y-72385476D01*
X97738095Y-72480714D01*
X97690476Y-72528333D01*
X97595238Y-72575952D01*
X97404761Y-72575952D01*
X97309523Y-72623571D01*
X97261904Y-72671190D01*
X97214285Y-72766428D01*
X97214285Y-72956904D01*
X97261904Y-73052142D01*
X97309523Y-73099761D01*
X97404761Y-73147380D01*
X97595238Y-73147380D01*
X97690476Y-73099761D01*
X97738095Y-73052142D01*
X97785714Y-72956904D01*
X97785714Y-72766428D01*
X97738095Y-72671190D01*
X97690476Y-72623571D01*
X97595238Y-72575952D01*
X98166666Y-72242619D02*
X98214285Y-72195000D01*
X98309523Y-72147380D01*
X98547619Y-72147380D01*
X98642857Y-72195000D01*
X98690476Y-72242619D01*
X98738095Y-72337857D01*
X98738095Y-72433095D01*
X98690476Y-72575952D01*
X98119047Y-73147380D01*
X98738095Y-73147380D01*
X99595238Y-72147380D02*
X99404761Y-72147380D01*
X99309523Y-72195000D01*
X99261904Y-72242619D01*
X99166666Y-72385476D01*
X99119047Y-72575952D01*
X99119047Y-72956904D01*
X99166666Y-73052142D01*
X99214285Y-73099761D01*
X99309523Y-73147380D01*
X99500000Y-73147380D01*
X99595238Y-73099761D01*
X99642857Y-73052142D01*
X99690476Y-72956904D01*
X99690476Y-72718809D01*
X99642857Y-72623571D01*
X99595238Y-72575952D01*
X99500000Y-72528333D01*
X99309523Y-72528333D01*
X99214285Y-72575952D01*
X99166666Y-72623571D01*
X99119047Y-72718809D01*
X100547619Y-72147380D02*
X100357142Y-72147380D01*
X100261904Y-72195000D01*
X100214285Y-72242619D01*
X100119047Y-72385476D01*
X100071428Y-72575952D01*
X100071428Y-72956904D01*
X100119047Y-73052142D01*
X100166666Y-73099761D01*
X100261904Y-73147380D01*
X100452380Y-73147380D01*
X100547619Y-73099761D01*
X100595238Y-73052142D01*
X100642857Y-72956904D01*
X100642857Y-72718809D01*
X100595238Y-72623571D01*
X100547619Y-72575952D01*
X100452380Y-72528333D01*
X100261904Y-72528333D01*
X100166666Y-72575952D01*
X100119047Y-72623571D01*
X100071428Y-72718809D01*
X96261904Y-74757380D02*
X95690476Y-74757380D01*
X95976190Y-74757380D02*
X95976190Y-73757380D01*
X95880952Y-73900238D01*
X95785714Y-73995476D01*
X95690476Y-74043095D01*
X96642857Y-73852619D02*
X96690476Y-73805000D01*
X96785714Y-73757380D01*
X97023809Y-73757380D01*
X97119047Y-73805000D01*
X97166666Y-73852619D01*
X97214285Y-73947857D01*
X97214285Y-74043095D01*
X97166666Y-74185952D01*
X96595238Y-74757380D01*
X97214285Y-74757380D01*
X97642857Y-74376428D02*
X98404761Y-74376428D01*
X99214285Y-74233571D02*
X98880952Y-74233571D01*
X98880952Y-74757380D02*
X98880952Y-73757380D01*
X99357142Y-73757380D01*
X108866666Y-73350000D02*
X108833333Y-73383333D01*
X108733333Y-73416666D01*
X108666666Y-73416666D01*
X108566666Y-73383333D01*
X108500000Y-73316666D01*
X108466666Y-73250000D01*
X108433333Y-73116666D01*
X108433333Y-73016666D01*
X108466666Y-72883333D01*
X108500000Y-72816666D01*
X108566666Y-72750000D01*
X108666666Y-72716666D01*
X108733333Y-72716666D01*
X108833333Y-72750000D01*
X108866666Y-72783333D01*
X109266666Y-73416666D02*
X109200000Y-73383333D01*
X109166666Y-73350000D01*
X109133333Y-73283333D01*
X109133333Y-73083333D01*
X109166666Y-73016666D01*
X109200000Y-72983333D01*
X109266666Y-72950000D01*
X109366666Y-72950000D01*
X109433333Y-72983333D01*
X109466666Y-73016666D01*
X109500000Y-73083333D01*
X109500000Y-73283333D01*
X109466666Y-73350000D01*
X109433333Y-73383333D01*
X109366666Y-73416666D01*
X109266666Y-73416666D01*
X109900000Y-73416666D02*
X109833333Y-73383333D01*
X109800000Y-73316666D01*
X109800000Y-72716666D01*
X110266666Y-73416666D02*
X110200000Y-73383333D01*
X110166666Y-73350000D01*
X110133333Y-73283333D01*
X110133333Y-73083333D01*
X110166666Y-73016666D01*
X110200000Y-72983333D01*
X110266666Y-72950000D01*
X110366666Y-72950000D01*
X110433333Y-72983333D01*
X110466666Y-73016666D01*
X110500000Y-73083333D01*
X110500000Y-73283333D01*
X110466666Y-73350000D01*
X110433333Y-73383333D01*
X110366666Y-73416666D01*
X110266666Y-73416666D01*
X111100000Y-72950000D02*
X111100000Y-73416666D01*
X110800000Y-72950000D02*
X110800000Y-73316666D01*
X110833333Y-73383333D01*
X110900000Y-73416666D01*
X111000000Y-73416666D01*
X111066666Y-73383333D01*
X111100000Y-73350000D01*
X111433333Y-73416666D02*
X111433333Y-72950000D01*
X111433333Y-73083333D02*
X111466666Y-73016666D01*
X111500000Y-72983333D01*
X111566666Y-72950000D01*
X111633333Y-72950000D01*
X84764166Y-69626166D02*
X84764166Y-68926166D01*
X85164166Y-69626166D01*
X85164166Y-68926166D01*
X85897500Y-69559500D02*
X85864166Y-69592833D01*
X85764166Y-69626166D01*
X85697500Y-69626166D01*
X85597500Y-69592833D01*
X85530833Y-69526166D01*
X85497500Y-69459500D01*
X85464166Y-69326166D01*
X85464166Y-69226166D01*
X85497500Y-69092833D01*
X85530833Y-69026166D01*
X85597500Y-68959500D01*
X85697500Y-68926166D01*
X85764166Y-68926166D01*
X85864166Y-68959500D01*
X85897500Y-68992833D01*
X84997500Y-70386500D02*
X85097500Y-70419833D01*
X85130833Y-70453166D01*
X85164166Y-70519833D01*
X85164166Y-70619833D01*
X85130833Y-70686500D01*
X85097500Y-70719833D01*
X85030833Y-70753166D01*
X84764166Y-70753166D01*
X84764166Y-70053166D01*
X84997500Y-70053166D01*
X85064166Y-70086500D01*
X85097500Y-70119833D01*
X85130833Y-70186500D01*
X85130833Y-70253166D01*
X85097500Y-70319833D01*
X85064166Y-70353166D01*
X84997500Y-70386500D01*
X84764166Y-70386500D01*
X85464166Y-70753166D02*
X85464166Y-70286500D01*
X85464166Y-70419833D02*
X85497500Y-70353166D01*
X85530833Y-70319833D01*
X85597500Y-70286500D01*
X85664166Y-70286500D01*
X85897500Y-70753166D02*
X85897500Y-70286500D01*
X85897500Y-70053166D02*
X85864166Y-70086500D01*
X85897500Y-70119833D01*
X85930833Y-70086500D01*
X85897500Y-70053166D01*
X85897500Y-70119833D01*
X86530833Y-70286500D02*
X86530833Y-70853166D01*
X86497500Y-70919833D01*
X86464166Y-70953166D01*
X86397500Y-70986500D01*
X86297500Y-70986500D01*
X86230833Y-70953166D01*
X86530833Y-70719833D02*
X86464166Y-70753166D01*
X86330833Y-70753166D01*
X86264166Y-70719833D01*
X86230833Y-70686500D01*
X86197500Y-70619833D01*
X86197500Y-70419833D01*
X86230833Y-70353166D01*
X86264166Y-70319833D01*
X86330833Y-70286500D01*
X86464166Y-70286500D01*
X86530833Y-70319833D01*
X86864166Y-70753166D02*
X86864166Y-70053166D01*
X87164166Y-70753166D02*
X87164166Y-70386500D01*
X87130833Y-70319833D01*
X87064166Y-70286500D01*
X86964166Y-70286500D01*
X86897500Y-70319833D01*
X86864166Y-70353166D01*
X87397500Y-70286500D02*
X87664166Y-70286500D01*
X87497500Y-70053166D02*
X87497500Y-70653166D01*
X87530833Y-70719833D01*
X87597500Y-70753166D01*
X87664166Y-70753166D01*
X84764166Y-71613500D02*
X85297500Y-71613500D01*
X85030833Y-71880166D02*
X85030833Y-71346833D01*
X85964166Y-71180166D02*
X85630833Y-71180166D01*
X85597500Y-71513500D01*
X85630833Y-71480166D01*
X85697500Y-71446833D01*
X85864166Y-71446833D01*
X85930833Y-71480166D01*
X85964166Y-71513500D01*
X85997500Y-71580166D01*
X85997500Y-71746833D01*
X85964166Y-71813500D01*
X85930833Y-71846833D01*
X85864166Y-71880166D01*
X85697500Y-71880166D01*
X85630833Y-71846833D01*
X85597500Y-71813500D01*
X86197500Y-71180166D02*
X86430833Y-71880166D01*
X86664166Y-71180166D01*
X85130833Y-72340500D02*
X85064166Y-72307166D01*
X84964166Y-72307166D01*
X84864166Y-72340500D01*
X84797500Y-72407166D01*
X84764166Y-72473833D01*
X84730833Y-72607166D01*
X84730833Y-72707166D01*
X84764166Y-72840500D01*
X84797500Y-72907166D01*
X84864166Y-72973833D01*
X84964166Y-73007166D01*
X85030833Y-73007166D01*
X85130833Y-72973833D01*
X85164166Y-72940500D01*
X85164166Y-72707166D01*
X85030833Y-72707166D01*
X85464166Y-73007166D02*
X85464166Y-72307166D01*
X85864166Y-73007166D01*
X85864166Y-72307166D01*
X86197500Y-73007166D02*
X86197500Y-72307166D01*
X86364166Y-72307166D01*
X86464166Y-72340500D01*
X86530833Y-72407166D01*
X86564166Y-72473833D01*
X86597500Y-72607166D01*
X86597500Y-72707166D01*
X86564166Y-72840500D01*
X86530833Y-72907166D01*
X86464166Y-72973833D01*
X86364166Y-73007166D01*
X86197500Y-73007166D01*
X96366666Y-82116666D02*
X96033333Y-82116666D01*
X96000000Y-82450000D01*
X96033333Y-82416666D01*
X96100000Y-82383333D01*
X96266666Y-82383333D01*
X96333333Y-82416666D01*
X96366666Y-82450000D01*
X96400000Y-82516666D01*
X96400000Y-82683333D01*
X96366666Y-82750000D01*
X96333333Y-82783333D01*
X96266666Y-82816666D01*
X96100000Y-82816666D01*
X96033333Y-82783333D01*
X96000000Y-82750000D01*
X96600000Y-82116666D02*
X96833333Y-82816666D01*
X97066666Y-82116666D01*
X90966666Y-82150000D02*
X90900000Y-82116666D01*
X90800000Y-82116666D01*
X90700000Y-82150000D01*
X90633333Y-82216666D01*
X90600000Y-82283333D01*
X90566666Y-82416666D01*
X90566666Y-82516666D01*
X90600000Y-82650000D01*
X90633333Y-82716666D01*
X90700000Y-82783333D01*
X90800000Y-82816666D01*
X90866666Y-82816666D01*
X90966666Y-82783333D01*
X91000000Y-82750000D01*
X91000000Y-82516666D01*
X90866666Y-82516666D01*
X91300000Y-82816666D02*
X91300000Y-82116666D01*
X91700000Y-82816666D01*
X91700000Y-82116666D01*
X92033333Y-82816666D02*
X92033333Y-82116666D01*
X92200000Y-82116666D01*
X92300000Y-82150000D01*
X92366666Y-82216666D01*
X92400000Y-82283333D01*
X92433333Y-82416666D01*
X92433333Y-82516666D01*
X92400000Y-82650000D01*
X92366666Y-82716666D01*
X92300000Y-82783333D01*
X92200000Y-82816666D01*
X92033333Y-82816666D01*
X92900000Y-82783333D02*
X93000000Y-82816666D01*
X93166666Y-82816666D01*
X93233333Y-82783333D01*
X93266666Y-82750000D01*
X93300000Y-82683333D01*
X93300000Y-82616666D01*
X93266666Y-82550000D01*
X93233333Y-82516666D01*
X93166666Y-82483333D01*
X93033333Y-82450000D01*
X92966666Y-82416666D01*
X92933333Y-82383333D01*
X92900000Y-82316666D01*
X92900000Y-82250000D01*
X92933333Y-82183333D01*
X92966666Y-82150000D01*
X93033333Y-82116666D01*
X93200000Y-82116666D01*
X93300000Y-82150000D01*
X93866666Y-82783333D02*
X93800000Y-82816666D01*
X93666666Y-82816666D01*
X93600000Y-82783333D01*
X93566666Y-82716666D01*
X93566666Y-82450000D01*
X93600000Y-82383333D01*
X93666666Y-82350000D01*
X93800000Y-82350000D01*
X93866666Y-82383333D01*
X93900000Y-82450000D01*
X93900000Y-82516666D01*
X93566666Y-82583333D01*
X94200000Y-82350000D02*
X94200000Y-82816666D01*
X94200000Y-82416666D02*
X94233333Y-82383333D01*
X94300000Y-82350000D01*
X94400000Y-82350000D01*
X94466666Y-82383333D01*
X94500000Y-82450000D01*
X94500000Y-82816666D01*
X94800000Y-82783333D02*
X94866666Y-82816666D01*
X95000000Y-82816666D01*
X95066666Y-82783333D01*
X95100000Y-82716666D01*
X95100000Y-82683333D01*
X95066666Y-82616666D01*
X95000000Y-82583333D01*
X94900000Y-82583333D01*
X94833333Y-82550000D01*
X94800000Y-82483333D01*
X94800000Y-82450000D01*
X94833333Y-82383333D01*
X94900000Y-82350000D01*
X95000000Y-82350000D01*
X95066666Y-82383333D01*
D11*
X114147619Y-75323809D02*
X114147619Y-74847619D01*
X115147619Y-74847619D01*
X115147619Y-75514285D02*
X114147619Y-75847619D01*
X115147619Y-76180952D01*
X114147619Y-76990476D02*
X114147619Y-76514285D01*
X115147619Y-76514285D01*
X114147619Y-78561904D02*
X114147619Y-78085714D01*
X115147619Y-78085714D01*
X114671428Y-78895238D02*
X114671428Y-79228571D01*
X114147619Y-79371428D02*
X114147619Y-78895238D01*
X115147619Y-78895238D01*
X115147619Y-79371428D01*
X114147619Y-79800000D02*
X115147619Y-79800000D01*
X115147619Y-80038095D01*
X115100000Y-80180952D01*
X115004761Y-80276190D01*
X114909523Y-80323809D01*
X114719047Y-80371428D01*
X114576190Y-80371428D01*
X114385714Y-80323809D01*
X114290476Y-80276190D01*
X114195238Y-80180952D01*
X114147619Y-80038095D01*
X114147619Y-79800000D01*
X114147619Y-82038095D02*
X114147619Y-81561904D01*
X115147619Y-81561904D01*
X114147619Y-82371428D02*
X114814285Y-82371428D01*
X115147619Y-82371428D02*
X115100000Y-82323809D01*
X115052380Y-82371428D01*
X115100000Y-82419047D01*
X115147619Y-82371428D01*
X115052380Y-82371428D01*
X114814285Y-83276190D02*
X114004761Y-83276190D01*
X113909523Y-83228571D01*
X113861904Y-83180952D01*
X113814285Y-83085714D01*
X113814285Y-82942857D01*
X113861904Y-82847619D01*
X114195238Y-83276190D02*
X114147619Y-83180952D01*
X114147619Y-82990476D01*
X114195238Y-82895238D01*
X114242857Y-82847619D01*
X114338095Y-82800000D01*
X114623809Y-82800000D01*
X114719047Y-82847619D01*
X114766666Y-82895238D01*
X114814285Y-82990476D01*
X114814285Y-83180952D01*
X114766666Y-83276190D01*
X114147619Y-83752380D02*
X115147619Y-83752380D01*
X114147619Y-84180952D02*
X114671428Y-84180952D01*
X114766666Y-84133333D01*
X114814285Y-84038095D01*
X114814285Y-83895238D01*
X114766666Y-83800000D01*
X114719047Y-83752380D01*
X114814285Y-84514285D02*
X114814285Y-84895238D01*
X115147619Y-84657142D02*
X114290476Y-84657142D01*
X114195238Y-84704761D01*
X114147619Y-84800000D01*
X114147619Y-84895238D01*
D10*
%TO.C,J2*%
X109766666Y-84616666D02*
X109766666Y-85116666D01*
X109733333Y-85216666D01*
X109666666Y-85283333D01*
X109566666Y-85316666D01*
X109500000Y-85316666D01*
X110066666Y-84683333D02*
X110100000Y-84650000D01*
X110166666Y-84616666D01*
X110333333Y-84616666D01*
X110400000Y-84650000D01*
X110433333Y-84683333D01*
X110466666Y-84750000D01*
X110466666Y-84816666D01*
X110433333Y-84916666D01*
X110033333Y-85316666D01*
X110466666Y-85316666D01*
%TO.C,U2*%
X96738095Y-67952380D02*
X96738095Y-68761904D01*
X96785714Y-68857142D01*
X96833333Y-68904761D01*
X96928571Y-68952380D01*
X97119047Y-68952380D01*
X97214285Y-68904761D01*
X97261904Y-68857142D01*
X97309523Y-68761904D01*
X97309523Y-67952380D01*
X97738095Y-68047619D02*
X97785714Y-68000000D01*
X97880952Y-67952380D01*
X98119047Y-67952380D01*
X98214285Y-68000000D01*
X98261904Y-68047619D01*
X98309523Y-68142857D01*
X98309523Y-68238095D01*
X98261904Y-68380952D01*
X97690476Y-68952380D01*
X98309523Y-68952380D01*
%TO.C,R3*%
X107883333Y-80316666D02*
X107650000Y-79983333D01*
X107483333Y-80316666D02*
X107483333Y-79616666D01*
X107750000Y-79616666D01*
X107816666Y-79650000D01*
X107850000Y-79683333D01*
X107883333Y-79750000D01*
X107883333Y-79850000D01*
X107850000Y-79916666D01*
X107816666Y-79950000D01*
X107750000Y-79983333D01*
X107483333Y-79983333D01*
X108116666Y-79616666D02*
X108550000Y-79616666D01*
X108316666Y-79883333D01*
X108416666Y-79883333D01*
X108483333Y-79916666D01*
X108516666Y-79950000D01*
X108550000Y-80016666D01*
X108550000Y-80183333D01*
X108516666Y-80250000D01*
X108483333Y-80283333D01*
X108416666Y-80316666D01*
X108216666Y-80316666D01*
X108150000Y-80283333D01*
X108116666Y-80250000D01*
%TO.C,C1*%
X108550000Y-67816666D02*
X108583333Y-67850000D01*
X108616666Y-67950000D01*
X108616666Y-68016666D01*
X108583333Y-68116666D01*
X108516666Y-68183333D01*
X108450000Y-68216666D01*
X108316666Y-68250000D01*
X108216666Y-68250000D01*
X108083333Y-68216666D01*
X108016666Y-68183333D01*
X107950000Y-68116666D01*
X107916666Y-68016666D01*
X107916666Y-67950000D01*
X107950000Y-67850000D01*
X107983333Y-67816666D01*
X108616666Y-67150000D02*
X108616666Y-67550000D01*
X108616666Y-67350000D02*
X107916666Y-67350000D01*
X108016666Y-67416666D01*
X108083333Y-67483333D01*
X108116666Y-67550000D01*
%TO.C,U1*%
X110666666Y-67216666D02*
X110666666Y-67783333D01*
X110700000Y-67850000D01*
X110733333Y-67883333D01*
X110800000Y-67916666D01*
X110933333Y-67916666D01*
X111000000Y-67883333D01*
X111033333Y-67850000D01*
X111066666Y-67783333D01*
X111066666Y-67216666D01*
X111766666Y-67916666D02*
X111366666Y-67916666D01*
X111566666Y-67916666D02*
X111566666Y-67216666D01*
X111500000Y-67316666D01*
X111433333Y-67383333D01*
X111366666Y-67416666D01*
%TO.C,J1*%
X85766666Y-84616666D02*
X85766666Y-85116666D01*
X85733333Y-85216666D01*
X85666666Y-85283333D01*
X85566666Y-85316666D01*
X85500000Y-85316666D01*
X86466666Y-85316666D02*
X86066666Y-85316666D01*
X86266666Y-85316666D02*
X86266666Y-84616666D01*
X86200000Y-84716666D01*
X86133333Y-84783333D01*
X86066666Y-84816666D01*
%TO.C,R4*%
X107883333Y-78316666D02*
X107650000Y-77983333D01*
X107483333Y-78316666D02*
X107483333Y-77616666D01*
X107750000Y-77616666D01*
X107816666Y-77650000D01*
X107850000Y-77683333D01*
X107883333Y-77750000D01*
X107883333Y-77850000D01*
X107850000Y-77916666D01*
X107816666Y-77950000D01*
X107750000Y-77983333D01*
X107483333Y-77983333D01*
X108483333Y-77850000D02*
X108483333Y-78316666D01*
X108316666Y-77583333D02*
X108150000Y-78083333D01*
X108583333Y-78083333D01*
%TO.C,J3*%
X106116666Y-84233333D02*
X106616666Y-84233333D01*
X106716666Y-84266666D01*
X106783333Y-84333333D01*
X106816666Y-84433333D01*
X106816666Y-84500000D01*
X106116666Y-83966666D02*
X106116666Y-83533333D01*
X106383333Y-83766666D01*
X106383333Y-83666666D01*
X106416666Y-83600000D01*
X106450000Y-83566666D01*
X106516666Y-83533333D01*
X106683333Y-83533333D01*
X106750000Y-83566666D01*
X106783333Y-83600000D01*
X106816666Y-83666666D01*
X106816666Y-83866666D01*
X106783333Y-83933333D01*
X106750000Y-83966666D01*
%TO.C,C2*%
X114550000Y-67816666D02*
X114583333Y-67850000D01*
X114616666Y-67950000D01*
X114616666Y-68016666D01*
X114583333Y-68116666D01*
X114516666Y-68183333D01*
X114450000Y-68216666D01*
X114316666Y-68250000D01*
X114216666Y-68250000D01*
X114083333Y-68216666D01*
X114016666Y-68183333D01*
X113950000Y-68116666D01*
X113916666Y-68016666D01*
X113916666Y-67950000D01*
X113950000Y-67850000D01*
X113983333Y-67816666D01*
X113983333Y-67550000D02*
X113950000Y-67516666D01*
X113916666Y-67450000D01*
X113916666Y-67283333D01*
X113950000Y-67216666D01*
X113983333Y-67183333D01*
X114050000Y-67150000D01*
X114116666Y-67150000D01*
X114216666Y-67183333D01*
X114616666Y-67583333D01*
X114616666Y-67150000D01*
D12*
%TO.C,J2*%
X108670000Y-73670000D02*
X110000000Y-73670000D01*
X111330000Y-82620000D02*
X111330000Y-83950000D01*
X108670000Y-75000000D02*
X108670000Y-73670000D01*
X110000000Y-83950000D02*
X111330000Y-83950000D01*
X108670000Y-74335000D02*
X109335000Y-73670000D01*
%TO.C,U2*%
X105620000Y-80500000D02*
X105620000Y-81120000D01*
X105620000Y-81120000D02*
X103500000Y-81120000D01*
X89380000Y-81120000D02*
X89380000Y-80500000D01*
X105620000Y-56880000D02*
X105620000Y-64500000D01*
X89380000Y-64500000D02*
X88770000Y-64500000D01*
X89380000Y-56880000D02*
X105620000Y-56880000D01*
X89380000Y-64500000D02*
X89380000Y-56880000D01*
X91500000Y-81120000D02*
X89380000Y-81120000D01*
D10*
%TO.C,R3*%
X110500000Y-79300000D02*
X111250000Y-79300000D01*
X111250000Y-80700000D02*
X110500000Y-80700000D01*
X108750000Y-80700000D02*
X109500000Y-80700000D01*
X109500000Y-79300000D02*
X108750000Y-79300000D01*
X108750000Y-79300000D02*
X108750000Y-80700000D01*
X111250000Y-79300000D02*
X111250000Y-80700000D01*
D12*
%TO.C,C1*%
X108810000Y-69828733D02*
X108810000Y-70171267D01*
X107790000Y-69828733D02*
X107790000Y-70171267D01*
%TO.C,U1*%
X112200000Y-68390000D02*
X109750000Y-68390000D01*
X110400000Y-71610000D02*
X112200000Y-71610000D01*
%TO.C,J1*%
X84670000Y-75000000D02*
X84670000Y-73670000D01*
X84670000Y-73670000D02*
X86000000Y-73670000D01*
X84670000Y-74335000D02*
X85335000Y-73670000D01*
X86000000Y-83950000D02*
X87330000Y-83950000D01*
X87330000Y-82620000D02*
X87330000Y-83950000D01*
D10*
%TO.C,R4*%
X111250000Y-78700000D02*
X110500000Y-78700000D01*
X109500000Y-77300000D02*
X108750000Y-77300000D01*
X111250000Y-77300000D02*
X111250000Y-78700000D01*
X108750000Y-78700000D02*
X109500000Y-78700000D01*
X110500000Y-77300000D02*
X111250000Y-77300000D01*
X108750000Y-77300000D02*
X108750000Y-78700000D01*
D12*
%TO.C,J3*%
X105410000Y-84000000D02*
X105410000Y-82670000D01*
X91380000Y-85330000D02*
X90050000Y-85330000D01*
X104580000Y-82670000D02*
X105410000Y-82670000D01*
X90050000Y-85330000D02*
X90050000Y-84000000D01*
X90715000Y-85330000D02*
X90050000Y-84665000D01*
%TO.C,C2*%
X113790000Y-69828733D02*
X113790000Y-70171267D01*
X114810000Y-69828733D02*
X114810000Y-70171267D01*
%TD*%
M02*
