%TF.GenerationSoftware,KiCad,Pcbnew,7.0.2*%
%TF.CreationDate,2023-06-20T09:38:12+02:00*%
%TF.ProjectId,esp-lvl,6573702d-6c76-46c2-9e6b-696361645f70,2.0.0*%
%TF.SameCoordinates,Original*%
%TF.FileFunction,Legend,Bot*%
%TF.FilePolarity,Positive*%
%FSLAX46Y46*%
G04 Gerber Fmt 4.6, Leading zero omitted, Abs format (unit mm)*
G04 Created by KiCad (PCBNEW 7.0.2) date 2023-06-20 09:38:12*
%MOMM*%
%LPD*%
G01*
G04 APERTURE LIST*
%ADD10C,0.150000*%
%ADD11C,0.300000*%
%ADD12C,0.120000*%
G04 APERTURE END LIST*
D10*
%TO.C,D3*%
X144223833Y-99083333D02*
X143523833Y-99083333D01*
X143523833Y-99083333D02*
X143523833Y-99250000D01*
X143523833Y-99250000D02*
X143557166Y-99350000D01*
X143557166Y-99350000D02*
X143623833Y-99416667D01*
X143623833Y-99416667D02*
X143690500Y-99450000D01*
X143690500Y-99450000D02*
X143823833Y-99483333D01*
X143823833Y-99483333D02*
X143923833Y-99483333D01*
X143923833Y-99483333D02*
X144057166Y-99450000D01*
X144057166Y-99450000D02*
X144123833Y-99416667D01*
X144123833Y-99416667D02*
X144190500Y-99350000D01*
X144190500Y-99350000D02*
X144223833Y-99250000D01*
X144223833Y-99250000D02*
X144223833Y-99083333D01*
X143523833Y-99716667D02*
X143523833Y-100150000D01*
X143523833Y-100150000D02*
X143790500Y-99916667D01*
X143790500Y-99916667D02*
X143790500Y-100016667D01*
X143790500Y-100016667D02*
X143823833Y-100083333D01*
X143823833Y-100083333D02*
X143857166Y-100116667D01*
X143857166Y-100116667D02*
X143923833Y-100150000D01*
X143923833Y-100150000D02*
X144090500Y-100150000D01*
X144090500Y-100150000D02*
X144157166Y-100116667D01*
X144157166Y-100116667D02*
X144190500Y-100083333D01*
X144190500Y-100083333D02*
X144223833Y-100016667D01*
X144223833Y-100016667D02*
X144223833Y-99816667D01*
X144223833Y-99816667D02*
X144190500Y-99750000D01*
X144190500Y-99750000D02*
X144157166Y-99716667D01*
%TO.C,R1*%
X150716666Y-92123833D02*
X150949999Y-91790500D01*
X151116666Y-92123833D02*
X151116666Y-91423833D01*
X151116666Y-91423833D02*
X150849999Y-91423833D01*
X150849999Y-91423833D02*
X150783333Y-91457166D01*
X150783333Y-91457166D02*
X150749999Y-91490500D01*
X150749999Y-91490500D02*
X150716666Y-91557166D01*
X150716666Y-91557166D02*
X150716666Y-91657166D01*
X150716666Y-91657166D02*
X150749999Y-91723833D01*
X150749999Y-91723833D02*
X150783333Y-91757166D01*
X150783333Y-91757166D02*
X150849999Y-91790500D01*
X150849999Y-91790500D02*
X151116666Y-91790500D01*
X150049999Y-92123833D02*
X150449999Y-92123833D01*
X150249999Y-92123833D02*
X150249999Y-91423833D01*
X150249999Y-91423833D02*
X150316666Y-91523833D01*
X150316666Y-91523833D02*
X150383333Y-91590500D01*
X150383333Y-91590500D02*
X150449999Y-91623833D01*
%TO.C,R5*%
X150716666Y-96123833D02*
X150949999Y-95790500D01*
X151116666Y-96123833D02*
X151116666Y-95423833D01*
X151116666Y-95423833D02*
X150849999Y-95423833D01*
X150849999Y-95423833D02*
X150783333Y-95457166D01*
X150783333Y-95457166D02*
X150749999Y-95490500D01*
X150749999Y-95490500D02*
X150716666Y-95557166D01*
X150716666Y-95557166D02*
X150716666Y-95657166D01*
X150716666Y-95657166D02*
X150749999Y-95723833D01*
X150749999Y-95723833D02*
X150783333Y-95757166D01*
X150783333Y-95757166D02*
X150849999Y-95790500D01*
X150849999Y-95790500D02*
X151116666Y-95790500D01*
X150083333Y-95423833D02*
X150416666Y-95423833D01*
X150416666Y-95423833D02*
X150449999Y-95757166D01*
X150449999Y-95757166D02*
X150416666Y-95723833D01*
X150416666Y-95723833D02*
X150349999Y-95690500D01*
X150349999Y-95690500D02*
X150183333Y-95690500D01*
X150183333Y-95690500D02*
X150116666Y-95723833D01*
X150116666Y-95723833D02*
X150083333Y-95757166D01*
X150083333Y-95757166D02*
X150049999Y-95823833D01*
X150049999Y-95823833D02*
X150049999Y-95990500D01*
X150049999Y-95990500D02*
X150083333Y-96057166D01*
X150083333Y-96057166D02*
X150116666Y-96090500D01*
X150116666Y-96090500D02*
X150183333Y-96123833D01*
X150183333Y-96123833D02*
X150349999Y-96123833D01*
X150349999Y-96123833D02*
X150416666Y-96090500D01*
X150416666Y-96090500D02*
X150449999Y-96057166D01*
D11*
%TO.C,G\u002A\u002A\u002A*%
X161121427Y-91593044D02*
X161264285Y-91521615D01*
X161264285Y-91521615D02*
X161478570Y-91521615D01*
X161478570Y-91521615D02*
X161692856Y-91593044D01*
X161692856Y-91593044D02*
X161835713Y-91735901D01*
X161835713Y-91735901D02*
X161907142Y-91878758D01*
X161907142Y-91878758D02*
X161978570Y-92164472D01*
X161978570Y-92164472D02*
X161978570Y-92378758D01*
X161978570Y-92378758D02*
X161907142Y-92664472D01*
X161907142Y-92664472D02*
X161835713Y-92807329D01*
X161835713Y-92807329D02*
X161692856Y-92950187D01*
X161692856Y-92950187D02*
X161478570Y-93021615D01*
X161478570Y-93021615D02*
X161335713Y-93021615D01*
X161335713Y-93021615D02*
X161121427Y-92950187D01*
X161121427Y-92950187D02*
X161049999Y-92878758D01*
X161049999Y-92878758D02*
X161049999Y-92378758D01*
X161049999Y-92378758D02*
X161335713Y-92378758D01*
X160192856Y-91521615D02*
X160192856Y-91878758D01*
X160549999Y-91735901D02*
X160192856Y-91878758D01*
X160192856Y-91878758D02*
X159835713Y-91735901D01*
X160407142Y-92164472D02*
X160192856Y-91878758D01*
X160192856Y-91878758D02*
X159978570Y-92164472D01*
X159049999Y-91521615D02*
X159049999Y-91878758D01*
X159407142Y-91735901D02*
X159049999Y-91878758D01*
X159049999Y-91878758D02*
X158692856Y-91735901D01*
X159264285Y-92164472D02*
X159049999Y-91878758D01*
X159049999Y-91878758D02*
X158835713Y-92164472D01*
X157907142Y-91521615D02*
X157907142Y-91878758D01*
X158264285Y-91735901D02*
X157907142Y-91878758D01*
X157907142Y-91878758D02*
X157549999Y-91735901D01*
X158121428Y-92164472D02*
X157907142Y-91878758D01*
X157907142Y-91878758D02*
X157692856Y-92164472D01*
D10*
%TO.C,R9*%
X150816666Y-100923833D02*
X151049999Y-100590500D01*
X151216666Y-100923833D02*
X151216666Y-100223833D01*
X151216666Y-100223833D02*
X150949999Y-100223833D01*
X150949999Y-100223833D02*
X150883333Y-100257166D01*
X150883333Y-100257166D02*
X150849999Y-100290500D01*
X150849999Y-100290500D02*
X150816666Y-100357166D01*
X150816666Y-100357166D02*
X150816666Y-100457166D01*
X150816666Y-100457166D02*
X150849999Y-100523833D01*
X150849999Y-100523833D02*
X150883333Y-100557166D01*
X150883333Y-100557166D02*
X150949999Y-100590500D01*
X150949999Y-100590500D02*
X151216666Y-100590500D01*
X150483333Y-100923833D02*
X150349999Y-100923833D01*
X150349999Y-100923833D02*
X150283333Y-100890500D01*
X150283333Y-100890500D02*
X150249999Y-100857166D01*
X150249999Y-100857166D02*
X150183333Y-100757166D01*
X150183333Y-100757166D02*
X150149999Y-100623833D01*
X150149999Y-100623833D02*
X150149999Y-100357166D01*
X150149999Y-100357166D02*
X150183333Y-100290500D01*
X150183333Y-100290500D02*
X150216666Y-100257166D01*
X150216666Y-100257166D02*
X150283333Y-100223833D01*
X150283333Y-100223833D02*
X150416666Y-100223833D01*
X150416666Y-100223833D02*
X150483333Y-100257166D01*
X150483333Y-100257166D02*
X150516666Y-100290500D01*
X150516666Y-100290500D02*
X150549999Y-100357166D01*
X150549999Y-100357166D02*
X150549999Y-100523833D01*
X150549999Y-100523833D02*
X150516666Y-100590500D01*
X150516666Y-100590500D02*
X150483333Y-100623833D01*
X150483333Y-100623833D02*
X150416666Y-100657166D01*
X150416666Y-100657166D02*
X150283333Y-100657166D01*
X150283333Y-100657166D02*
X150216666Y-100623833D01*
X150216666Y-100623833D02*
X150183333Y-100590500D01*
X150183333Y-100590500D02*
X150149999Y-100523833D01*
%TO.C,R2*%
X150816666Y-90423833D02*
X151049999Y-90090500D01*
X151216666Y-90423833D02*
X151216666Y-89723833D01*
X151216666Y-89723833D02*
X150949999Y-89723833D01*
X150949999Y-89723833D02*
X150883333Y-89757166D01*
X150883333Y-89757166D02*
X150849999Y-89790500D01*
X150849999Y-89790500D02*
X150816666Y-89857166D01*
X150816666Y-89857166D02*
X150816666Y-89957166D01*
X150816666Y-89957166D02*
X150849999Y-90023833D01*
X150849999Y-90023833D02*
X150883333Y-90057166D01*
X150883333Y-90057166D02*
X150949999Y-90090500D01*
X150949999Y-90090500D02*
X151216666Y-90090500D01*
X150549999Y-89790500D02*
X150516666Y-89757166D01*
X150516666Y-89757166D02*
X150449999Y-89723833D01*
X150449999Y-89723833D02*
X150283333Y-89723833D01*
X150283333Y-89723833D02*
X150216666Y-89757166D01*
X150216666Y-89757166D02*
X150183333Y-89790500D01*
X150183333Y-89790500D02*
X150149999Y-89857166D01*
X150149999Y-89857166D02*
X150149999Y-89923833D01*
X150149999Y-89923833D02*
X150183333Y-90023833D01*
X150183333Y-90023833D02*
X150583333Y-90423833D01*
X150583333Y-90423833D02*
X150149999Y-90423833D01*
%TO.C,C1*%
X138557166Y-98483333D02*
X138590500Y-98450000D01*
X138590500Y-98450000D02*
X138623833Y-98350000D01*
X138623833Y-98350000D02*
X138623833Y-98283333D01*
X138623833Y-98283333D02*
X138590500Y-98183333D01*
X138590500Y-98183333D02*
X138523833Y-98116667D01*
X138523833Y-98116667D02*
X138457166Y-98083333D01*
X138457166Y-98083333D02*
X138323833Y-98050000D01*
X138323833Y-98050000D02*
X138223833Y-98050000D01*
X138223833Y-98050000D02*
X138090500Y-98083333D01*
X138090500Y-98083333D02*
X138023833Y-98116667D01*
X138023833Y-98116667D02*
X137957166Y-98183333D01*
X137957166Y-98183333D02*
X137923833Y-98283333D01*
X137923833Y-98283333D02*
X137923833Y-98350000D01*
X137923833Y-98350000D02*
X137957166Y-98450000D01*
X137957166Y-98450000D02*
X137990500Y-98483333D01*
X138623833Y-99150000D02*
X138623833Y-98750000D01*
X138623833Y-98950000D02*
X137923833Y-98950000D01*
X137923833Y-98950000D02*
X138023833Y-98883333D01*
X138023833Y-98883333D02*
X138090500Y-98816667D01*
X138090500Y-98816667D02*
X138123833Y-98750000D01*
%TO.C,R3*%
X150716666Y-94123833D02*
X150949999Y-93790500D01*
X151116666Y-94123833D02*
X151116666Y-93423833D01*
X151116666Y-93423833D02*
X150849999Y-93423833D01*
X150849999Y-93423833D02*
X150783333Y-93457166D01*
X150783333Y-93457166D02*
X150749999Y-93490500D01*
X150749999Y-93490500D02*
X150716666Y-93557166D01*
X150716666Y-93557166D02*
X150716666Y-93657166D01*
X150716666Y-93657166D02*
X150749999Y-93723833D01*
X150749999Y-93723833D02*
X150783333Y-93757166D01*
X150783333Y-93757166D02*
X150849999Y-93790500D01*
X150849999Y-93790500D02*
X151116666Y-93790500D01*
X150483333Y-93423833D02*
X150049999Y-93423833D01*
X150049999Y-93423833D02*
X150283333Y-93690500D01*
X150283333Y-93690500D02*
X150183333Y-93690500D01*
X150183333Y-93690500D02*
X150116666Y-93723833D01*
X150116666Y-93723833D02*
X150083333Y-93757166D01*
X150083333Y-93757166D02*
X150049999Y-93823833D01*
X150049999Y-93823833D02*
X150049999Y-93990500D01*
X150049999Y-93990500D02*
X150083333Y-94057166D01*
X150083333Y-94057166D02*
X150116666Y-94090500D01*
X150116666Y-94090500D02*
X150183333Y-94123833D01*
X150183333Y-94123833D02*
X150383333Y-94123833D01*
X150383333Y-94123833D02*
X150449999Y-94090500D01*
X150449999Y-94090500D02*
X150483333Y-94057166D01*
%TO.C,R4*%
X150716666Y-98123833D02*
X150949999Y-97790500D01*
X151116666Y-98123833D02*
X151116666Y-97423833D01*
X151116666Y-97423833D02*
X150849999Y-97423833D01*
X150849999Y-97423833D02*
X150783333Y-97457166D01*
X150783333Y-97457166D02*
X150749999Y-97490500D01*
X150749999Y-97490500D02*
X150716666Y-97557166D01*
X150716666Y-97557166D02*
X150716666Y-97657166D01*
X150716666Y-97657166D02*
X150749999Y-97723833D01*
X150749999Y-97723833D02*
X150783333Y-97757166D01*
X150783333Y-97757166D02*
X150849999Y-97790500D01*
X150849999Y-97790500D02*
X151116666Y-97790500D01*
X150116666Y-97657166D02*
X150116666Y-98123833D01*
X150283333Y-97390500D02*
X150449999Y-97890500D01*
X150449999Y-97890500D02*
X150016666Y-97890500D01*
D12*
%TO.C,D3*%
X145050000Y-99140000D02*
X144400000Y-99140000D01*
X145050000Y-99140000D02*
X146725000Y-99140000D01*
X145050000Y-102260000D02*
X144400000Y-102260000D01*
X145050000Y-102260000D02*
X145700000Y-102260000D01*
%TO.C,R1*%
X147037258Y-91277500D02*
X146562742Y-91277500D01*
X147037258Y-92322500D02*
X146562742Y-92322500D01*
%TO.C,R5*%
X147037258Y-95277500D02*
X146562742Y-95277500D01*
X147037258Y-96322500D02*
X146562742Y-96322500D01*
%TO.C,G\u002A\u002A\u002A*%
G36*
X160226594Y-87571901D02*
G01*
X160259983Y-87574156D01*
X160305610Y-87574955D01*
X160334667Y-87575255D01*
X160373137Y-87576964D01*
X160397942Y-87580000D01*
X160406732Y-87584148D01*
X160406977Y-87584970D01*
X160418262Y-87589330D01*
X160423197Y-87589896D01*
X160443855Y-87592265D01*
X160480276Y-87593341D01*
X160486855Y-87593371D01*
X160521736Y-87594782D01*
X160545218Y-87597981D01*
X160553819Y-87602533D01*
X160553819Y-87602542D01*
X160562121Y-87607130D01*
X160562349Y-87607256D01*
X160585159Y-87610512D01*
X160618169Y-87611726D01*
X160618232Y-87611726D01*
X160651228Y-87612945D01*
X160674017Y-87616204D01*
X160682519Y-87620919D01*
X160688378Y-87625071D01*
X160690809Y-87625516D01*
X160708297Y-87628717D01*
X160737677Y-87630112D01*
X160762587Y-87631089D01*
X160784461Y-87634408D01*
X160792834Y-87639305D01*
X160795936Y-87642616D01*
X160800998Y-87643902D01*
X160812579Y-87646844D01*
X160838799Y-87648498D01*
X160855356Y-87649118D01*
X160876496Y-87652447D01*
X160884763Y-87657691D01*
X160887865Y-87661002D01*
X160892923Y-87662287D01*
X160904508Y-87665230D01*
X160930728Y-87666884D01*
X160947285Y-87667504D01*
X160968425Y-87670833D01*
X160976692Y-87676077D01*
X160977630Y-87678137D01*
X160984006Y-87680673D01*
X160990438Y-87683231D01*
X161013464Y-87685270D01*
X161021707Y-87685504D01*
X161042080Y-87688706D01*
X161050236Y-87694463D01*
X161051173Y-87696523D01*
X161063981Y-87701617D01*
X161087007Y-87703655D01*
X161095250Y-87703890D01*
X161115624Y-87707092D01*
X161123779Y-87712848D01*
X161124717Y-87714909D01*
X161133991Y-87718597D01*
X161137524Y-87720002D01*
X161160551Y-87722041D01*
X161168793Y-87722276D01*
X161189167Y-87725478D01*
X161197322Y-87731234D01*
X161198260Y-87733295D01*
X161204637Y-87735831D01*
X161211067Y-87738388D01*
X161234094Y-87740427D01*
X161242337Y-87740661D01*
X161262710Y-87743863D01*
X161270865Y-87749620D01*
X161270868Y-87749734D01*
X161278990Y-87756080D01*
X161279080Y-87756150D01*
X161298444Y-87758813D01*
X161298787Y-87758814D01*
X161318035Y-87761551D01*
X161326023Y-87768006D01*
X161326961Y-87770066D01*
X161333337Y-87772602D01*
X161339768Y-87775160D01*
X161362795Y-87777199D01*
X161371037Y-87777433D01*
X161391411Y-87780635D01*
X161399566Y-87786392D01*
X161399568Y-87786506D01*
X161407781Y-87792922D01*
X161427145Y-87795584D01*
X161427488Y-87795585D01*
X161446735Y-87798323D01*
X161452997Y-87803382D01*
X161454724Y-87804777D01*
X161454726Y-87804892D01*
X161462938Y-87811308D01*
X161482302Y-87813970D01*
X161482645Y-87813971D01*
X161501893Y-87816709D01*
X161509141Y-87822565D01*
X161509881Y-87823163D01*
X161509883Y-87823278D01*
X161518096Y-87829693D01*
X161537460Y-87832356D01*
X161537803Y-87832357D01*
X161557050Y-87835094D01*
X161561816Y-87838945D01*
X161565038Y-87841549D01*
X161565041Y-87841663D01*
X161573253Y-87848079D01*
X161592617Y-87850742D01*
X161592960Y-87850743D01*
X161612208Y-87853480D01*
X161614358Y-87855217D01*
X161620196Y-87859935D01*
X161623644Y-87865278D01*
X161638582Y-87869128D01*
X161649268Y-87870852D01*
X161655530Y-87876926D01*
X161656968Y-87878321D01*
X161656970Y-87878435D01*
X161662707Y-87882917D01*
X161665182Y-87884851D01*
X161684546Y-87887514D01*
X161684889Y-87887514D01*
X161704137Y-87890252D01*
X161712125Y-87896706D01*
X161715573Y-87902050D01*
X161730511Y-87905899D01*
X161741197Y-87907623D01*
X161748281Y-87914494D01*
X161748897Y-87915092D01*
X161748899Y-87915207D01*
X161752125Y-87917727D01*
X161757111Y-87921622D01*
X161776475Y-87924285D01*
X161776818Y-87924286D01*
X161796066Y-87927023D01*
X161804054Y-87933478D01*
X161807502Y-87938821D01*
X161822440Y-87942671D01*
X161833126Y-87944395D01*
X161840208Y-87951265D01*
X161840826Y-87951864D01*
X161840828Y-87951978D01*
X161844055Y-87954499D01*
X161849040Y-87958394D01*
X161868404Y-87961057D01*
X161868748Y-87961057D01*
X161887995Y-87963795D01*
X161895983Y-87970250D01*
X161899431Y-87975593D01*
X161914369Y-87979443D01*
X161925055Y-87981166D01*
X161932138Y-87988037D01*
X161932755Y-87988636D01*
X161935720Y-87993232D01*
X161936202Y-87993979D01*
X161951141Y-87997828D01*
X161961827Y-87999552D01*
X161969526Y-88007021D01*
X161969528Y-88007136D01*
X161977741Y-88013551D01*
X161993164Y-88015672D01*
X161997105Y-88016214D01*
X161997448Y-88016215D01*
X162016695Y-88018952D01*
X162024684Y-88025407D01*
X162028131Y-88030750D01*
X162043070Y-88034600D01*
X162053756Y-88036324D01*
X162061455Y-88043793D01*
X162064903Y-88049136D01*
X162079841Y-88052986D01*
X162090528Y-88054710D01*
X162098227Y-88062179D01*
X162101675Y-88067522D01*
X162116613Y-88071372D01*
X162127299Y-88073095D01*
X162134382Y-88079966D01*
X162134999Y-88080565D01*
X162138446Y-88085908D01*
X162153384Y-88089757D01*
X162164071Y-88091481D01*
X162171770Y-88098950D01*
X162175218Y-88104294D01*
X162190156Y-88108143D01*
X162200842Y-88109867D01*
X162207926Y-88116738D01*
X162208542Y-88117336D01*
X162211990Y-88122679D01*
X162226928Y-88126529D01*
X162237614Y-88128253D01*
X162244696Y-88135123D01*
X162245314Y-88135722D01*
X162248761Y-88141065D01*
X162263699Y-88144915D01*
X162274386Y-88146639D01*
X162282085Y-88154108D01*
X162284642Y-88159028D01*
X162298442Y-88163301D01*
X162311530Y-88167327D01*
X162320506Y-88175129D01*
X162328050Y-88181687D01*
X162332801Y-88186283D01*
X162339885Y-88193136D01*
X162356269Y-88199530D01*
X162357658Y-88200072D01*
X162366412Y-88201510D01*
X162374014Y-88209265D01*
X162377462Y-88214608D01*
X162392400Y-88218458D01*
X162403086Y-88220182D01*
X162404467Y-88221522D01*
X162410786Y-88227651D01*
X162413343Y-88232571D01*
X162427142Y-88236844D01*
X162440231Y-88240871D01*
X162445485Y-88245438D01*
X162449205Y-88248672D01*
X162456750Y-88255230D01*
X162461501Y-88259826D01*
X162468585Y-88266680D01*
X162475291Y-88269297D01*
X162486359Y-88273616D01*
X162495113Y-88275053D01*
X162502715Y-88282809D01*
X162505272Y-88287729D01*
X162519071Y-88292001D01*
X162532160Y-88296028D01*
X162537415Y-88300596D01*
X162548679Y-88310387D01*
X162560514Y-88321837D01*
X162578288Y-88328773D01*
X162587042Y-88330210D01*
X162594644Y-88337966D01*
X162597201Y-88342886D01*
X162611000Y-88347159D01*
X162624089Y-88351186D01*
X162629343Y-88355753D01*
X162633064Y-88358987D01*
X162640609Y-88365545D01*
X162652086Y-88377059D01*
X162668187Y-88383930D01*
X162680099Y-88388009D01*
X162682210Y-88389937D01*
X162695766Y-88402316D01*
X162700348Y-88406913D01*
X162707243Y-88413830D01*
X162723345Y-88420702D01*
X162735257Y-88424781D01*
X162740201Y-88429296D01*
X162743742Y-88432530D01*
X162750923Y-88439088D01*
X162762101Y-88450655D01*
X162776843Y-88457474D01*
X162780017Y-88458070D01*
X162789144Y-88463480D01*
X162796088Y-88467596D01*
X162815274Y-88485052D01*
X162820870Y-88490750D01*
X162821952Y-88491641D01*
X162839830Y-88506363D01*
X162853704Y-88512631D01*
X162853890Y-88512701D01*
X162864645Y-88516753D01*
X162879624Y-88531017D01*
X162890801Y-88542584D01*
X162905544Y-88549403D01*
X162908718Y-88549999D01*
X162917365Y-88555125D01*
X162924788Y-88559525D01*
X162943974Y-88576982D01*
X162949670Y-88582816D01*
X162967914Y-88598335D01*
X162980559Y-88604560D01*
X162987814Y-88607624D01*
X162999015Y-88616162D01*
X163005332Y-88620977D01*
X163017056Y-88632139D01*
X163026711Y-88641332D01*
X163041687Y-88655996D01*
X163060847Y-88671918D01*
X163072675Y-88678103D01*
X163079855Y-88681168D01*
X163079864Y-88681172D01*
X163097299Y-88694525D01*
X163118640Y-88714875D01*
X163129032Y-88725071D01*
X163133609Y-88729561D01*
X163152620Y-88745467D01*
X163164237Y-88751647D01*
X163164755Y-88751723D01*
X163176003Y-88759204D01*
X163196913Y-88777144D01*
X163224688Y-88803040D01*
X163253855Y-88831747D01*
X163256533Y-88834383D01*
X163258112Y-88835972D01*
X163260136Y-88838008D01*
X163291603Y-88868864D01*
X163318619Y-88894004D01*
X163338412Y-88910923D01*
X163348207Y-88917119D01*
X163353374Y-88919882D01*
X163369947Y-88933474D01*
X163394648Y-88956009D01*
X163424785Y-88984798D01*
X163457668Y-89017147D01*
X163490605Y-89050366D01*
X163520907Y-89081761D01*
X163545883Y-89108643D01*
X163562841Y-89128318D01*
X163569092Y-89138095D01*
X163571481Y-89143074D01*
X163571735Y-89143397D01*
X163577761Y-89151048D01*
X163584400Y-89159476D01*
X163606009Y-89183302D01*
X163633442Y-89211292D01*
X163650755Y-89228741D01*
X163674974Y-89254663D01*
X163691610Y-89274476D01*
X163697793Y-89284901D01*
X163698524Y-89287264D01*
X163700410Y-89289937D01*
X163708484Y-89301380D01*
X163727667Y-89323234D01*
X163752950Y-89349186D01*
X163761863Y-89358073D01*
X163784837Y-89382486D01*
X163785469Y-89383158D01*
X163801927Y-89403003D01*
X163808108Y-89413935D01*
X163808389Y-89415204D01*
X163808736Y-89416773D01*
X163818288Y-89431662D01*
X163835686Y-89450308D01*
X163841507Y-89455993D01*
X163857035Y-89474310D01*
X163863265Y-89487079D01*
X163863887Y-89489984D01*
X163864032Y-89490214D01*
X163873434Y-89505101D01*
X163890844Y-89523851D01*
X163896664Y-89529536D01*
X163912193Y-89547853D01*
X163918422Y-89560622D01*
X163918538Y-89561165D01*
X163919045Y-89563527D01*
X163928592Y-89578644D01*
X163946001Y-89597394D01*
X163951699Y-89602990D01*
X163967312Y-89621951D01*
X163972830Y-89634166D01*
X163973580Y-89635825D01*
X163977702Y-89646765D01*
X163991966Y-89661744D01*
X164003480Y-89673221D01*
X164008871Y-89685852D01*
X164010352Y-89689323D01*
X164014430Y-89701235D01*
X164028737Y-89716902D01*
X164040252Y-89728379D01*
X164046867Y-89743882D01*
X164047123Y-89744481D01*
X164051202Y-89756392D01*
X164065509Y-89772059D01*
X164077023Y-89783536D01*
X164082414Y-89796167D01*
X164083895Y-89799638D01*
X164087973Y-89811550D01*
X164102281Y-89827217D01*
X164113730Y-89839052D01*
X164120086Y-89855338D01*
X164120666Y-89856825D01*
X164122104Y-89865579D01*
X164129859Y-89873181D01*
X164134780Y-89875739D01*
X164139052Y-89889538D01*
X164142321Y-89900161D01*
X164143079Y-89902626D01*
X164157438Y-89919146D01*
X164168888Y-89930981D01*
X164173238Y-89942128D01*
X164175824Y-89948754D01*
X164177261Y-89957508D01*
X164185017Y-89965110D01*
X164189937Y-89967668D01*
X164194210Y-89981467D01*
X164197478Y-89992091D01*
X164198236Y-89994555D01*
X164212595Y-90011075D01*
X164224045Y-90022910D01*
X164224808Y-90024864D01*
X164230981Y-90040683D01*
X164232419Y-90049437D01*
X164240174Y-90057039D01*
X164245517Y-90060487D01*
X164249367Y-90075425D01*
X164249716Y-90077589D01*
X164251091Y-90086112D01*
X164258560Y-90093811D01*
X164263903Y-90097259D01*
X164267753Y-90112197D01*
X164269139Y-90120791D01*
X164269477Y-90122883D01*
X164276946Y-90130583D01*
X164282289Y-90134030D01*
X164286139Y-90148968D01*
X164287526Y-90157563D01*
X164287863Y-90159655D01*
X164295332Y-90167354D01*
X164300675Y-90170802D01*
X164304525Y-90185740D01*
X164306248Y-90196426D01*
X164313717Y-90204126D01*
X164319061Y-90207574D01*
X164322910Y-90222512D01*
X164324634Y-90233198D01*
X164332103Y-90240898D01*
X164337446Y-90244345D01*
X164341296Y-90259283D01*
X164343020Y-90269970D01*
X164350489Y-90277669D01*
X164355832Y-90281117D01*
X164359682Y-90296055D01*
X164361406Y-90306741D01*
X164368875Y-90314441D01*
X164374218Y-90317888D01*
X164378068Y-90332827D01*
X164379792Y-90343513D01*
X164387261Y-90351212D01*
X164392604Y-90354660D01*
X164396454Y-90369598D01*
X164397840Y-90378193D01*
X164398177Y-90380285D01*
X164405647Y-90387984D01*
X164410990Y-90391432D01*
X164414839Y-90406370D01*
X164416225Y-90414964D01*
X164416563Y-90417056D01*
X164424032Y-90424756D01*
X164424147Y-90424758D01*
X164430562Y-90432970D01*
X164433225Y-90452334D01*
X164433226Y-90452677D01*
X164433332Y-90453419D01*
X164435964Y-90471925D01*
X164442418Y-90479913D01*
X164447761Y-90483361D01*
X164451611Y-90498299D01*
X164453335Y-90508985D01*
X164460804Y-90516685D01*
X164466147Y-90520132D01*
X164469997Y-90535071D01*
X164470738Y-90539667D01*
X164471721Y-90545757D01*
X164479190Y-90553456D01*
X164479304Y-90553458D01*
X164485720Y-90561671D01*
X164488383Y-90581035D01*
X164488383Y-90581378D01*
X164489392Y-90588472D01*
X164491121Y-90600625D01*
X164497576Y-90608614D01*
X164497690Y-90608616D01*
X164504106Y-90616829D01*
X164506136Y-90631596D01*
X164506768Y-90636193D01*
X164506769Y-90636536D01*
X164509507Y-90655783D01*
X164515961Y-90663771D01*
X164521305Y-90667219D01*
X164525154Y-90682157D01*
X164526878Y-90692843D01*
X164534347Y-90700543D01*
X164534462Y-90700545D01*
X164540877Y-90708758D01*
X164543458Y-90727523D01*
X164543540Y-90728122D01*
X164543541Y-90728465D01*
X164546278Y-90747712D01*
X164552733Y-90755700D01*
X164552847Y-90755702D01*
X164559263Y-90763915D01*
X164561294Y-90778683D01*
X164561926Y-90783279D01*
X164561927Y-90783622D01*
X164564664Y-90802869D01*
X164571119Y-90810858D01*
X164571233Y-90810860D01*
X164577649Y-90819073D01*
X164579680Y-90833840D01*
X164580312Y-90838436D01*
X164580312Y-90838780D01*
X164583050Y-90858027D01*
X164589505Y-90866015D01*
X164589619Y-90866017D01*
X164596035Y-90874230D01*
X164598066Y-90888997D01*
X164598698Y-90893594D01*
X164598698Y-90893937D01*
X164601436Y-90913184D01*
X164607890Y-90921173D01*
X164609951Y-90922110D01*
X164615045Y-90934918D01*
X164615863Y-90944155D01*
X164617083Y-90957944D01*
X164617318Y-90966187D01*
X164620520Y-90986560D01*
X164626276Y-90994716D01*
X164626391Y-90994718D01*
X164632806Y-91002931D01*
X164635469Y-91022295D01*
X164635470Y-91022638D01*
X164638207Y-91041885D01*
X164644662Y-91049873D01*
X164646723Y-91050811D01*
X164651816Y-91063618D01*
X164652634Y-91072856D01*
X164653855Y-91086645D01*
X164654089Y-91094888D01*
X164657291Y-91115261D01*
X164663048Y-91123417D01*
X164663162Y-91123419D01*
X164669578Y-91131631D01*
X164672241Y-91150995D01*
X164672242Y-91151338D01*
X164674979Y-91170586D01*
X164681434Y-91178574D01*
X164684745Y-91181676D01*
X164688973Y-91198318D01*
X164690399Y-91220928D01*
X164690627Y-91224539D01*
X164691247Y-91241096D01*
X164694576Y-91262235D01*
X164699820Y-91270503D01*
X164703131Y-91273605D01*
X164707359Y-91290247D01*
X164707563Y-91293485D01*
X164709012Y-91316468D01*
X164709184Y-91321064D01*
X164709633Y-91333025D01*
X164712961Y-91354164D01*
X164718205Y-91362432D01*
X164721517Y-91365534D01*
X164725745Y-91382176D01*
X164727398Y-91408397D01*
X164728019Y-91424954D01*
X164731347Y-91446093D01*
X164736591Y-91454361D01*
X164740743Y-91460220D01*
X164743876Y-91477343D01*
X164744388Y-91480139D01*
X164745529Y-91504156D01*
X164745784Y-91509519D01*
X164746761Y-91534428D01*
X164750080Y-91556303D01*
X164754977Y-91564676D01*
X164754986Y-91564676D01*
X164759700Y-91573206D01*
X164761762Y-91587658D01*
X164762955Y-91596016D01*
X164763634Y-91614471D01*
X164764170Y-91629026D01*
X164764170Y-91629089D01*
X164765389Y-91662085D01*
X164768647Y-91684874D01*
X164773363Y-91693377D01*
X164775484Y-91695328D01*
X164779236Y-91711725D01*
X164779603Y-91716359D01*
X164781682Y-91742600D01*
X164781992Y-91757727D01*
X164782556Y-91785306D01*
X164782751Y-91806522D01*
X164784390Y-91844041D01*
X164787478Y-91868495D01*
X164791749Y-91877235D01*
X164793553Y-91881832D01*
X164795415Y-91900217D01*
X164795775Y-91903771D01*
X164797612Y-91943469D01*
X164798029Y-91959971D01*
X164799056Y-92000559D01*
X164800098Y-92074676D01*
X164800729Y-92165455D01*
X164800941Y-92272530D01*
X164800835Y-92350099D01*
X164800324Y-92445660D01*
X164799401Y-92524665D01*
X164798109Y-92585089D01*
X164798074Y-92586749D01*
X164796350Y-92631548D01*
X164794239Y-92658695D01*
X164791749Y-92667825D01*
X164790228Y-92668741D01*
X164786189Y-92682638D01*
X164783520Y-92710917D01*
X164782556Y-92750561D01*
X164782454Y-92764247D01*
X164782059Y-92773543D01*
X164780910Y-92800596D01*
X164779639Y-92810315D01*
X164777768Y-92824619D01*
X164773363Y-92833297D01*
X164773354Y-92833297D01*
X164768640Y-92841828D01*
X164765385Y-92864637D01*
X164764170Y-92897647D01*
X164764170Y-92897710D01*
X164763833Y-92906840D01*
X164762951Y-92930706D01*
X164761763Y-92939016D01*
X164759693Y-92953495D01*
X164754977Y-92961998D01*
X164750825Y-92967857D01*
X164747180Y-92987775D01*
X164745784Y-93017155D01*
X164744808Y-93042065D01*
X164743705Y-93049330D01*
X164741488Y-93063939D01*
X164736591Y-93072313D01*
X164732440Y-93078171D01*
X164728794Y-93098090D01*
X164727398Y-93127470D01*
X164727038Y-93136663D01*
X164726422Y-93152380D01*
X164723102Y-93174254D01*
X164718205Y-93182628D01*
X164716145Y-93183565D01*
X164711051Y-93196373D01*
X164709012Y-93219399D01*
X164708778Y-93227642D01*
X164707906Y-93233189D01*
X164705576Y-93248015D01*
X164699820Y-93256171D01*
X164696508Y-93259273D01*
X164692280Y-93275915D01*
X164690627Y-93302135D01*
X164690180Y-93314065D01*
X164690006Y-93318692D01*
X164686678Y-93339832D01*
X164681434Y-93348100D01*
X164679373Y-93349038D01*
X164674280Y-93361845D01*
X164672241Y-93384871D01*
X164672163Y-93387608D01*
X164672006Y-93393114D01*
X164668805Y-93413488D01*
X164663048Y-93421643D01*
X164662934Y-93421645D01*
X164656518Y-93429858D01*
X164653855Y-93449222D01*
X164653854Y-93449565D01*
X164653249Y-93453818D01*
X164651117Y-93468812D01*
X164644662Y-93476801D01*
X164642601Y-93477738D01*
X164637508Y-93490546D01*
X164635876Y-93508976D01*
X164635469Y-93513572D01*
X164635235Y-93521815D01*
X164634672Y-93525400D01*
X164632033Y-93542188D01*
X164626276Y-93550344D01*
X164626162Y-93550346D01*
X164619746Y-93558559D01*
X164617083Y-93577923D01*
X164617083Y-93578266D01*
X164616478Y-93582519D01*
X164614345Y-93597513D01*
X164607890Y-93605501D01*
X164607776Y-93605503D01*
X164601360Y-93613716D01*
X164598698Y-93633080D01*
X164598697Y-93633423D01*
X164595959Y-93652670D01*
X164589505Y-93660659D01*
X164589390Y-93660661D01*
X164582975Y-93668873D01*
X164580312Y-93688237D01*
X164580311Y-93688580D01*
X164579706Y-93692834D01*
X164577573Y-93707828D01*
X164571119Y-93715816D01*
X164571004Y-93715818D01*
X164564589Y-93724031D01*
X164561926Y-93743395D01*
X164561925Y-93743738D01*
X164561320Y-93747991D01*
X164559188Y-93762985D01*
X164552733Y-93770974D01*
X164552619Y-93770976D01*
X164546203Y-93779188D01*
X164543540Y-93798552D01*
X164543539Y-93798895D01*
X164542934Y-93803149D01*
X164540802Y-93818143D01*
X164534347Y-93826131D01*
X164534233Y-93826133D01*
X164527817Y-93834346D01*
X164526313Y-93845283D01*
X164525154Y-93853710D01*
X164525154Y-93854053D01*
X164522416Y-93873300D01*
X164515961Y-93881288D01*
X164510618Y-93884736D01*
X164507953Y-93895078D01*
X164506768Y-93899674D01*
X164505045Y-93910361D01*
X164501992Y-93913508D01*
X164497576Y-93918060D01*
X164497461Y-93918062D01*
X164491045Y-93926275D01*
X164488846Y-93942268D01*
X164488383Y-93945639D01*
X164488382Y-93945982D01*
X164485644Y-93965229D01*
X164479190Y-93973217D01*
X164473847Y-93976665D01*
X164469997Y-93991603D01*
X164468273Y-94002290D01*
X164460804Y-94009989D01*
X164460690Y-94009991D01*
X164454274Y-94018204D01*
X164453507Y-94023778D01*
X164451611Y-94037568D01*
X164451610Y-94037911D01*
X164450858Y-94043200D01*
X164448873Y-94057158D01*
X164442418Y-94065147D01*
X164437075Y-94068594D01*
X164434915Y-94076975D01*
X164433225Y-94083532D01*
X164431501Y-94094219D01*
X164424032Y-94101918D01*
X164418689Y-94105366D01*
X164416024Y-94115708D01*
X164414839Y-94120304D01*
X164413116Y-94130990D01*
X164405647Y-94138690D01*
X164400303Y-94142137D01*
X164396454Y-94157076D01*
X164394730Y-94167762D01*
X164387261Y-94175461D01*
X164381918Y-94178909D01*
X164378068Y-94193847D01*
X164376344Y-94204534D01*
X164368875Y-94212233D01*
X164363532Y-94215681D01*
X164359682Y-94230619D01*
X164357958Y-94241305D01*
X164350489Y-94249005D01*
X164345146Y-94252452D01*
X164341296Y-94267390D01*
X164339572Y-94278077D01*
X164332103Y-94285776D01*
X164326760Y-94289224D01*
X164322910Y-94304162D01*
X164321187Y-94314848D01*
X164318177Y-94317951D01*
X164313717Y-94322548D01*
X164308374Y-94325996D01*
X164304525Y-94340934D01*
X164302801Y-94351620D01*
X164295332Y-94359320D01*
X164289989Y-94362767D01*
X164288662Y-94367914D01*
X164286139Y-94377705D01*
X164284415Y-94388392D01*
X164276946Y-94396091D01*
X164271603Y-94399539D01*
X164270276Y-94404686D01*
X164269443Y-94407919D01*
X164267753Y-94414477D01*
X164266029Y-94425163D01*
X164258560Y-94432863D01*
X164253217Y-94436310D01*
X164251057Y-94444691D01*
X164249367Y-94451249D01*
X164247643Y-94461935D01*
X164240174Y-94469634D01*
X164234831Y-94473082D01*
X164231942Y-94484293D01*
X164230981Y-94488020D01*
X164229257Y-94498707D01*
X164221788Y-94506406D01*
X164216868Y-94508963D01*
X164213329Y-94520391D01*
X164212595Y-94522762D01*
X164208569Y-94535851D01*
X164194210Y-94552371D01*
X164182760Y-94564205D01*
X164177994Y-94576418D01*
X164175824Y-94581979D01*
X164174387Y-94590733D01*
X164166631Y-94598335D01*
X164161711Y-94600892D01*
X164157438Y-94614691D01*
X164153411Y-94627780D01*
X164139052Y-94644300D01*
X164127538Y-94655777D01*
X164126551Y-94658089D01*
X164120666Y-94671878D01*
X164118997Y-94676753D01*
X164116588Y-94683790D01*
X164102281Y-94699457D01*
X164090766Y-94710934D01*
X164083895Y-94727036D01*
X164082321Y-94731632D01*
X164079816Y-94738948D01*
X164065509Y-94754615D01*
X164053995Y-94766092D01*
X164047123Y-94782193D01*
X164043045Y-94794105D01*
X164028737Y-94809772D01*
X164017223Y-94821249D01*
X164010352Y-94837351D01*
X164006302Y-94849179D01*
X164006273Y-94849263D01*
X163991966Y-94864929D01*
X163980398Y-94876107D01*
X163974938Y-94887912D01*
X163973580Y-94890849D01*
X163972984Y-94894023D01*
X163965709Y-94906297D01*
X163963458Y-94910094D01*
X163946001Y-94929280D01*
X163940304Y-94934876D01*
X163930717Y-94946518D01*
X163924691Y-94953836D01*
X163921248Y-94961455D01*
X163918422Y-94967710D01*
X163914301Y-94978651D01*
X163900037Y-94993630D01*
X163888463Y-95004773D01*
X163882453Y-95017644D01*
X163881651Y-95019362D01*
X163878630Y-95027205D01*
X163865277Y-95045464D01*
X163844879Y-95067173D01*
X163830208Y-95082147D01*
X163814291Y-95101257D01*
X163811894Y-95105814D01*
X163810314Y-95108819D01*
X163808108Y-95113014D01*
X163808101Y-95113197D01*
X163801561Y-95124779D01*
X163792104Y-95136120D01*
X163785087Y-95144535D01*
X163762143Y-95168295D01*
X163761351Y-95169069D01*
X163738564Y-95192730D01*
X163729551Y-95203561D01*
X163722352Y-95212212D01*
X163718103Y-95219888D01*
X163716179Y-95223365D01*
X163715450Y-95225749D01*
X163705492Y-95239929D01*
X163686307Y-95261830D01*
X163661021Y-95287803D01*
X163652043Y-95296746D01*
X163630053Y-95319978D01*
X163628468Y-95321653D01*
X163612035Y-95341184D01*
X163610267Y-95344204D01*
X163608959Y-95346437D01*
X163605864Y-95351722D01*
X163600817Y-95359644D01*
X163584664Y-95378405D01*
X163559716Y-95405322D01*
X163528359Y-95438010D01*
X163492978Y-95474082D01*
X163455958Y-95511151D01*
X163419684Y-95546832D01*
X163386543Y-95578738D01*
X163358918Y-95604482D01*
X163339196Y-95621678D01*
X163329761Y-95627941D01*
X163321694Y-95632660D01*
X163303062Y-95648211D01*
X163277281Y-95672041D01*
X163269957Y-95679243D01*
X163261363Y-95687694D01*
X163247340Y-95701484D01*
X163230582Y-95718002D01*
X163221139Y-95727309D01*
X163194521Y-95752040D01*
X163174604Y-95768835D01*
X163164401Y-95775027D01*
X163164216Y-95775034D01*
X163152790Y-95781583D01*
X163143727Y-95789186D01*
X163133154Y-95798056D01*
X163114199Y-95816395D01*
X163109447Y-95820992D01*
X163108708Y-95821748D01*
X163094957Y-95834961D01*
X163084977Y-95844551D01*
X163065797Y-95860398D01*
X163065338Y-95860777D01*
X163053978Y-95866956D01*
X163051125Y-95867583D01*
X163036186Y-95877134D01*
X163021970Y-95890385D01*
X163017518Y-95894535D01*
X163011832Y-95900355D01*
X162993515Y-95915884D01*
X162980746Y-95922114D01*
X162977841Y-95922736D01*
X162962724Y-95932283D01*
X162960494Y-95934354D01*
X162948444Y-95945542D01*
X162943974Y-95949692D01*
X162938289Y-95955513D01*
X162919972Y-95971041D01*
X162912114Y-95974875D01*
X162907203Y-95977271D01*
X162904298Y-95977893D01*
X162889181Y-95987440D01*
X162874900Y-96000700D01*
X162870431Y-96004850D01*
X162864835Y-96010547D01*
X162849342Y-96023305D01*
X162845875Y-96026160D01*
X162832001Y-96032428D01*
X162821060Y-96036550D01*
X162806081Y-96050814D01*
X162794604Y-96062328D01*
X162786635Y-96065729D01*
X162778502Y-96069200D01*
X162770807Y-96071835D01*
X162766590Y-96073279D01*
X162750923Y-96087586D01*
X162746342Y-96092182D01*
X162739446Y-96099100D01*
X162734116Y-96101375D01*
X162723345Y-96105972D01*
X162711433Y-96110050D01*
X162700800Y-96119761D01*
X162695766Y-96124358D01*
X162684289Y-96135872D01*
X162674282Y-96140142D01*
X162668187Y-96142743D01*
X162660492Y-96145378D01*
X162656275Y-96146822D01*
X162640609Y-96161129D01*
X162631203Y-96170565D01*
X162629132Y-96172643D01*
X162613030Y-96179515D01*
X162601118Y-96183593D01*
X162585451Y-96197901D01*
X162576568Y-96206495D01*
X162573616Y-96209351D01*
X162572647Y-96209729D01*
X162555843Y-96216287D01*
X162547089Y-96217724D01*
X162539487Y-96225480D01*
X162537097Y-96230076D01*
X162536929Y-96230400D01*
X162523130Y-96234672D01*
X162510042Y-96238699D01*
X162508873Y-96239715D01*
X162493522Y-96253058D01*
X162484638Y-96261653D01*
X162481687Y-96264508D01*
X162480718Y-96264886D01*
X162463914Y-96271444D01*
X162455159Y-96272881D01*
X162447557Y-96280637D01*
X162444592Y-96285233D01*
X162444110Y-96285980D01*
X162429172Y-96289830D01*
X162418485Y-96291554D01*
X162411403Y-96298424D01*
X162410786Y-96299023D01*
X162408229Y-96303943D01*
X162394429Y-96308216D01*
X162381341Y-96312242D01*
X162371106Y-96321138D01*
X162364821Y-96326601D01*
X162355937Y-96335196D01*
X162352986Y-96338051D01*
X162344338Y-96341426D01*
X162335213Y-96344987D01*
X162326459Y-96346425D01*
X162318857Y-96354180D01*
X162317157Y-96356815D01*
X162315409Y-96359523D01*
X162300471Y-96363373D01*
X162289785Y-96365097D01*
X162282085Y-96372566D01*
X162280385Y-96375201D01*
X162278638Y-96377909D01*
X162263699Y-96381759D01*
X162253013Y-96383483D01*
X162245314Y-96390952D01*
X162243614Y-96393587D01*
X162241866Y-96396295D01*
X162226928Y-96400145D01*
X162216241Y-96401869D01*
X162208542Y-96409338D01*
X162206842Y-96411973D01*
X162205094Y-96414681D01*
X162190156Y-96418531D01*
X162179470Y-96420254D01*
X162171770Y-96427723D01*
X162170070Y-96430359D01*
X162168323Y-96433067D01*
X162153384Y-96436916D01*
X162142698Y-96438640D01*
X162134999Y-96446109D01*
X162133299Y-96448744D01*
X162131551Y-96451452D01*
X162116613Y-96455302D01*
X162105927Y-96457026D01*
X162098227Y-96464495D01*
X162096527Y-96467130D01*
X162094779Y-96469838D01*
X162079841Y-96473688D01*
X162069155Y-96475412D01*
X162061455Y-96482881D01*
X162058008Y-96488224D01*
X162056887Y-96488513D01*
X162043070Y-96492074D01*
X162032383Y-96493798D01*
X162024684Y-96501267D01*
X162023121Y-96503689D01*
X162021236Y-96506610D01*
X162006298Y-96510460D01*
X161995612Y-96512183D01*
X161987912Y-96519653D01*
X161980252Y-96526092D01*
X161961317Y-96528845D01*
X161941645Y-96532300D01*
X161929949Y-96541283D01*
X161930250Y-96554494D01*
X161944072Y-96569330D01*
X161969235Y-96579945D01*
X162001807Y-96584003D01*
X162014074Y-96584420D01*
X162034854Y-96587707D01*
X162043070Y-96593196D01*
X162048928Y-96597347D01*
X162068847Y-96600993D01*
X162098227Y-96602389D01*
X162123137Y-96603365D01*
X162145011Y-96606685D01*
X162153384Y-96611582D01*
X162153387Y-96611696D01*
X162160598Y-96617330D01*
X162161599Y-96618112D01*
X162180963Y-96620774D01*
X162181306Y-96620775D01*
X162200554Y-96623513D01*
X162208542Y-96629967D01*
X162208544Y-96630082D01*
X162214281Y-96634564D01*
X162216757Y-96636498D01*
X162236121Y-96639160D01*
X162236464Y-96639161D01*
X162255711Y-96641899D01*
X162263699Y-96648353D01*
X162267147Y-96653696D01*
X162282085Y-96657546D01*
X162292771Y-96659270D01*
X162300471Y-96666739D01*
X162307552Y-96673075D01*
X162326020Y-96675932D01*
X162344396Y-96679476D01*
X162358495Y-96689721D01*
X162364821Y-96694318D01*
X162367988Y-96697382D01*
X162376656Y-96705768D01*
X162394429Y-96712704D01*
X162403184Y-96714141D01*
X162410786Y-96721896D01*
X162412678Y-96726394D01*
X162425483Y-96731089D01*
X162428967Y-96731654D01*
X162443548Y-96739684D01*
X162446217Y-96741154D01*
X162465943Y-96758668D01*
X162471666Y-96764541D01*
X162472500Y-96765257D01*
X162489707Y-96780033D01*
X162502007Y-96786247D01*
X162506359Y-96787811D01*
X162516006Y-96794841D01*
X162522293Y-96799423D01*
X162544296Y-96819018D01*
X162568370Y-96842599D01*
X162590515Y-96866167D01*
X162606735Y-96885723D01*
X162613030Y-96897270D01*
X162613663Y-96900055D01*
X162621886Y-96912716D01*
X162623219Y-96914769D01*
X162640609Y-96933333D01*
X162646306Y-96938929D01*
X162648775Y-96941928D01*
X162661919Y-96957890D01*
X162667682Y-96970647D01*
X162668187Y-96971764D01*
X162672309Y-96982705D01*
X162686573Y-96997684D01*
X162698023Y-97009518D01*
X162700346Y-97015471D01*
X162704959Y-97027292D01*
X162705380Y-97029859D01*
X162706396Y-97036046D01*
X162714152Y-97043648D01*
X162719072Y-97046205D01*
X162723345Y-97060005D01*
X162726613Y-97070628D01*
X162727371Y-97073093D01*
X162741730Y-97089613D01*
X162753180Y-97101448D01*
X162759536Y-97117734D01*
X162760116Y-97119221D01*
X162761554Y-97127975D01*
X162769309Y-97135577D01*
X162774652Y-97139025D01*
X162778502Y-97153963D01*
X162780226Y-97164649D01*
X162787695Y-97172349D01*
X162787809Y-97172351D01*
X162794225Y-97180564D01*
X162796888Y-97199928D01*
X162796889Y-97200271D01*
X162798566Y-97212065D01*
X162799626Y-97219518D01*
X162806081Y-97227506D01*
X162811424Y-97230954D01*
X162815274Y-97245892D01*
X162816998Y-97256578D01*
X162824467Y-97264278D01*
X162824581Y-97264280D01*
X162830997Y-97272493D01*
X162833578Y-97291258D01*
X162833660Y-97291857D01*
X162833660Y-97292200D01*
X162836398Y-97311447D01*
X162842852Y-97319435D01*
X162842967Y-97319437D01*
X162849383Y-97327650D01*
X162851413Y-97342418D01*
X162852045Y-97347014D01*
X162852046Y-97347357D01*
X162854784Y-97366604D01*
X162861238Y-97374593D01*
X162861353Y-97374595D01*
X162867768Y-97382808D01*
X162869799Y-97397575D01*
X162870431Y-97402172D01*
X162870432Y-97402515D01*
X162873169Y-97421762D01*
X162879624Y-97429750D01*
X162879738Y-97429752D01*
X162886154Y-97437965D01*
X162888185Y-97452732D01*
X162888817Y-97457329D01*
X162888818Y-97457672D01*
X162891555Y-97476919D01*
X162898010Y-97484908D01*
X162898124Y-97484910D01*
X162904540Y-97493122D01*
X162907203Y-97512486D01*
X162907204Y-97512830D01*
X162909941Y-97532077D01*
X162916396Y-97540065D01*
X162921739Y-97543513D01*
X162925589Y-97558451D01*
X162927312Y-97569137D01*
X162934782Y-97576837D01*
X162934896Y-97576839D01*
X162941312Y-97585052D01*
X162943892Y-97603817D01*
X162943974Y-97604415D01*
X162943975Y-97604759D01*
X162945888Y-97618205D01*
X162946713Y-97624006D01*
X162953167Y-97631994D01*
X162953282Y-97631996D01*
X162959697Y-97640209D01*
X162962278Y-97658974D01*
X162962360Y-97659573D01*
X162962361Y-97659916D01*
X162965099Y-97679163D01*
X162971553Y-97687152D01*
X162976896Y-97690599D01*
X162980746Y-97705537D01*
X162982470Y-97716224D01*
X162989939Y-97723923D01*
X162990053Y-97723925D01*
X162996469Y-97732138D01*
X162999050Y-97750903D01*
X162999132Y-97751502D01*
X162999133Y-97751845D01*
X163001870Y-97771092D01*
X163008325Y-97779081D01*
X163013668Y-97782528D01*
X163017518Y-97797466D01*
X163018260Y-97802063D01*
X163019242Y-97808153D01*
X163026711Y-97815852D01*
X163031482Y-97818326D01*
X163035178Y-97831940D01*
X163033862Y-97839761D01*
X163029815Y-97836536D01*
X163027427Y-97832239D01*
X163016209Y-97825045D01*
X163013213Y-97825748D01*
X163012921Y-97834238D01*
X163012853Y-97834896D01*
X163001310Y-97837484D01*
X162971598Y-97839613D01*
X162923887Y-97841276D01*
X162858351Y-97842470D01*
X162775159Y-97843190D01*
X162674483Y-97843431D01*
X162330363Y-97843431D01*
X162328352Y-97802063D01*
X162999132Y-97802063D01*
X163003728Y-97806659D01*
X163008325Y-97802063D01*
X163003728Y-97797466D01*
X162999132Y-97802063D01*
X162328352Y-97802063D01*
X162325335Y-97740011D01*
X162324998Y-97733715D01*
X162973807Y-97733715D01*
X162976150Y-97742309D01*
X162978038Y-97745030D01*
X162986428Y-97751502D01*
X162987685Y-97750903D01*
X162985343Y-97742309D01*
X162983454Y-97739588D01*
X162975065Y-97733116D01*
X162973807Y-97733715D01*
X162324998Y-97733715D01*
X162323329Y-97702514D01*
X162318185Y-97641786D01*
X162937035Y-97641786D01*
X162939378Y-97650380D01*
X162941267Y-97653101D01*
X162949656Y-97659573D01*
X162950913Y-97658974D01*
X162948571Y-97650380D01*
X162946682Y-97647659D01*
X162938293Y-97641187D01*
X162937035Y-97641786D01*
X162318185Y-97641786D01*
X162316187Y-97618205D01*
X162925589Y-97618205D01*
X162930185Y-97622801D01*
X162934782Y-97618205D01*
X162930185Y-97613608D01*
X162925589Y-97618205D01*
X162316187Y-97618205D01*
X162313512Y-97586628D01*
X162918650Y-97586628D01*
X162920992Y-97595223D01*
X162922881Y-97597944D01*
X162931270Y-97604415D01*
X162932528Y-97603817D01*
X162930185Y-97595223D01*
X162928296Y-97592501D01*
X162919907Y-97586030D01*
X162918650Y-97586628D01*
X162313512Y-97586628D01*
X162307997Y-97521518D01*
X162298057Y-97452732D01*
X162870431Y-97452732D01*
X162875028Y-97457329D01*
X162879624Y-97452732D01*
X162875028Y-97448136D01*
X162870431Y-97452732D01*
X162298057Y-97452732D01*
X162290086Y-97397575D01*
X162852045Y-97397575D01*
X162856642Y-97402172D01*
X162861238Y-97397575D01*
X162856642Y-97392979D01*
X162852045Y-97397575D01*
X162290086Y-97397575D01*
X162284081Y-97356022D01*
X162281136Y-97342418D01*
X162833660Y-97342418D01*
X162838256Y-97347014D01*
X162842852Y-97342418D01*
X162838256Y-97337821D01*
X162833660Y-97342418D01*
X162281136Y-97342418D01*
X162266337Y-97274069D01*
X162808335Y-97274069D01*
X162810677Y-97282664D01*
X162812566Y-97285385D01*
X162820955Y-97291857D01*
X162822213Y-97291258D01*
X162819870Y-97282664D01*
X162817982Y-97279942D01*
X162809592Y-97273471D01*
X162808335Y-97274069D01*
X162266337Y-97274069D01*
X162251631Y-97206146D01*
X162231487Y-97140139D01*
X162747667Y-97140139D01*
X162750786Y-97152055D01*
X162760569Y-97173686D01*
X162772669Y-97197290D01*
X162782102Y-97213923D01*
X162786568Y-97218080D01*
X162787695Y-97212065D01*
X162783379Y-97196114D01*
X162772814Y-97173256D01*
X162760182Y-97151685D01*
X162749664Y-97139395D01*
X162747667Y-97140139D01*
X162231487Y-97140139D01*
X162220040Y-97102628D01*
X162728387Y-97102628D01*
X162729030Y-97112118D01*
X162731997Y-97118800D01*
X162738776Y-97126087D01*
X162741730Y-97117734D01*
X162741404Y-97115237D01*
X162732643Y-97103467D01*
X162728387Y-97102628D01*
X162220040Y-97102628D01*
X162210695Y-97072008D01*
X162202944Y-97053440D01*
X162698020Y-97053440D01*
X162700362Y-97062034D01*
X162702251Y-97064755D01*
X162710640Y-97071227D01*
X162711898Y-97070628D01*
X162709555Y-97062034D01*
X162707667Y-97059313D01*
X162699277Y-97052841D01*
X162698020Y-97053440D01*
X162202944Y-97053440D01*
X162193100Y-97029859D01*
X162677380Y-97029859D01*
X162681977Y-97034455D01*
X162686573Y-97029859D01*
X162681977Y-97025262D01*
X162677380Y-97029859D01*
X162193100Y-97029859D01*
X162179919Y-96998282D01*
X162661248Y-96998282D01*
X162663591Y-97006877D01*
X162665479Y-97009598D01*
X162673869Y-97016069D01*
X162675126Y-97015471D01*
X162672784Y-97006877D01*
X162670895Y-97004155D01*
X162662506Y-96997684D01*
X162661248Y-96998282D01*
X162179919Y-96998282D01*
X162162078Y-96955541D01*
X162636458Y-96955541D01*
X162637101Y-96965031D01*
X162640068Y-96971713D01*
X162646847Y-96979000D01*
X162649801Y-96970647D01*
X162649475Y-96968151D01*
X162640714Y-96956381D01*
X162636458Y-96955541D01*
X162162078Y-96955541D01*
X162161322Y-96953730D01*
X162144953Y-96924739D01*
X162606091Y-96924739D01*
X162608433Y-96933333D01*
X162610322Y-96936055D01*
X162618711Y-96942526D01*
X162619969Y-96941928D01*
X162617626Y-96933333D01*
X162615738Y-96930612D01*
X162607348Y-96924140D01*
X162606091Y-96924739D01*
X162144953Y-96924739D01*
X162103560Y-96851430D01*
X162066197Y-96802707D01*
X162495366Y-96802707D01*
X162500469Y-96811327D01*
X162515692Y-96829222D01*
X162539221Y-96854141D01*
X162562167Y-96877337D01*
X162587121Y-96901561D01*
X162601007Y-96913485D01*
X162603347Y-96912716D01*
X162593664Y-96898860D01*
X162590406Y-96894703D01*
X162566280Y-96866462D01*
X162539776Y-96838681D01*
X162515516Y-96815993D01*
X162498118Y-96803031D01*
X162495366Y-96802707D01*
X162066197Y-96802707D01*
X162046984Y-96777652D01*
X162459004Y-96777652D01*
X162461347Y-96786247D01*
X162463236Y-96788968D01*
X162471625Y-96795440D01*
X162472882Y-96794841D01*
X162470540Y-96786247D01*
X162468651Y-96783526D01*
X162460262Y-96777054D01*
X162459004Y-96777652D01*
X162046984Y-96777652D01*
X162037458Y-96765230D01*
X162022597Y-96751251D01*
X162424332Y-96751251D01*
X162424413Y-96755391D01*
X162435670Y-96762673D01*
X162437414Y-96763328D01*
X162446625Y-96765257D01*
X162440816Y-96757527D01*
X162434057Y-96752282D01*
X162424332Y-96751251D01*
X162022597Y-96751251D01*
X161992028Y-96722495D01*
X162385461Y-96722495D01*
X162387804Y-96731089D01*
X162389692Y-96733811D01*
X162398082Y-96740282D01*
X162399339Y-96739684D01*
X162396997Y-96731089D01*
X162395108Y-96728368D01*
X162386719Y-96721896D01*
X162385461Y-96722495D01*
X161992028Y-96722495D01*
X161968271Y-96700147D01*
X162329676Y-96700147D01*
X162337243Y-96703511D01*
X162342109Y-96702847D01*
X162343371Y-96697382D01*
X162342024Y-96696282D01*
X162331114Y-96697382D01*
X162329676Y-96700147D01*
X161968271Y-96700147D01*
X161963064Y-96695249D01*
X161954548Y-96689721D01*
X162309664Y-96689721D01*
X162314260Y-96694318D01*
X162318857Y-96689721D01*
X162314260Y-96685125D01*
X162309664Y-96689721D01*
X161954548Y-96689721D01*
X161880427Y-96641606D01*
X161867982Y-96634564D01*
X162180963Y-96634564D01*
X162185560Y-96639160D01*
X162190156Y-96634564D01*
X162185560Y-96629967D01*
X162180963Y-96634564D01*
X161867982Y-96634564D01*
X161861178Y-96630714D01*
X161844236Y-96617572D01*
X161844056Y-96615111D01*
X162094934Y-96615111D01*
X162096317Y-96617989D01*
X162112016Y-96618982D01*
X162114871Y-96618922D01*
X162127081Y-96617330D01*
X162123333Y-96614404D01*
X162114004Y-96612926D01*
X162095754Y-96614745D01*
X162094934Y-96615111D01*
X161844056Y-96615111D01*
X161843656Y-96609638D01*
X161848849Y-96607924D01*
X161870237Y-96604930D01*
X161902833Y-96602580D01*
X161941948Y-96601272D01*
X161954970Y-96601061D01*
X161989811Y-96600382D01*
X162007729Y-96599575D01*
X162009863Y-96598330D01*
X161997354Y-96596339D01*
X161971340Y-96593292D01*
X161968923Y-96593014D01*
X161928678Y-96586330D01*
X161905238Y-96577140D01*
X161897153Y-96564469D01*
X161902973Y-96547342D01*
X161905102Y-96544006D01*
X161908971Y-96537597D01*
X161909176Y-96534102D01*
X161903466Y-96534133D01*
X161889591Y-96538302D01*
X161865301Y-96547221D01*
X161828346Y-96561502D01*
X161776475Y-96581758D01*
X161739447Y-96596031D01*
X161636309Y-96634177D01*
X161528681Y-96671899D01*
X161420127Y-96708060D01*
X161314211Y-96741521D01*
X161214498Y-96771147D01*
X161124552Y-96795797D01*
X161047938Y-96814335D01*
X161024541Y-96820212D01*
X161003277Y-96827459D01*
X160995078Y-96833047D01*
X160995352Y-96833749D01*
X160999735Y-96836032D01*
X161006342Y-96839474D01*
X161030173Y-96847085D01*
X161062426Y-96855134D01*
X161087622Y-96860895D01*
X161113195Y-96868523D01*
X161130067Y-96878418D01*
X161143758Y-96894236D01*
X161159784Y-96919632D01*
X161170750Y-96938436D01*
X161208279Y-97012884D01*
X161246210Y-97102867D01*
X161283839Y-97206222D01*
X161320463Y-97320789D01*
X161355378Y-97444404D01*
X161387878Y-97574906D01*
X161417260Y-97710134D01*
X161443203Y-97838835D01*
X159489363Y-97841154D01*
X159313140Y-97841350D01*
X159129512Y-97841524D01*
X158951579Y-97841663D01*
X158780185Y-97841767D01*
X158616177Y-97841837D01*
X158460402Y-97841872D01*
X158313705Y-97841874D01*
X158176932Y-97841842D01*
X158050929Y-97841778D01*
X157936544Y-97841681D01*
X157834621Y-97841553D01*
X157746007Y-97841393D01*
X157671548Y-97841202D01*
X157612091Y-97840980D01*
X157568480Y-97840729D01*
X157541564Y-97840447D01*
X157532187Y-97840137D01*
X157533200Y-97834874D01*
X157540008Y-97815075D01*
X157552073Y-97783309D01*
X157568300Y-97742440D01*
X157587595Y-97695327D01*
X157602599Y-97659086D01*
X157675989Y-97478561D01*
X157743741Y-97306313D01*
X157805100Y-97144327D01*
X157859310Y-96994590D01*
X157905617Y-96859086D01*
X157906169Y-96857412D01*
X157924071Y-96803115D01*
X157940469Y-96753402D01*
X157954299Y-96711493D01*
X157964500Y-96680606D01*
X157965122Y-96678725D01*
X158062653Y-96678725D01*
X158063439Y-96684699D01*
X158071299Y-96709076D01*
X158086062Y-96743777D01*
X158105829Y-96784949D01*
X158128699Y-96828743D01*
X158152773Y-96871308D01*
X158176152Y-96908792D01*
X158178901Y-96912904D01*
X158260752Y-97019100D01*
X158356264Y-97114329D01*
X158465684Y-97198718D01*
X158589258Y-97272398D01*
X158727234Y-97335499D01*
X158879858Y-97388150D01*
X159047378Y-97430481D01*
X159230040Y-97462622D01*
X159244698Y-97464506D01*
X159296813Y-97469335D01*
X159361992Y-97473421D01*
X159436321Y-97476689D01*
X159515884Y-97479063D01*
X159596765Y-97480464D01*
X159675049Y-97480818D01*
X159746819Y-97480047D01*
X159808161Y-97478076D01*
X159855158Y-97474827D01*
X159970270Y-97459769D01*
X160130226Y-97427113D01*
X160282198Y-97382082D01*
X160424792Y-97325333D01*
X160556618Y-97257525D01*
X160676282Y-97179312D01*
X160782393Y-97091354D01*
X160873558Y-96994305D01*
X160888524Y-96975862D01*
X160920617Y-96934768D01*
X160947918Y-96897723D01*
X160968677Y-96867241D01*
X160981147Y-96845839D01*
X160983577Y-96836032D01*
X160975684Y-96836185D01*
X160952349Y-96839381D01*
X160916569Y-96845313D01*
X160871305Y-96853486D01*
X160819517Y-96863407D01*
X160783809Y-96870260D01*
X160622976Y-96897523D01*
X160444918Y-96922303D01*
X160250453Y-96944483D01*
X160235660Y-96945882D01*
X160174726Y-96949977D01*
X160099584Y-96953086D01*
X160013440Y-96955228D01*
X159919497Y-96956418D01*
X159820962Y-96956673D01*
X159721038Y-96956011D01*
X159622932Y-96954448D01*
X159529848Y-96952002D01*
X159444990Y-96948688D01*
X159371565Y-96944525D01*
X159312776Y-96939529D01*
X159118008Y-96915851D01*
X158847614Y-96873141D01*
X158589604Y-96820428D01*
X158345144Y-96757959D01*
X158115400Y-96685981D01*
X158089371Y-96677782D01*
X158069054Y-96674298D01*
X158062653Y-96678725D01*
X157965122Y-96678725D01*
X157970008Y-96663962D01*
X157973351Y-96652311D01*
X157972052Y-96638504D01*
X157958503Y-96629837D01*
X157958466Y-96629822D01*
X157942293Y-96623186D01*
X157913201Y-96611349D01*
X157875305Y-96595979D01*
X157832719Y-96578749D01*
X157793511Y-96562597D01*
X157733300Y-96537032D01*
X157689681Y-96518024D01*
X161942608Y-96518024D01*
X161952896Y-96519512D01*
X161961004Y-96518458D01*
X161974123Y-96510460D01*
X161976023Y-96503689D01*
X161967984Y-96502339D01*
X161951141Y-96510460D01*
X161949291Y-96511669D01*
X161942608Y-96518024D01*
X157689681Y-96518024D01*
X157671502Y-96510102D01*
X157631325Y-96492074D01*
X161997105Y-96492074D01*
X161997210Y-96494154D01*
X162001159Y-96501267D01*
X162002634Y-96500844D01*
X162010894Y-96492074D01*
X162012331Y-96488513D01*
X162006841Y-96482881D01*
X162004172Y-96483234D01*
X161997105Y-96492074D01*
X157631325Y-96492074D01*
X157616685Y-96485505D01*
X157602100Y-96478827D01*
X162033877Y-96478827D01*
X162033966Y-96480112D01*
X162039288Y-96482137D01*
X162048544Y-96472268D01*
X162050781Y-96467130D01*
X162044490Y-96468214D01*
X162040406Y-96471051D01*
X162033877Y-96478827D01*
X157602100Y-96478827D01*
X157594426Y-96475313D01*
X157561804Y-96460441D01*
X162070648Y-96460441D01*
X162070738Y-96461726D01*
X162076059Y-96463751D01*
X162085316Y-96453882D01*
X162087552Y-96448744D01*
X162081262Y-96449828D01*
X162077178Y-96452666D01*
X162070648Y-96460441D01*
X157561804Y-96460441D01*
X157546791Y-96453597D01*
X157520864Y-96442055D01*
X162107420Y-96442055D01*
X162107509Y-96443340D01*
X162112831Y-96445365D01*
X162122087Y-96435496D01*
X162124324Y-96430359D01*
X162118033Y-96431442D01*
X162113949Y-96434280D01*
X162107420Y-96442055D01*
X157520864Y-96442055D01*
X157512829Y-96438478D01*
X157490339Y-96429197D01*
X157477115Y-96424992D01*
X157470954Y-96425104D01*
X157469653Y-96428771D01*
X157471008Y-96435234D01*
X157471111Y-96441293D01*
X157460538Y-96455565D01*
X157433731Y-96472393D01*
X157420311Y-96479867D01*
X157394573Y-96496457D01*
X157377781Y-96510337D01*
X157371254Y-96516839D01*
X157360594Y-96521794D01*
X157344346Y-96520419D01*
X157316584Y-96512968D01*
X157310577Y-96511309D01*
X157274439Y-96504894D01*
X157228097Y-96502253D01*
X157167606Y-96503126D01*
X157126265Y-96505014D01*
X157089524Y-96508238D01*
X157060856Y-96513573D01*
X157034666Y-96522115D01*
X157005357Y-96534962D01*
X156991754Y-96541768D01*
X156982026Y-96546635D01*
X156953842Y-96565075D01*
X156931513Y-96579684D01*
X156905474Y-96596720D01*
X156895535Y-96606118D01*
X156870240Y-96630037D01*
X156837204Y-96661276D01*
X156836921Y-96661544D01*
X156794369Y-96717300D01*
X156775474Y-96742059D01*
X156758005Y-96772789D01*
X156720239Y-96839221D01*
X156703534Y-96874332D01*
X156665892Y-96966070D01*
X156633175Y-97066168D01*
X156630592Y-97076275D01*
X156614265Y-97140174D01*
X156605045Y-97176258D01*
X156587774Y-97264278D01*
X156581460Y-97296453D01*
X156581162Y-97297974D01*
X156575793Y-97334260D01*
X156571932Y-97360349D01*
X156562633Y-97423192D01*
X156561189Y-97432949D01*
X156556005Y-97480311D01*
X156551823Y-97518523D01*
X156545501Y-97576294D01*
X156544787Y-97582814D01*
X156542869Y-97607051D01*
X156539366Y-97651312D01*
X156536165Y-97691748D01*
X156531617Y-97749204D01*
X156530852Y-97760695D01*
X156525343Y-97843431D01*
X156116624Y-97843431D01*
X155707905Y-97843431D01*
X155728440Y-97813554D01*
X155748975Y-97783677D01*
X155715277Y-97815357D01*
X155702313Y-97826623D01*
X155687390Y-97836332D01*
X155681578Y-97835133D01*
X155682186Y-97832082D01*
X155691723Y-97816451D01*
X155709157Y-97797466D01*
X155714978Y-97791781D01*
X155730506Y-97773464D01*
X155736736Y-97760695D01*
X155737358Y-97757790D01*
X155738543Y-97755914D01*
X155757086Y-97755914D01*
X155758186Y-97766823D01*
X155760951Y-97768262D01*
X155764315Y-97760695D01*
X155763651Y-97755828D01*
X155758186Y-97754566D01*
X155757086Y-97755914D01*
X155738543Y-97755914D01*
X155746905Y-97742673D01*
X155764315Y-97723923D01*
X155767862Y-97720446D01*
X155785090Y-97697320D01*
X155786893Y-97691748D01*
X155801086Y-97691748D01*
X155805683Y-97696345D01*
X155810279Y-97691748D01*
X155805683Y-97687152D01*
X155801086Y-97691748D01*
X155786893Y-97691748D01*
X155791893Y-97676300D01*
X155792540Y-97673606D01*
X155812055Y-97673606D01*
X155816195Y-97673525D01*
X155823477Y-97662268D01*
X155824132Y-97660524D01*
X155826061Y-97651312D01*
X155818331Y-97657121D01*
X155813086Y-97663881D01*
X155812055Y-97673606D01*
X155792540Y-97673606D01*
X155795787Y-97660079D01*
X155810279Y-97641187D01*
X155821729Y-97629352D01*
X155825868Y-97618747D01*
X155837858Y-97618747D01*
X155837947Y-97620032D01*
X155843269Y-97622057D01*
X155852525Y-97612188D01*
X155854762Y-97607051D01*
X155848471Y-97608134D01*
X155844387Y-97610972D01*
X155837858Y-97618747D01*
X155825868Y-97618747D01*
X155828665Y-97611579D01*
X155830102Y-97602825D01*
X155837858Y-97595223D01*
X155843201Y-97591775D01*
X155845727Y-97581976D01*
X155856244Y-97581976D01*
X155856483Y-97582893D01*
X155865437Y-97586030D01*
X155867956Y-97585656D01*
X155874630Y-97576294D01*
X155873908Y-97572969D01*
X155865437Y-97572240D01*
X155862686Y-97574127D01*
X155856244Y-97581976D01*
X155845727Y-97581976D01*
X155847051Y-97576837D01*
X155848775Y-97566150D01*
X155856244Y-97558451D01*
X155857221Y-97557943D01*
X155877453Y-97557943D01*
X155884367Y-97552287D01*
X155897508Y-97534337D01*
X155899154Y-97531772D01*
X155905883Y-97518523D01*
X155903211Y-97516463D01*
X155895712Y-97523259D01*
X155883548Y-97540577D01*
X155878746Y-97550421D01*
X155877453Y-97557943D01*
X155857221Y-97557943D01*
X155861164Y-97555894D01*
X155865437Y-97542095D01*
X155869463Y-97529006D01*
X155883822Y-97512486D01*
X155895337Y-97501009D01*
X155902208Y-97484908D01*
X155903782Y-97480311D01*
X155920594Y-97480311D01*
X155925191Y-97484908D01*
X155929787Y-97480311D01*
X155925191Y-97475715D01*
X155920594Y-97480311D01*
X155903782Y-97480311D01*
X155906287Y-97472996D01*
X155920594Y-97457329D01*
X155932044Y-97445494D01*
X155936183Y-97434889D01*
X155948173Y-97434889D01*
X155948262Y-97436174D01*
X155953584Y-97438199D01*
X155962840Y-97428330D01*
X155965077Y-97423192D01*
X155958786Y-97424276D01*
X155954702Y-97427114D01*
X155948173Y-97434889D01*
X155936183Y-97434889D01*
X155938980Y-97427721D01*
X155940417Y-97418966D01*
X155948173Y-97411364D01*
X155953093Y-97408807D01*
X155953614Y-97407125D01*
X155969162Y-97407125D01*
X155970602Y-97410696D01*
X155979972Y-97401765D01*
X155995450Y-97381487D01*
X156003804Y-97369053D01*
X156007685Y-97360349D01*
X156000171Y-97364644D01*
X155989798Y-97374554D01*
X155974926Y-97394521D01*
X155969162Y-97407125D01*
X155953614Y-97407125D01*
X155957366Y-97395008D01*
X155961392Y-97381920D01*
X155975751Y-97365400D01*
X155987319Y-97354223D01*
X155994137Y-97339480D01*
X155994449Y-97337821D01*
X156012523Y-97337821D01*
X156012629Y-97339902D01*
X156016577Y-97347014D01*
X156018052Y-97346591D01*
X156026312Y-97337821D01*
X156027749Y-97334260D01*
X156022259Y-97328628D01*
X156019590Y-97328982D01*
X156012523Y-97337821D01*
X155994449Y-97337821D01*
X155994733Y-97336306D01*
X156004260Y-97320236D01*
X156021716Y-97301050D01*
X156026421Y-97296453D01*
X156049295Y-97296453D01*
X156053891Y-97301050D01*
X156058488Y-97296453D01*
X156053891Y-97291857D01*
X156049295Y-97296453D01*
X156026421Y-97296453D01*
X156027536Y-97295364D01*
X156043065Y-97277047D01*
X156049295Y-97264278D01*
X156049917Y-97261373D01*
X156051102Y-97259497D01*
X156069645Y-97259497D01*
X156070745Y-97270407D01*
X156073510Y-97271845D01*
X156076873Y-97264278D01*
X156076210Y-97259411D01*
X156070745Y-97258149D01*
X156069645Y-97259497D01*
X156051102Y-97259497D01*
X156059464Y-97246256D01*
X156076873Y-97227506D01*
X156082694Y-97221821D01*
X156098222Y-97203504D01*
X156102937Y-97193841D01*
X156123325Y-97193841D01*
X156124734Y-97193956D01*
X156134734Y-97186062D01*
X156149626Y-97168839D01*
X156171818Y-97140174D01*
X156145517Y-97165176D01*
X156139920Y-97170676D01*
X156126636Y-97185931D01*
X156123325Y-97193841D01*
X156102937Y-97193841D01*
X156104452Y-97190735D01*
X156105074Y-97187830D01*
X156114622Y-97172713D01*
X156132031Y-97153963D01*
X156137914Y-97148233D01*
X156153399Y-97130247D01*
X156157651Y-97121891D01*
X156179631Y-97121891D01*
X156181195Y-97122364D01*
X156191658Y-97116325D01*
X156205938Y-97102859D01*
X156218538Y-97087623D01*
X156223960Y-97076275D01*
X156223453Y-97075250D01*
X156215048Y-97079358D01*
X156199585Y-97093095D01*
X156195277Y-97097547D01*
X156182534Y-97113301D01*
X156179631Y-97121891D01*
X156157651Y-97121891D01*
X156159610Y-97118041D01*
X156162618Y-97112996D01*
X156176803Y-97096260D01*
X156200778Y-97070228D01*
X156232494Y-97036949D01*
X156269903Y-96998473D01*
X156310954Y-96956850D01*
X156353599Y-96914127D01*
X156395788Y-96872355D01*
X156435472Y-96833583D01*
X156470602Y-96799860D01*
X156477737Y-96793200D01*
X156501141Y-96793200D01*
X156505989Y-96793539D01*
X156523271Y-96781943D01*
X156532561Y-96772789D01*
X156530750Y-96768153D01*
X156523361Y-96770177D01*
X156508940Y-96781650D01*
X156501141Y-96793200D01*
X156477737Y-96793200D01*
X156499129Y-96773234D01*
X156519003Y-96755757D01*
X156528176Y-96749475D01*
X156530937Y-96748839D01*
X156545570Y-96739282D01*
X156564097Y-96721896D01*
X156568587Y-96717300D01*
X156591676Y-96717300D01*
X156596273Y-96721896D01*
X156600869Y-96717300D01*
X156596273Y-96712704D01*
X156591676Y-96717300D01*
X156568587Y-96717300D01*
X156569783Y-96716076D01*
X156588100Y-96700548D01*
X156600869Y-96694318D01*
X156603774Y-96693696D01*
X156618891Y-96684148D01*
X156632090Y-96671893D01*
X156657790Y-96671893D01*
X156659744Y-96675007D01*
X156674412Y-96666739D01*
X156680878Y-96661276D01*
X156677253Y-96657687D01*
X156674048Y-96657999D01*
X156660623Y-96666739D01*
X156657790Y-96671893D01*
X156632090Y-96671893D01*
X156637641Y-96666739D01*
X156643123Y-96661192D01*
X156652064Y-96654075D01*
X156692798Y-96654075D01*
X156692949Y-96655688D01*
X156698939Y-96655751D01*
X156712357Y-96641459D01*
X156717492Y-96634798D01*
X156719775Y-96630037D01*
X156708886Y-96637988D01*
X156699080Y-96646402D01*
X156692798Y-96654075D01*
X156652064Y-96654075D01*
X156662867Y-96645476D01*
X156678101Y-96639160D01*
X156685292Y-96637977D01*
X156692798Y-96629967D01*
X156695355Y-96625047D01*
X156709155Y-96620774D01*
X156722243Y-96616748D01*
X156722257Y-96616736D01*
X156749719Y-96616736D01*
X156751673Y-96619850D01*
X156766341Y-96611582D01*
X156772807Y-96606118D01*
X156769182Y-96602529D01*
X156765978Y-96602841D01*
X156752552Y-96611582D01*
X156749719Y-96616736D01*
X156722257Y-96616736D01*
X156738763Y-96602389D01*
X156743629Y-96597681D01*
X156787125Y-96597681D01*
X156788041Y-96601536D01*
X156802847Y-96593555D01*
X156809244Y-96588156D01*
X156811051Y-96579684D01*
X156805797Y-96579214D01*
X156794105Y-96588377D01*
X156787125Y-96597681D01*
X156743629Y-96597681D01*
X156750598Y-96590939D01*
X156768371Y-96584003D01*
X156777125Y-96582566D01*
X156784727Y-96574810D01*
X156787343Y-96570756D01*
X156830692Y-96570756D01*
X156830931Y-96571673D01*
X156839885Y-96574810D01*
X156842404Y-96574436D01*
X156849078Y-96565075D01*
X156848356Y-96561749D01*
X156839885Y-96561021D01*
X156837134Y-96562907D01*
X156830692Y-96570756D01*
X156787343Y-96570756D01*
X156788175Y-96569467D01*
X156803113Y-96565617D01*
X156813799Y-96563893D01*
X156821499Y-96556424D01*
X156824105Y-96552385D01*
X156869226Y-96552385D01*
X156871181Y-96555499D01*
X156885849Y-96547231D01*
X156892315Y-96541768D01*
X156888690Y-96538179D01*
X156885485Y-96538491D01*
X156872060Y-96547231D01*
X156869226Y-96552385D01*
X156824105Y-96552385D01*
X156824947Y-96551081D01*
X156839885Y-96547231D01*
X156850571Y-96545507D01*
X156858270Y-96538038D01*
X156858273Y-96537924D01*
X156866485Y-96531508D01*
X156885849Y-96528845D01*
X156886192Y-96528845D01*
X156905440Y-96526107D01*
X156913428Y-96519653D01*
X156913428Y-96519644D01*
X156921958Y-96514930D01*
X156944768Y-96511674D01*
X156977778Y-96510460D01*
X156977841Y-96510460D01*
X157010837Y-96509241D01*
X157033626Y-96505982D01*
X157042129Y-96501267D01*
X157047186Y-96498178D01*
X157067231Y-96495032D01*
X157099063Y-96492890D01*
X157138957Y-96491723D01*
X157183185Y-96491501D01*
X157228020Y-96492196D01*
X157269735Y-96493778D01*
X157304604Y-96496220D01*
X157328899Y-96499492D01*
X157338894Y-96503565D01*
X157346523Y-96507154D01*
X157361423Y-96494372D01*
X157377172Y-96479985D01*
X157390239Y-96473688D01*
X157393505Y-96473222D01*
X157400652Y-96464495D01*
X157406358Y-96458449D01*
X157423634Y-96455302D01*
X157441230Y-96451334D01*
X157446616Y-96436916D01*
X157446538Y-96434331D01*
X157441189Y-96423670D01*
X162144192Y-96423670D01*
X162144281Y-96424955D01*
X162149603Y-96426979D01*
X162158859Y-96417110D01*
X162161096Y-96411973D01*
X162154805Y-96413056D01*
X162150721Y-96415894D01*
X162144192Y-96423670D01*
X157441189Y-96423670D01*
X157440328Y-96421953D01*
X157421067Y-96418531D01*
X157402692Y-96414987D01*
X157388591Y-96404741D01*
X157428231Y-96404741D01*
X157432827Y-96409338D01*
X157436881Y-96405284D01*
X162180963Y-96405284D01*
X162181053Y-96406569D01*
X162186374Y-96408593D01*
X162195630Y-96398724D01*
X162197867Y-96393587D01*
X162195375Y-96394016D01*
X162191577Y-96394670D01*
X162187493Y-96397508D01*
X162181419Y-96404741D01*
X162180963Y-96405284D01*
X157436881Y-96405284D01*
X157437424Y-96404741D01*
X157432827Y-96400145D01*
X157428231Y-96404741D01*
X157388591Y-96404741D01*
X157382266Y-96400145D01*
X157378789Y-96396781D01*
X157402278Y-96396781D01*
X157409845Y-96400145D01*
X157414712Y-96399481D01*
X157415973Y-96394016D01*
X157414626Y-96392916D01*
X157403716Y-96394016D01*
X157402278Y-96396781D01*
X157378789Y-96396781D01*
X157370431Y-96388695D01*
X157365826Y-96386898D01*
X162217735Y-96386898D01*
X162217824Y-96388183D01*
X162223146Y-96390208D01*
X162232402Y-96380339D01*
X162234639Y-96375201D01*
X162228348Y-96376285D01*
X162224264Y-96379122D01*
X162217735Y-96386898D01*
X157365826Y-96386898D01*
X157352658Y-96381759D01*
X157343904Y-96380322D01*
X157336302Y-96372566D01*
X157333686Y-96368512D01*
X162254506Y-96368512D01*
X162254596Y-96369797D01*
X162259917Y-96371822D01*
X162269174Y-96361953D01*
X162271410Y-96356815D01*
X162265120Y-96357899D01*
X162261036Y-96360737D01*
X162254506Y-96368512D01*
X157333686Y-96368512D01*
X157332854Y-96367223D01*
X157317916Y-96363373D01*
X157307229Y-96361649D01*
X157299530Y-96354180D01*
X157296082Y-96348837D01*
X157281144Y-96344987D01*
X162291278Y-96344987D01*
X162291383Y-96347068D01*
X162295332Y-96354180D01*
X162296807Y-96353757D01*
X162305067Y-96344987D01*
X162306504Y-96341426D01*
X162301014Y-96335794D01*
X162298345Y-96336148D01*
X162291278Y-96344987D01*
X157281144Y-96344987D01*
X157270458Y-96343263D01*
X157262758Y-96335794D01*
X157259311Y-96330451D01*
X157244373Y-96326601D01*
X157233686Y-96324878D01*
X157226603Y-96318007D01*
X157274205Y-96318007D01*
X157276548Y-96326601D01*
X157278436Y-96329323D01*
X157286826Y-96335794D01*
X157288083Y-96335196D01*
X157287146Y-96331756D01*
X162320620Y-96331756D01*
X162322574Y-96334870D01*
X162337243Y-96326601D01*
X162343708Y-96321138D01*
X162340083Y-96317549D01*
X162336879Y-96317861D01*
X162323453Y-96326601D01*
X162320620Y-96331756D01*
X157287146Y-96331756D01*
X157285741Y-96326601D01*
X157283852Y-96323880D01*
X157275463Y-96317409D01*
X157274205Y-96318007D01*
X157226603Y-96318007D01*
X157225987Y-96317409D01*
X157223429Y-96312488D01*
X157209630Y-96308216D01*
X157239776Y-96308216D01*
X157241663Y-96310967D01*
X157249512Y-96317409D01*
X157250429Y-96317170D01*
X157253565Y-96308216D01*
X157253191Y-96305696D01*
X157243830Y-96299023D01*
X157240505Y-96299745D01*
X157239776Y-96308216D01*
X157209630Y-96308216D01*
X157196542Y-96304189D01*
X157180022Y-96289830D01*
X157171138Y-96281235D01*
X157209855Y-96281235D01*
X157212197Y-96289830D01*
X157214086Y-96292551D01*
X157222475Y-96299023D01*
X157223733Y-96298424D01*
X157221390Y-96289830D01*
X157219502Y-96287109D01*
X157217070Y-96285233D01*
X162392400Y-96285233D01*
X162396997Y-96289830D01*
X162401593Y-96285233D01*
X162396997Y-96280637D01*
X162392400Y-96285233D01*
X157217070Y-96285233D01*
X157211112Y-96280637D01*
X157209855Y-96281235D01*
X157171138Y-96281235D01*
X157168187Y-96278380D01*
X157162191Y-96276040D01*
X157189215Y-96276040D01*
X157193812Y-96280637D01*
X157197865Y-96276583D01*
X162419979Y-96276583D01*
X162420068Y-96277868D01*
X162425390Y-96279893D01*
X162434646Y-96270024D01*
X162436883Y-96264886D01*
X162430592Y-96265970D01*
X162426508Y-96268808D01*
X162420435Y-96276040D01*
X162419979Y-96276583D01*
X157197865Y-96276583D01*
X157198408Y-96276040D01*
X157193812Y-96271444D01*
X157189215Y-96276040D01*
X157162191Y-96276040D01*
X157150414Y-96271444D01*
X157141660Y-96270007D01*
X157134058Y-96262251D01*
X157131500Y-96257331D01*
X157117701Y-96253058D01*
X157104613Y-96249031D01*
X157099359Y-96244464D01*
X157145504Y-96244464D01*
X157147847Y-96253058D01*
X157149736Y-96255780D01*
X157158125Y-96262251D01*
X157159382Y-96261653D01*
X157157040Y-96253058D01*
X157155151Y-96250337D01*
X157153995Y-96249445D01*
X162456750Y-96249445D01*
X162459298Y-96252870D01*
X162469835Y-96251591D01*
X162479668Y-96243971D01*
X162480507Y-96239715D01*
X162471017Y-96240358D01*
X162463961Y-96243541D01*
X162456750Y-96249445D01*
X157153995Y-96249445D01*
X157146762Y-96243865D01*
X157145504Y-96244464D01*
X157099359Y-96244464D01*
X157088093Y-96234672D01*
X157083342Y-96230076D01*
X157106479Y-96230076D01*
X157111075Y-96234672D01*
X157115672Y-96230076D01*
X157111075Y-96225480D01*
X157106479Y-96230076D01*
X157083342Y-96230076D01*
X157076258Y-96223223D01*
X157071653Y-96221426D01*
X162511908Y-96221426D01*
X162511997Y-96222711D01*
X162517319Y-96224735D01*
X162526575Y-96214866D01*
X162528812Y-96209729D01*
X162522521Y-96210812D01*
X162518437Y-96213650D01*
X162511908Y-96221426D01*
X157071653Y-96221426D01*
X157058485Y-96216287D01*
X157049731Y-96214849D01*
X157042129Y-96207094D01*
X157039571Y-96202173D01*
X157025772Y-96197901D01*
X157012684Y-96193874D01*
X157007429Y-96189306D01*
X157053575Y-96189306D01*
X157055918Y-96197901D01*
X157057807Y-96200622D01*
X157066196Y-96207094D01*
X157067453Y-96206495D01*
X157065111Y-96197901D01*
X157063857Y-96196094D01*
X162548736Y-96196094D01*
X162555215Y-96197901D01*
X162563422Y-96194720D01*
X162577431Y-96181813D01*
X162583569Y-96173766D01*
X162584164Y-96170565D01*
X162571662Y-96179212D01*
X162563055Y-96185492D01*
X162559023Y-96188434D01*
X162549446Y-96195299D01*
X162548736Y-96196094D01*
X157063857Y-96196094D01*
X157063222Y-96195180D01*
X157054833Y-96188708D01*
X157053575Y-96189306D01*
X157007429Y-96189306D01*
X156996164Y-96179515D01*
X156984687Y-96168001D01*
X156968585Y-96161129D01*
X156965655Y-96160126D01*
X157000141Y-96160126D01*
X157007919Y-96168235D01*
X157022383Y-96178542D01*
X157036057Y-96185666D01*
X157042129Y-96185492D01*
X157042116Y-96185356D01*
X157034779Y-96177907D01*
X157018014Y-96165829D01*
X157015450Y-96164184D01*
X157002201Y-96157455D01*
X157000141Y-96160126D01*
X156965655Y-96160126D01*
X156956743Y-96157075D01*
X162613030Y-96157075D01*
X162613119Y-96158360D01*
X162618441Y-96160385D01*
X162627697Y-96150516D01*
X162629934Y-96145378D01*
X162623643Y-96146462D01*
X162619559Y-96149300D01*
X162613030Y-96157075D01*
X156956743Y-96157075D01*
X156956673Y-96157051D01*
X156941007Y-96142743D01*
X156929530Y-96131229D01*
X156913428Y-96124358D01*
X156901516Y-96120279D01*
X156896725Y-96115904D01*
X156941194Y-96115904D01*
X156949027Y-96126656D01*
X156958434Y-96136231D01*
X156971243Y-96142743D01*
X156973991Y-96142619D01*
X156977012Y-96140142D01*
X156970294Y-96135347D01*
X156954796Y-96124054D01*
X156948810Y-96119761D01*
X162668187Y-96119761D01*
X162672784Y-96124358D01*
X162677380Y-96119761D01*
X162672784Y-96115165D01*
X162668187Y-96119761D01*
X156948810Y-96119761D01*
X156945537Y-96117414D01*
X156941194Y-96115904D01*
X156896725Y-96115904D01*
X156885849Y-96105972D01*
X156881267Y-96101375D01*
X156913428Y-96101375D01*
X156918024Y-96105972D01*
X156922621Y-96101375D01*
X156918024Y-96096779D01*
X156913428Y-96101375D01*
X156881267Y-96101375D01*
X156874372Y-96094458D01*
X156869039Y-96092182D01*
X156895042Y-96092182D01*
X156899639Y-96096779D01*
X156904235Y-96092182D01*
X156899639Y-96087586D01*
X156895042Y-96092182D01*
X156869039Y-96092182D01*
X156858270Y-96087586D01*
X156846432Y-96083532D01*
X162723345Y-96083532D01*
X162723434Y-96084817D01*
X162728756Y-96086842D01*
X162738012Y-96076973D01*
X162740249Y-96071835D01*
X162733958Y-96072919D01*
X162729874Y-96075756D01*
X162723345Y-96083532D01*
X156846432Y-96083532D01*
X156846359Y-96083507D01*
X156830692Y-96069200D01*
X156819515Y-96057633D01*
X156804772Y-96050814D01*
X156801598Y-96050218D01*
X156788112Y-96042224D01*
X156830762Y-96042224D01*
X156838712Y-96053113D01*
X156841578Y-96056672D01*
X156853799Y-96068481D01*
X156858270Y-96065729D01*
X156854915Y-96060982D01*
X156842183Y-96049642D01*
X156839201Y-96047343D01*
X162778502Y-96047343D01*
X162778653Y-96048957D01*
X162784643Y-96049019D01*
X162798061Y-96034727D01*
X162803196Y-96028066D01*
X162805479Y-96023305D01*
X162800219Y-96027146D01*
X162794590Y-96031256D01*
X162784784Y-96039670D01*
X162778502Y-96047343D01*
X156839201Y-96047343D01*
X156835522Y-96044506D01*
X156830762Y-96042224D01*
X156788112Y-96042224D01*
X156785527Y-96040692D01*
X156766456Y-96023341D01*
X156789389Y-96023341D01*
X156791190Y-96025752D01*
X156803656Y-96032428D01*
X156808811Y-96031943D01*
X156810979Y-96027146D01*
X156798039Y-96019728D01*
X156790868Y-96018117D01*
X156789389Y-96023341D01*
X156766456Y-96023341D01*
X156766341Y-96023236D01*
X156760745Y-96017538D01*
X156752113Y-96010430D01*
X162824467Y-96010430D01*
X162827015Y-96013855D01*
X162837551Y-96012576D01*
X162847384Y-96004955D01*
X162848223Y-96000700D01*
X162838733Y-96001342D01*
X162831678Y-96004526D01*
X162824467Y-96010430D01*
X156752113Y-96010430D01*
X156741785Y-96001925D01*
X156727911Y-95995657D01*
X156716970Y-95991535D01*
X156701991Y-95977271D01*
X156690848Y-95965698D01*
X156676259Y-95958885D01*
X156668416Y-95955864D01*
X156650157Y-95942512D01*
X156628448Y-95922114D01*
X156613471Y-95907450D01*
X156613130Y-95907167D01*
X156638923Y-95907167D01*
X156650557Y-95920776D01*
X156664803Y-95934271D01*
X156676380Y-95940499D01*
X156678648Y-95940270D01*
X156680075Y-95935903D01*
X156688202Y-95935903D01*
X156705714Y-95956587D01*
X156720416Y-95970886D01*
X156732527Y-95977271D01*
X156735039Y-95977169D01*
X156737997Y-95974875D01*
X156737857Y-95974785D01*
X156728244Y-95967582D01*
X156712561Y-95955272D01*
X162898010Y-95955272D01*
X162900558Y-95958697D01*
X162911095Y-95957418D01*
X162920927Y-95949798D01*
X162921766Y-95945542D01*
X162912277Y-95946185D01*
X162905221Y-95949368D01*
X162898010Y-95955272D01*
X156712561Y-95955272D01*
X156711184Y-95954191D01*
X156688202Y-95935903D01*
X156680075Y-95935903D01*
X156680581Y-95934354D01*
X156671017Y-95923453D01*
X156653216Y-95911632D01*
X156640152Y-95905126D01*
X156638923Y-95907167D01*
X156613130Y-95907167D01*
X156604645Y-95900115D01*
X162971553Y-95900115D01*
X162974101Y-95903540D01*
X162984638Y-95902261D01*
X162994470Y-95894640D01*
X162995310Y-95890385D01*
X162985820Y-95891027D01*
X162978764Y-95894211D01*
X162971553Y-95900115D01*
X156604645Y-95900115D01*
X156594312Y-95891528D01*
X156582483Y-95885342D01*
X156575295Y-95882274D01*
X156562005Y-95872095D01*
X163008325Y-95872095D01*
X163008414Y-95873380D01*
X163013736Y-95875405D01*
X163022992Y-95865536D01*
X163025229Y-95860398D01*
X163018938Y-95861482D01*
X163014854Y-95864320D01*
X163013726Y-95865663D01*
X163008325Y-95872095D01*
X156562005Y-95872095D01*
X156557860Y-95868920D01*
X156536519Y-95848570D01*
X156529276Y-95841470D01*
X156555468Y-95841470D01*
X156562925Y-95851662D01*
X156571860Y-95860625D01*
X156583609Y-95866956D01*
X156590357Y-95865663D01*
X156588278Y-95858770D01*
X156570992Y-95847389D01*
X156563051Y-95843318D01*
X163048916Y-95843318D01*
X163052621Y-95848570D01*
X163061230Y-95845574D01*
X163070506Y-95834961D01*
X163070309Y-95824754D01*
X163065715Y-95824922D01*
X163054474Y-95834559D01*
X163048916Y-95843318D01*
X156563051Y-95843318D01*
X156560769Y-95842148D01*
X156555468Y-95841470D01*
X156529276Y-95841470D01*
X156521547Y-95833894D01*
X156502472Y-95817981D01*
X156499469Y-95816395D01*
X163081868Y-95816395D01*
X163086464Y-95820992D01*
X163091061Y-95816395D01*
X163086464Y-95811799D01*
X163081868Y-95816395D01*
X156499469Y-95816395D01*
X156490766Y-95811799D01*
X156488365Y-95811072D01*
X156474134Y-95801116D01*
X156452194Y-95781930D01*
X156426204Y-95756641D01*
X156417259Y-95747661D01*
X156404104Y-95735207D01*
X156430800Y-95735207D01*
X156457801Y-95764310D01*
X156464923Y-95771721D01*
X156481952Y-95787235D01*
X156492274Y-95793413D01*
X156496153Y-95793129D01*
X156498546Y-95789186D01*
X156488791Y-95779061D01*
X156468674Y-95763444D01*
X163148016Y-95763444D01*
X163151332Y-95764605D01*
X163164371Y-95755769D01*
X163185143Y-95737664D01*
X163195075Y-95727838D01*
X163202418Y-95718002D01*
X163196677Y-95718427D01*
X163180812Y-95728608D01*
X163160778Y-95746597D01*
X163156414Y-95751554D01*
X163148016Y-95763444D01*
X156468674Y-95763444D01*
X156465274Y-95760805D01*
X156430800Y-95735207D01*
X156404104Y-95735207D01*
X156392358Y-95724087D01*
X156372838Y-95707655D01*
X156362312Y-95701484D01*
X156357777Y-95698711D01*
X156344919Y-95687694D01*
X163228955Y-95687694D01*
X163233551Y-95692291D01*
X163238147Y-95687694D01*
X163233551Y-95683098D01*
X163228955Y-95687694D01*
X156344919Y-95687694D01*
X156341503Y-95684767D01*
X156315593Y-95660775D01*
X156281951Y-95628637D01*
X156264726Y-95611889D01*
X156293270Y-95611889D01*
X156300005Y-95620798D01*
X156318844Y-95639979D01*
X156341816Y-95661596D01*
X156359806Y-95677159D01*
X156368709Y-95683098D01*
X156368812Y-95679243D01*
X156359056Y-95666913D01*
X156342174Y-95649753D01*
X156321934Y-95631552D01*
X156302100Y-95616098D01*
X156299314Y-95614212D01*
X156293270Y-95611889D01*
X156264726Y-95611889D01*
X156262326Y-95609555D01*
X163323624Y-95609555D01*
X163329956Y-95605532D01*
X163347266Y-95590564D01*
X163372795Y-95566785D01*
X163404156Y-95536589D01*
X163438961Y-95502365D01*
X163474820Y-95466508D01*
X163509346Y-95431409D01*
X163540149Y-95399460D01*
X163564841Y-95373054D01*
X163581034Y-95354582D01*
X163586339Y-95346437D01*
X163585515Y-95346253D01*
X163575109Y-95353536D01*
X163554466Y-95371761D01*
X163550894Y-95375136D01*
X163531437Y-95393521D01*
X163525517Y-95399115D01*
X163490196Y-95433785D01*
X163466355Y-95457872D01*
X163450433Y-95473959D01*
X163438672Y-95486022D01*
X163400649Y-95525359D01*
X163377381Y-95549801D01*
X163368332Y-95559306D01*
X163343522Y-95585939D01*
X163342957Y-95586573D01*
X163328019Y-95603330D01*
X163323624Y-95609555D01*
X156262326Y-95609555D01*
X156242480Y-95590258D01*
X156238737Y-95586573D01*
X156260732Y-95586573D01*
X156265328Y-95591169D01*
X156269924Y-95586573D01*
X156265328Y-95581976D01*
X156260732Y-95586573D01*
X156238737Y-95586573D01*
X156201381Y-95549801D01*
X156223960Y-95549801D01*
X156228556Y-95554397D01*
X156233153Y-95549801D01*
X156228556Y-95545204D01*
X156223960Y-95549801D01*
X156201381Y-95549801D01*
X156199084Y-95547540D01*
X156153665Y-95502388D01*
X156109290Y-95457872D01*
X156132031Y-95457872D01*
X156136627Y-95462468D01*
X156141224Y-95457872D01*
X156136627Y-95453275D01*
X156132031Y-95457872D01*
X156109290Y-95457872D01*
X156108127Y-95456705D01*
X156064373Y-95412395D01*
X156045944Y-95393521D01*
X156067681Y-95393521D01*
X156072277Y-95398118D01*
X156076873Y-95393521D01*
X156072277Y-95388925D01*
X156067681Y-95393521D01*
X156045944Y-95393521D01*
X156027992Y-95375136D01*
X156049295Y-95375136D01*
X156053891Y-95379732D01*
X156058488Y-95375136D01*
X156053891Y-95370539D01*
X156049295Y-95375136D01*
X156027992Y-95375136D01*
X156024307Y-95371362D01*
X155989831Y-95335508D01*
X155962849Y-95306738D01*
X155945264Y-95286956D01*
X155938980Y-95278064D01*
X155938972Y-95277878D01*
X155932414Y-95266616D01*
X155915942Y-95247105D01*
X155902813Y-95233561D01*
X155932972Y-95233561D01*
X155938153Y-95244794D01*
X155949332Y-95264721D01*
X155956540Y-95275411D01*
X155979784Y-95302380D01*
X156006477Y-95326773D01*
X156022669Y-95339226D01*
X156030655Y-95344204D01*
X156028338Y-95339292D01*
X156015071Y-95323215D01*
X156012249Y-95319978D01*
X163596671Y-95319978D01*
X163601267Y-95324575D01*
X163605864Y-95319978D01*
X163601267Y-95315382D01*
X163596671Y-95319978D01*
X156012249Y-95319978D01*
X155990207Y-95294698D01*
X155978222Y-95281124D01*
X155959440Y-95260224D01*
X163663869Y-95260224D01*
X163668509Y-95257684D01*
X163680519Y-95245682D01*
X163692410Y-95230551D01*
X163697793Y-95219888D01*
X163697659Y-95218407D01*
X163691921Y-95216988D01*
X163689737Y-95218856D01*
X163681113Y-95226234D01*
X163669940Y-95242351D01*
X163664760Y-95253452D01*
X163663869Y-95260224D01*
X155959440Y-95260224D01*
X155955881Y-95256263D01*
X155939873Y-95239068D01*
X155933061Y-95232646D01*
X155932972Y-95233561D01*
X155902813Y-95233561D01*
X155893015Y-95223453D01*
X155892242Y-95222698D01*
X155888547Y-95218856D01*
X155911401Y-95218856D01*
X155915998Y-95223453D01*
X155920594Y-95218856D01*
X155915998Y-95214260D01*
X155911401Y-95218856D01*
X155888547Y-95218856D01*
X155869447Y-95198999D01*
X155853228Y-95179434D01*
X155847051Y-95168171D01*
X155843979Y-95161027D01*
X155836594Y-95151415D01*
X155857262Y-95151415D01*
X155863430Y-95164455D01*
X155871892Y-95177458D01*
X155889422Y-95196630D01*
X155896605Y-95202363D01*
X155901190Y-95203561D01*
X155895022Y-95190521D01*
X155886560Y-95177519D01*
X155869030Y-95158346D01*
X155861846Y-95152613D01*
X155857262Y-95151415D01*
X155836594Y-95151415D01*
X155830626Y-95143647D01*
X155823441Y-95136120D01*
X155847051Y-95136120D01*
X155851647Y-95140717D01*
X155856244Y-95136120D01*
X155851647Y-95131524D01*
X155847051Y-95136120D01*
X155823441Y-95136120D01*
X155814560Y-95126816D01*
X163764541Y-95126816D01*
X163765457Y-95130671D01*
X163780263Y-95122690D01*
X163786660Y-95117291D01*
X163788467Y-95108819D01*
X163783213Y-95108349D01*
X163771520Y-95117512D01*
X163764541Y-95126816D01*
X155814560Y-95126816D01*
X155810279Y-95122331D01*
X155795626Y-95107351D01*
X155779697Y-95088116D01*
X155773508Y-95076179D01*
X155772882Y-95073305D01*
X155770809Y-95070047D01*
X155794269Y-95070047D01*
X155800812Y-95085047D01*
X155808104Y-95096391D01*
X155820475Y-95109161D01*
X155821472Y-95109694D01*
X155822736Y-95105814D01*
X155814772Y-95091287D01*
X155807027Y-95080128D01*
X155797000Y-95068702D01*
X155794269Y-95070047D01*
X155770809Y-95070047D01*
X155763333Y-95058295D01*
X155763040Y-95057980D01*
X163829342Y-95057980D01*
X163833982Y-95055440D01*
X163845991Y-95043438D01*
X163857882Y-95028307D01*
X163863265Y-95017644D01*
X163863132Y-95016163D01*
X163857393Y-95014744D01*
X163851178Y-95020061D01*
X163846585Y-95023990D01*
X163835412Y-95040107D01*
X163830232Y-95051208D01*
X163829342Y-95057980D01*
X155763040Y-95057980D01*
X155745929Y-95039595D01*
X155740108Y-95033909D01*
X155724580Y-95015592D01*
X155718350Y-95002823D01*
X155718262Y-95002414D01*
X155737527Y-95002414D01*
X155744788Y-95014467D01*
X155745999Y-95015655D01*
X155752733Y-95020061D01*
X155749934Y-95009321D01*
X155745350Y-95000742D01*
X155742646Y-94999651D01*
X163863265Y-94999651D01*
X163863722Y-95002017D01*
X163870821Y-94999509D01*
X163887121Y-94982139D01*
X163904633Y-94961455D01*
X163883949Y-94978967D01*
X163869465Y-94992144D01*
X163863265Y-94999651D01*
X155742646Y-94999651D01*
X155738511Y-94997983D01*
X155737527Y-95002414D01*
X155718262Y-95002414D01*
X155717728Y-94999918D01*
X155708181Y-94984801D01*
X155690771Y-94966051D01*
X155685074Y-94960455D01*
X155669461Y-94941495D01*
X155663758Y-94928871D01*
X155682369Y-94928871D01*
X155689631Y-94940924D01*
X155690841Y-94942112D01*
X155697576Y-94946518D01*
X155694777Y-94935778D01*
X155690192Y-94927199D01*
X155683354Y-94924440D01*
X155682369Y-94928871D01*
X155663758Y-94928871D01*
X155663193Y-94927621D01*
X155659071Y-94916680D01*
X155649184Y-94906297D01*
X163936808Y-94906297D01*
X163941405Y-94910894D01*
X163946001Y-94906297D01*
X163941405Y-94901701D01*
X163936808Y-94906297D01*
X155649184Y-94906297D01*
X155644807Y-94901701D01*
X155633293Y-94890224D01*
X155626677Y-94874721D01*
X155647061Y-94874721D01*
X155649403Y-94883315D01*
X155651292Y-94886036D01*
X155659681Y-94892508D01*
X155660939Y-94891910D01*
X155659849Y-94887912D01*
X163946001Y-94887912D01*
X163950000Y-94891910D01*
X163950598Y-94892508D01*
X163955194Y-94887912D01*
X163950598Y-94883315D01*
X163946001Y-94887912D01*
X155659849Y-94887912D01*
X155658596Y-94883315D01*
X155656708Y-94880594D01*
X155648318Y-94874122D01*
X155647061Y-94874721D01*
X155626677Y-94874721D01*
X155626421Y-94874122D01*
X155622343Y-94862210D01*
X155621124Y-94860875D01*
X163964387Y-94860875D01*
X163964477Y-94862161D01*
X163969798Y-94864185D01*
X163979054Y-94854316D01*
X163981291Y-94849179D01*
X163975000Y-94850262D01*
X163970917Y-94853100D01*
X163964387Y-94860875D01*
X155621124Y-94860875D01*
X155608035Y-94846544D01*
X155596521Y-94835067D01*
X155589649Y-94818965D01*
X155585571Y-94807053D01*
X155571264Y-94791386D01*
X155559749Y-94779909D01*
X155552878Y-94763807D01*
X155548799Y-94751896D01*
X155534492Y-94736229D01*
X155529880Y-94731632D01*
X164056316Y-94731632D01*
X164060913Y-94736229D01*
X164065509Y-94731632D01*
X164060913Y-94727036D01*
X164056316Y-94731632D01*
X155529880Y-94731632D01*
X155522978Y-94724752D01*
X155516106Y-94708650D01*
X155512028Y-94696738D01*
X155499720Y-94683261D01*
X164087684Y-94683261D01*
X164089296Y-94689964D01*
X164098062Y-94680460D01*
X164099903Y-94676753D01*
X164099740Y-94666274D01*
X164096683Y-94666067D01*
X164089915Y-94676078D01*
X164087684Y-94683261D01*
X155499720Y-94683261D01*
X155497720Y-94681071D01*
X155486206Y-94669594D01*
X155481296Y-94658089D01*
X155497720Y-94658089D01*
X155502317Y-94662685D01*
X155506913Y-94658089D01*
X155502317Y-94653493D01*
X155497720Y-94658089D01*
X155481296Y-94658089D01*
X155479335Y-94653493D01*
X155475860Y-94643345D01*
X164117099Y-94643345D01*
X164122472Y-94638973D01*
X164135990Y-94619019D01*
X164149475Y-94598024D01*
X164160310Y-94582248D01*
X164163546Y-94576418D01*
X164160862Y-94570832D01*
X164157656Y-94572453D01*
X164152827Y-94578127D01*
X164146473Y-94585592D01*
X164132921Y-94607604D01*
X164131902Y-94609489D01*
X164124681Y-94624039D01*
X164120149Y-94633172D01*
X164117099Y-94643345D01*
X155475860Y-94643345D01*
X155475256Y-94641581D01*
X155460949Y-94625914D01*
X155449499Y-94614079D01*
X155442563Y-94596306D01*
X155442246Y-94594376D01*
X155461844Y-94594376D01*
X155463057Y-94601192D01*
X155474014Y-94614642D01*
X155483312Y-94623333D01*
X155486262Y-94624039D01*
X155478412Y-94610244D01*
X155469117Y-94597806D01*
X155461844Y-94594376D01*
X155442246Y-94594376D01*
X155441126Y-94587551D01*
X155433370Y-94579949D01*
X155428027Y-94576502D01*
X155424177Y-94561563D01*
X155423112Y-94554961D01*
X155436969Y-94554961D01*
X155442563Y-94566160D01*
X155449509Y-94573870D01*
X155457189Y-94579949D01*
X155458066Y-94578127D01*
X155455080Y-94566160D01*
X155451517Y-94559713D01*
X155440454Y-94552371D01*
X164170024Y-94552371D01*
X164172392Y-94551593D01*
X164182103Y-94542269D01*
X164190947Y-94529046D01*
X164192873Y-94520391D01*
X164187795Y-94521991D01*
X164178523Y-94533386D01*
X164177696Y-94534403D01*
X164171371Y-94545840D01*
X164170024Y-94552371D01*
X155440454Y-94552371D01*
X155436969Y-94554961D01*
X155423112Y-94554961D01*
X155422453Y-94550877D01*
X155414984Y-94543178D01*
X155410064Y-94540620D01*
X155405791Y-94526821D01*
X155402523Y-94516197D01*
X155417238Y-94516197D01*
X155419581Y-94524792D01*
X155421469Y-94527513D01*
X155429859Y-94533985D01*
X155431116Y-94533386D01*
X155428774Y-94524792D01*
X155426885Y-94522071D01*
X155418496Y-94515599D01*
X155417238Y-94516197D01*
X155402523Y-94516197D01*
X155401765Y-94513733D01*
X155389347Y-94499447D01*
X164197878Y-94499447D01*
X164197969Y-94506406D01*
X164201717Y-94504033D01*
X164212595Y-94492617D01*
X164217749Y-94484293D01*
X164214705Y-94478827D01*
X164209723Y-94480437D01*
X164200078Y-94492617D01*
X164197878Y-94499447D01*
X155389347Y-94499447D01*
X155387405Y-94497213D01*
X155375956Y-94485378D01*
X155369020Y-94467605D01*
X155368568Y-94464853D01*
X155389370Y-94464853D01*
X155390470Y-94475763D01*
X155393235Y-94477201D01*
X155396598Y-94469634D01*
X155395935Y-94464768D01*
X155390470Y-94463506D01*
X155389370Y-94464853D01*
X155368568Y-94464853D01*
X155367582Y-94458851D01*
X155365069Y-94456388D01*
X164221788Y-94456388D01*
X164221878Y-94457673D01*
X164227199Y-94459697D01*
X164236456Y-94449828D01*
X164238692Y-94444691D01*
X164232402Y-94445774D01*
X164228318Y-94448612D01*
X164221788Y-94456388D01*
X155365069Y-94456388D01*
X155359827Y-94451249D01*
X155354484Y-94447801D01*
X155350634Y-94432863D01*
X155364423Y-94432863D01*
X155366310Y-94435614D01*
X155374159Y-94442056D01*
X155375076Y-94441817D01*
X155378213Y-94432863D01*
X155377838Y-94430343D01*
X155368477Y-94423670D01*
X155365152Y-94424392D01*
X155364423Y-94432863D01*
X155350634Y-94432863D01*
X155348910Y-94422176D01*
X155346426Y-94419616D01*
X164240174Y-94419616D01*
X164240264Y-94420901D01*
X164245585Y-94422926D01*
X164254841Y-94413057D01*
X164257078Y-94407919D01*
X164250788Y-94409003D01*
X164246704Y-94411840D01*
X164240174Y-94419616D01*
X155346426Y-94419616D01*
X155341441Y-94414477D01*
X155336098Y-94411029D01*
X155332248Y-94396091D01*
X155330862Y-94387497D01*
X155343695Y-94387497D01*
X155346037Y-94396091D01*
X155347926Y-94398812D01*
X155356315Y-94405284D01*
X155357573Y-94404686D01*
X155355230Y-94396091D01*
X155353342Y-94393370D01*
X155344952Y-94386898D01*
X155343695Y-94387497D01*
X155330862Y-94387497D01*
X155330524Y-94385405D01*
X155323055Y-94377705D01*
X155317712Y-94374258D01*
X155313862Y-94359320D01*
X155312475Y-94350725D01*
X155325309Y-94350725D01*
X155327652Y-94359320D01*
X155329540Y-94362041D01*
X155337930Y-94368512D01*
X155339187Y-94367914D01*
X155336845Y-94359320D01*
X155334956Y-94356598D01*
X155326567Y-94350127D01*
X155325309Y-94350725D01*
X155312475Y-94350725D01*
X155312138Y-94348633D01*
X155304669Y-94340934D01*
X155299326Y-94337486D01*
X155295476Y-94322548D01*
X155294735Y-94317951D01*
X155304669Y-94317951D01*
X155309266Y-94322548D01*
X155313862Y-94317951D01*
X155309266Y-94313355D01*
X155304669Y-94317951D01*
X155294735Y-94317951D01*
X155293753Y-94311862D01*
X155286284Y-94304162D01*
X155280940Y-94300714D01*
X155277091Y-94285776D01*
X155276350Y-94281180D01*
X155286284Y-94281180D01*
X155290880Y-94285776D01*
X155295476Y-94281180D01*
X155290880Y-94276583D01*
X155286284Y-94281180D01*
X155276350Y-94281180D01*
X155275367Y-94275090D01*
X155267898Y-94267390D01*
X155262555Y-94263943D01*
X155258705Y-94249005D01*
X155257963Y-94244408D01*
X155267898Y-94244408D01*
X155272494Y-94249005D01*
X155277091Y-94244408D01*
X155272494Y-94239812D01*
X155267898Y-94244408D01*
X155257963Y-94244408D01*
X155256981Y-94238318D01*
X155249512Y-94230619D01*
X155244169Y-94227171D01*
X155240319Y-94212233D01*
X155239578Y-94207637D01*
X155249512Y-94207637D01*
X155254108Y-94212233D01*
X155258705Y-94207637D01*
X155254108Y-94203040D01*
X155249512Y-94207637D01*
X155239578Y-94207637D01*
X155238595Y-94201547D01*
X155231126Y-94193847D01*
X155225783Y-94190400D01*
X155221933Y-94175461D01*
X155220547Y-94166867D01*
X155233380Y-94166867D01*
X155235723Y-94175461D01*
X155237611Y-94178183D01*
X155246001Y-94184654D01*
X155247258Y-94184056D01*
X155244915Y-94175461D01*
X155243027Y-94172740D01*
X155234637Y-94166269D01*
X155233380Y-94166867D01*
X155220547Y-94166867D01*
X155220209Y-94164775D01*
X155212740Y-94157076D01*
X155207397Y-94153628D01*
X155203547Y-94138690D01*
X155202161Y-94130095D01*
X155214994Y-94130095D01*
X155217337Y-94138690D01*
X155219225Y-94141411D01*
X155227615Y-94147883D01*
X155228872Y-94147284D01*
X155226530Y-94138690D01*
X155224641Y-94135969D01*
X155216252Y-94129497D01*
X155214994Y-94130095D01*
X155202161Y-94130095D01*
X155201824Y-94128003D01*
X155194354Y-94120304D01*
X155194240Y-94120302D01*
X155187824Y-94112089D01*
X155185244Y-94093324D01*
X155196608Y-94093324D01*
X155198951Y-94101918D01*
X155200840Y-94104639D01*
X155209229Y-94111111D01*
X155210486Y-94110513D01*
X155208144Y-94101918D01*
X155206255Y-94099197D01*
X155197866Y-94092725D01*
X155196608Y-94093324D01*
X155185244Y-94093324D01*
X155185162Y-94092725D01*
X155185161Y-94092382D01*
X155182423Y-94073135D01*
X155175969Y-94065147D01*
X155170625Y-94061699D01*
X155166776Y-94046761D01*
X155165052Y-94036074D01*
X155157583Y-94028375D01*
X155152240Y-94024927D01*
X155148390Y-94009989D01*
X155147649Y-94005393D01*
X155157583Y-94005393D01*
X155162179Y-94009989D01*
X155166776Y-94005393D01*
X155162179Y-94000796D01*
X155157583Y-94005393D01*
X155147649Y-94005393D01*
X155146666Y-93999303D01*
X155139197Y-93991603D01*
X155139083Y-93991601D01*
X155132667Y-93983388D01*
X155131268Y-93973217D01*
X155143793Y-93973217D01*
X155145680Y-93975969D01*
X155153529Y-93982410D01*
X155154446Y-93982171D01*
X155157583Y-93973217D01*
X155157209Y-93970698D01*
X155147847Y-93964025D01*
X155144522Y-93964746D01*
X155143793Y-93973217D01*
X155131268Y-93973217D01*
X155130004Y-93964025D01*
X155130003Y-93963681D01*
X155128091Y-93950235D01*
X155139197Y-93950235D01*
X155143793Y-93954832D01*
X155148390Y-93950235D01*
X155143793Y-93945639D01*
X155139197Y-93950235D01*
X155128091Y-93950235D01*
X155127266Y-93944434D01*
X155120811Y-93936446D01*
X155115468Y-93932998D01*
X155111618Y-93918060D01*
X155110877Y-93913464D01*
X155120811Y-93913464D01*
X155125408Y-93918060D01*
X155130004Y-93913464D01*
X155125408Y-93908867D01*
X155120811Y-93913464D01*
X155110877Y-93913464D01*
X155109894Y-93907374D01*
X155102425Y-93899674D01*
X155102311Y-93899672D01*
X155095895Y-93891459D01*
X155093232Y-93872096D01*
X155093232Y-93871752D01*
X155093126Y-93871010D01*
X155102425Y-93871010D01*
X155102769Y-93873707D01*
X155111618Y-93885885D01*
X155115147Y-93887358D01*
X155120811Y-93882373D01*
X155120468Y-93879677D01*
X155111618Y-93867499D01*
X155108089Y-93866026D01*
X155102425Y-93871010D01*
X155093126Y-93871010D01*
X155090494Y-93852505D01*
X155084040Y-93844517D01*
X155083925Y-93844515D01*
X155077509Y-93836302D01*
X155075479Y-93821535D01*
X155084040Y-93821535D01*
X155088636Y-93826131D01*
X155093232Y-93821535D01*
X155088636Y-93816938D01*
X155084040Y-93821535D01*
X155075479Y-93821535D01*
X155074847Y-93816938D01*
X155074846Y-93816595D01*
X155072108Y-93797348D01*
X155065654Y-93789359D01*
X155065539Y-93789357D01*
X155059124Y-93781145D01*
X155056461Y-93761781D01*
X155056460Y-93761438D01*
X155053723Y-93742190D01*
X155047268Y-93734202D01*
X155041925Y-93730754D01*
X155038075Y-93715816D01*
X155036351Y-93705130D01*
X155028882Y-93697430D01*
X155026821Y-93696493D01*
X155021728Y-93683685D01*
X155019689Y-93660659D01*
X155019608Y-93657818D01*
X155029528Y-93657818D01*
X155030946Y-93670867D01*
X155038075Y-93683641D01*
X155043472Y-93685790D01*
X155045873Y-93678465D01*
X155038075Y-93656062D01*
X155034257Y-93647439D01*
X155030602Y-93643733D01*
X155029528Y-93657818D01*
X155019608Y-93657818D01*
X155019455Y-93652416D01*
X155016253Y-93632043D01*
X155010496Y-93623887D01*
X155010382Y-93623885D01*
X155003966Y-93615672D01*
X155001303Y-93596308D01*
X155001303Y-93595965D01*
X154998565Y-93576718D01*
X154992111Y-93568730D01*
X154991996Y-93568727D01*
X154985580Y-93560515D01*
X154983550Y-93545747D01*
X154992111Y-93545747D01*
X154996707Y-93550344D01*
X155001303Y-93545747D01*
X154996707Y-93541151D01*
X154992111Y-93545747D01*
X154983550Y-93545747D01*
X154982918Y-93541151D01*
X154982917Y-93540808D01*
X154980179Y-93521561D01*
X154973725Y-93513572D01*
X154971664Y-93512635D01*
X154966571Y-93499827D01*
X154965399Y-93486592D01*
X154975979Y-93486592D01*
X154978321Y-93495186D01*
X154980210Y-93497908D01*
X154988599Y-93504379D01*
X154989857Y-93503781D01*
X154987514Y-93495186D01*
X154985625Y-93492465D01*
X154977236Y-93485993D01*
X154975979Y-93486592D01*
X154965399Y-93486592D01*
X154964532Y-93476801D01*
X154964297Y-93468558D01*
X154963396Y-93462826D01*
X154975689Y-93462826D01*
X154976789Y-93473736D01*
X154979554Y-93475174D01*
X154982918Y-93467608D01*
X154982254Y-93462741D01*
X154976789Y-93461479D01*
X154975689Y-93462826D01*
X154963396Y-93462826D01*
X154961096Y-93448184D01*
X154955339Y-93440029D01*
X154953278Y-93439091D01*
X154948185Y-93426284D01*
X154947367Y-93417047D01*
X154955339Y-93417047D01*
X154959935Y-93421643D01*
X154964532Y-93417047D01*
X154959935Y-93412450D01*
X154955339Y-93417047D01*
X154947367Y-93417047D01*
X154946146Y-93403257D01*
X154945912Y-93395015D01*
X154942710Y-93374641D01*
X154936953Y-93366486D01*
X154934892Y-93365548D01*
X154929799Y-93352741D01*
X154928981Y-93343503D01*
X154936953Y-93343503D01*
X154941550Y-93348100D01*
X154946146Y-93343503D01*
X154941550Y-93338907D01*
X154936953Y-93343503D01*
X154928981Y-93343503D01*
X154927760Y-93329714D01*
X154927526Y-93321471D01*
X154924324Y-93301098D01*
X154918567Y-93292942D01*
X154916507Y-93292005D01*
X154911413Y-93279197D01*
X154910595Y-93269960D01*
X154918567Y-93269960D01*
X154923164Y-93274557D01*
X154927760Y-93269960D01*
X154923164Y-93265364D01*
X154918567Y-93269960D01*
X154910595Y-93269960D01*
X154909374Y-93256171D01*
X154909140Y-93247928D01*
X154908268Y-93242381D01*
X154918567Y-93242381D01*
X154923164Y-93246978D01*
X154927760Y-93242381D01*
X154923164Y-93237785D01*
X154918567Y-93242381D01*
X154908268Y-93242381D01*
X154905938Y-93227555D01*
X154900181Y-93219399D01*
X154896030Y-93213540D01*
X154892384Y-93193622D01*
X154891549Y-93176044D01*
X154901526Y-93176044D01*
X154903344Y-93194294D01*
X154903711Y-93195113D01*
X154906589Y-93193731D01*
X154907582Y-93178031D01*
X154907522Y-93175176D01*
X154905930Y-93162966D01*
X154903004Y-93166715D01*
X154901526Y-93176044D01*
X154891549Y-93176044D01*
X154890989Y-93164242D01*
X154890012Y-93139332D01*
X154886692Y-93117458D01*
X154881796Y-93109084D01*
X154878484Y-93105982D01*
X154874256Y-93089340D01*
X154872893Y-93067716D01*
X155000156Y-93067716D01*
X155005893Y-93113681D01*
X155008265Y-93129890D01*
X155013327Y-93153951D01*
X155018158Y-93166280D01*
X155024969Y-93166065D01*
X155045429Y-93159272D01*
X155075653Y-93146479D01*
X155111978Y-93129135D01*
X155170388Y-93101552D01*
X155257336Y-93067082D01*
X155351058Y-93037935D01*
X155457334Y-93012154D01*
X155479855Y-93007482D01*
X155542300Y-92996046D01*
X155610184Y-92985357D01*
X155678823Y-92976021D01*
X155743529Y-92968648D01*
X155799616Y-92963843D01*
X155842398Y-92962216D01*
X155888419Y-92962435D01*
X156044963Y-93178031D01*
X156091687Y-93242381D01*
X156111712Y-93269960D01*
X156165111Y-93343503D01*
X156181994Y-93366755D01*
X156218511Y-93417047D01*
X156255224Y-93467608D01*
X156281489Y-93503781D01*
X156311960Y-93545747D01*
X156408326Y-93678465D01*
X156475569Y-93771074D01*
X156563499Y-93685818D01*
X156568493Y-93680978D01*
X156597601Y-93652783D01*
X156637444Y-93614215D01*
X156686003Y-93567228D01*
X156741258Y-93513773D01*
X156801192Y-93455805D01*
X156863784Y-93395276D01*
X156927018Y-93334139D01*
X156938442Y-93323095D01*
X157002720Y-93260944D01*
X157066709Y-93199059D01*
X157128254Y-93139524D01*
X157185200Y-93084424D01*
X157235392Y-93035846D01*
X157276674Y-92995874D01*
X157306890Y-92966594D01*
X157315025Y-92958715D01*
X157353198Y-92922213D01*
X157381686Y-92896377D01*
X157403258Y-92879193D01*
X157420684Y-92868643D01*
X157436733Y-92862712D01*
X157454177Y-92859383D01*
X157489842Y-92855936D01*
X157545550Y-92853438D01*
X157616506Y-92852293D01*
X157701091Y-92852435D01*
X157797680Y-92853798D01*
X157904654Y-92856314D01*
X158020389Y-92859918D01*
X158143264Y-92864543D01*
X158271657Y-92870124D01*
X158403946Y-92876592D01*
X158538509Y-92883884D01*
X158673725Y-92891930D01*
X158807971Y-92900667D01*
X158939625Y-92910027D01*
X159067066Y-92919943D01*
X159188672Y-92930350D01*
X159261280Y-92937000D01*
X159486242Y-92958962D01*
X159720069Y-92983686D01*
X159959733Y-93010782D01*
X160202209Y-93039859D01*
X160444471Y-93070527D01*
X160683492Y-93102398D01*
X160916247Y-93135081D01*
X161139709Y-93168186D01*
X161350853Y-93201323D01*
X161546653Y-93234104D01*
X161550881Y-93235082D01*
X161558039Y-93238081D01*
X161566539Y-93243742D01*
X161577197Y-93253065D01*
X161590826Y-93267047D01*
X161608242Y-93286688D01*
X161630259Y-93312986D01*
X161657691Y-93346938D01*
X161691352Y-93389545D01*
X161732058Y-93441803D01*
X161780622Y-93504712D01*
X161837859Y-93579271D01*
X161904584Y-93666476D01*
X161981611Y-93767328D01*
X162023039Y-93821535D01*
X162039061Y-93842500D01*
X162069611Y-93882373D01*
X162093432Y-93913464D01*
X162102386Y-93925151D01*
X162121660Y-93950235D01*
X162139318Y-93973217D01*
X162161734Y-94002390D01*
X162164049Y-94005393D01*
X162216211Y-94073066D01*
X162245184Y-94110513D01*
X162264922Y-94136025D01*
X162273675Y-94147284D01*
X162302263Y-94184056D01*
X162306973Y-94190114D01*
X162320691Y-94207637D01*
X162341470Y-94234181D01*
X162349569Y-94244408D01*
X162367519Y-94267073D01*
X162378980Y-94281180D01*
X162384226Y-94287637D01*
X162390696Y-94294720D01*
X162391051Y-94294639D01*
X162401366Y-94287707D01*
X162422372Y-94271239D01*
X162451214Y-94247531D01*
X162485033Y-94218879D01*
X162485954Y-94218088D01*
X162521553Y-94187588D01*
X162567103Y-94148656D01*
X162605711Y-94115708D01*
X164396454Y-94115708D01*
X164401050Y-94120304D01*
X164405647Y-94115708D01*
X164401050Y-94111111D01*
X164396454Y-94115708D01*
X162605711Y-94115708D01*
X162618662Y-94104656D01*
X162637418Y-94088671D01*
X164405647Y-94088671D01*
X164405736Y-94089956D01*
X164411057Y-94091981D01*
X164420314Y-94082112D01*
X164422550Y-94076975D01*
X164416260Y-94078058D01*
X164412176Y-94080896D01*
X164405647Y-94088671D01*
X162637418Y-94088671D01*
X162672291Y-94058949D01*
X162686611Y-94046761D01*
X164424032Y-94046761D01*
X164424138Y-94048841D01*
X164428086Y-94055954D01*
X164429561Y-94055531D01*
X164437822Y-94046761D01*
X164439258Y-94043200D01*
X164433768Y-94037568D01*
X164431099Y-94037921D01*
X164424032Y-94046761D01*
X162686611Y-94046761D01*
X162724049Y-94014898D01*
X162771937Y-93974145D01*
X162836787Y-93918891D01*
X162905177Y-93860563D01*
X162971459Y-93803979D01*
X163029987Y-93753955D01*
X163184946Y-93621399D01*
X163236827Y-93632911D01*
X163250257Y-93636052D01*
X163320069Y-93656240D01*
X163402393Y-93685314D01*
X163494917Y-93722235D01*
X163595330Y-93765969D01*
X163701320Y-93815480D01*
X163810576Y-93869730D01*
X163920787Y-93927685D01*
X164029641Y-93988307D01*
X164043027Y-93995887D01*
X164073781Y-94012508D01*
X164097198Y-94024051D01*
X164109035Y-94028375D01*
X164112159Y-94026499D01*
X164113455Y-94023778D01*
X164433225Y-94023778D01*
X164437822Y-94028375D01*
X164442418Y-94023778D01*
X164437822Y-94019182D01*
X164433225Y-94023778D01*
X164113455Y-94023778D01*
X164119169Y-94011781D01*
X164124750Y-93987221D01*
X164126829Y-93975469D01*
X164131216Y-93959275D01*
X164462183Y-93959275D01*
X164465575Y-93960998D01*
X164474657Y-93955747D01*
X164479190Y-93942268D01*
X164477567Y-93938465D01*
X164468312Y-93943647D01*
X164463452Y-93949830D01*
X164462183Y-93959275D01*
X164131216Y-93959275D01*
X164133091Y-93952356D01*
X164139583Y-93940714D01*
X164144978Y-93932593D01*
X164148245Y-93913508D01*
X164147935Y-93909610D01*
X164142386Y-93897032D01*
X164140539Y-93895078D01*
X164488383Y-93895078D01*
X164492979Y-93899674D01*
X164497576Y-93895078D01*
X164492979Y-93890481D01*
X164488383Y-93895078D01*
X164140539Y-93895078D01*
X164128058Y-93881874D01*
X164110567Y-93868189D01*
X164499797Y-93868189D01*
X164504643Y-93869666D01*
X164512346Y-93861392D01*
X164515682Y-93845283D01*
X164515581Y-93842398D01*
X164513166Y-93836907D01*
X164505646Y-93847505D01*
X164500622Y-93858235D01*
X164499797Y-93868189D01*
X164110567Y-93868189D01*
X164102570Y-93861932D01*
X164063543Y-93834998D01*
X164054267Y-93828867D01*
X164010778Y-93803149D01*
X164525154Y-93803149D01*
X164529751Y-93807745D01*
X164534347Y-93803149D01*
X164529751Y-93798552D01*
X164525154Y-93803149D01*
X164010778Y-93803149D01*
X163959992Y-93773116D01*
X163909617Y-93747991D01*
X164543540Y-93747991D01*
X164548137Y-93752588D01*
X164552733Y-93747991D01*
X164548137Y-93743395D01*
X164543540Y-93747991D01*
X163909617Y-93747991D01*
X163848128Y-93717323D01*
X163791524Y-93692834D01*
X164561926Y-93692834D01*
X164566522Y-93697430D01*
X164571119Y-93692834D01*
X164566522Y-93688237D01*
X164561926Y-93692834D01*
X163791524Y-93692834D01*
X163719393Y-93661627D01*
X163574504Y-93606164D01*
X163505697Y-93582519D01*
X164598698Y-93582519D01*
X164603294Y-93587115D01*
X164607890Y-93582519D01*
X164603294Y-93577923D01*
X164598698Y-93582519D01*
X163505697Y-93582519D01*
X163414178Y-93551069D01*
X163369375Y-93537097D01*
X164607890Y-93537097D01*
X164607980Y-93538382D01*
X164613301Y-93540407D01*
X164622558Y-93530538D01*
X164624794Y-93525400D01*
X164618504Y-93526484D01*
X164614420Y-93529321D01*
X164607890Y-93537097D01*
X163369375Y-93537097D01*
X163279202Y-93508976D01*
X164617083Y-93508976D01*
X164621680Y-93513572D01*
X164626276Y-93508976D01*
X164621680Y-93504379D01*
X164617083Y-93508976D01*
X163279202Y-93508976D01*
X163239132Y-93496480D01*
X163089633Y-93453818D01*
X164635469Y-93453818D01*
X164640066Y-93458415D01*
X164644662Y-93453818D01*
X164640066Y-93449222D01*
X164635469Y-93453818D01*
X163089633Y-93453818D01*
X163050084Y-93442532D01*
X162905429Y-93404519D01*
X164650179Y-93404519D01*
X164651139Y-93412450D01*
X164657535Y-93404900D01*
X164661521Y-93387608D01*
X164661002Y-93369321D01*
X164660248Y-93366506D01*
X164656622Y-93365918D01*
X164652624Y-93382573D01*
X164652222Y-93385166D01*
X164650179Y-93404519D01*
X162905429Y-93404519D01*
X162847751Y-93389362D01*
X162632849Y-93337107D01*
X162605698Y-93330976D01*
X164668565Y-93330976D01*
X164669525Y-93338907D01*
X164675921Y-93331357D01*
X164679906Y-93314065D01*
X164679388Y-93295778D01*
X164678634Y-93292962D01*
X164675008Y-93292375D01*
X164671010Y-93309030D01*
X164670608Y-93311622D01*
X164668565Y-93330976D01*
X162605698Y-93330976D01*
X162406097Y-93285903D01*
X162168212Y-93235886D01*
X162154459Y-93233189D01*
X164690627Y-93233189D01*
X164695223Y-93237785D01*
X164699820Y-93233189D01*
X164695223Y-93228592D01*
X164690627Y-93233189D01*
X162154459Y-93233189D01*
X161919910Y-93187193D01*
X161661909Y-93139960D01*
X161600335Y-93129435D01*
X164710439Y-93129435D01*
X164711868Y-93152751D01*
X164712728Y-93155359D01*
X164715114Y-93153388D01*
X164716073Y-93136663D01*
X164715984Y-93130426D01*
X164714533Y-93117714D01*
X164711868Y-93120575D01*
X164710439Y-93129435D01*
X161600335Y-93129435D01*
X161394926Y-93094324D01*
X161119679Y-93050421D01*
X161112339Y-93049330D01*
X164727398Y-93049330D01*
X164731995Y-93053927D01*
X164736591Y-93049330D01*
X164731995Y-93044734D01*
X164727398Y-93049330D01*
X161112339Y-93049330D01*
X160863708Y-93012374D01*
X164729362Y-93012374D01*
X164730463Y-93023284D01*
X164733228Y-93024722D01*
X164736591Y-93017155D01*
X164735928Y-93012289D01*
X164730463Y-93011027D01*
X164729362Y-93012374D01*
X160863708Y-93012374D01*
X160836884Y-93008387D01*
X160547259Y-92968358D01*
X160318215Y-92939016D01*
X164745784Y-92939016D01*
X164750381Y-92943612D01*
X164754977Y-92939016D01*
X164750381Y-92934419D01*
X164745784Y-92939016D01*
X160318215Y-92939016D01*
X160251521Y-92930472D01*
X159989671Y-92899510D01*
X164747675Y-92899510D01*
X164748889Y-92918331D01*
X164752081Y-92919891D01*
X164753525Y-92906840D01*
X164752244Y-92894194D01*
X164748889Y-92895349D01*
X164747675Y-92899510D01*
X159989671Y-92899510D01*
X159950388Y-92894865D01*
X159644576Y-92861672D01*
X159334803Y-92831031D01*
X159102826Y-92810315D01*
X164764170Y-92810315D01*
X164768766Y-92814911D01*
X164773363Y-92810315D01*
X164768766Y-92805718D01*
X164764170Y-92810315D01*
X159102826Y-92810315D01*
X159021786Y-92803078D01*
X158706243Y-92777948D01*
X158614736Y-92771556D01*
X164765514Y-92771556D01*
X164767333Y-92789806D01*
X164767699Y-92790625D01*
X164770577Y-92789243D01*
X164771571Y-92773543D01*
X164771510Y-92770688D01*
X164769918Y-92758478D01*
X164766992Y-92762227D01*
X164765514Y-92771556D01*
X158614736Y-92771556D01*
X158388889Y-92755780D01*
X158239659Y-92746654D01*
X158069771Y-92737884D01*
X157905449Y-92731382D01*
X157741916Y-92727027D01*
X157574397Y-92724696D01*
X157398118Y-92724267D01*
X157208303Y-92725618D01*
X157156863Y-92726211D01*
X157041080Y-92727776D01*
X156939637Y-92729588D01*
X156849655Y-92731787D01*
X156768249Y-92734512D01*
X156692540Y-92737905D01*
X156619645Y-92742103D01*
X156546682Y-92747248D01*
X156470770Y-92753479D01*
X156389026Y-92760936D01*
X156298570Y-92769758D01*
X156087569Y-92793687D01*
X155881471Y-92823233D01*
X155850674Y-92828701D01*
X155688804Y-92857441D01*
X155651773Y-92865472D01*
X155510486Y-92896113D01*
X155347433Y-92939048D01*
X155275717Y-92961998D01*
X155200564Y-92986048D01*
X155179834Y-92994173D01*
X155070794Y-93036911D01*
X155000156Y-93067716D01*
X154872893Y-93067716D01*
X154872603Y-93063120D01*
X154871982Y-93046563D01*
X154868654Y-93025423D01*
X154863410Y-93017155D01*
X154863401Y-93017155D01*
X154858687Y-93008625D01*
X154856625Y-92994173D01*
X154863410Y-92994173D01*
X154868006Y-92998769D01*
X154872603Y-92994173D01*
X154868006Y-92989577D01*
X154863410Y-92994173D01*
X154856625Y-92994173D01*
X154855432Y-92985815D01*
X154854286Y-92954668D01*
X154865300Y-92954668D01*
X154866514Y-92973489D01*
X154869707Y-92975048D01*
X154871151Y-92961998D01*
X154869870Y-92949352D01*
X154866514Y-92950507D01*
X154865300Y-92954668D01*
X154854286Y-92954668D01*
X154854217Y-92952805D01*
X154854217Y-92952742D01*
X154852998Y-92919746D01*
X154849740Y-92896957D01*
X154845024Y-92888455D01*
X154844202Y-92888209D01*
X154839842Y-92876925D01*
X154838528Y-92865472D01*
X154845024Y-92865472D01*
X154849620Y-92870069D01*
X154854217Y-92865472D01*
X154849620Y-92860876D01*
X154845024Y-92865472D01*
X154838528Y-92865472D01*
X154836906Y-92851332D01*
X154836179Y-92826714D01*
X154846368Y-92826714D01*
X154848187Y-92844963D01*
X154848553Y-92845783D01*
X154851431Y-92844401D01*
X154852425Y-92828701D01*
X154852364Y-92825846D01*
X154850773Y-92813636D01*
X154847846Y-92817384D01*
X154846368Y-92826714D01*
X154836179Y-92826714D01*
X154835831Y-92814911D01*
X154835800Y-92808332D01*
X154834390Y-92773451D01*
X154831191Y-92749969D01*
X154830557Y-92748771D01*
X155509542Y-92748771D01*
X155509644Y-92774814D01*
X155510289Y-92784579D01*
X155510988Y-92784664D01*
X155514439Y-92773543D01*
X155518954Y-92744176D01*
X155524521Y-92696651D01*
X155531130Y-92631053D01*
X155535069Y-92597199D01*
X155536888Y-92585043D01*
X164783564Y-92585043D01*
X164785052Y-92619562D01*
X164785667Y-92624430D01*
X164787195Y-92626463D01*
X164788259Y-92612710D01*
X164788658Y-92585089D01*
X164788605Y-92573839D01*
X164787947Y-92550911D01*
X164786696Y-92542530D01*
X164785052Y-92550615D01*
X164783564Y-92585043D01*
X155536888Y-92585043D01*
X155543841Y-92538571D01*
X155555725Y-92470150D01*
X155569976Y-92395429D01*
X155585848Y-92317905D01*
X155602597Y-92241071D01*
X155619477Y-92168422D01*
X155635743Y-92103453D01*
X155650650Y-92049658D01*
X155663452Y-92010532D01*
X155669837Y-91993063D01*
X155682677Y-91955557D01*
X164783625Y-91955557D01*
X164785164Y-91985251D01*
X164786940Y-91991172D01*
X164788424Y-91982666D01*
X164788994Y-91959971D01*
X164788554Y-91939428D01*
X164787168Y-91928987D01*
X164785164Y-91934691D01*
X164783625Y-91955557D01*
X155682677Y-91955557D01*
X155683991Y-91951720D01*
X155698489Y-91906497D01*
X155700393Y-91900217D01*
X164782556Y-91900217D01*
X164787152Y-91904814D01*
X164791749Y-91900217D01*
X164787152Y-91895621D01*
X164782556Y-91900217D01*
X155700393Y-91900217D01*
X155712302Y-91860946D01*
X155724399Y-91818619D01*
X155733748Y-91783068D01*
X155739318Y-91757847D01*
X155739811Y-91750499D01*
X164765596Y-91750499D01*
X164767026Y-91773815D01*
X164767885Y-91776423D01*
X164770272Y-91774452D01*
X164771230Y-91757727D01*
X164771141Y-91751490D01*
X164769690Y-91738778D01*
X164767026Y-91741639D01*
X164765596Y-91750499D01*
X155739811Y-91750499D01*
X155740079Y-91746506D01*
X155738286Y-91742543D01*
X155743232Y-91742271D01*
X155745545Y-91742059D01*
X155754076Y-91730251D01*
X155760275Y-91716359D01*
X164764170Y-91716359D01*
X164768766Y-91720955D01*
X164773363Y-91716359D01*
X164768766Y-91711763D01*
X164764170Y-91716359D01*
X155760275Y-91716359D01*
X155765527Y-91704588D01*
X155778579Y-91667850D01*
X155784363Y-91650265D01*
X155796038Y-91616291D01*
X155796800Y-91614233D01*
X164747228Y-91614233D01*
X164749423Y-91626537D01*
X164752561Y-91626394D01*
X164754251Y-91614471D01*
X164752779Y-91605435D01*
X164748697Y-91608917D01*
X164747228Y-91614233D01*
X155796800Y-91614233D01*
X155805456Y-91590858D01*
X155806884Y-91587658D01*
X164745784Y-91587658D01*
X164750381Y-91592255D01*
X164754977Y-91587658D01*
X164750381Y-91583062D01*
X164745784Y-91587658D01*
X155806884Y-91587658D01*
X155810988Y-91578465D01*
X155812546Y-91575761D01*
X155820694Y-91558423D01*
X155832892Y-91530219D01*
X155843758Y-91503918D01*
X164728843Y-91503918D01*
X164731037Y-91516222D01*
X164734175Y-91516079D01*
X164735865Y-91504156D01*
X164734393Y-91495120D01*
X164730311Y-91498602D01*
X164728843Y-91503918D01*
X155843758Y-91503918D01*
X155847141Y-91495729D01*
X155848696Y-91491895D01*
X155854744Y-91477343D01*
X164727398Y-91477343D01*
X164731995Y-91481940D01*
X164736591Y-91477343D01*
X164731995Y-91472747D01*
X164727398Y-91477343D01*
X155854744Y-91477343D01*
X155867009Y-91447832D01*
X155886549Y-91402346D01*
X155903340Y-91364706D01*
X155903679Y-91363968D01*
X155916844Y-91334641D01*
X155922579Y-91321064D01*
X164690627Y-91321064D01*
X164695223Y-91325660D01*
X164699820Y-91321064D01*
X164695223Y-91316468D01*
X164690627Y-91321064D01*
X155922579Y-91321064D01*
X155926216Y-91312454D01*
X155929787Y-91302158D01*
X155929798Y-91302030D01*
X155933132Y-91293485D01*
X164690627Y-91293485D01*
X164695223Y-91298082D01*
X164699820Y-91293485D01*
X164695223Y-91288889D01*
X164690627Y-91293485D01*
X155933132Y-91293485D01*
X155933851Y-91291641D01*
X155943963Y-91268739D01*
X155958339Y-91237179D01*
X155975181Y-91200817D01*
X155976325Y-91198380D01*
X164669707Y-91198380D01*
X164670351Y-91215831D01*
X164670356Y-91215865D01*
X164674206Y-91234977D01*
X164677881Y-91242924D01*
X164681094Y-91236947D01*
X164681364Y-91220928D01*
X164678733Y-91203493D01*
X164673904Y-91193391D01*
X164673591Y-91193219D01*
X164669707Y-91198380D01*
X155976325Y-91198380D01*
X155992691Y-91163509D01*
X156009072Y-91129112D01*
X156022527Y-91101480D01*
X156031257Y-91084471D01*
X156035821Y-91074336D01*
X156036155Y-91072856D01*
X164635469Y-91072856D01*
X164640066Y-91077452D01*
X164644662Y-91072856D01*
X164640066Y-91068259D01*
X164635469Y-91072856D01*
X156036155Y-91072856D01*
X156040102Y-91055361D01*
X156040705Y-91049730D01*
X156046997Y-91039148D01*
X156047538Y-91038890D01*
X156050635Y-91036446D01*
X156055026Y-91030610D01*
X156061910Y-91019229D01*
X156072486Y-91000151D01*
X156087956Y-90971223D01*
X156102215Y-90944155D01*
X164598698Y-90944155D01*
X164603294Y-90948751D01*
X164607890Y-90944155D01*
X164603294Y-90939558D01*
X164598698Y-90944155D01*
X156102215Y-90944155D01*
X156109518Y-90930293D01*
X156131149Y-90888997D01*
X164580312Y-90888997D01*
X164584908Y-90893594D01*
X164589505Y-90888997D01*
X164584908Y-90884401D01*
X164580312Y-90888997D01*
X156131149Y-90888997D01*
X156138372Y-90875208D01*
X156148343Y-90856190D01*
X156160129Y-90833840D01*
X164561926Y-90833840D01*
X164566522Y-90838436D01*
X164571119Y-90833840D01*
X164566522Y-90829244D01*
X164561926Y-90833840D01*
X156160129Y-90833840D01*
X156165887Y-90822922D01*
X156179611Y-90797150D01*
X156187176Y-90783279D01*
X156189802Y-90778683D01*
X164543540Y-90778683D01*
X164548137Y-90783279D01*
X164552733Y-90778683D01*
X164548137Y-90774086D01*
X164543540Y-90778683D01*
X156189802Y-90778683D01*
X156191174Y-90776282D01*
X156203503Y-90754649D01*
X156222041Y-90722095D01*
X156228735Y-90710334D01*
X164518215Y-90710334D01*
X164520558Y-90718929D01*
X164522447Y-90721650D01*
X164530836Y-90728122D01*
X164532093Y-90727523D01*
X164529751Y-90718929D01*
X164527862Y-90716207D01*
X164519473Y-90709736D01*
X164518215Y-90710334D01*
X156228735Y-90710334D01*
X156245083Y-90681612D01*
X156270926Y-90636193D01*
X156273551Y-90631596D01*
X164488383Y-90631596D01*
X164492979Y-90636193D01*
X164497576Y-90631596D01*
X164492979Y-90627000D01*
X164488383Y-90631596D01*
X156273551Y-90631596D01*
X156286348Y-90609185D01*
X156309518Y-90569001D01*
X164460945Y-90569001D01*
X164462192Y-90574508D01*
X164469997Y-90590228D01*
X164471206Y-90592078D01*
X164477561Y-90598760D01*
X164479049Y-90588472D01*
X164477996Y-90580365D01*
X164469997Y-90567246D01*
X164466572Y-90565664D01*
X164460945Y-90569001D01*
X156309518Y-90569001D01*
X156314110Y-90561037D01*
X156326586Y-90539667D01*
X164451611Y-90539667D01*
X164456208Y-90544263D01*
X164460804Y-90539667D01*
X164456208Y-90535071D01*
X164451611Y-90539667D01*
X156326586Y-90539667D01*
X156339844Y-90516956D01*
X156361217Y-90480926D01*
X156375897Y-90456931D01*
X156385178Y-90442056D01*
X164405647Y-90442056D01*
X164405990Y-90444753D01*
X164414839Y-90456931D01*
X164418368Y-90458404D01*
X164424032Y-90453419D01*
X164423689Y-90450723D01*
X164414839Y-90438545D01*
X164411311Y-90437072D01*
X164405647Y-90442056D01*
X156385178Y-90442056D01*
X156386949Y-90439217D01*
X156409231Y-90402309D01*
X156411856Y-90397775D01*
X164389515Y-90397775D01*
X164391857Y-90406370D01*
X164393746Y-90409091D01*
X164402135Y-90415563D01*
X164403393Y-90414964D01*
X164401050Y-90406370D01*
X164399161Y-90403649D01*
X164390772Y-90397177D01*
X164389515Y-90397775D01*
X156411856Y-90397775D01*
X156428167Y-90369598D01*
X156433102Y-90361004D01*
X164371129Y-90361004D01*
X164373471Y-90369598D01*
X164375360Y-90372320D01*
X164383749Y-90378791D01*
X164385007Y-90378193D01*
X164382664Y-90369598D01*
X164380776Y-90366877D01*
X164372386Y-90360405D01*
X164371129Y-90361004D01*
X156433102Y-90361004D01*
X156434516Y-90358542D01*
X156451259Y-90330485D01*
X156473278Y-90294413D01*
X156498712Y-90253289D01*
X156525701Y-90210071D01*
X156552383Y-90167722D01*
X156569788Y-90140374D01*
X164260814Y-90140374D01*
X164263156Y-90148968D01*
X164265045Y-90151690D01*
X164273434Y-90158161D01*
X164274692Y-90157563D01*
X164272349Y-90148968D01*
X164270461Y-90146247D01*
X164262071Y-90139776D01*
X164260814Y-90140374D01*
X156569788Y-90140374D01*
X156576898Y-90129203D01*
X156593428Y-90103602D01*
X164242428Y-90103602D01*
X164244771Y-90112197D01*
X164246659Y-90114918D01*
X164255049Y-90121390D01*
X164256306Y-90120791D01*
X164253964Y-90112197D01*
X164252075Y-90109476D01*
X164243686Y-90103004D01*
X164242428Y-90103602D01*
X156593428Y-90103602D01*
X156597385Y-90097474D01*
X156611982Y-90075497D01*
X156618829Y-90066232D01*
X156625474Y-90057775D01*
X156638519Y-90038654D01*
X164207139Y-90038654D01*
X164207733Y-90045009D01*
X164214268Y-90061636D01*
X164223464Y-90077195D01*
X164232669Y-90084618D01*
X164232946Y-90084603D01*
X164233758Y-90077589D01*
X164225540Y-90061636D01*
X164213953Y-90045442D01*
X164207139Y-90038654D01*
X156638519Y-90038654D01*
X156639095Y-90037809D01*
X156647452Y-90024864D01*
X164194210Y-90024864D01*
X164198806Y-90029461D01*
X164203403Y-90024864D01*
X164198806Y-90020268D01*
X164194210Y-90024864D01*
X156647452Y-90024864D01*
X156656328Y-90011116D01*
X156656404Y-90010996D01*
X156674422Y-89983491D01*
X156680253Y-89974902D01*
X164168885Y-89974902D01*
X164171227Y-89983496D01*
X164173116Y-89986217D01*
X164181505Y-89992689D01*
X164182763Y-89992091D01*
X164180420Y-89983496D01*
X164178532Y-89980775D01*
X164170142Y-89974303D01*
X164168885Y-89974902D01*
X156680253Y-89974902D01*
X156699848Y-89946040D01*
X156702561Y-89942128D01*
X164148245Y-89942128D01*
X164152842Y-89946725D01*
X164157438Y-89942128D01*
X164152842Y-89937532D01*
X164148245Y-89942128D01*
X156702561Y-89942128D01*
X156729312Y-89903548D01*
X156743858Y-89882973D01*
X164113727Y-89882973D01*
X164116070Y-89891567D01*
X164117959Y-89894288D01*
X164126348Y-89900760D01*
X164127605Y-89900161D01*
X164125263Y-89891567D01*
X164123374Y-89888846D01*
X164114985Y-89882374D01*
X164113727Y-89882973D01*
X156743858Y-89882973D01*
X156759447Y-89860923D01*
X156765102Y-89852974D01*
X156773917Y-89840232D01*
X164088938Y-89840232D01*
X164089580Y-89849722D01*
X164092547Y-89856404D01*
X164099326Y-89863691D01*
X164102281Y-89855338D01*
X164101954Y-89852841D01*
X164093193Y-89841071D01*
X164088938Y-89840232D01*
X156773917Y-89840232D01*
X156790777Y-89815861D01*
X156811610Y-89784100D01*
X156818484Y-89772662D01*
X164038000Y-89772662D01*
X164045951Y-89783550D01*
X164048816Y-89787110D01*
X164061037Y-89798919D01*
X164065509Y-89796167D01*
X164062153Y-89791420D01*
X164049421Y-89780080D01*
X164042761Y-89774944D01*
X164038000Y-89772662D01*
X156818484Y-89772662D01*
X156825586Y-89760845D01*
X156830692Y-89749253D01*
X156831758Y-89743979D01*
X156843025Y-89732522D01*
X156849874Y-89726693D01*
X164012605Y-89726693D01*
X164014948Y-89735288D01*
X164016837Y-89738009D01*
X164025226Y-89744481D01*
X164026483Y-89743882D01*
X164024141Y-89735288D01*
X164022252Y-89732566D01*
X164013863Y-89726095D01*
X164012605Y-89726693D01*
X156849874Y-89726693D01*
X156853261Y-89723810D01*
X156870051Y-89703677D01*
X156889155Y-89676873D01*
X156899067Y-89662347D01*
X163964457Y-89662347D01*
X163972407Y-89673236D01*
X163975273Y-89676795D01*
X163987494Y-89688604D01*
X163991966Y-89685852D01*
X163988610Y-89681105D01*
X163975878Y-89669765D01*
X163969217Y-89664629D01*
X163964457Y-89662347D01*
X156899067Y-89662347D01*
X156906610Y-89651293D01*
X156922475Y-89629384D01*
X163947965Y-89629384D01*
X163949066Y-89640294D01*
X163951831Y-89641733D01*
X163955194Y-89634166D01*
X163954531Y-89629299D01*
X163949066Y-89628037D01*
X163947965Y-89629384D01*
X156922475Y-89629384D01*
X156923763Y-89627606D01*
X156934864Y-89613973D01*
X156939816Y-89608329D01*
X156955107Y-89589115D01*
X156976421Y-89561188D01*
X156987666Y-89546059D01*
X163886694Y-89546059D01*
X163887336Y-89555549D01*
X163890303Y-89562231D01*
X163897082Y-89569518D01*
X163900037Y-89561165D01*
X163899710Y-89558668D01*
X163890949Y-89546898D01*
X163886694Y-89546059D01*
X156987666Y-89546059D01*
X157000756Y-89528447D01*
X157015820Y-89508045D01*
X157037124Y-89479652D01*
X157052861Y-89459261D01*
X157060409Y-89450308D01*
X157063901Y-89446612D01*
X157072050Y-89436518D01*
X163794318Y-89436518D01*
X163817301Y-89464097D01*
X163821664Y-89469352D01*
X163835752Y-89486625D01*
X163842581Y-89495506D01*
X163843217Y-89496208D01*
X163844879Y-89490214D01*
X163844649Y-89488781D01*
X163836276Y-89475788D01*
X163819599Y-89458805D01*
X163794318Y-89436518D01*
X157072050Y-89436518D01*
X157076379Y-89431156D01*
X157093176Y-89408940D01*
X157101593Y-89397516D01*
X163765906Y-89397516D01*
X163766073Y-89402111D01*
X163775710Y-89413352D01*
X163784469Y-89418910D01*
X163789722Y-89415204D01*
X163786725Y-89406596D01*
X163776113Y-89397319D01*
X163765906Y-89397516D01*
X157101593Y-89397516D01*
X157120268Y-89372168D01*
X157109147Y-89381361D01*
X157089686Y-89397448D01*
X157081705Y-89403863D01*
X157063002Y-89417355D01*
X157052350Y-89422729D01*
X157042932Y-89427265D01*
X157027037Y-89440018D01*
X157015021Y-89449204D01*
X156984867Y-89467027D01*
X156945163Y-89487032D01*
X156900724Y-89506979D01*
X156856365Y-89524628D01*
X156816902Y-89537741D01*
X156781288Y-89546447D01*
X156702989Y-89558243D01*
X156620271Y-89562591D01*
X156541596Y-89558842D01*
X156508457Y-89553965D01*
X156467365Y-89545833D01*
X156423776Y-89535677D01*
X156381802Y-89524587D01*
X156345556Y-89513653D01*
X156319150Y-89503963D01*
X156306696Y-89496609D01*
X156306145Y-89495965D01*
X156293468Y-89488442D01*
X156271816Y-89479729D01*
X156243712Y-89467426D01*
X156215240Y-89450644D01*
X156212378Y-89448631D01*
X156193813Y-89436766D01*
X156183087Y-89431922D01*
X156173583Y-89426841D01*
X156157669Y-89413702D01*
X156147843Y-89406672D01*
X156130546Y-89403305D01*
X156119382Y-89411095D01*
X156119772Y-89427997D01*
X156121040Y-89434445D01*
X156115528Y-89441115D01*
X156106297Y-89448326D01*
X156096579Y-89466395D01*
X156089762Y-89483455D01*
X156084434Y-89496272D01*
X156077236Y-89513585D01*
X156063050Y-89546833D01*
X156057661Y-89559529D01*
X156052388Y-89571953D01*
X156034838Y-89614733D01*
X156030431Y-89625927D01*
X156019950Y-89652552D01*
X156011696Y-89674103D01*
X156003998Y-89693920D01*
X155999830Y-89704648D01*
X155991298Y-89726095D01*
X155984623Y-89742596D01*
X155980324Y-89753674D01*
X155978940Y-89757339D01*
X155972849Y-89772059D01*
X155969649Y-89779764D01*
X155955971Y-89815770D01*
X155941852Y-89855728D01*
X155939055Y-89863645D01*
X155925631Y-89903395D01*
X155920385Y-89918928D01*
X155903873Y-89969707D01*
X155901450Y-89977159D01*
X155895776Y-89995324D01*
X155883734Y-90033876D01*
X155882045Y-90039586D01*
X155870759Y-90077736D01*
X155868723Y-90084618D01*
X155867273Y-90089706D01*
X155857315Y-90124025D01*
X155854358Y-90134217D01*
X155846383Y-90160796D01*
X155842689Y-90173109D01*
X155835000Y-90197568D01*
X155833496Y-90202352D01*
X155828011Y-90217915D01*
X155822567Y-90233644D01*
X155822369Y-90234340D01*
X155814404Y-90262286D01*
X155812182Y-90271111D01*
X155805902Y-90296055D01*
X155803034Y-90307883D01*
X155799028Y-90324409D01*
X155793882Y-90344655D01*
X155787823Y-90368489D01*
X155784351Y-90381426D01*
X155777656Y-90406370D01*
X155772072Y-90427111D01*
X155771657Y-90428808D01*
X155764488Y-90458123D01*
X155760096Y-90479913D01*
X155756892Y-90496834D01*
X155753153Y-90510127D01*
X155751308Y-90516685D01*
X155751186Y-90517014D01*
X155747413Y-90531270D01*
X155741332Y-90557508D01*
X155740702Y-90560227D01*
X155731717Y-90600759D01*
X155729024Y-90613210D01*
X155721189Y-90649437D01*
X155721123Y-90649741D01*
X155709584Y-90704046D01*
X155709355Y-90705139D01*
X155697818Y-90760297D01*
X155697765Y-90760548D01*
X155686331Y-90816122D01*
X155675945Y-90867641D01*
X155667273Y-90911980D01*
X155664799Y-90925769D01*
X155654902Y-90980926D01*
X155648219Y-91018168D01*
X155646360Y-91029773D01*
X155633569Y-91109627D01*
X155628262Y-91142759D01*
X155622436Y-91183170D01*
X155611834Y-91256714D01*
X155609175Y-91275156D01*
X155608588Y-91279696D01*
X155591736Y-91409941D01*
X155585104Y-91468151D01*
X155577773Y-91532501D01*
X155576726Y-91541694D01*
X155574375Y-91564676D01*
X155564502Y-91661202D01*
X155564361Y-91662576D01*
X155561476Y-91693377D01*
X155551748Y-91797238D01*
X155547467Y-91849656D01*
X155541409Y-91923836D01*
X155532992Y-92047661D01*
X155528276Y-92134636D01*
X155526142Y-92173998D01*
X155520507Y-92308139D01*
X155516026Y-92446382D01*
X155515735Y-92455369D01*
X155513861Y-92523846D01*
X155512141Y-92593990D01*
X155510825Y-92656259D01*
X155510476Y-92677018D01*
X155509947Y-92708553D01*
X155509542Y-92748771D01*
X154830557Y-92748771D01*
X154826638Y-92741368D01*
X154823544Y-92736432D01*
X154820273Y-92715304D01*
X154818181Y-92679477D01*
X154818077Y-92672604D01*
X154827708Y-92672604D01*
X154829247Y-92702298D01*
X154831022Y-92708219D01*
X154832506Y-92699713D01*
X154833076Y-92677018D01*
X154832637Y-92656475D01*
X154831251Y-92646034D01*
X154829247Y-92651737D01*
X154827708Y-92672604D01*
X154818077Y-92672604D01*
X154817445Y-92631053D01*
X154817034Y-92593920D01*
X154815273Y-92554665D01*
X154812288Y-92529570D01*
X154808252Y-92520738D01*
X154807299Y-92519954D01*
X154804409Y-92505651D01*
X154802111Y-92473932D01*
X154801390Y-92453103D01*
X154809500Y-92453103D01*
X154810330Y-92475514D01*
X154811865Y-92483967D01*
X154812401Y-92483934D01*
X154818701Y-92473986D01*
X154820287Y-92446382D01*
X154817152Y-92401231D01*
X154811056Y-92341477D01*
X154809654Y-92412722D01*
X154809514Y-92421150D01*
X154809500Y-92453103D01*
X154801390Y-92453103D01*
X154800435Y-92425542D01*
X154799408Y-92361224D01*
X154799059Y-92281723D01*
X154799090Y-92256924D01*
X154799640Y-92181790D01*
X154800693Y-92130223D01*
X154809322Y-92130223D01*
X154810861Y-92159917D01*
X154812637Y-92165838D01*
X154814120Y-92157332D01*
X154814691Y-92134636D01*
X154814251Y-92114093D01*
X154812865Y-92103653D01*
X154810861Y-92109356D01*
X154809322Y-92130223D01*
X154800693Y-92130223D01*
X154800860Y-92122057D01*
X154802721Y-92078470D01*
X154805195Y-92051772D01*
X154808252Y-92042707D01*
X154808261Y-92042707D01*
X154812095Y-92033775D01*
X154814985Y-92008201D01*
X154816810Y-91967704D01*
X154817445Y-91914006D01*
X154817445Y-91913888D01*
X154818083Y-91860215D01*
X154818759Y-91845243D01*
X154827708Y-91845243D01*
X154829247Y-91874937D01*
X154831022Y-91880857D01*
X154832506Y-91872352D01*
X154833076Y-91849656D01*
X154832637Y-91829113D01*
X154831251Y-91818672D01*
X154829247Y-91824376D01*
X154827708Y-91845243D01*
X154818759Y-91845243D01*
X154819910Y-91819746D01*
X154822803Y-91794203D01*
X154826638Y-91785306D01*
X154827461Y-91785061D01*
X154831821Y-91773776D01*
X154834756Y-91748183D01*
X154835831Y-91711763D01*
X154835862Y-91705184D01*
X154836636Y-91686047D01*
X154846914Y-91686047D01*
X154848129Y-91704868D01*
X154851321Y-91706427D01*
X154852765Y-91693377D01*
X154851484Y-91680731D01*
X154848129Y-91681886D01*
X154846914Y-91686047D01*
X154836636Y-91686047D01*
X154837272Y-91670302D01*
X154838512Y-91661202D01*
X154845024Y-91661202D01*
X154849620Y-91665798D01*
X154854217Y-91661202D01*
X154849620Y-91656605D01*
X154845024Y-91661202D01*
X154838512Y-91661202D01*
X154840471Y-91646820D01*
X154845024Y-91638219D01*
X154845033Y-91638219D01*
X154849747Y-91629689D01*
X154853002Y-91606879D01*
X154854217Y-91573869D01*
X154854217Y-91573807D01*
X154854825Y-91557346D01*
X154865300Y-91557346D01*
X154866514Y-91576167D01*
X154869707Y-91577727D01*
X154871151Y-91564676D01*
X154869870Y-91552030D01*
X154866514Y-91553185D01*
X154865300Y-91557346D01*
X154854825Y-91557346D01*
X154855436Y-91540810D01*
X154856624Y-91532501D01*
X154863410Y-91532501D01*
X154868006Y-91537097D01*
X154872603Y-91532501D01*
X154868006Y-91527904D01*
X154863410Y-91532501D01*
X154856624Y-91532501D01*
X154858694Y-91518021D01*
X154863410Y-91509519D01*
X154866721Y-91506417D01*
X154870949Y-91489774D01*
X154872313Y-91468151D01*
X154881796Y-91468151D01*
X154886392Y-91472747D01*
X154890989Y-91468151D01*
X154886392Y-91463554D01*
X154881796Y-91468151D01*
X154872313Y-91468151D01*
X154872603Y-91463554D01*
X154873223Y-91446997D01*
X154876552Y-91425857D01*
X154881796Y-91417590D01*
X154885107Y-91414488D01*
X154889335Y-91397845D01*
X154890989Y-91371625D01*
X154891609Y-91355068D01*
X154894937Y-91333928D01*
X154900181Y-91325660D01*
X154903493Y-91322559D01*
X154907721Y-91305916D01*
X154909374Y-91279696D01*
X154909553Y-91274915D01*
X154920531Y-91274915D01*
X154921632Y-91285825D01*
X154924397Y-91287263D01*
X154927760Y-91279696D01*
X154927097Y-91274829D01*
X154921632Y-91273567D01*
X154920531Y-91274915D01*
X154909553Y-91274915D01*
X154909995Y-91263139D01*
X154911006Y-91256714D01*
X154918567Y-91256714D01*
X154923164Y-91261310D01*
X154927760Y-91256714D01*
X154923164Y-91252117D01*
X154918567Y-91256714D01*
X154911006Y-91256714D01*
X154913323Y-91241999D01*
X154918567Y-91233731D01*
X154920628Y-91232794D01*
X154925721Y-91219986D01*
X154927760Y-91196960D01*
X154927995Y-91188717D01*
X154928867Y-91183170D01*
X154936953Y-91183170D01*
X154941550Y-91187767D01*
X154946146Y-91183170D01*
X154941550Y-91178574D01*
X154936953Y-91183170D01*
X154928867Y-91183170D01*
X154931196Y-91168344D01*
X154936953Y-91160188D01*
X154939014Y-91159251D01*
X154944107Y-91146443D01*
X154946146Y-91123417D01*
X154946380Y-91115174D01*
X154947252Y-91109627D01*
X154955339Y-91109627D01*
X154959935Y-91114224D01*
X154964532Y-91109627D01*
X154959935Y-91105031D01*
X154955339Y-91109627D01*
X154947252Y-91109627D01*
X154949582Y-91094800D01*
X154955339Y-91086645D01*
X154957400Y-91085707D01*
X154962493Y-91072900D01*
X154964008Y-91055791D01*
X154975617Y-91055791D01*
X154976813Y-91060487D01*
X154980255Y-91062380D01*
X154984531Y-91046878D01*
X154984677Y-91046155D01*
X154986136Y-91029773D01*
X154980914Y-91029814D01*
X154976777Y-91037051D01*
X154975617Y-91055791D01*
X154964008Y-91055791D01*
X154964532Y-91049873D01*
X154964766Y-91041631D01*
X154967968Y-91021257D01*
X154973725Y-91013102D01*
X154973839Y-91013100D01*
X154980255Y-91004887D01*
X154982918Y-90985523D01*
X154982918Y-90985180D01*
X154983523Y-90980926D01*
X154992111Y-90980926D01*
X154996707Y-90985523D01*
X155001303Y-90980926D01*
X154996707Y-90976330D01*
X154992111Y-90980926D01*
X154983523Y-90980926D01*
X154985656Y-90965933D01*
X154992111Y-90957944D01*
X154992225Y-90957942D01*
X154998641Y-90949729D01*
X155001303Y-90930366D01*
X155001304Y-90930022D01*
X155001909Y-90925769D01*
X155010496Y-90925769D01*
X155015093Y-90930366D01*
X155019689Y-90925769D01*
X155015093Y-90921173D01*
X155010496Y-90925769D01*
X155001909Y-90925769D01*
X155004042Y-90910775D01*
X155010496Y-90902787D01*
X155010611Y-90902785D01*
X155017026Y-90894572D01*
X155019689Y-90875208D01*
X155019690Y-90874865D01*
X155022428Y-90855618D01*
X155028882Y-90847629D01*
X155028997Y-90847627D01*
X155035412Y-90839415D01*
X155038075Y-90820051D01*
X155038076Y-90819708D01*
X155040813Y-90800460D01*
X155047268Y-90792472D01*
X155047382Y-90792470D01*
X155053798Y-90784257D01*
X155056461Y-90764893D01*
X155056462Y-90764550D01*
X155057067Y-90760297D01*
X155065654Y-90760297D01*
X155070250Y-90764893D01*
X155074847Y-90760297D01*
X155070250Y-90755700D01*
X155065654Y-90760297D01*
X155057067Y-90760297D01*
X155059199Y-90745303D01*
X155065654Y-90737314D01*
X155065768Y-90737312D01*
X155072184Y-90729100D01*
X155074847Y-90709736D01*
X155074847Y-90709393D01*
X155075452Y-90705139D01*
X155084040Y-90705139D01*
X155088636Y-90709736D01*
X155093232Y-90705139D01*
X155088636Y-90700543D01*
X155084040Y-90705139D01*
X155075452Y-90705139D01*
X155077585Y-90690145D01*
X155084040Y-90682157D01*
X155084154Y-90682155D01*
X155090570Y-90673942D01*
X155092778Y-90657881D01*
X155103670Y-90657881D01*
X155104750Y-90669161D01*
X155108297Y-90669095D01*
X155115295Y-90658255D01*
X155117728Y-90649437D01*
X155116648Y-90638157D01*
X155113101Y-90638223D01*
X155106103Y-90649063D01*
X155103670Y-90657881D01*
X155092778Y-90657881D01*
X155093232Y-90654578D01*
X155093233Y-90654235D01*
X155095971Y-90634988D01*
X155102425Y-90627000D01*
X155107769Y-90623552D01*
X155110434Y-90613210D01*
X155120811Y-90613210D01*
X155125408Y-90617807D01*
X155130004Y-90613210D01*
X155125408Y-90608614D01*
X155120811Y-90613210D01*
X155110434Y-90613210D01*
X155111618Y-90608614D01*
X155113342Y-90597927D01*
X155120811Y-90590228D01*
X155120926Y-90590226D01*
X155127341Y-90582013D01*
X155129550Y-90565952D01*
X155140442Y-90565952D01*
X155141522Y-90577232D01*
X155145069Y-90577166D01*
X155152067Y-90566326D01*
X155154499Y-90557508D01*
X155153419Y-90546228D01*
X155149872Y-90546294D01*
X155142874Y-90557134D01*
X155140442Y-90565952D01*
X155129550Y-90565952D01*
X155130004Y-90562649D01*
X155130005Y-90562306D01*
X155132742Y-90543059D01*
X155139197Y-90535071D01*
X155144540Y-90531623D01*
X155147066Y-90521824D01*
X155157583Y-90521824D01*
X155157672Y-90523109D01*
X155162994Y-90525133D01*
X155172250Y-90515264D01*
X155174487Y-90510127D01*
X155168196Y-90511210D01*
X155164112Y-90514048D01*
X155157583Y-90521824D01*
X155147066Y-90521824D01*
X155148390Y-90516685D01*
X155150114Y-90505998D01*
X155157583Y-90498299D01*
X155162926Y-90494851D01*
X155166776Y-90479913D01*
X155168500Y-90469227D01*
X155175969Y-90461527D01*
X155176083Y-90461525D01*
X155182499Y-90453312D01*
X155184708Y-90437251D01*
X155195599Y-90437251D01*
X155196680Y-90448531D01*
X155200226Y-90448465D01*
X155207225Y-90437626D01*
X155209657Y-90428808D01*
X155208577Y-90417528D01*
X155205030Y-90417593D01*
X155198032Y-90428433D01*
X155195599Y-90437251D01*
X155184708Y-90437251D01*
X155185162Y-90433949D01*
X155185162Y-90433605D01*
X155187900Y-90414358D01*
X155194354Y-90406370D01*
X155199698Y-90402922D01*
X155202223Y-90393123D01*
X155212740Y-90393123D01*
X155212830Y-90394408D01*
X155218151Y-90396433D01*
X155227407Y-90386564D01*
X155229644Y-90381426D01*
X155223354Y-90382510D01*
X155219270Y-90385348D01*
X155212740Y-90393123D01*
X155202223Y-90393123D01*
X155203547Y-90387984D01*
X155205271Y-90377298D01*
X155212740Y-90369598D01*
X155218083Y-90366151D01*
X155220609Y-90356351D01*
X155231126Y-90356351D01*
X155231216Y-90357637D01*
X155236537Y-90359661D01*
X155245793Y-90349792D01*
X155248030Y-90344655D01*
X155241739Y-90345738D01*
X155237656Y-90348576D01*
X155231126Y-90356351D01*
X155220609Y-90356351D01*
X155221933Y-90351212D01*
X155223657Y-90340526D01*
X155231126Y-90332827D01*
X155236469Y-90329379D01*
X155238995Y-90319580D01*
X155249512Y-90319580D01*
X155249601Y-90320865D01*
X155254923Y-90322889D01*
X155264179Y-90313020D01*
X155266416Y-90307883D01*
X155260125Y-90308966D01*
X155256041Y-90311804D01*
X155249512Y-90319580D01*
X155238995Y-90319580D01*
X155240319Y-90314441D01*
X155242043Y-90303754D01*
X155249512Y-90296055D01*
X155254855Y-90292607D01*
X155257381Y-90282808D01*
X155267898Y-90282808D01*
X155267987Y-90284093D01*
X155273309Y-90286118D01*
X155282565Y-90276249D01*
X155284802Y-90271111D01*
X155278511Y-90272195D01*
X155274427Y-90275033D01*
X155267898Y-90282808D01*
X155257381Y-90282808D01*
X155258705Y-90277669D01*
X155260429Y-90266983D01*
X155267898Y-90259283D01*
X155273241Y-90255836D01*
X155275767Y-90246037D01*
X155286284Y-90246037D01*
X155286373Y-90247322D01*
X155291694Y-90249346D01*
X155300951Y-90239477D01*
X155303187Y-90234340D01*
X155296897Y-90235423D01*
X155292813Y-90238261D01*
X155286284Y-90246037D01*
X155275767Y-90246037D01*
X155277091Y-90240898D01*
X155278814Y-90230211D01*
X155286284Y-90222512D01*
X155291627Y-90219064D01*
X155294152Y-90209265D01*
X155304669Y-90209265D01*
X155304759Y-90210550D01*
X155310080Y-90212575D01*
X155319337Y-90202706D01*
X155321573Y-90197568D01*
X155315283Y-90198652D01*
X155311199Y-90201489D01*
X155304669Y-90209265D01*
X155294152Y-90209265D01*
X155295476Y-90204126D01*
X155297200Y-90193440D01*
X155304669Y-90185740D01*
X155310012Y-90182292D01*
X155312538Y-90172493D01*
X155323055Y-90172493D01*
X155323145Y-90173778D01*
X155328466Y-90175803D01*
X155337722Y-90165934D01*
X155339959Y-90160796D01*
X155333668Y-90161880D01*
X155329585Y-90164718D01*
X155323055Y-90172493D01*
X155312538Y-90172493D01*
X155313862Y-90167354D01*
X155315586Y-90156668D01*
X155323055Y-90148968D01*
X155328398Y-90145521D01*
X155330924Y-90135722D01*
X155341441Y-90135722D01*
X155341530Y-90137007D01*
X155346852Y-90139031D01*
X155356108Y-90129162D01*
X155358345Y-90124025D01*
X155352054Y-90125108D01*
X155347970Y-90127946D01*
X155341441Y-90135722D01*
X155330924Y-90135722D01*
X155332248Y-90130583D01*
X155333972Y-90119896D01*
X155341441Y-90112197D01*
X155346784Y-90108749D01*
X155349159Y-90099533D01*
X155359827Y-90099533D01*
X155363977Y-90103998D01*
X155373768Y-90099211D01*
X155382036Y-90087914D01*
X155383119Y-90084999D01*
X155383793Y-90077736D01*
X155373827Y-90084443D01*
X155365925Y-90091611D01*
X155359827Y-90099533D01*
X155349159Y-90099533D01*
X155350634Y-90093811D01*
X155352358Y-90083125D01*
X155359827Y-90075425D01*
X155364747Y-90072868D01*
X155368150Y-90061879D01*
X155389181Y-90061879D01*
X155393321Y-90061798D01*
X155400604Y-90050541D01*
X155401258Y-90048797D01*
X155403187Y-90039586D01*
X155395458Y-90045395D01*
X155390212Y-90052154D01*
X155389181Y-90061879D01*
X155368150Y-90061879D01*
X155369020Y-90059069D01*
X155373046Y-90045981D01*
X155387405Y-90029461D01*
X155398855Y-90017626D01*
X155402994Y-90007021D01*
X155414984Y-90007021D01*
X155415074Y-90008306D01*
X155420395Y-90010331D01*
X155429651Y-90000462D01*
X155431888Y-89995324D01*
X155425597Y-89996408D01*
X155421514Y-89999245D01*
X155414984Y-90007021D01*
X155402994Y-90007021D01*
X155405791Y-89999853D01*
X155407229Y-89991098D01*
X155414984Y-89983496D01*
X155419905Y-89980939D01*
X155423382Y-89969707D01*
X155442563Y-89969707D01*
X155447159Y-89974303D01*
X155451756Y-89969707D01*
X155447159Y-89965110D01*
X155442563Y-89969707D01*
X155423382Y-89969707D01*
X155424177Y-89967140D01*
X155428204Y-89954051D01*
X155442563Y-89937532D01*
X155454013Y-89925697D01*
X155458151Y-89915092D01*
X155470142Y-89915092D01*
X155470231Y-89916377D01*
X155475553Y-89918402D01*
X155484809Y-89908533D01*
X155487046Y-89903395D01*
X155480755Y-89904479D01*
X155476671Y-89907316D01*
X155470142Y-89915092D01*
X155458151Y-89915092D01*
X155460949Y-89907923D01*
X155462386Y-89899169D01*
X155470142Y-89891567D01*
X155475062Y-89889010D01*
X155478465Y-89878021D01*
X155499496Y-89878021D01*
X155503636Y-89877940D01*
X155510919Y-89866683D01*
X155511573Y-89864939D01*
X155513502Y-89855728D01*
X155505773Y-89861537D01*
X155500527Y-89868296D01*
X155499496Y-89878021D01*
X155478465Y-89878021D01*
X155479335Y-89875211D01*
X155483361Y-89862122D01*
X155497720Y-89845603D01*
X155509234Y-89834126D01*
X155516106Y-89818024D01*
X155520185Y-89806112D01*
X155534492Y-89790445D01*
X155546006Y-89778968D01*
X155552878Y-89762866D01*
X155556956Y-89750955D01*
X155571264Y-89735288D01*
X155582778Y-89723811D01*
X155589649Y-89707709D01*
X155593728Y-89695797D01*
X155595442Y-89693920D01*
X155617228Y-89693920D01*
X155621825Y-89698516D01*
X155626421Y-89693920D01*
X155621825Y-89689323D01*
X155617228Y-89693920D01*
X155595442Y-89693920D01*
X155608035Y-89680130D01*
X155619549Y-89668653D01*
X155624731Y-89656511D01*
X155645702Y-89656511D01*
X155651803Y-89654203D01*
X155662270Y-89640642D01*
X155668910Y-89629294D01*
X155669199Y-89625927D01*
X155657873Y-89636245D01*
X155648078Y-89647757D01*
X155645702Y-89656511D01*
X155624731Y-89656511D01*
X155626421Y-89652552D01*
X155630500Y-89640640D01*
X155644807Y-89624973D01*
X155656374Y-89613796D01*
X155657177Y-89612059D01*
X155674650Y-89612059D01*
X155676495Y-89614705D01*
X155687068Y-89604159D01*
X155705168Y-89581307D01*
X155709704Y-89575205D01*
X155720675Y-89559529D01*
X155720646Y-89556596D01*
X155710004Y-89565116D01*
X155693727Y-89581567D01*
X155680404Y-89599589D01*
X155674650Y-89612059D01*
X155657177Y-89612059D01*
X155663193Y-89599053D01*
X155663789Y-89595879D01*
X155673315Y-89579808D01*
X155690771Y-89560622D01*
X155696606Y-89554927D01*
X155712125Y-89536683D01*
X155713916Y-89533044D01*
X155740685Y-89533044D01*
X155745628Y-89529105D01*
X155755122Y-89514658D01*
X155760303Y-89503028D01*
X155760365Y-89496272D01*
X155755422Y-89500211D01*
X155745929Y-89514658D01*
X155740748Y-89526288D01*
X155740685Y-89533044D01*
X155713916Y-89533044D01*
X155718350Y-89524038D01*
X155721414Y-89516783D01*
X155734767Y-89499264D01*
X155755122Y-89477886D01*
X155769775Y-89462906D01*
X155785704Y-89443671D01*
X155790185Y-89435028D01*
X155810767Y-89435028D01*
X155812175Y-89435143D01*
X155822175Y-89427250D01*
X155837067Y-89410026D01*
X155859259Y-89381361D01*
X155832958Y-89406363D01*
X155827361Y-89411863D01*
X155814078Y-89427118D01*
X155810767Y-89435028D01*
X155790185Y-89435028D01*
X155791893Y-89431734D01*
X155792519Y-89428861D01*
X155802068Y-89413851D01*
X155819472Y-89395150D01*
X155825327Y-89389440D01*
X155840832Y-89371304D01*
X155843777Y-89365403D01*
X155866620Y-89365403D01*
X155873108Y-89363651D01*
X155877955Y-89358981D01*
X163734634Y-89358981D01*
X163742585Y-89369870D01*
X163744436Y-89372168D01*
X163745451Y-89373429D01*
X163757671Y-89385238D01*
X163762143Y-89382486D01*
X163758787Y-89377739D01*
X163746056Y-89366399D01*
X163739395Y-89361263D01*
X163734634Y-89358981D01*
X155877955Y-89358981D01*
X155887268Y-89350007D01*
X155905939Y-89327381D01*
X155941845Y-89280239D01*
X155902525Y-89318261D01*
X155885454Y-89336064D01*
X155870892Y-89354652D01*
X155866620Y-89365403D01*
X155843777Y-89365403D01*
X155847051Y-89358843D01*
X155849423Y-89353671D01*
X155862333Y-89336968D01*
X155883950Y-89312922D01*
X155911401Y-89284835D01*
X155928746Y-89267370D01*
X155947923Y-89246916D01*
X163639374Y-89246916D01*
X163650515Y-89264151D01*
X163654967Y-89270366D01*
X163662758Y-89280239D01*
X163668292Y-89287251D01*
X163675760Y-89294028D01*
X163677149Y-89289937D01*
X163670800Y-89277025D01*
X163659105Y-89260875D01*
X163645795Y-89247308D01*
X163639755Y-89243130D01*
X163639374Y-89246916D01*
X155947923Y-89246916D01*
X155952950Y-89241554D01*
X155969573Y-89221905D01*
X155972961Y-89216298D01*
X155996079Y-89216298D01*
X156003214Y-89212577D01*
X156019317Y-89198407D01*
X156040675Y-89176888D01*
X156043556Y-89173814D01*
X156058158Y-89156902D01*
X156060798Y-89151048D01*
X156053171Y-89155362D01*
X156036971Y-89168956D01*
X156013891Y-89190941D01*
X156011940Y-89192918D01*
X155999219Y-89208038D01*
X155996079Y-89216298D01*
X155972961Y-89216298D01*
X155975751Y-89211680D01*
X155975755Y-89211608D01*
X155982323Y-89202349D01*
X156000073Y-89182362D01*
X156027006Y-89153640D01*
X156051144Y-89128556D01*
X156077642Y-89128556D01*
X156084665Y-89123613D01*
X156101094Y-89108658D01*
X156122838Y-89087188D01*
X156141913Y-89067163D01*
X156155403Y-89051728D01*
X156158841Y-89045820D01*
X156151818Y-89050763D01*
X156135389Y-89065717D01*
X156113645Y-89087188D01*
X156094571Y-89107212D01*
X156081080Y-89122648D01*
X156077642Y-89128556D01*
X156051144Y-89128556D01*
X156061129Y-89118180D01*
X156100443Y-89077979D01*
X156142953Y-89035033D01*
X156145957Y-89032030D01*
X156168803Y-89032030D01*
X156173399Y-89036627D01*
X156177995Y-89032030D01*
X156173399Y-89027434D01*
X156168803Y-89032030D01*
X156145957Y-89032030D01*
X156179888Y-88998108D01*
X156207232Y-88998108D01*
X156210082Y-88997513D01*
X156224677Y-88985237D01*
X156251539Y-88960514D01*
X156251638Y-88960421D01*
X156276957Y-88936902D01*
X163341972Y-88936902D01*
X163343536Y-88941031D01*
X163355695Y-88956192D01*
X163377602Y-88980366D01*
X163407265Y-89011374D01*
X163427782Y-89032030D01*
X163441479Y-89045820D01*
X163442690Y-89047039D01*
X163469883Y-89073619D01*
X163502069Y-89104071D01*
X163527679Y-89127110D01*
X163544597Y-89140848D01*
X163550706Y-89143397D01*
X163549123Y-89139789D01*
X163537378Y-89124749D01*
X163516464Y-89101550D01*
X163489103Y-89072884D01*
X163458016Y-89041446D01*
X163425926Y-89009927D01*
X163395555Y-88981021D01*
X163369624Y-88957419D01*
X163350856Y-88941815D01*
X163341972Y-88936902D01*
X156276957Y-88936902D01*
X156280029Y-88934048D01*
X156314663Y-88902341D01*
X156348064Y-88872145D01*
X156359326Y-88861881D01*
X156377369Y-88844088D01*
X156382967Y-88835972D01*
X156375274Y-88838573D01*
X156362578Y-88847412D01*
X156337556Y-88868102D01*
X156306782Y-88895850D01*
X156274250Y-88927154D01*
X156263950Y-88937446D01*
X156234687Y-88967309D01*
X156215607Y-88987785D01*
X156207232Y-88998108D01*
X156179888Y-88998108D01*
X156186662Y-88991336D01*
X156229574Y-88948886D01*
X156269693Y-88909678D01*
X156305022Y-88875709D01*
X156333565Y-88848973D01*
X156353325Y-88831468D01*
X156362307Y-88825190D01*
X156364618Y-88824454D01*
X156378572Y-88814487D01*
X156400305Y-88795307D01*
X156407364Y-88788418D01*
X156437260Y-88788418D01*
X156437748Y-88788346D01*
X156448627Y-88781906D01*
X156467915Y-88767690D01*
X156488757Y-88751209D01*
X163127913Y-88751209D01*
X163132460Y-88757366D01*
X163150815Y-88774483D01*
X163153314Y-88776723D01*
X163179706Y-88799570D01*
X163201575Y-88817210D01*
X163216975Y-88828363D01*
X163223959Y-88831747D01*
X163220581Y-88826081D01*
X163204895Y-88810083D01*
X163189621Y-88796036D01*
X163162541Y-88773399D01*
X163140544Y-88757592D01*
X163136757Y-88755323D01*
X163127913Y-88751209D01*
X156488757Y-88751209D01*
X156490981Y-88749450D01*
X156513191Y-88730933D01*
X156529915Y-88715891D01*
X156536519Y-88708072D01*
X156532266Y-88708447D01*
X156519707Y-88718047D01*
X156507181Y-88727709D01*
X156494427Y-88733516D01*
X156491814Y-88734284D01*
X156477786Y-88743951D01*
X156459145Y-88761095D01*
X156452284Y-88768263D01*
X156439876Y-88782683D01*
X156437260Y-88788418D01*
X156407364Y-88788418D01*
X156426204Y-88770033D01*
X156435091Y-88761120D01*
X156460176Y-88737514D01*
X156480021Y-88721056D01*
X156490953Y-88714875D01*
X156493791Y-88714246D01*
X156508680Y-88704694D01*
X156514027Y-88699705D01*
X163063482Y-88699705D01*
X163063495Y-88699841D01*
X163070832Y-88707290D01*
X163071917Y-88708072D01*
X163087596Y-88719368D01*
X163090161Y-88721013D01*
X163103410Y-88727743D01*
X163105470Y-88725071D01*
X163097692Y-88716962D01*
X163083228Y-88706655D01*
X163069554Y-88699531D01*
X163063482Y-88699705D01*
X156514027Y-88699705D01*
X156527326Y-88687296D01*
X156530609Y-88683933D01*
X156556531Y-88683933D01*
X156564097Y-88687296D01*
X156568964Y-88686633D01*
X156570226Y-88681168D01*
X156568879Y-88680068D01*
X156557969Y-88681168D01*
X156556531Y-88683933D01*
X156530609Y-88683933D01*
X156533021Y-88681462D01*
X156551265Y-88665943D01*
X156563910Y-88659718D01*
X156571166Y-88656654D01*
X156588684Y-88643301D01*
X156600407Y-88632139D01*
X162976150Y-88632139D01*
X162978028Y-88634623D01*
X162991024Y-88641332D01*
X162994115Y-88640624D01*
X162994535Y-88632139D01*
X162992657Y-88629655D01*
X162979661Y-88622946D01*
X162976570Y-88623654D01*
X162976150Y-88632139D01*
X156600407Y-88632139D01*
X156610062Y-88622946D01*
X156615852Y-88617282D01*
X156640764Y-88617282D01*
X156645749Y-88622946D01*
X156648445Y-88622603D01*
X156660623Y-88613753D01*
X156662096Y-88610224D01*
X156657112Y-88604560D01*
X156654415Y-88604903D01*
X156642237Y-88613753D01*
X156640764Y-88617282D01*
X156615852Y-88617282D01*
X156625042Y-88608293D01*
X156644277Y-88592364D01*
X156656214Y-88586174D01*
X156659087Y-88585549D01*
X156665329Y-88581578D01*
X156692798Y-88581578D01*
X156697395Y-88586174D01*
X156701991Y-88581578D01*
X156697395Y-88576982D01*
X156692798Y-88581578D01*
X156665329Y-88581578D01*
X156674098Y-88576000D01*
X156679964Y-88570540D01*
X162902690Y-88570540D01*
X162910420Y-88580575D01*
X162911649Y-88581578D01*
X162928000Y-88594927D01*
X162949441Y-88610224D01*
X162957764Y-88616162D01*
X162932762Y-88590165D01*
X162927371Y-88584778D01*
X162911649Y-88571794D01*
X162902998Y-88568929D01*
X162902690Y-88570540D01*
X156679964Y-88570540D01*
X156687260Y-88563750D01*
X156712947Y-88563750D01*
X156714901Y-88566864D01*
X156729570Y-88558596D01*
X156736036Y-88553133D01*
X156732411Y-88549544D01*
X156729206Y-88549855D01*
X156715780Y-88558596D01*
X156712947Y-88563750D01*
X156687260Y-88563750D01*
X156692798Y-88558596D01*
X156698394Y-88552898D01*
X156717355Y-88537285D01*
X156718564Y-88536739D01*
X156757149Y-88536739D01*
X156757299Y-88538352D01*
X156763289Y-88538414D01*
X156769668Y-88531619D01*
X162852115Y-88531619D01*
X162860066Y-88542508D01*
X162862932Y-88546067D01*
X162870243Y-88553133D01*
X162875152Y-88557877D01*
X162879624Y-88555125D01*
X162876268Y-88550378D01*
X162863537Y-88539037D01*
X162856876Y-88533902D01*
X162852115Y-88531619D01*
X156769668Y-88531619D01*
X156776707Y-88524122D01*
X156781842Y-88517461D01*
X156784125Y-88512701D01*
X156773236Y-88520651D01*
X156763431Y-88529065D01*
X156757149Y-88536739D01*
X156718564Y-88536739D01*
X156731229Y-88531017D01*
X156742170Y-88526895D01*
X156757149Y-88512631D01*
X156768326Y-88501064D01*
X156783068Y-88494245D01*
X156786242Y-88493649D01*
X156802313Y-88484123D01*
X156809444Y-88477635D01*
X162773662Y-88477635D01*
X162773743Y-88481775D01*
X162785000Y-88489058D01*
X162786744Y-88489712D01*
X162795956Y-88491641D01*
X162790146Y-88483912D01*
X162783387Y-88478666D01*
X162773662Y-88477635D01*
X156809444Y-88477635D01*
X156821499Y-88466667D01*
X156824803Y-88463303D01*
X156850704Y-88463303D01*
X156858270Y-88466667D01*
X156863137Y-88466003D01*
X156864399Y-88460538D01*
X156863052Y-88459438D01*
X156852142Y-88460538D01*
X156850704Y-88463303D01*
X156824803Y-88463303D01*
X156827095Y-88460969D01*
X156846055Y-88445356D01*
X156848554Y-88444227D01*
X156885849Y-88444227D01*
X156885939Y-88445512D01*
X156891260Y-88447537D01*
X156898345Y-88439983D01*
X162719385Y-88439983D01*
X162721693Y-88446085D01*
X162735254Y-88456551D01*
X162742068Y-88460538D01*
X162746602Y-88463191D01*
X162749969Y-88463480D01*
X162739651Y-88452154D01*
X162728139Y-88442359D01*
X162719385Y-88439983D01*
X156898345Y-88439983D01*
X156900516Y-88437668D01*
X156902753Y-88432530D01*
X156896462Y-88433614D01*
X156892379Y-88436451D01*
X156885849Y-88444227D01*
X156848554Y-88444227D01*
X156859929Y-88439088D01*
X156870870Y-88434966D01*
X156880452Y-88425841D01*
X156913428Y-88425841D01*
X156913517Y-88427126D01*
X156918839Y-88429151D01*
X156928095Y-88419282D01*
X156930332Y-88414144D01*
X156924041Y-88415228D01*
X156919957Y-88418066D01*
X156913428Y-88425841D01*
X156880452Y-88425841D01*
X156885849Y-88420702D01*
X156894415Y-88412108D01*
X162679634Y-88412108D01*
X162680189Y-88414144D01*
X162681977Y-88420702D01*
X162683865Y-88423423D01*
X162692255Y-88429895D01*
X162693512Y-88429296D01*
X162691170Y-88420702D01*
X162689281Y-88417981D01*
X162680892Y-88411509D01*
X162679634Y-88412108D01*
X156894415Y-88412108D01*
X156897326Y-88409188D01*
X156898423Y-88408720D01*
X156942320Y-88408720D01*
X156946186Y-88409303D01*
X156949660Y-88406913D01*
X162658994Y-88406913D01*
X162663591Y-88411509D01*
X162668187Y-88406913D01*
X162663591Y-88402316D01*
X162658994Y-88406913D01*
X156949660Y-88406913D01*
X156963448Y-88397427D01*
X156972872Y-88388361D01*
X156971468Y-88383930D01*
X156964366Y-88386115D01*
X156950200Y-88397720D01*
X156942320Y-88408720D01*
X156898423Y-88408720D01*
X156913428Y-88402316D01*
X156925340Y-88398238D01*
X156941007Y-88383930D01*
X156952841Y-88372481D01*
X156957446Y-88370684D01*
X156996164Y-88370684D01*
X156996254Y-88371969D01*
X157001575Y-88373993D01*
X157008659Y-88366440D01*
X162609070Y-88366440D01*
X162611378Y-88372541D01*
X162624939Y-88383008D01*
X162634087Y-88388361D01*
X162636287Y-88389648D01*
X162639654Y-88389937D01*
X162629336Y-88378610D01*
X162617824Y-88368816D01*
X162609070Y-88366440D01*
X157008659Y-88366440D01*
X157010831Y-88364124D01*
X157013068Y-88358987D01*
X157006777Y-88360070D01*
X157002694Y-88362908D01*
X156996164Y-88370684D01*
X156957446Y-88370684D01*
X156970615Y-88365545D01*
X156979369Y-88364107D01*
X156986971Y-88356352D01*
X156989528Y-88351431D01*
X157003328Y-88347159D01*
X157016416Y-88343132D01*
X157021671Y-88338564D01*
X162569319Y-88338564D01*
X162571662Y-88347159D01*
X162573550Y-88349880D01*
X162581940Y-88356352D01*
X162583197Y-88355753D01*
X162580855Y-88347159D01*
X162578966Y-88344438D01*
X162570577Y-88337966D01*
X162569319Y-88338564D01*
X157021671Y-88338564D01*
X157032936Y-88328773D01*
X157044413Y-88317259D01*
X157045510Y-88316791D01*
X157089407Y-88316791D01*
X157093273Y-88317374D01*
X157110534Y-88305498D01*
X157119959Y-88296432D01*
X157118555Y-88292001D01*
X157111452Y-88294186D01*
X157097286Y-88305791D01*
X157089407Y-88316791D01*
X157045510Y-88316791D01*
X157060514Y-88310387D01*
X157072426Y-88306309D01*
X157088093Y-88292001D01*
X157092959Y-88287294D01*
X157136456Y-88287294D01*
X157137371Y-88291149D01*
X157151734Y-88283407D01*
X162477390Y-88283407D01*
X162479733Y-88292001D01*
X162481621Y-88294723D01*
X162483837Y-88296432D01*
X162490011Y-88301194D01*
X162491268Y-88300596D01*
X162488926Y-88292001D01*
X162487037Y-88289280D01*
X162478648Y-88282809D01*
X162477390Y-88283407D01*
X157151734Y-88283407D01*
X157152177Y-88283168D01*
X157158575Y-88277769D01*
X157160382Y-88269297D01*
X157155127Y-88268827D01*
X157143435Y-88277990D01*
X157136456Y-88287294D01*
X157092959Y-88287294D01*
X157099928Y-88280552D01*
X157117701Y-88273616D01*
X157126456Y-88272178D01*
X157134058Y-88264423D01*
X157136673Y-88260369D01*
X157180022Y-88260369D01*
X157180112Y-88261654D01*
X157185433Y-88263678D01*
X157189046Y-88259826D01*
X162429172Y-88259826D01*
X162433768Y-88264423D01*
X162438365Y-88259826D01*
X162433768Y-88255230D01*
X162429172Y-88259826D01*
X157189046Y-88259826D01*
X157194689Y-88253809D01*
X157196926Y-88248672D01*
X157190635Y-88249755D01*
X157186552Y-88252593D01*
X157180022Y-88260369D01*
X157136673Y-88260369D01*
X157137505Y-88259080D01*
X157152443Y-88255230D01*
X157163130Y-88253506D01*
X157170829Y-88246037D01*
X157173387Y-88241117D01*
X157187186Y-88236844D01*
X157200274Y-88232817D01*
X157205529Y-88228250D01*
X162385461Y-88228250D01*
X162387804Y-88236844D01*
X162389692Y-88239565D01*
X162398082Y-88246037D01*
X162399339Y-88245438D01*
X162396997Y-88236844D01*
X162395108Y-88234123D01*
X162386719Y-88227651D01*
X162385461Y-88228250D01*
X157205529Y-88228250D01*
X157210087Y-88224288D01*
X157236806Y-88224288D01*
X157244373Y-88227651D01*
X157249239Y-88226988D01*
X157250501Y-88221522D01*
X157249154Y-88220422D01*
X157238244Y-88221522D01*
X157236806Y-88224288D01*
X157210087Y-88224288D01*
X157216794Y-88218458D01*
X157228629Y-88207008D01*
X157233234Y-88205211D01*
X157271951Y-88205211D01*
X157272190Y-88206129D01*
X157281144Y-88209265D01*
X157283664Y-88208891D01*
X157290337Y-88199530D01*
X157289615Y-88196205D01*
X157281144Y-88195476D01*
X157278393Y-88197363D01*
X157271951Y-88205211D01*
X157233234Y-88205211D01*
X157246402Y-88200072D01*
X157255156Y-88198635D01*
X157262758Y-88190879D01*
X157265374Y-88186826D01*
X157308723Y-88186826D01*
X157308812Y-88188111D01*
X157314134Y-88190135D01*
X157317747Y-88186283D01*
X162291278Y-88186283D01*
X162295875Y-88190879D01*
X162300471Y-88186283D01*
X162295875Y-88181687D01*
X162291278Y-88186283D01*
X157317747Y-88186283D01*
X157323390Y-88180266D01*
X157325627Y-88175129D01*
X157319336Y-88176212D01*
X157315252Y-88179050D01*
X157308723Y-88186826D01*
X157265374Y-88186826D01*
X157266206Y-88185536D01*
X157281144Y-88181687D01*
X157291830Y-88179963D01*
X157299530Y-88172494D01*
X157302978Y-88167150D01*
X157317916Y-88163301D01*
X157328602Y-88161577D01*
X157331564Y-88158704D01*
X157354687Y-88158704D01*
X157359284Y-88163301D01*
X162254506Y-88163301D01*
X162254881Y-88165820D01*
X162264242Y-88172494D01*
X162267567Y-88171772D01*
X162268296Y-88163301D01*
X162266409Y-88160550D01*
X162258560Y-88154108D01*
X162257643Y-88154347D01*
X162256117Y-88158704D01*
X162254506Y-88163301D01*
X157359284Y-88163301D01*
X157363880Y-88158704D01*
X157359284Y-88154108D01*
X157354687Y-88158704D01*
X157331564Y-88158704D01*
X157336302Y-88154108D01*
X157339749Y-88148765D01*
X157354687Y-88144915D01*
X162217735Y-88144915D01*
X162218109Y-88147435D01*
X162227470Y-88154108D01*
X162230795Y-88153386D01*
X162231524Y-88144915D01*
X162229637Y-88142164D01*
X162221789Y-88135722D01*
X162220871Y-88135961D01*
X162217735Y-88144915D01*
X157354687Y-88144915D01*
X157365374Y-88143191D01*
X157373073Y-88135722D01*
X157376521Y-88130379D01*
X157391459Y-88126529D01*
X157402145Y-88124805D01*
X157409227Y-88117935D01*
X162183217Y-88117935D01*
X162185560Y-88126529D01*
X162187448Y-88129250D01*
X162195838Y-88135722D01*
X162197095Y-88135123D01*
X162194753Y-88126529D01*
X162192864Y-88123808D01*
X162184475Y-88117336D01*
X162183217Y-88117935D01*
X157409227Y-88117935D01*
X157409845Y-88117336D01*
X157413293Y-88111993D01*
X157428231Y-88108143D01*
X157438917Y-88106419D01*
X157445999Y-88099549D01*
X162146446Y-88099549D01*
X162148788Y-88108143D01*
X162150677Y-88110865D01*
X162159066Y-88117336D01*
X162160323Y-88116738D01*
X162157981Y-88108143D01*
X162156092Y-88105422D01*
X162147703Y-88098950D01*
X162146446Y-88099549D01*
X157445999Y-88099549D01*
X157446616Y-88098950D01*
X157450064Y-88093607D01*
X157465002Y-88089757D01*
X162107420Y-88089757D01*
X162107794Y-88092277D01*
X162117155Y-88098950D01*
X162120480Y-88098229D01*
X162121209Y-88089757D01*
X162119323Y-88087006D01*
X162111474Y-88080565D01*
X162110556Y-88080804D01*
X162107420Y-88089757D01*
X157465002Y-88089757D01*
X157475689Y-88088034D01*
X157483388Y-88080565D01*
X157486836Y-88075221D01*
X157501774Y-88071372D01*
X157512460Y-88069648D01*
X157515422Y-88066775D01*
X157538546Y-88066775D01*
X157543142Y-88071372D01*
X157547738Y-88066775D01*
X157543740Y-88062777D01*
X162072902Y-88062777D01*
X162073992Y-88066775D01*
X162075245Y-88071372D01*
X162077133Y-88074093D01*
X162085523Y-88080565D01*
X162086780Y-88079966D01*
X162084438Y-88071372D01*
X162082549Y-88068650D01*
X162074160Y-88062179D01*
X162072902Y-88062777D01*
X157543740Y-88062777D01*
X157543142Y-88062179D01*
X157538546Y-88066775D01*
X157515422Y-88066775D01*
X157520160Y-88062179D01*
X157523607Y-88056836D01*
X157538546Y-88052986D01*
X157549232Y-88051262D01*
X157552193Y-88048389D01*
X157575317Y-88048389D01*
X157579914Y-88052986D01*
X162029280Y-88052986D01*
X162031159Y-88055470D01*
X162044155Y-88062179D01*
X162047246Y-88061470D01*
X162047666Y-88052986D01*
X162045787Y-88050501D01*
X162032792Y-88043793D01*
X162029700Y-88044501D01*
X162029508Y-88048389D01*
X162029280Y-88052986D01*
X157579914Y-88052986D01*
X157584510Y-88048389D01*
X157579914Y-88043793D01*
X157575317Y-88048389D01*
X157552193Y-88048389D01*
X157556931Y-88043793D01*
X157559547Y-88039739D01*
X157602896Y-88039739D01*
X157602985Y-88041024D01*
X157608307Y-88043049D01*
X157616231Y-88034600D01*
X161992509Y-88034600D01*
X161994387Y-88037084D01*
X162007383Y-88043793D01*
X162010474Y-88043085D01*
X162010894Y-88034600D01*
X162009016Y-88032116D01*
X161996020Y-88025407D01*
X161992929Y-88026115D01*
X161992834Y-88028042D01*
X161992509Y-88034600D01*
X157616231Y-88034600D01*
X157617563Y-88033180D01*
X157619800Y-88028042D01*
X157613509Y-88029126D01*
X157609425Y-88031964D01*
X157602896Y-88039739D01*
X157559547Y-88039739D01*
X157560379Y-88038450D01*
X157575317Y-88034600D01*
X157586003Y-88032876D01*
X157593703Y-88025407D01*
X157596319Y-88021353D01*
X157639668Y-88021353D01*
X157639907Y-88022271D01*
X157648860Y-88025407D01*
X157651380Y-88025033D01*
X157658053Y-88015672D01*
X157657332Y-88012347D01*
X157648860Y-88011618D01*
X157646109Y-88013505D01*
X157639668Y-88021353D01*
X157596319Y-88021353D01*
X157597151Y-88020064D01*
X157612089Y-88016214D01*
X157622775Y-88014490D01*
X157630475Y-88007021D01*
X157630477Y-88006907D01*
X157638689Y-88000491D01*
X157658053Y-87997828D01*
X157658396Y-87997828D01*
X157677644Y-87995090D01*
X157679944Y-87993232D01*
X161905176Y-87993232D01*
X161909772Y-87997828D01*
X161914369Y-87993232D01*
X161909772Y-87988636D01*
X161905176Y-87993232D01*
X157679944Y-87993232D01*
X157685632Y-87988636D01*
X157689080Y-87983292D01*
X157704018Y-87979443D01*
X157714704Y-87977719D01*
X157721788Y-87970848D01*
X161870658Y-87970848D01*
X161873001Y-87979443D01*
X161874890Y-87982164D01*
X161883279Y-87988636D01*
X161884536Y-87988037D01*
X161882194Y-87979443D01*
X161880305Y-87976721D01*
X161871916Y-87970250D01*
X161870658Y-87970848D01*
X157721788Y-87970848D01*
X157722404Y-87970250D01*
X157725019Y-87966196D01*
X157768368Y-87966196D01*
X157768458Y-87967481D01*
X157773779Y-87969505D01*
X157783035Y-87959636D01*
X157785272Y-87954499D01*
X157778981Y-87955582D01*
X157774898Y-87958420D01*
X157768368Y-87966196D01*
X157725019Y-87966196D01*
X157725851Y-87964907D01*
X157740789Y-87961057D01*
X157751476Y-87959333D01*
X157759175Y-87951864D01*
X157759177Y-87951750D01*
X157767390Y-87945334D01*
X157786754Y-87942671D01*
X157787097Y-87942670D01*
X157806344Y-87939933D01*
X157813592Y-87934077D01*
X161778729Y-87934077D01*
X161781072Y-87942671D01*
X161782960Y-87945392D01*
X161791350Y-87951864D01*
X161792607Y-87951265D01*
X161790265Y-87942671D01*
X161788376Y-87939950D01*
X161779987Y-87933478D01*
X161778729Y-87934077D01*
X157813592Y-87934077D01*
X157814333Y-87933478D01*
X157816948Y-87929424D01*
X157860297Y-87929424D01*
X157860387Y-87930709D01*
X157865708Y-87932734D01*
X157874964Y-87922865D01*
X157877201Y-87917727D01*
X157870911Y-87918811D01*
X157866827Y-87921649D01*
X157860297Y-87929424D01*
X157816948Y-87929424D01*
X157817780Y-87928135D01*
X157832719Y-87924285D01*
X157843405Y-87922561D01*
X157851104Y-87915092D01*
X157851106Y-87914978D01*
X157859319Y-87908562D01*
X157878683Y-87905899D01*
X157879026Y-87905899D01*
X157898273Y-87903161D01*
X157905521Y-87897305D01*
X161686800Y-87897305D01*
X161689143Y-87905899D01*
X161691031Y-87908621D01*
X161699421Y-87915092D01*
X161700678Y-87914494D01*
X161698336Y-87905899D01*
X161696447Y-87903178D01*
X161688058Y-87896706D01*
X161686800Y-87897305D01*
X157905521Y-87897305D01*
X157906262Y-87896706D01*
X157907824Y-87894285D01*
X157954923Y-87894285D01*
X157962962Y-87895634D01*
X157979805Y-87887514D01*
X157981655Y-87886304D01*
X157985216Y-87882917D01*
X161629389Y-87882917D01*
X161633985Y-87887514D01*
X161638582Y-87882917D01*
X161633985Y-87878321D01*
X161632357Y-87879949D01*
X161629389Y-87882917D01*
X157985216Y-87882917D01*
X157988337Y-87879949D01*
X157978049Y-87878461D01*
X157969942Y-87879515D01*
X157956823Y-87887514D01*
X157954923Y-87894285D01*
X157907824Y-87894285D01*
X157909709Y-87891363D01*
X157924648Y-87887514D01*
X157935334Y-87885790D01*
X157943033Y-87878321D01*
X157943036Y-87878206D01*
X157948078Y-87874267D01*
X158007384Y-87874267D01*
X158007473Y-87875552D01*
X158012795Y-87877576D01*
X158022051Y-87867707D01*
X158024089Y-87863027D01*
X161566217Y-87863027D01*
X161578828Y-87869128D01*
X161592573Y-87874524D01*
X161606970Y-87876926D01*
X161606407Y-87869128D01*
X161599096Y-87863806D01*
X161580584Y-87860581D01*
X161571093Y-87860988D01*
X161567310Y-87862570D01*
X161566217Y-87863027D01*
X158024089Y-87863027D01*
X158024288Y-87862570D01*
X158017997Y-87863653D01*
X158013913Y-87866491D01*
X158007384Y-87874267D01*
X157948078Y-87874267D01*
X157951248Y-87871791D01*
X157970612Y-87869128D01*
X157970955Y-87869127D01*
X157990203Y-87866389D01*
X157998191Y-87859935D01*
X157998193Y-87859820D01*
X158006406Y-87853405D01*
X158025770Y-87850742D01*
X158026113Y-87850741D01*
X158045360Y-87848004D01*
X158047660Y-87846145D01*
X158071734Y-87846145D01*
X158076331Y-87850742D01*
X158079311Y-87847761D01*
X161524400Y-87847761D01*
X161536723Y-87853213D01*
X161537695Y-87853464D01*
X161551167Y-87855217D01*
X161548781Y-87849193D01*
X161543662Y-87845530D01*
X161527010Y-87843500D01*
X161525390Y-87846145D01*
X161524400Y-87847761D01*
X158079311Y-87847761D01*
X158080927Y-87846145D01*
X158076331Y-87841549D01*
X158071734Y-87846145D01*
X158047660Y-87846145D01*
X158053348Y-87841549D01*
X158053350Y-87841435D01*
X158061563Y-87835019D01*
X158080927Y-87832356D01*
X158081270Y-87832355D01*
X158100517Y-87829618D01*
X158102817Y-87827760D01*
X158126892Y-87827760D01*
X158131488Y-87832356D01*
X158136084Y-87827760D01*
X158133264Y-87824939D01*
X161477463Y-87824939D01*
X161477518Y-87827760D01*
X161477543Y-87829079D01*
X161488801Y-87836362D01*
X161490545Y-87837016D01*
X161499756Y-87838945D01*
X161493947Y-87831215D01*
X161487187Y-87825970D01*
X161477463Y-87824939D01*
X158133264Y-87824939D01*
X158131488Y-87823163D01*
X158126892Y-87827760D01*
X158102817Y-87827760D01*
X158108506Y-87823163D01*
X158108508Y-87823049D01*
X158116721Y-87816633D01*
X158136084Y-87813970D01*
X158136428Y-87813970D01*
X158155675Y-87811232D01*
X158157974Y-87809374D01*
X158182049Y-87809374D01*
X158186645Y-87813970D01*
X158191242Y-87809374D01*
X161408759Y-87809374D01*
X161413356Y-87813970D01*
X161417952Y-87809374D01*
X161413955Y-87805376D01*
X161429399Y-87805376D01*
X161430489Y-87809374D01*
X161431741Y-87813970D01*
X161433630Y-87816692D01*
X161442019Y-87823163D01*
X161443277Y-87822565D01*
X161440934Y-87813970D01*
X161439046Y-87811249D01*
X161430656Y-87804777D01*
X161429399Y-87805376D01*
X161413955Y-87805376D01*
X161413356Y-87804777D01*
X161408759Y-87809374D01*
X158191242Y-87809374D01*
X158186645Y-87804777D01*
X158182049Y-87809374D01*
X158157974Y-87809374D01*
X158163663Y-87804777D01*
X158163665Y-87804663D01*
X158171878Y-87798247D01*
X158191242Y-87795584D01*
X158191585Y-87795584D01*
X158210832Y-87792846D01*
X158213132Y-87790988D01*
X158237206Y-87790988D01*
X158241803Y-87795584D01*
X158246399Y-87790988D01*
X158244895Y-87789484D01*
X161345587Y-87789484D01*
X161348696Y-87790988D01*
X161358198Y-87795584D01*
X161371943Y-87800981D01*
X161386341Y-87803382D01*
X161385777Y-87795584D01*
X161378466Y-87790263D01*
X161359954Y-87787038D01*
X161350463Y-87787445D01*
X161345587Y-87789484D01*
X158244895Y-87789484D01*
X158241803Y-87786392D01*
X158237206Y-87790988D01*
X158213132Y-87790988D01*
X158218821Y-87786392D01*
X158218823Y-87786277D01*
X158219850Y-87785475D01*
X158284927Y-87785475D01*
X158292624Y-87783006D01*
X158310750Y-87777199D01*
X158323032Y-87773068D01*
X158323582Y-87772602D01*
X161298444Y-87772602D01*
X161303041Y-87777199D01*
X161307637Y-87772602D01*
X161303041Y-87768006D01*
X161300951Y-87770096D01*
X161298444Y-87772602D01*
X158323582Y-87772602D01*
X158326538Y-87770096D01*
X158313590Y-87768922D01*
X158300523Y-87770184D01*
X158287767Y-87777199D01*
X158285954Y-87780369D01*
X158284927Y-87785475D01*
X158219850Y-87785475D01*
X158227035Y-87779861D01*
X158246399Y-87777199D01*
X158246742Y-87777198D01*
X158265990Y-87774460D01*
X158273978Y-87768006D01*
X158274916Y-87765945D01*
X158287723Y-87760852D01*
X158310750Y-87758813D01*
X158318992Y-87758578D01*
X158339366Y-87755377D01*
X158341011Y-87754216D01*
X158365907Y-87754216D01*
X158370504Y-87758813D01*
X158373399Y-87755917D01*
X161221043Y-87755917D01*
X161234094Y-87757361D01*
X161246740Y-87756080D01*
X161245585Y-87752725D01*
X161241424Y-87751510D01*
X161222603Y-87752725D01*
X161221874Y-87754216D01*
X161221043Y-87755917D01*
X158373399Y-87755917D01*
X158375100Y-87754216D01*
X158370504Y-87749620D01*
X158365907Y-87754216D01*
X158341011Y-87754216D01*
X158347521Y-87749620D01*
X158347523Y-87749506D01*
X158348770Y-87748532D01*
X158413627Y-87748532D01*
X158413677Y-87748514D01*
X158423899Y-87745659D01*
X158444047Y-87740427D01*
X158462108Y-87735831D01*
X161169744Y-87735831D01*
X161174340Y-87740427D01*
X161178936Y-87735831D01*
X161174340Y-87731234D01*
X161172165Y-87733409D01*
X161169744Y-87735831D01*
X158462108Y-87735831D01*
X158471626Y-87733409D01*
X158446888Y-87732322D01*
X158428966Y-87733946D01*
X158416468Y-87740427D01*
X158414647Y-87743600D01*
X158413627Y-87748532D01*
X158348770Y-87748532D01*
X158355736Y-87743090D01*
X158375100Y-87740427D01*
X158375443Y-87740426D01*
X158394690Y-87737689D01*
X158402679Y-87731234D01*
X158403616Y-87729173D01*
X158416424Y-87724080D01*
X158439450Y-87722041D01*
X158447693Y-87721807D01*
X158468067Y-87718605D01*
X158471222Y-87716378D01*
X158500508Y-87716378D01*
X158501890Y-87719255D01*
X158517590Y-87720249D01*
X158520445Y-87720188D01*
X158532655Y-87718597D01*
X158528906Y-87715671D01*
X158519577Y-87714193D01*
X158501328Y-87716011D01*
X158500508Y-87716378D01*
X158471222Y-87716378D01*
X158476222Y-87712848D01*
X158479324Y-87709537D01*
X158495966Y-87705309D01*
X158522187Y-87703655D01*
X158538744Y-87703035D01*
X158559883Y-87699707D01*
X158568151Y-87694463D01*
X158569089Y-87692402D01*
X158581896Y-87687308D01*
X158604923Y-87685270D01*
X158613165Y-87685035D01*
X158633539Y-87681833D01*
X158635182Y-87680673D01*
X158660080Y-87680673D01*
X158664677Y-87685270D01*
X158669273Y-87680673D01*
X158668316Y-87679716D01*
X160914832Y-87679716D01*
X160914875Y-87680673D01*
X160914974Y-87682854D01*
X160926898Y-87684544D01*
X160935934Y-87683072D01*
X160933888Y-87680673D01*
X160949114Y-87680673D01*
X160951512Y-87683072D01*
X160953710Y-87685270D01*
X160958307Y-87680673D01*
X160953710Y-87676077D01*
X160949114Y-87680673D01*
X160933888Y-87680673D01*
X160932452Y-87678990D01*
X160927136Y-87677521D01*
X160914832Y-87679716D01*
X158668316Y-87679716D01*
X158664677Y-87676077D01*
X158660080Y-87680673D01*
X158635182Y-87680673D01*
X158641694Y-87676077D01*
X158644796Y-87672765D01*
X158661439Y-87668537D01*
X158687659Y-87666884D01*
X158704216Y-87666263D01*
X158725356Y-87662935D01*
X158727886Y-87661330D01*
X160822903Y-87661330D01*
X160823045Y-87664468D01*
X160834969Y-87666158D01*
X160844005Y-87664686D01*
X160841959Y-87662287D01*
X160857185Y-87662287D01*
X160859583Y-87664686D01*
X160861781Y-87666884D01*
X160866378Y-87662287D01*
X160861781Y-87657691D01*
X160857185Y-87662287D01*
X160841959Y-87662287D01*
X160840523Y-87660604D01*
X160835207Y-87659135D01*
X160822903Y-87661330D01*
X158727886Y-87661330D01*
X158733623Y-87657691D01*
X158734561Y-87655630D01*
X158747369Y-87650537D01*
X158770395Y-87648498D01*
X158778638Y-87648264D01*
X158799011Y-87645062D01*
X158801904Y-87643020D01*
X158834435Y-87643020D01*
X158836406Y-87645407D01*
X158853131Y-87646365D01*
X158859368Y-87646276D01*
X158872080Y-87644826D01*
X158870060Y-87642944D01*
X160730974Y-87642944D01*
X160731059Y-87644826D01*
X160731116Y-87646082D01*
X160743039Y-87647772D01*
X160752076Y-87646300D01*
X160750030Y-87643902D01*
X160765256Y-87643902D01*
X160767654Y-87646300D01*
X160769852Y-87648498D01*
X160774449Y-87643902D01*
X160769852Y-87639305D01*
X160765256Y-87643902D01*
X160750030Y-87643902D01*
X160748594Y-87642218D01*
X160743277Y-87640749D01*
X160730974Y-87642944D01*
X158870060Y-87642944D01*
X158869219Y-87642161D01*
X158860359Y-87640731D01*
X158837044Y-87642161D01*
X158834435Y-87643020D01*
X158801904Y-87643020D01*
X158807167Y-87639305D01*
X158807167Y-87639296D01*
X158815697Y-87634582D01*
X158838507Y-87631327D01*
X158871517Y-87630112D01*
X158871579Y-87630112D01*
X158904576Y-87628894D01*
X158919575Y-87626749D01*
X158983458Y-87626749D01*
X158991025Y-87630112D01*
X158995891Y-87629449D01*
X158997020Y-87624558D01*
X160620659Y-87624558D01*
X160620801Y-87627696D01*
X160632725Y-87629386D01*
X160641761Y-87627914D01*
X160639715Y-87625516D01*
X160654941Y-87625516D01*
X160657339Y-87627914D01*
X160659537Y-87630112D01*
X160664134Y-87625516D01*
X160659537Y-87620919D01*
X160654941Y-87625516D01*
X160639715Y-87625516D01*
X160638279Y-87623832D01*
X160632963Y-87622364D01*
X160623878Y-87623984D01*
X160620659Y-87624558D01*
X158997020Y-87624558D01*
X158997153Y-87623984D01*
X158995806Y-87622883D01*
X158984896Y-87623984D01*
X158983458Y-87626749D01*
X158919575Y-87626749D01*
X158927365Y-87625635D01*
X158935867Y-87620919D01*
X158941726Y-87616768D01*
X158961645Y-87613122D01*
X158991025Y-87611726D01*
X159015934Y-87610750D01*
X159037809Y-87607430D01*
X159038322Y-87607130D01*
X159064568Y-87607130D01*
X159069164Y-87611726D01*
X159073761Y-87607130D01*
X159072694Y-87606063D01*
X159088854Y-87606063D01*
X159089366Y-87607130D01*
X159090236Y-87608941D01*
X159105936Y-87609934D01*
X159108791Y-87609874D01*
X159116798Y-87608830D01*
X160485611Y-87608830D01*
X160498661Y-87610275D01*
X160511307Y-87608993D01*
X160510666Y-87607130D01*
X160526240Y-87607130D01*
X160528103Y-87608993D01*
X160530837Y-87611726D01*
X160535433Y-87607130D01*
X160530837Y-87602533D01*
X160526240Y-87607130D01*
X160510666Y-87607130D01*
X160510153Y-87605638D01*
X160505991Y-87604424D01*
X160487170Y-87605638D01*
X160485879Y-87608282D01*
X160485611Y-87608830D01*
X159116798Y-87608830D01*
X159121001Y-87608282D01*
X159117252Y-87605356D01*
X159107923Y-87603878D01*
X159089674Y-87605696D01*
X159088854Y-87606063D01*
X159072694Y-87606063D01*
X159069164Y-87602533D01*
X159064568Y-87607130D01*
X159038322Y-87607130D01*
X159046182Y-87602533D01*
X159046427Y-87601711D01*
X159057712Y-87597351D01*
X159083305Y-87594416D01*
X159119725Y-87593341D01*
X159126304Y-87593310D01*
X159161186Y-87591899D01*
X159184668Y-87588700D01*
X159185615Y-87588199D01*
X159220027Y-87588199D01*
X159224910Y-87590282D01*
X159243830Y-87591022D01*
X159253856Y-87590784D01*
X159264905Y-87589260D01*
X159261574Y-87587677D01*
X160329896Y-87587677D01*
X160330657Y-87589260D01*
X160331279Y-87590555D01*
X160346978Y-87591548D01*
X160349833Y-87591488D01*
X160362043Y-87589896D01*
X160358295Y-87586970D01*
X160348966Y-87585492D01*
X160330716Y-87587311D01*
X160329896Y-87587677D01*
X159261574Y-87587677D01*
X159259810Y-87586839D01*
X159245115Y-87585312D01*
X159223038Y-87587024D01*
X159220027Y-87588199D01*
X159185615Y-87588199D01*
X159193269Y-87584148D01*
X159196572Y-87581506D01*
X159215374Y-87578009D01*
X159248764Y-87575754D01*
X159294391Y-87574955D01*
X159323447Y-87574654D01*
X159361917Y-87572945D01*
X159383061Y-87570358D01*
X159413898Y-87570358D01*
X159418495Y-87574955D01*
X159423091Y-87570358D01*
X159423033Y-87570300D01*
X159450941Y-87570300D01*
X159451466Y-87570358D01*
X159462186Y-87571542D01*
X159487442Y-87572012D01*
X159491223Y-87572005D01*
X159514871Y-87571426D01*
X159523979Y-87570146D01*
X160090551Y-87570146D01*
X160099057Y-87571630D01*
X160121752Y-87572200D01*
X160142295Y-87571761D01*
X160152736Y-87570374D01*
X160147033Y-87568370D01*
X160126166Y-87566831D01*
X160096472Y-87568370D01*
X160090681Y-87570107D01*
X160090551Y-87570146D01*
X159523979Y-87570146D01*
X159524257Y-87570107D01*
X159517319Y-87568305D01*
X159489800Y-87566783D01*
X159457565Y-87568305D01*
X159455767Y-87568543D01*
X159450941Y-87570300D01*
X159423033Y-87570300D01*
X159418495Y-87565762D01*
X159413898Y-87570358D01*
X159383061Y-87570358D01*
X159386722Y-87569910D01*
X159395513Y-87565762D01*
X159401119Y-87563800D01*
X159424398Y-87561624D01*
X159465428Y-87559825D01*
X159523857Y-87558413D01*
X159599331Y-87557394D01*
X159691497Y-87556776D01*
X159800000Y-87556569D01*
X159886334Y-87556696D01*
X159982075Y-87557225D01*
X160061201Y-87558158D01*
X160123359Y-87559486D01*
X160168195Y-87561201D01*
X160195356Y-87563296D01*
X160204488Y-87565762D01*
X160207791Y-87568403D01*
X160218386Y-87570374D01*
X160226594Y-87571901D01*
G37*
G36*
X155540021Y-92456811D02*
G01*
X155548281Y-92465581D01*
X155549718Y-92469142D01*
X155544227Y-92474774D01*
X155541559Y-92474420D01*
X155534492Y-92465581D01*
X155534597Y-92463500D01*
X155538546Y-92456388D01*
X155540021Y-92456811D01*
G37*
G36*
X155587857Y-91835867D02*
G01*
X155587870Y-91838044D01*
X155586637Y-91852435D01*
X155583619Y-91852129D01*
X155581933Y-91844576D01*
X155583279Y-91824551D01*
X155583734Y-91822970D01*
X155586532Y-91821609D01*
X155587857Y-91835867D01*
G37*
G36*
X156147385Y-89416972D02*
G01*
X156150417Y-89431922D01*
X156149067Y-89442592D01*
X156143194Y-89450308D01*
X156139002Y-89446872D01*
X156135971Y-89431922D01*
X156137321Y-89421252D01*
X156143194Y-89413536D01*
X156147385Y-89416972D01*
G37*
G36*
X155543685Y-92410423D02*
G01*
X155543021Y-92415290D01*
X155537556Y-92416552D01*
X155536456Y-92415205D01*
X155537556Y-92404295D01*
X155540321Y-92402857D01*
X155543685Y-92410423D01*
G37*
G36*
X155589649Y-91748534D02*
G01*
X155588986Y-91753401D01*
X155583521Y-91754663D01*
X155582421Y-91753315D01*
X155583521Y-91742406D01*
X155586286Y-91740967D01*
X155589649Y-91748534D01*
G37*
G36*
X155662467Y-91090475D02*
G01*
X155661817Y-91099799D01*
X155657639Y-91102541D01*
X155655817Y-91099289D01*
X155656913Y-91084921D01*
X155660222Y-91080666D01*
X155662467Y-91090475D01*
G37*
G36*
X155706093Y-91806756D02*
G01*
X155707531Y-91809521D01*
X155699964Y-91812885D01*
X155695098Y-91812221D01*
X155693836Y-91806756D01*
X155695183Y-91805656D01*
X155706093Y-91806756D01*
G37*
G36*
X155718350Y-90774086D02*
G01*
X155717687Y-90778953D01*
X155712222Y-90780215D01*
X155711121Y-90778867D01*
X155712222Y-90767957D01*
X155714987Y-90766519D01*
X155718350Y-90774086D01*
G37*
G36*
X155819472Y-90332827D02*
G01*
X155818809Y-90337693D01*
X155813343Y-90338955D01*
X155812243Y-90337608D01*
X155813343Y-90326698D01*
X155816109Y-90325260D01*
X155819472Y-90332827D01*
G37*
G36*
X155819472Y-90406370D02*
G01*
X155818809Y-90411237D01*
X155813343Y-90412498D01*
X155812243Y-90411151D01*
X155813343Y-90400241D01*
X155816109Y-90398803D01*
X155819472Y-90406370D01*
G37*
G36*
X155920594Y-91270503D02*
G01*
X155919931Y-91275370D01*
X155914465Y-91276632D01*
X155913365Y-91275284D01*
X155914465Y-91264374D01*
X155917231Y-91262936D01*
X155920594Y-91270503D01*
G37*
G36*
X155965833Y-89867819D02*
G01*
X155965183Y-89877143D01*
X155961005Y-89879884D01*
X155959183Y-89876632D01*
X155960279Y-89862265D01*
X155963588Y-89858010D01*
X155965833Y-89867819D01*
G37*
G36*
X156101388Y-89536108D02*
G01*
X156102826Y-89538873D01*
X156095259Y-89542237D01*
X156090393Y-89541573D01*
X156089131Y-89536108D01*
X156090478Y-89535008D01*
X156101388Y-89536108D01*
G37*
G36*
X156223960Y-90682157D02*
G01*
X156223297Y-90687024D01*
X156217831Y-90688286D01*
X156216731Y-90686938D01*
X156217831Y-90676028D01*
X156220596Y-90674590D01*
X156223960Y-90682157D01*
G37*
G36*
X156239281Y-89526915D02*
G01*
X156240720Y-89529680D01*
X156233153Y-89533044D01*
X156228286Y-89532380D01*
X156227024Y-89526915D01*
X156228372Y-89525815D01*
X156239281Y-89526915D01*
G37*
G36*
X156279117Y-90590228D02*
G01*
X156278454Y-90595095D01*
X156272989Y-90596357D01*
X156271889Y-90595009D01*
X156272989Y-90584099D01*
X156275754Y-90582661D01*
X156279117Y-90590228D01*
G37*
G36*
X156361854Y-90443141D02*
G01*
X156361190Y-90448008D01*
X156355725Y-90449270D01*
X156354625Y-90447923D01*
X156355725Y-90437013D01*
X156358490Y-90435575D01*
X156361854Y-90443141D01*
G37*
G36*
X156501471Y-89591114D02*
G01*
X156505726Y-89594423D01*
X156495917Y-89596668D01*
X156486593Y-89596018D01*
X156483851Y-89591840D01*
X156487103Y-89590018D01*
X156501471Y-89591114D01*
G37*
G36*
X156490554Y-90176547D02*
G01*
X156489891Y-90181414D01*
X156484426Y-90182676D01*
X156483325Y-90181328D01*
X156484426Y-90170419D01*
X156487191Y-90168980D01*
X156490554Y-90176547D01*
G37*
G36*
X156873592Y-89609651D02*
G01*
X156875030Y-89612416D01*
X156867463Y-89615780D01*
X156862597Y-89615116D01*
X156861335Y-89609651D01*
X156862682Y-89608551D01*
X156873592Y-89609651D01*
G37*
G36*
X156993100Y-89517722D02*
G01*
X156994538Y-89520487D01*
X156986971Y-89523851D01*
X156982104Y-89523187D01*
X156980843Y-89517722D01*
X156982190Y-89516622D01*
X156993100Y-89517722D01*
G37*
G36*
X155552878Y-92028918D02*
G01*
X155548281Y-92033514D01*
X155543685Y-92028918D01*
X155548281Y-92024321D01*
X155552878Y-92028918D01*
G37*
G36*
X155571264Y-91881831D02*
G01*
X155566667Y-91886428D01*
X155562071Y-91881831D01*
X155566667Y-91877235D01*
X155571264Y-91881831D01*
G37*
G36*
X155608035Y-92001339D02*
G01*
X155603439Y-92005936D01*
X155598842Y-92001339D01*
X155603439Y-91996743D01*
X155608035Y-92001339D01*
G37*
G36*
X155672386Y-91008505D02*
G01*
X155667789Y-91013102D01*
X155663193Y-91008505D01*
X155667789Y-91003909D01*
X155672386Y-91008505D01*
G37*
G36*
X155745929Y-90631596D02*
G01*
X155741332Y-90636193D01*
X155736736Y-90631596D01*
X155741332Y-90627000D01*
X155745929Y-90631596D01*
G37*
G36*
X155764315Y-91670394D02*
G01*
X155759718Y-91674991D01*
X155755122Y-91670394D01*
X155759718Y-91665798D01*
X155764315Y-91670394D01*
G37*
G36*
X155791893Y-90420159D02*
G01*
X155787297Y-90424756D01*
X155782700Y-90420159D01*
X155787297Y-90415563D01*
X155791893Y-90420159D01*
G37*
G36*
X155865437Y-90190337D02*
G01*
X155860840Y-90194933D01*
X155856244Y-90190337D01*
X155860840Y-90185740D01*
X155865437Y-90190337D01*
G37*
G36*
X155883822Y-90116793D02*
G01*
X155879226Y-90121390D01*
X155874630Y-90116793D01*
X155879226Y-90112197D01*
X155883822Y-90116793D01*
G37*
G36*
X155893015Y-90144372D02*
G01*
X155888419Y-90148968D01*
X155883822Y-90144372D01*
X155888419Y-90139776D01*
X155893015Y-90144372D01*
G37*
G36*
X155893015Y-90190337D02*
G01*
X155888419Y-90194933D01*
X155883822Y-90190337D01*
X155888419Y-90185740D01*
X155893015Y-90190337D01*
G37*
G36*
X155893015Y-90227108D02*
G01*
X155888419Y-90231705D01*
X155883822Y-90227108D01*
X155888419Y-90222512D01*
X155893015Y-90227108D01*
G37*
G36*
X155957366Y-89969707D02*
G01*
X155952769Y-89974303D01*
X155948173Y-89969707D01*
X155952769Y-89965110D01*
X155957366Y-89969707D01*
G37*
G36*
X155984944Y-91146399D02*
G01*
X155980348Y-91150995D01*
X155975751Y-91146399D01*
X155980348Y-91141802D01*
X155984944Y-91146399D01*
G37*
G36*
X156003330Y-89749077D02*
G01*
X155998734Y-89753674D01*
X155994137Y-89749077D01*
X155998734Y-89744481D01*
X156003330Y-89749077D01*
G37*
G36*
X156021716Y-89758270D02*
G01*
X156017120Y-89762866D01*
X156012523Y-89758270D01*
X156017120Y-89753674D01*
X156021716Y-89758270D01*
G37*
G36*
X156030909Y-89675534D02*
G01*
X156026312Y-89680130D01*
X156021716Y-89675534D01*
X156026312Y-89670937D01*
X156030909Y-89675534D01*
G37*
G36*
X156058488Y-90999312D02*
G01*
X156053891Y-91003909D01*
X156049295Y-90999312D01*
X156053891Y-90994716D01*
X156058488Y-90999312D01*
G37*
G36*
X156104452Y-89500869D02*
G01*
X156099856Y-89505465D01*
X156095259Y-89500869D01*
X156099856Y-89496272D01*
X156104452Y-89500869D01*
G37*
G36*
X156132031Y-90861419D02*
G01*
X156127434Y-90866015D01*
X156122838Y-90861419D01*
X156127434Y-90856822D01*
X156132031Y-90861419D01*
G37*
G36*
X156150417Y-90806261D02*
G01*
X156145820Y-90810858D01*
X156141224Y-90806261D01*
X156145820Y-90801665D01*
X156150417Y-90806261D01*
G37*
G36*
X156177995Y-89454904D02*
G01*
X156173399Y-89459501D01*
X156168803Y-89454904D01*
X156173399Y-89450308D01*
X156177995Y-89454904D01*
G37*
G36*
X156196381Y-89454904D02*
G01*
X156191785Y-89459501D01*
X156187188Y-89454904D01*
X156191785Y-89450308D01*
X156196381Y-89454904D01*
G37*
G36*
X156196381Y-90640789D02*
G01*
X156191785Y-90645385D01*
X156187188Y-90640789D01*
X156191785Y-90636193D01*
X156196381Y-90640789D01*
G37*
G36*
X156269924Y-90567246D02*
G01*
X156265328Y-90571842D01*
X156260732Y-90567246D01*
X156265328Y-90562649D01*
X156269924Y-90567246D01*
G37*
G36*
X156297503Y-89528447D02*
G01*
X156292907Y-89533044D01*
X156288310Y-89528447D01*
X156292907Y-89523851D01*
X156297503Y-89528447D01*
G37*
G36*
X156380239Y-90420159D02*
G01*
X156375643Y-90424756D01*
X156371046Y-90420159D01*
X156375643Y-90415563D01*
X156380239Y-90420159D01*
G37*
G36*
X156417011Y-90365002D02*
G01*
X156412415Y-90369598D01*
X156407818Y-90365002D01*
X156412415Y-90360405D01*
X156417011Y-90365002D01*
G37*
G36*
X156499747Y-90135179D02*
G01*
X156495151Y-90139776D01*
X156490554Y-90135179D01*
X156495151Y-90130583D01*
X156499747Y-90135179D01*
G37*
G36*
X156499747Y-90217915D02*
G01*
X156495151Y-90222512D01*
X156490554Y-90217915D01*
X156495151Y-90213319D01*
X156499747Y-90217915D01*
G37*
G36*
X156646834Y-89997286D02*
G01*
X156642237Y-90001882D01*
X156637641Y-89997286D01*
X156642237Y-89992689D01*
X156646834Y-89997286D01*
G37*
G36*
X156775534Y-89574412D02*
G01*
X156770938Y-89579008D01*
X156766341Y-89574412D01*
X156770938Y-89569815D01*
X156775534Y-89574412D01*
G37*
G36*
X156775534Y-89592798D02*
G01*
X156770938Y-89597394D01*
X156766341Y-89592798D01*
X156770938Y-89588201D01*
X156775534Y-89592798D01*
G37*
G36*
X156784727Y-89758270D02*
G01*
X156780131Y-89762866D01*
X156775534Y-89758270D01*
X156780131Y-89753674D01*
X156784727Y-89758270D01*
G37*
G36*
X156849078Y-89592798D02*
G01*
X156844481Y-89597394D01*
X156839885Y-89592798D01*
X156844481Y-89588201D01*
X156849078Y-89592798D01*
G37*
G36*
X156959392Y-89556026D02*
G01*
X156954796Y-89560622D01*
X156950200Y-89556026D01*
X156954796Y-89551430D01*
X156959392Y-89556026D01*
G37*
G36*
X156977778Y-89537640D02*
G01*
X156973182Y-89542237D01*
X156968585Y-89537640D01*
X156973182Y-89533044D01*
X156977778Y-89537640D01*
G37*
%TO.C,R9*%
X148287742Y-101072500D02*
X148762258Y-101072500D01*
X148287742Y-100027500D02*
X148762258Y-100027500D01*
%TO.C,R2*%
X147037258Y-89527500D02*
X146562742Y-89527500D01*
X147037258Y-90572500D02*
X146562742Y-90572500D01*
%TO.C,kibuzzard-6485D4C1*%
G36*
X163225372Y-98288434D02*
G01*
X163293779Y-98416139D01*
X163379626Y-98599268D01*
X163472644Y-98813983D01*
X163566437Y-99053503D01*
X163611008Y-99178496D01*
X163653253Y-99305426D01*
X163725342Y-99557349D01*
X163774951Y-99796869D01*
X163793555Y-100011584D01*
X163785028Y-100110803D01*
X163758673Y-100212347D01*
X163713715Y-100291412D01*
X163649377Y-100323193D01*
X163605969Y-100279785D01*
X163582715Y-100182892D01*
X163570313Y-100064294D01*
X163561011Y-99957324D01*
X163533450Y-99765605D01*
X163496243Y-99576986D01*
X163449390Y-99391467D01*
X163394613Y-99208188D01*
X163333634Y-99026287D01*
X163266455Y-98845764D01*
X163253084Y-99078889D01*
X163219171Y-99306976D01*
X163167818Y-99532350D01*
X163102124Y-99757336D01*
X163047864Y-99841052D01*
X162955621Y-99913141D01*
X162845551Y-99963525D01*
X162736255Y-99982129D01*
X162640912Y-99954224D01*
X162602930Y-99861206D01*
X162614557Y-99819348D01*
X162642462Y-99748035D01*
X162674243Y-99671295D01*
X162699048Y-99611609D01*
X162659128Y-99472276D01*
X162610681Y-99339532D01*
X162554677Y-99212021D01*
X162492084Y-99088385D01*
X162423483Y-98967656D01*
X162349457Y-98848865D01*
X162270586Y-98730655D01*
X162187451Y-98611670D01*
X162243843Y-98787434D01*
X162301398Y-98973663D01*
X162357014Y-99164543D01*
X162407593Y-99354260D01*
X162451195Y-99540102D01*
X162485883Y-99719354D01*
X162508556Y-99885429D01*
X162516113Y-100031738D01*
X162492859Y-100167389D01*
X162428522Y-100289087D01*
X162330078Y-100377454D01*
X162204504Y-100411560D01*
X162142493Y-100391406D01*
X162106836Y-100337146D01*
X162090558Y-100259631D01*
X162086682Y-100171265D01*
X162087457Y-100104602D01*
X162088232Y-100041040D01*
X162077380Y-99833301D01*
X162047925Y-99572852D01*
X162027577Y-99433519D01*
X162003741Y-99291473D01*
X161977580Y-99152528D01*
X161950256Y-99022498D01*
X161922351Y-98907001D01*
X161893671Y-98791504D01*
X161871191Y-98685309D01*
X161861890Y-98596167D01*
X161867316Y-98529504D01*
X161884369Y-98448889D01*
X161913824Y-98365173D01*
X161956458Y-98287659D01*
X161975061Y-98270605D01*
X161998315Y-98257428D01*
X162030872Y-98252002D01*
X162139392Y-98300836D01*
X162262640Y-98424860D01*
X162387439Y-98592291D01*
X162501385Y-98771350D01*
X162592078Y-98928705D01*
X162647888Y-99033350D01*
X162724628Y-99210858D01*
X162781213Y-99396118D01*
X162831598Y-99218610D01*
X162871906Y-99021722D01*
X162903687Y-98787628D01*
X162916864Y-98651396D01*
X162928491Y-98498499D01*
X162945544Y-98387653D01*
X162990503Y-98288434D01*
X163053290Y-98216345D01*
X163125378Y-98188440D01*
X163225372Y-98288434D01*
G37*
G36*
X158049719Y-98982965D02*
G01*
X158077625Y-99016296D01*
X158100104Y-99061255D01*
X158117932Y-99109314D01*
X158179750Y-99311433D01*
X158225677Y-99520917D01*
X158254164Y-99732726D01*
X158263660Y-99941821D01*
X158260559Y-100027087D01*
X158249707Y-100098401D01*
X158218701Y-100158087D01*
X158165216Y-100221649D01*
X158101654Y-100272034D01*
X158040417Y-100292188D01*
X158012512Y-100273584D01*
X158006311Y-100231726D01*
X157994684Y-100130957D01*
X157969104Y-100035614D01*
X157937323Y-99950348D01*
X157907092Y-99881360D01*
X157823376Y-99709277D01*
X157718732Y-99524792D01*
X157597809Y-99352710D01*
X157466809Y-99220935D01*
X157496265Y-99425574D01*
X157550525Y-99631763D01*
X157625714Y-99833301D01*
X157717957Y-100023987D01*
X157735010Y-100068170D01*
X157739661Y-100113904D01*
X157723383Y-100197620D01*
X157679974Y-100276685D01*
X157619513Y-100336371D01*
X157550525Y-100360400D01*
X157516418Y-100348773D01*
X157491614Y-100320093D01*
X157470685Y-100282111D01*
X157448206Y-100244128D01*
X157342010Y-100115454D01*
X157209460Y-99980579D01*
X157060632Y-99852679D01*
X156905603Y-99744934D01*
X156914905Y-99726331D01*
X156936609Y-99713153D01*
X156960638Y-99705402D01*
X156978467Y-99703076D01*
X157067609Y-99731757D01*
X157170703Y-99798419D01*
X157263721Y-99874384D01*
X157324182Y-99930969D01*
X157293951Y-99823999D01*
X157259845Y-99681372D01*
X157231940Y-99528668D01*
X157220312Y-99388367D01*
X157234265Y-99284497D01*
X157264496Y-99235663D01*
X157315656Y-99179852D01*
X157375342Y-99133344D01*
X157429602Y-99113965D01*
X157538898Y-99148846D01*
X157647418Y-99238763D01*
X157748962Y-99363562D01*
X157837329Y-99503088D01*
X157907867Y-99637189D01*
X157955151Y-99744934D01*
X157901666Y-99519366D01*
X157826477Y-99300000D01*
X157814850Y-99262793D01*
X157810974Y-99224036D01*
X157828027Y-99141870D01*
X157872986Y-99058929D01*
X157937323Y-98995367D01*
X158014062Y-98969788D01*
X158049719Y-98982965D01*
G37*
G36*
X161328589Y-98917853D02*
G01*
X161395251Y-98953510D01*
X161455713Y-98996143D01*
X161499121Y-99031799D01*
X161658607Y-99203300D01*
X161774298Y-99407745D01*
X161844643Y-99612772D01*
X161868091Y-99786017D01*
X161860339Y-99987555D01*
X161836310Y-100066620D01*
X161794452Y-100129407D01*
X161738641Y-100177466D01*
X161677405Y-100209247D01*
X161615393Y-100220874D01*
X161593689Y-100210803D01*
X161518500Y-100175916D01*
X161423932Y-100069720D01*
X161344867Y-99946472D01*
X161294482Y-99848804D01*
X161284406Y-99948022D01*
X161262701Y-100072046D01*
X161231696Y-100190643D01*
X161190613Y-100273584D01*
X161103021Y-100344897D01*
X160990625Y-100375903D01*
X160947217Y-100351099D01*
X160949542Y-100334821D01*
X160951868Y-100313892D01*
X160934039Y-100151886D01*
X160882104Y-99996857D01*
X160799939Y-99862756D01*
X160691418Y-99765088D01*
X160709247Y-99737183D01*
X160756531Y-99721680D01*
X160836371Y-99754236D01*
X160910785Y-99836401D01*
X160972021Y-99944922D01*
X161009229Y-100054993D01*
X161019305Y-99951898D01*
X161021631Y-99847253D01*
X161010004Y-99640289D01*
X160968921Y-99439526D01*
X160961169Y-99393018D01*
X160977448Y-99319379D01*
X161005973Y-99265894D01*
X161257275Y-99265894D01*
X161291188Y-99492624D01*
X161358820Y-99710828D01*
X161459782Y-99915854D01*
X161593689Y-100103052D01*
X161598340Y-99991431D01*
X161580511Y-99807721D01*
X161520050Y-99613934D01*
X161413855Y-99430225D01*
X161257275Y-99265894D01*
X161005973Y-99265894D01*
X161020856Y-99237988D01*
X161082092Y-99172101D01*
X161151855Y-99144971D01*
X161213867Y-99188379D01*
X161194489Y-99117841D01*
X161185962Y-99033350D01*
X161205341Y-98938782D01*
X161265027Y-98903125D01*
X161328589Y-98917853D01*
G37*
G36*
X158962842Y-98904675D02*
G01*
X158986871Y-98927930D01*
X158999274Y-98958160D01*
X159004700Y-98989941D01*
X159029117Y-99146909D01*
X159055859Y-99307751D01*
X159088028Y-99469563D01*
X159128723Y-99629437D01*
X159179108Y-99785823D01*
X159240344Y-99937170D01*
X159315146Y-100080185D01*
X159406226Y-100211572D01*
X159430255Y-100025537D01*
X159437231Y-99845703D01*
X159429480Y-99655792D01*
X159407776Y-99470532D01*
X159396149Y-99407745D01*
X159378320Y-99325580D01*
X159362042Y-99244189D01*
X159355066Y-99183728D01*
X159374445Y-99095361D01*
X159424829Y-99013196D01*
X159494592Y-98951959D01*
X159573657Y-98927930D01*
X159613190Y-98942657D01*
X159641095Y-98980640D01*
X159661249Y-99033350D01*
X159675977Y-99092261D01*
X159699812Y-99223454D01*
X159718610Y-99362787D01*
X159730818Y-99506770D01*
X159734888Y-99651917D01*
X159731787Y-99775940D01*
X159720935Y-99920117D01*
X159699231Y-100059644D01*
X159663574Y-100168164D01*
X159626367Y-100218549D01*
X159567456Y-100270483D01*
X159500793Y-100311566D01*
X159437231Y-100327844D01*
X159413977Y-100324744D01*
X159320184Y-100270483D01*
X159234918Y-100170490D01*
X159161279Y-100042590D01*
X159100043Y-99904614D01*
X159053534Y-99775165D01*
X159023303Y-99670520D01*
X158982220Y-99448828D01*
X158959741Y-99225586D01*
X158917883Y-99326355D01*
X158854321Y-99438751D01*
X158776807Y-99529443D01*
X158693091Y-99566650D01*
X158683789Y-99565100D01*
X158679138Y-99560449D01*
X158770993Y-99401738D01*
X158835718Y-99244965D01*
X158879126Y-99088966D01*
X158907031Y-98932581D01*
X158910907Y-98907776D01*
X158920984Y-98895374D01*
X158962842Y-98904675D01*
G37*
G36*
X159889917Y-98977539D02*
G01*
X159954254Y-99000018D01*
X160003864Y-99027924D01*
X160040295Y-99053503D01*
X160166644Y-99172876D01*
X160281366Y-99320929D01*
X160378259Y-99481384D01*
X160454224Y-99637964D01*
X160419342Y-99489911D01*
X160370508Y-99344958D01*
X160356555Y-99270544D01*
X160375934Y-99175201D01*
X160423993Y-99090710D01*
X160487555Y-99030249D01*
X160551892Y-99006995D01*
X160589874Y-99020947D01*
X160619330Y-99056604D01*
X160642584Y-99103888D01*
X160661963Y-99152722D01*
X160715448Y-99322479D01*
X160751880Y-99506189D01*
X160772809Y-99699200D01*
X160779785Y-99896863D01*
X160779010Y-99961200D01*
X160775909Y-100037164D01*
X160767383Y-100114679D01*
X160748779Y-100185217D01*
X160713123Y-100248004D01*
X160656537Y-100306915D01*
X160590649Y-100351099D01*
X160527087Y-100368152D01*
X160501508Y-100358075D01*
X160494531Y-100330945D01*
X160501508Y-100237927D01*
X160505383Y-100129407D01*
X160491431Y-100019336D01*
X160458875Y-99923218D01*
X160382135Y-99731757D01*
X160283691Y-99538745D01*
X160167419Y-99357361D01*
X160037195Y-99199231D01*
X160086417Y-99377127D01*
X160168970Y-99544946D01*
X160172070Y-99555798D01*
X160161218Y-99572076D01*
X160133313Y-99584479D01*
X160096881Y-99593005D01*
X160058899Y-99596106D01*
X159980609Y-99584479D01*
X159920923Y-99549597D01*
X159852710Y-99447278D01*
X159791473Y-99315503D01*
X159748065Y-99175201D01*
X159731787Y-99048853D01*
X159750391Y-98985291D01*
X159809302Y-98968237D01*
X159889917Y-98977539D01*
G37*
G36*
X156006433Y-98904675D02*
G01*
X156133557Y-98963586D01*
X156250604Y-99050403D01*
X156347498Y-99153497D01*
X156413385Y-99262018D01*
X156437415Y-99366663D01*
X156414935Y-99458905D01*
X156356024Y-99528668D01*
X156275409Y-99572076D01*
X156186267Y-99586804D01*
X156102551Y-99577502D01*
X156168439Y-99712378D01*
X156262231Y-99838727D01*
X156374628Y-99948798D01*
X156496326Y-100034839D01*
X156474622Y-99952673D01*
X156442065Y-99872833D01*
X156411835Y-99792993D01*
X156398657Y-99710828D01*
X156400208Y-99694550D01*
X156407959Y-99687573D01*
X156426562Y-99698425D01*
X156448267Y-99721680D01*
X156473071Y-99754236D01*
X156573840Y-99922443D01*
X156614148Y-100098401D01*
X156603296Y-100182892D01*
X156573065Y-100282886D01*
X156527332Y-100365826D01*
X156469971Y-100400708D01*
X156341296Y-100361176D01*
X156207196Y-100258856D01*
X156081622Y-100116229D01*
X155976202Y-99956549D01*
X155903339Y-99803070D01*
X155876208Y-99678271D01*
X155896362Y-99603857D01*
X155947522Y-99533319D01*
X156016510Y-99480609D01*
X156088599Y-99459680D01*
X156154486Y-99468207D01*
X156214172Y-99476733D01*
X156132007Y-99353485D01*
X156015735Y-99261243D01*
X155987830Y-99250391D01*
X155949072Y-99236438D01*
X155912640Y-99223260D01*
X155891711Y-99213184D01*
X155857605Y-99162024D01*
X155830475Y-99093811D01*
X155812646Y-99023273D01*
X155806445Y-98963586D01*
X155824274Y-98901575D01*
X155880859Y-98882971D01*
X156006433Y-98904675D01*
G37*
G36*
X158705493Y-99047302D02*
G01*
X158729523Y-99069006D01*
X158741150Y-99101562D01*
X158747351Y-99141870D01*
X158762854Y-99281978D01*
X158775256Y-99420148D01*
X158788821Y-99558705D01*
X158807812Y-99699976D01*
X158823315Y-99792218D01*
X158844244Y-99906940D01*
X158862073Y-100017010D01*
X158869824Y-100096851D01*
X158855096Y-100167389D01*
X158817889Y-100250330D01*
X158768280Y-100320093D01*
X158716345Y-100349548D01*
X158688440Y-100323193D01*
X158639218Y-100200139D01*
X158578369Y-100079022D01*
X158509187Y-99962169D01*
X158434967Y-99851904D01*
X158276837Y-99653467D01*
X158121033Y-99493787D01*
X158131885Y-99478284D01*
X158150488Y-99467432D01*
X158179944Y-99462781D01*
X158262109Y-99493011D01*
X158358228Y-99565100D01*
X158445819Y-99649591D01*
X158502405Y-99717029D01*
X158476050Y-99596106D01*
X158449695Y-99459680D01*
X158428766Y-99341083D01*
X158420239Y-99273645D01*
X158441168Y-99186829D01*
X158495428Y-99112415D01*
X158572168Y-99059705D01*
X158662085Y-99039551D01*
X158705493Y-99047302D01*
G37*
G36*
X156684686Y-98244250D02*
G01*
X156749023Y-98270605D01*
X156798633Y-98311688D01*
X156818787Y-98365173D01*
X156817236Y-98455090D01*
X156815686Y-98543457D01*
X156822662Y-98803131D01*
X156832933Y-98945952D01*
X156849792Y-99093811D01*
X156840491Y-99110089D01*
X156823437Y-99113965D01*
X156778479Y-99103888D01*
X156726544Y-99079083D01*
X156679260Y-99048077D01*
X156648254Y-99019397D01*
X156608722Y-98925604D01*
X156581592Y-98796155D01*
X156564539Y-98653528D01*
X156555237Y-98518652D01*
X156551361Y-98412457D01*
X156550586Y-98357422D01*
X156621899Y-98234949D01*
X156684686Y-98244250D01*
G37*
G36*
X158458221Y-98497723D02*
G01*
X158492328Y-98554309D01*
X158527985Y-98629498D01*
X158560541Y-98707788D01*
X158584570Y-98773676D01*
X158593872Y-98810107D01*
X158584570Y-98857391D01*
X158562091Y-98916302D01*
X158533411Y-98966687D01*
X158503955Y-98988391D01*
X158472949Y-98967462D01*
X158427216Y-98913977D01*
X158373730Y-98841888D01*
X158321021Y-98764374D01*
X158276837Y-98695386D01*
X158248157Y-98648877D01*
X158240405Y-98624072D01*
X158262885Y-98571362D01*
X158316370Y-98523303D01*
X158379932Y-98488422D01*
X158432642Y-98475244D01*
X158458221Y-98497723D01*
G37*
%TO.C,C1*%
X137790000Y-100659420D02*
X137790000Y-100940580D01*
X138810000Y-100659420D02*
X138810000Y-100940580D01*
%TO.C,R3*%
X147037258Y-93277500D02*
X146562742Y-93277500D01*
X147037258Y-94322500D02*
X146562742Y-94322500D01*
%TO.C,R4*%
X147037258Y-97277500D02*
X146562742Y-97277500D01*
X147037258Y-98322500D02*
X146562742Y-98322500D01*
%TD*%
M02*
