%TF.GenerationSoftware,KiCad,Pcbnew,7.0.2*%
%TF.CreationDate,2023-06-20T09:38:12+02:00*%
%TF.ProjectId,esp-lvl,6573702d-6c76-46c2-9e6b-696361645f70,2.0.0*%
%TF.SameCoordinates,Original*%
%TF.FileFunction,Soldermask,Top*%
%TF.FilePolarity,Negative*%
%FSLAX46Y46*%
G04 Gerber Fmt 4.6, Leading zero omitted, Abs format (unit mm)*
G04 Created by KiCad (PCBNEW 7.0.2) date 2023-06-20 09:38:12*
%MOMM*%
%LPD*%
G01*
G04 APERTURE LIST*
G04 Aperture macros list*
%AMRoundRect*
0 Rectangle with rounded corners*
0 $1 Rounding radius*
0 $2 $3 $4 $5 $6 $7 $8 $9 X,Y pos of 4 corners*
0 Add a 4 corners polygon primitive as box body*
4,1,4,$2,$3,$4,$5,$6,$7,$8,$9,$2,$3,0*
0 Add four circle primitives for the rounded corners*
1,1,$1+$1,$2,$3*
1,1,$1+$1,$4,$5*
1,1,$1+$1,$6,$7*
1,1,$1+$1,$8,$9*
0 Add four rect primitives between the rounded corners*
20,1,$1+$1,$2,$3,$4,$5,0*
20,1,$1+$1,$4,$5,$6,$7,0*
20,1,$1+$1,$6,$7,$8,$9,0*
20,1,$1+$1,$8,$9,$2,$3,0*%
G04 Aperture macros list end*
%ADD10RoundRect,0.150000X0.150000X-0.587500X0.150000X0.587500X-0.150000X0.587500X-0.150000X-0.587500X0*%
%ADD11R,1.700000X1.700000*%
%ADD12O,1.700000X1.700000*%
%ADD13RoundRect,0.200000X0.200000X0.275000X-0.200000X0.275000X-0.200000X-0.275000X0.200000X-0.275000X0*%
%ADD14RoundRect,0.150000X-0.150000X0.587500X-0.150000X-0.587500X0.150000X-0.587500X0.150000X0.587500X0*%
%ADD15RoundRect,0.200000X-0.200000X-0.275000X0.200000X-0.275000X0.200000X0.275000X-0.200000X0.275000X0*%
%ADD16R,2.500000X1.000000*%
%ADD17C,0.787400*%
%ADD18C,0.990600*%
G04 APERTURE END LIST*
D10*
%TO.C,D1*%
X158800000Y-90362500D03*
X159750000Y-92237500D03*
X157850000Y-92237500D03*
%TD*%
D11*
%TO.C,J2*%
X159300000Y-95300000D03*
D12*
X159300000Y-102920000D03*
%TD*%
D13*
%TO.C,R8*%
X161475000Y-97800000D03*
X163125000Y-97800000D03*
%TD*%
D14*
%TO.C,D2*%
X162600000Y-92237500D03*
X161650000Y-90362500D03*
X163550000Y-90362500D03*
%TD*%
D15*
%TO.C,R6*%
X159625000Y-97800000D03*
X157975000Y-97800000D03*
%TD*%
D16*
%TO.C,U1*%
X154400000Y-85800000D03*
X154400000Y-87800000D03*
X154400000Y-89800000D03*
X154400000Y-91800000D03*
X154400000Y-93800000D03*
X154400000Y-95800000D03*
X154400000Y-97800000D03*
X154400000Y-99800000D03*
X139200000Y-99800000D03*
X139200000Y-97800000D03*
X139200000Y-95800000D03*
X139200000Y-93800000D03*
X139200000Y-91800000D03*
X139200000Y-89800000D03*
X139200000Y-87800000D03*
X139200000Y-85800000D03*
%TD*%
D15*
%TO.C,R10*%
X163125000Y-99800000D03*
X161475000Y-99800000D03*
%TD*%
D13*
%TO.C,R7*%
X157975000Y-99800000D03*
X159625000Y-99800000D03*
%TD*%
D17*
%TO.C,J4*%
X136100000Y-91200000D03*
X134830000Y-91200000D03*
X136100000Y-89930000D03*
X134830000Y-89930000D03*
X136100000Y-88660000D03*
X134830000Y-88660000D03*
D18*
X134449000Y-92470000D03*
X136481000Y-92470000D03*
X135465000Y-87390000D03*
%TD*%
D11*
%TO.C,J1*%
X135300000Y-95300000D03*
D12*
X135300000Y-97840000D03*
X135300000Y-100380000D03*
X135300000Y-102920000D03*
%TD*%
%TO.C,J3*%
X154540000Y-104050000D03*
X152000000Y-104050000D03*
X149460000Y-104050000D03*
X146920000Y-104050000D03*
X144380000Y-104050000D03*
X141840000Y-104050000D03*
D11*
X139300000Y-104050000D03*
%TD*%
M02*
