%TF.GenerationSoftware,KiCad,Pcbnew,(6.0.1)*%
%TF.CreationDate,2022-06-04T23:11:39+02:00*%
%TF.ProjectId,esp-lvl,6573702d-6c76-46c2-9e6b-696361645f70,rev?*%
%TF.SameCoordinates,Original*%
%TF.FileFunction,Copper,L1,Top*%
%TF.FilePolarity,Positive*%
%FSLAX46Y46*%
G04 Gerber Fmt 4.6, Leading zero omitted, Abs format (unit mm)*
G04 Created by KiCad (PCBNEW (6.0.1)) date 2022-06-04 23:11:39*
%MOMM*%
%LPD*%
G01*
G04 APERTURE LIST*
G04 Aperture macros list*
%AMRoundRect*
0 Rectangle with rounded corners*
0 $1 Rounding radius*
0 $2 $3 $4 $5 $6 $7 $8 $9 X,Y pos of 4 corners*
0 Add a 4 corners polygon primitive as box body*
4,1,4,$2,$3,$4,$5,$6,$7,$8,$9,$2,$3,0*
0 Add four circle primitives for the rounded corners*
1,1,$1+$1,$2,$3*
1,1,$1+$1,$4,$5*
1,1,$1+$1,$6,$7*
1,1,$1+$1,$8,$9*
0 Add four rect primitives between the rounded corners*
20,1,$1+$1,$2,$3,$4,$5,0*
20,1,$1+$1,$4,$5,$6,$7,0*
20,1,$1+$1,$6,$7,$8,$9,0*
20,1,$1+$1,$8,$9,$2,$3,0*%
G04 Aperture macros list end*
%TA.AperFunction,ComponentPad*%
%ADD10R,1.700000X1.700000*%
%TD*%
%TA.AperFunction,ComponentPad*%
%ADD11O,1.700000X1.700000*%
%TD*%
%TA.AperFunction,SMDPad,CuDef*%
%ADD12R,2.500000X1.000000*%
%TD*%
%TA.AperFunction,SMDPad,CuDef*%
%ADD13R,0.600000X0.900000*%
%TD*%
%TA.AperFunction,SMDPad,CuDef*%
%ADD14RoundRect,0.237500X-0.237500X0.287500X-0.237500X-0.287500X0.237500X-0.287500X0.237500X0.287500X0*%
%TD*%
%TA.AperFunction,SMDPad,CuDef*%
%ADD15R,1.060000X0.650000*%
%TD*%
%TA.AperFunction,ViaPad*%
%ADD16C,0.800000*%
%TD*%
%TA.AperFunction,Conductor*%
%ADD17C,0.500000*%
%TD*%
%TA.AperFunction,Conductor*%
%ADD18C,0.300000*%
%TD*%
G04 APERTURE END LIST*
D10*
%TO.P,J2,1,P1*%
%TO.N,/PWM_Colour*%
X110000000Y-75000000D03*
D11*
%TO.P,J2,4,P4*%
%TO.N,unconnected-(J2-Pad4)*%
X110000000Y-82620000D03*
%TD*%
D12*
%TO.P,U2,1,~{RST}*%
%TO.N,unconnected-(U2-Pad1)*%
X89900000Y-65500000D03*
%TO.P,U2,2,ADC*%
%TO.N,unconnected-(U2-Pad2)*%
X89900000Y-67500000D03*
%TO.P,U2,3,EN*%
%TO.N,+3V3*%
X89900000Y-69500000D03*
%TO.P,U2,4,GPIO16*%
%TO.N,unconnected-(U2-Pad4)*%
X89900000Y-71500000D03*
%TO.P,U2,5,GPIO14*%
%TO.N,/PWM_Colour*%
X89900000Y-73500000D03*
%TO.P,U2,6,GPIO12*%
%TO.N,/PWM_Bright*%
X89900000Y-75500000D03*
%TO.P,U2,7,GPIO13*%
%TO.N,/SENS*%
X89900000Y-77500000D03*
%TO.P,U2,8,VCC*%
%TO.N,+3V3*%
X89900000Y-79500000D03*
%TO.P,U2,15,GND*%
%TO.N,GND*%
X105100000Y-79500000D03*
%TO.P,U2,16,GPIO15*%
%TO.N,Net-(R5-Pad1)*%
X105100000Y-77500000D03*
%TO.P,U2,17,GPIO2*%
%TO.N,Net-(R2-Pad1)*%
X105100000Y-75500000D03*
%TO.P,U2,18,GPIO0*%
%TO.N,Net-(R1-Pad1)*%
X105100000Y-73500000D03*
%TO.P,U2,19,GPIO4*%
%TO.N,/SDA*%
X105100000Y-71500000D03*
%TO.P,U2,20,GPIO5*%
%TO.N,/SCL*%
X105100000Y-69500000D03*
%TO.P,U2,21,GPIO3/RXD*%
%TO.N,unconnected-(U2-Pad21)*%
X105100000Y-67500000D03*
%TO.P,U2,22,GPIO1/TXD*%
%TO.N,unconnected-(U2-Pad22)*%
X105100000Y-65500000D03*
%TD*%
D13*
%TO.P,R3,1*%
%TO.N,/SDA*%
X109250000Y-80000000D03*
%TO.P,R3,2*%
%TO.N,+3V3*%
X110750000Y-80000000D03*
%TD*%
D14*
%TO.P,C1,1*%
%TO.N,+5V*%
X108300000Y-69125000D03*
%TO.P,C1,2*%
%TO.N,GND*%
X108300000Y-70875000D03*
%TD*%
D15*
%TO.P,U1,1,IN*%
%TO.N,+5V*%
X110200000Y-69050000D03*
%TO.P,U1,2,GND*%
%TO.N,GND*%
X110200000Y-70000000D03*
%TO.P,U1,3,EN*%
%TO.N,+5V*%
X110200000Y-70950000D03*
%TO.P,U1,4,BYP*%
%TO.N,unconnected-(U1-Pad4)*%
X112400000Y-70950000D03*
%TO.P,U1,5,OUT*%
%TO.N,+3V3*%
X112400000Y-69050000D03*
%TD*%
D10*
%TO.P,J1,1,P1*%
%TO.N,unconnected-(J1-Pad1)*%
X86000000Y-75000000D03*
D11*
%TO.P,J1,2,P2*%
%TO.N,/PWM_Bright*%
X86000000Y-77540000D03*
%TO.P,J1,3,P3*%
%TO.N,+5V*%
X86000000Y-80080000D03*
%TO.P,J1,4,P4*%
%TO.N,GND*%
X86000000Y-82620000D03*
%TD*%
D13*
%TO.P,R4,1*%
%TO.N,/SCL*%
X109250000Y-78000000D03*
%TO.P,R4,2*%
%TO.N,+3V3*%
X110750000Y-78000000D03*
%TD*%
D10*
%TO.P,J3,1,P1*%
%TO.N,GND*%
X91380000Y-84000000D03*
D11*
%TO.P,J3,2,P2*%
%TO.N,/SENS*%
X93920000Y-84000000D03*
%TO.P,J3,3,P3*%
%TO.N,+5V*%
X96460000Y-84000000D03*
%TO.P,J3,4,P4*%
%TO.N,+3V3*%
X99000000Y-84000000D03*
%TO.P,J3,5,P5*%
%TO.N,/SCL*%
X101540000Y-84000000D03*
%TO.P,J3,6,6*%
%TO.N,/SDA*%
X104080000Y-84000000D03*
%TD*%
D14*
%TO.P,C2,1*%
%TO.N,+3V3*%
X114300000Y-69125000D03*
%TO.P,C2,2*%
%TO.N,GND*%
X114300000Y-70875000D03*
%TD*%
D16*
%TO.N,GND*%
X105100000Y-80700000D03*
X108300000Y-72000000D03*
X114300000Y-72000000D03*
%TO.N,+3V3*%
X95500000Y-75500000D03*
X95500000Y-73500000D03*
%TO.N,/SENS*%
X92000000Y-77500000D03*
X92000000Y-80750500D03*
%TO.N,/PWM_Bright*%
X92000000Y-75000000D03*
%TO.N,/SCL*%
X109200000Y-78950498D03*
%TO.N,/SDA*%
X109200000Y-81100000D03*
%TO.N,/PWM_Colour*%
X103000000Y-74500000D03*
%TO.N,Net-(R1-Pad1)*%
X99500000Y-73500000D03*
%TO.N,Net-(R2-Pad1)*%
X99500000Y-75500000D03*
%TO.N,Net-(R5-Pad1)*%
X99500000Y-77500000D03*
%TD*%
D17*
%TO.N,+5V*%
X95160489Y-85299511D02*
X85699511Y-85299511D01*
X86000000Y-80080000D02*
X84880000Y-80080000D01*
X96460000Y-84000000D02*
X95160489Y-85299511D01*
X111179511Y-70774511D02*
X111004022Y-70950000D01*
X84700489Y-79900489D02*
X84700489Y-69699511D01*
X110200000Y-69050000D02*
X111004022Y-69050000D01*
X85699511Y-85299511D02*
X84700489Y-84300489D01*
X84800000Y-80000000D02*
X84880000Y-80080000D01*
X111004022Y-69050000D02*
X111179511Y-69225489D01*
X108300000Y-69125000D02*
X108425000Y-69000000D01*
X85849511Y-68550489D02*
X107725489Y-68550489D01*
X110150000Y-69000000D02*
X110200000Y-69050000D01*
X107725489Y-68550489D02*
X108300000Y-69125000D01*
X84700489Y-80099511D02*
X84800000Y-80000000D01*
X84700489Y-84300489D02*
X84700489Y-80099511D01*
X111179511Y-69225489D02*
X111179511Y-70774511D01*
X108425000Y-69000000D02*
X110150000Y-69000000D01*
X111004022Y-70950000D02*
X110200000Y-70950000D01*
X84700489Y-69699511D02*
X85849511Y-68550489D01*
X84880000Y-80080000D02*
X84700489Y-79900489D01*
%TO.N,GND*%
X108300000Y-70875000D02*
X109125000Y-70875000D01*
X109125000Y-70875000D02*
X109220489Y-70779511D01*
X109220489Y-70175489D02*
X109395978Y-70000000D01*
X109395978Y-70000000D02*
X110200000Y-70000000D01*
X108300000Y-70875000D02*
X108300000Y-72000000D01*
X105100000Y-79500000D02*
X105100000Y-80700000D01*
X109220489Y-70779511D02*
X109220489Y-70175489D01*
X114300000Y-70875000D02*
X114300000Y-72000000D01*
%TO.N,+3V3*%
X114300000Y-69125000D02*
X114712500Y-69125000D01*
X115224520Y-69637020D02*
X115224520Y-77975480D01*
X99000000Y-84000000D02*
X100300000Y-85300000D01*
X115200000Y-78000000D02*
X110750000Y-78000000D01*
X88500000Y-69500000D02*
X89900000Y-69500000D01*
X114712500Y-69125000D02*
X115224520Y-69637020D01*
X89900000Y-79500000D02*
X95600000Y-79500000D01*
X88000000Y-79000000D02*
X88000000Y-70000000D01*
X112100000Y-85300000D02*
X115200000Y-82200000D01*
X114225000Y-69050000D02*
X114300000Y-69125000D01*
X95600000Y-79500000D02*
X98000000Y-79500000D01*
X98000000Y-79500000D02*
X99000000Y-80500000D01*
X89900000Y-79500000D02*
X88500000Y-79500000D01*
X89900000Y-69500000D02*
X95000000Y-69500000D01*
X115224520Y-77975480D02*
X115200000Y-78000000D01*
X88000000Y-70000000D02*
X88500000Y-69500000D01*
X99000000Y-80500000D02*
X99000000Y-84000000D01*
X95500000Y-79400000D02*
X95600000Y-79500000D01*
X110750000Y-80000000D02*
X110750000Y-78000000D01*
X100300000Y-85300000D02*
X112100000Y-85300000D01*
X95000000Y-69500000D02*
X95500000Y-70000000D01*
X115200000Y-82200000D02*
X115200000Y-78000000D01*
X112400000Y-69050000D02*
X114225000Y-69050000D01*
X95500000Y-70000000D02*
X95500000Y-73500000D01*
X88500000Y-79500000D02*
X88000000Y-79000000D01*
X95500000Y-75500000D02*
X95500000Y-79400000D01*
D18*
%TO.N,/SENS*%
X92000000Y-80750500D02*
X93050500Y-80750500D01*
X93050500Y-80750500D02*
X93920000Y-81620000D01*
X93920000Y-81620000D02*
X93920000Y-84000000D01*
X89900000Y-77500000D02*
X92000000Y-77500000D01*
%TO.N,/PWM_Bright*%
X89900000Y-75500000D02*
X91500000Y-75500000D01*
X91500000Y-75500000D02*
X92000000Y-75000000D01*
%TO.N,/SCL*%
X107399520Y-69899520D02*
X107399520Y-77299520D01*
X107399520Y-77299520D02*
X108100000Y-78000000D01*
X107000000Y-69500000D02*
X107399520Y-69899520D01*
X109200000Y-78950498D02*
X109200000Y-78050000D01*
X109200000Y-78050000D02*
X109250000Y-78000000D01*
X105100000Y-69500000D02*
X107000000Y-69500000D01*
X108100000Y-78000000D02*
X109250000Y-78000000D01*
%TO.N,/SDA*%
X106900000Y-71900000D02*
X106900000Y-78900000D01*
X109200000Y-81100000D02*
X109200000Y-80050000D01*
X106500000Y-71500000D02*
X106900000Y-71900000D01*
X106900000Y-78900000D02*
X108000000Y-80000000D01*
X108000000Y-80000000D02*
X109250000Y-80000000D01*
X105100000Y-71500000D02*
X106500000Y-71500000D01*
X109200000Y-80050000D02*
X109250000Y-80000000D01*
%TO.N,/PWM_Colour*%
X103000000Y-74500000D02*
X92600000Y-74500000D01*
X92600000Y-74500000D02*
X91600000Y-73500000D01*
X91600000Y-73500000D02*
X89900000Y-73500000D01*
%TO.N,Net-(R1-Pad1)*%
X99500000Y-73500000D02*
X105100000Y-73500000D01*
%TO.N,Net-(R2-Pad1)*%
X99500000Y-75500000D02*
X105100000Y-75500000D01*
%TO.N,Net-(R5-Pad1)*%
X99500000Y-77500000D02*
X105100000Y-77500000D01*
%TD*%
%TA.AperFunction,Conductor*%
%TO.N,+3V3*%
G36*
X100351751Y-84674678D02*
G01*
X100379579Y-84706511D01*
X100439987Y-84805088D01*
X100586250Y-84973938D01*
X100758126Y-85116632D01*
X100951000Y-85229338D01*
X100955825Y-85231180D01*
X100955826Y-85231181D01*
X101000630Y-85248290D01*
X101057133Y-85291278D01*
X101081426Y-85357989D01*
X101065796Y-85427244D01*
X101015204Y-85477054D01*
X100955681Y-85492000D01*
X99585004Y-85492000D01*
X99516883Y-85471998D01*
X99470390Y-85418342D01*
X99460286Y-85348068D01*
X99489780Y-85283488D01*
X99529571Y-85252849D01*
X99693095Y-85172739D01*
X99701945Y-85167464D01*
X99875328Y-85043792D01*
X99883200Y-85037139D01*
X100034052Y-84886812D01*
X100040730Y-84878965D01*
X100168022Y-84701819D01*
X100169279Y-84702722D01*
X100216373Y-84659362D01*
X100286311Y-84647145D01*
X100351751Y-84674678D01*
G37*
%TD.AperFunction*%
%TA.AperFunction,Conductor*%
G36*
X103283621Y-69328991D02*
G01*
X103330114Y-69382647D01*
X103341500Y-69434989D01*
X103341500Y-70048134D01*
X103348255Y-70110316D01*
X103399385Y-70246705D01*
X103486739Y-70363261D01*
X103534660Y-70399176D01*
X103577173Y-70456033D01*
X103582199Y-70526851D01*
X103548139Y-70589145D01*
X103534670Y-70600817D01*
X103486739Y-70636739D01*
X103399385Y-70753295D01*
X103348255Y-70889684D01*
X103341500Y-70951866D01*
X103341500Y-72048134D01*
X103348255Y-72110316D01*
X103399385Y-72246705D01*
X103486739Y-72363261D01*
X103534660Y-72399176D01*
X103577173Y-72456033D01*
X103582199Y-72526851D01*
X103548139Y-72589145D01*
X103534670Y-72600817D01*
X103486739Y-72636739D01*
X103399385Y-72753295D01*
X103396233Y-72761703D01*
X103391923Y-72769575D01*
X103390259Y-72768664D01*
X103354337Y-72816490D01*
X103287776Y-72841193D01*
X103278991Y-72841500D01*
X100180224Y-72841500D01*
X100112103Y-72821498D01*
X100106163Y-72817436D01*
X100105909Y-72817251D01*
X100007996Y-72746113D01*
X99962094Y-72712763D01*
X99962093Y-72712762D01*
X99956752Y-72708882D01*
X99950724Y-72706198D01*
X99950722Y-72706197D01*
X99788319Y-72633891D01*
X99788318Y-72633891D01*
X99782288Y-72631206D01*
X99688887Y-72611353D01*
X99601944Y-72592872D01*
X99601939Y-72592872D01*
X99595487Y-72591500D01*
X99404513Y-72591500D01*
X99398061Y-72592872D01*
X99398056Y-72592872D01*
X99311113Y-72611353D01*
X99217712Y-72631206D01*
X99211682Y-72633891D01*
X99211681Y-72633891D01*
X99049278Y-72706197D01*
X99049276Y-72706198D01*
X99043248Y-72708882D01*
X98888747Y-72821134D01*
X98884326Y-72826044D01*
X98884325Y-72826045D01*
X98771036Y-72951866D01*
X98760960Y-72963056D01*
X98665473Y-73128444D01*
X98606458Y-73310072D01*
X98586496Y-73500000D01*
X98606458Y-73689928D01*
X98606883Y-73691237D01*
X98601628Y-73760095D01*
X98558811Y-73816727D01*
X98492173Y-73841220D01*
X98483784Y-73841500D01*
X92924950Y-73841500D01*
X92856829Y-73821498D01*
X92835855Y-73804595D01*
X92123655Y-73092395D01*
X92115665Y-73083615D01*
X92115663Y-73083613D01*
X92111416Y-73076920D01*
X92059742Y-73028395D01*
X92056901Y-73025641D01*
X92036333Y-73005073D01*
X92032826Y-73002353D01*
X92023804Y-72994647D01*
X91995913Y-72968456D01*
X91990133Y-72963028D01*
X91983181Y-72959206D01*
X91971342Y-72952697D01*
X91954818Y-72941843D01*
X91944132Y-72933555D01*
X91937868Y-72928696D01*
X91930596Y-72925549D01*
X91930594Y-72925548D01*
X91895465Y-72910346D01*
X91884805Y-72905124D01*
X91851284Y-72886695D01*
X91851282Y-72886694D01*
X91844337Y-72882876D01*
X91823559Y-72877541D01*
X91804869Y-72871142D01*
X91785176Y-72862620D01*
X91739552Y-72855394D01*
X91727928Y-72852986D01*
X91692007Y-72843763D01*
X91631001Y-72807449D01*
X91605361Y-72765955D01*
X91603765Y-72761698D01*
X91600615Y-72753295D01*
X91595235Y-72746116D01*
X91595233Y-72746113D01*
X91518642Y-72643919D01*
X91513261Y-72636739D01*
X91465340Y-72600824D01*
X91422827Y-72543967D01*
X91417801Y-72473149D01*
X91451861Y-72410855D01*
X91465330Y-72399183D01*
X91513261Y-72363261D01*
X91600615Y-72246705D01*
X91651745Y-72110316D01*
X91658500Y-72048134D01*
X91658500Y-70951866D01*
X91651745Y-70889684D01*
X91600615Y-70753295D01*
X91513261Y-70636739D01*
X91464926Y-70600514D01*
X91422411Y-70543655D01*
X91417385Y-70472836D01*
X91451445Y-70410543D01*
X91464925Y-70398862D01*
X91505726Y-70368283D01*
X91518285Y-70355724D01*
X91594786Y-70253649D01*
X91603324Y-70238054D01*
X91648478Y-70117606D01*
X91652105Y-70102351D01*
X91657631Y-70051486D01*
X91658000Y-70044672D01*
X91658000Y-69772115D01*
X91653525Y-69756876D01*
X91652135Y-69755671D01*
X91644452Y-69754000D01*
X88160116Y-69754000D01*
X88144877Y-69758475D01*
X88143672Y-69759865D01*
X88142001Y-69767548D01*
X88142001Y-70044669D01*
X88142371Y-70051490D01*
X88147895Y-70102352D01*
X88151521Y-70117604D01*
X88196676Y-70238054D01*
X88205214Y-70253649D01*
X88281715Y-70355724D01*
X88294274Y-70368283D01*
X88335075Y-70398862D01*
X88377589Y-70455722D01*
X88382614Y-70526540D01*
X88348554Y-70588834D01*
X88335075Y-70600513D01*
X88286739Y-70636739D01*
X88199385Y-70753295D01*
X88148255Y-70889684D01*
X88141500Y-70951866D01*
X88141500Y-72048134D01*
X88148255Y-72110316D01*
X88199385Y-72246705D01*
X88286739Y-72363261D01*
X88334660Y-72399176D01*
X88377173Y-72456033D01*
X88382199Y-72526851D01*
X88348139Y-72589145D01*
X88334670Y-72600817D01*
X88286739Y-72636739D01*
X88199385Y-72753295D01*
X88148255Y-72889684D01*
X88141500Y-72951866D01*
X88141500Y-74048134D01*
X88148255Y-74110316D01*
X88199385Y-74246705D01*
X88286739Y-74363261D01*
X88334660Y-74399176D01*
X88377173Y-74456033D01*
X88382199Y-74526851D01*
X88348139Y-74589145D01*
X88334670Y-74600817D01*
X88286739Y-74636739D01*
X88199385Y-74753295D01*
X88148255Y-74889684D01*
X88141500Y-74951866D01*
X88141500Y-76048134D01*
X88148255Y-76110316D01*
X88199385Y-76246705D01*
X88286739Y-76363261D01*
X88334660Y-76399176D01*
X88377173Y-76456033D01*
X88382199Y-76526851D01*
X88348139Y-76589145D01*
X88334670Y-76600817D01*
X88286739Y-76636739D01*
X88199385Y-76753295D01*
X88148255Y-76889684D01*
X88141500Y-76951866D01*
X88141500Y-78048134D01*
X88148255Y-78110316D01*
X88199385Y-78246705D01*
X88286739Y-78363261D01*
X88293919Y-78368642D01*
X88335074Y-78399486D01*
X88377589Y-78456345D01*
X88382615Y-78527164D01*
X88348555Y-78589457D01*
X88335075Y-78601138D01*
X88294274Y-78631717D01*
X88281715Y-78644276D01*
X88205214Y-78746351D01*
X88196676Y-78761946D01*
X88151522Y-78882394D01*
X88147895Y-78897649D01*
X88142369Y-78948514D01*
X88142000Y-78955328D01*
X88142000Y-79227885D01*
X88146475Y-79243124D01*
X88147865Y-79244329D01*
X88155548Y-79246000D01*
X91639884Y-79246000D01*
X91655123Y-79241525D01*
X91656328Y-79240135D01*
X91657999Y-79232452D01*
X91657999Y-78955331D01*
X91657629Y-78948510D01*
X91652105Y-78897648D01*
X91648479Y-78882396D01*
X91603324Y-78761946D01*
X91594786Y-78746351D01*
X91518285Y-78644276D01*
X91505726Y-78631717D01*
X91464925Y-78601138D01*
X91422411Y-78544278D01*
X91417386Y-78473460D01*
X91451446Y-78411166D01*
X91464926Y-78399486D01*
X91506081Y-78368642D01*
X91513261Y-78363261D01*
X91513630Y-78362769D01*
X91572250Y-78330759D01*
X91643065Y-78335824D01*
X91650281Y-78338773D01*
X91711677Y-78366108D01*
X91711685Y-78366111D01*
X91717712Y-78368794D01*
X91811113Y-78388647D01*
X91898056Y-78407128D01*
X91898061Y-78407128D01*
X91904513Y-78408500D01*
X92095487Y-78408500D01*
X92101939Y-78407128D01*
X92101944Y-78407128D01*
X92188887Y-78388647D01*
X92282288Y-78368794D01*
X92288321Y-78366108D01*
X92450722Y-78293803D01*
X92450724Y-78293802D01*
X92456752Y-78291118D01*
X92611253Y-78178866D01*
X92725906Y-78051531D01*
X92734621Y-78041852D01*
X92734622Y-78041851D01*
X92739040Y-78036944D01*
X92834527Y-77871556D01*
X92893542Y-77689928D01*
X92913504Y-77500000D01*
X92893542Y-77310072D01*
X92834527Y-77128444D01*
X92739040Y-76963056D01*
X92728965Y-76951866D01*
X92615675Y-76826045D01*
X92615674Y-76826044D01*
X92611253Y-76821134D01*
X92456752Y-76708882D01*
X92450724Y-76706198D01*
X92450722Y-76706197D01*
X92288319Y-76633891D01*
X92288318Y-76633891D01*
X92282288Y-76631206D01*
X92188887Y-76611353D01*
X92101944Y-76592872D01*
X92101939Y-76592872D01*
X92095487Y-76591500D01*
X91904513Y-76591500D01*
X91898061Y-76592872D01*
X91898056Y-76592872D01*
X91811113Y-76611353D01*
X91717712Y-76631206D01*
X91711685Y-76633889D01*
X91711677Y-76633892D01*
X91650281Y-76661227D01*
X91579914Y-76670661D01*
X91516392Y-76640917D01*
X91513261Y-76636739D01*
X91465340Y-76600824D01*
X91422827Y-76543967D01*
X91417801Y-76473149D01*
X91451861Y-76410855D01*
X91465330Y-76399183D01*
X91513261Y-76363261D01*
X91600615Y-76246705D01*
X91615465Y-76207093D01*
X91658108Y-76150329D01*
X91687060Y-76134174D01*
X91708019Y-76125875D01*
X91719231Y-76122035D01*
X91763600Y-76109145D01*
X91782065Y-76098225D01*
X91799805Y-76089534D01*
X91819756Y-76081635D01*
X91857129Y-76054482D01*
X91867048Y-76047967D01*
X91899977Y-76028493D01*
X91899981Y-76028490D01*
X91906807Y-76024453D01*
X91921971Y-76009289D01*
X91937005Y-75996448D01*
X91947943Y-75988501D01*
X91954357Y-75983841D01*
X91973819Y-75960316D01*
X91978892Y-75954184D01*
X92037726Y-75914446D01*
X92075976Y-75908500D01*
X92095487Y-75908500D01*
X92101939Y-75907128D01*
X92101944Y-75907128D01*
X92188888Y-75888647D01*
X92282288Y-75868794D01*
X92290201Y-75865271D01*
X92450722Y-75793803D01*
X92450724Y-75793802D01*
X92456752Y-75791118D01*
X92611253Y-75678866D01*
X92739040Y-75536944D01*
X92834527Y-75371556D01*
X92875465Y-75245563D01*
X92915539Y-75186958D01*
X92980936Y-75159321D01*
X92995298Y-75158500D01*
X98483784Y-75158500D01*
X98551905Y-75178502D01*
X98598398Y-75232158D01*
X98608502Y-75302432D01*
X98607971Y-75305416D01*
X98606458Y-75310072D01*
X98586496Y-75500000D01*
X98606458Y-75689928D01*
X98665473Y-75871556D01*
X98668776Y-75877278D01*
X98668777Y-75877279D01*
X98686803Y-75908500D01*
X98760960Y-76036944D01*
X98765378Y-76041851D01*
X98765379Y-76041852D01*
X98841034Y-76125875D01*
X98888747Y-76178866D01*
X99043248Y-76291118D01*
X99049276Y-76293802D01*
X99049278Y-76293803D01*
X99211681Y-76366109D01*
X99217712Y-76368794D01*
X99255156Y-76376753D01*
X99317629Y-76410482D01*
X99351951Y-76472631D01*
X99347223Y-76543470D01*
X99304947Y-76600508D01*
X99255156Y-76623247D01*
X99217712Y-76631206D01*
X99211682Y-76633891D01*
X99211681Y-76633891D01*
X99049278Y-76706197D01*
X99049276Y-76706198D01*
X99043248Y-76708882D01*
X98888747Y-76821134D01*
X98884326Y-76826044D01*
X98884325Y-76826045D01*
X98771036Y-76951866D01*
X98760960Y-76963056D01*
X98665473Y-77128444D01*
X98606458Y-77310072D01*
X98586496Y-77500000D01*
X98606458Y-77689928D01*
X98665473Y-77871556D01*
X98760960Y-78036944D01*
X98765378Y-78041851D01*
X98765379Y-78041852D01*
X98774094Y-78051531D01*
X98888747Y-78178866D01*
X99043248Y-78291118D01*
X99049276Y-78293802D01*
X99049278Y-78293803D01*
X99211679Y-78366108D01*
X99217712Y-78368794D01*
X99311113Y-78388647D01*
X99398056Y-78407128D01*
X99398061Y-78407128D01*
X99404513Y-78408500D01*
X99595487Y-78408500D01*
X99601939Y-78407128D01*
X99601944Y-78407128D01*
X99688887Y-78388647D01*
X99782288Y-78368794D01*
X99788321Y-78366108D01*
X99950722Y-78293803D01*
X99950724Y-78293802D01*
X99956752Y-78291118D01*
X100005541Y-78255671D01*
X100054126Y-78220371D01*
X100106163Y-78182564D01*
X100173031Y-78158706D01*
X100180224Y-78158500D01*
X103278991Y-78158500D01*
X103347112Y-78178502D01*
X103393605Y-78232158D01*
X103395903Y-78237694D01*
X103396232Y-78238296D01*
X103399385Y-78246705D01*
X103486739Y-78363261D01*
X103534660Y-78399176D01*
X103577173Y-78456033D01*
X103582199Y-78526851D01*
X103548139Y-78589145D01*
X103534670Y-78600817D01*
X103486739Y-78636739D01*
X103399385Y-78753295D01*
X103348255Y-78889684D01*
X103341500Y-78951866D01*
X103341500Y-80048134D01*
X103348255Y-80110316D01*
X103399385Y-80246705D01*
X103486739Y-80363261D01*
X103603295Y-80450615D01*
X103739684Y-80501745D01*
X103801866Y-80508500D01*
X104066686Y-80508500D01*
X104134807Y-80528502D01*
X104181300Y-80582158D01*
X104191996Y-80647670D01*
X104188563Y-80680336D01*
X104186496Y-80700000D01*
X104187186Y-80706565D01*
X104195123Y-80782077D01*
X104206458Y-80889928D01*
X104265473Y-81071556D01*
X104360960Y-81236944D01*
X104365378Y-81241851D01*
X104365379Y-81241852D01*
X104474783Y-81363357D01*
X104488747Y-81378866D01*
X104643248Y-81491118D01*
X104649276Y-81493802D01*
X104649278Y-81493803D01*
X104747956Y-81537737D01*
X104817712Y-81568794D01*
X104911112Y-81588647D01*
X104998056Y-81607128D01*
X104998061Y-81607128D01*
X105004513Y-81608500D01*
X105195487Y-81608500D01*
X105201939Y-81607128D01*
X105201944Y-81607128D01*
X105288888Y-81588647D01*
X105382288Y-81568794D01*
X105452044Y-81537737D01*
X105550722Y-81493803D01*
X105550724Y-81493802D01*
X105556752Y-81491118D01*
X105711253Y-81378866D01*
X105725217Y-81363357D01*
X105834621Y-81241852D01*
X105834622Y-81241851D01*
X105839040Y-81236944D01*
X105934527Y-81071556D01*
X105993542Y-80889928D01*
X106004878Y-80782077D01*
X106012814Y-80706565D01*
X106013504Y-80700000D01*
X106011437Y-80680336D01*
X106008004Y-80647670D01*
X106020776Y-80577832D01*
X106069278Y-80525985D01*
X106133314Y-80508500D01*
X106398134Y-80508500D01*
X106460316Y-80501745D01*
X106596705Y-80450615D01*
X106713261Y-80363261D01*
X106800615Y-80246705D01*
X106851745Y-80110316D01*
X106855416Y-80076522D01*
X106882657Y-80010960D01*
X106941020Y-79970533D01*
X107011974Y-79968077D01*
X107069774Y-80001034D01*
X107476345Y-80407605D01*
X107484335Y-80416385D01*
X107488584Y-80423080D01*
X107494362Y-80428506D01*
X107494363Y-80428507D01*
X107540257Y-80471604D01*
X107543099Y-80474359D01*
X107563667Y-80494927D01*
X107567170Y-80497644D01*
X107576195Y-80505352D01*
X107609867Y-80536972D01*
X107616818Y-80540793D01*
X107616819Y-80540794D01*
X107628658Y-80547303D01*
X107645182Y-80558157D01*
X107655271Y-80565982D01*
X107662132Y-80571304D01*
X107669404Y-80574451D01*
X107669406Y-80574452D01*
X107704535Y-80589654D01*
X107715196Y-80594876D01*
X107755663Y-80617124D01*
X107776441Y-80622459D01*
X107795131Y-80628858D01*
X107814824Y-80637380D01*
X107858596Y-80644313D01*
X107860448Y-80644606D01*
X107872071Y-80647013D01*
X107900072Y-80654202D01*
X107916812Y-80658500D01*
X107938259Y-80658500D01*
X107957969Y-80660051D01*
X107979152Y-80663406D01*
X108025141Y-80659059D01*
X108036996Y-80658500D01*
X108214775Y-80658500D01*
X108282896Y-80678502D01*
X108329389Y-80732158D01*
X108339493Y-80802432D01*
X108334608Y-80823436D01*
X108306458Y-80910072D01*
X108305768Y-80916633D01*
X108305768Y-80916635D01*
X108301285Y-80959292D01*
X108286496Y-81100000D01*
X108287186Y-81106565D01*
X108303617Y-81262894D01*
X108306458Y-81289928D01*
X108365473Y-81471556D01*
X108368776Y-81477278D01*
X108368777Y-81477279D01*
X108386834Y-81508555D01*
X108460960Y-81636944D01*
X108465378Y-81641851D01*
X108465379Y-81641852D01*
X108519590Y-81702059D01*
X108588747Y-81778866D01*
X108594089Y-81782747D01*
X108594091Y-81782749D01*
X108732119Y-81883032D01*
X108775473Y-81939254D01*
X108781548Y-82009990D01*
X108772345Y-82038019D01*
X108722869Y-82144604D01*
X108722865Y-82144616D01*
X108720688Y-82149305D01*
X108660989Y-82364570D01*
X108637251Y-82586695D01*
X108637548Y-82591848D01*
X108637548Y-82591851D01*
X108644059Y-82704771D01*
X108650110Y-82809715D01*
X108651247Y-82814761D01*
X108651248Y-82814767D01*
X108663200Y-82867799D01*
X108699222Y-83027639D01*
X108783266Y-83234616D01*
X108899987Y-83425088D01*
X109046250Y-83593938D01*
X109218126Y-83736632D01*
X109411000Y-83849338D01*
X109619692Y-83929030D01*
X109624760Y-83930061D01*
X109624763Y-83930062D01*
X109732017Y-83951883D01*
X109838597Y-83973567D01*
X109843772Y-83973757D01*
X109843774Y-83973757D01*
X110056673Y-83981564D01*
X110056677Y-83981564D01*
X110061837Y-83981753D01*
X110066957Y-83981097D01*
X110066959Y-83981097D01*
X110278288Y-83954025D01*
X110278289Y-83954025D01*
X110283416Y-83953368D01*
X110288366Y-83951883D01*
X110492429Y-83890661D01*
X110492434Y-83890659D01*
X110497384Y-83889174D01*
X110697994Y-83790896D01*
X110879860Y-83661173D01*
X111038096Y-83503489D01*
X111097594Y-83420689D01*
X111165435Y-83326277D01*
X111168453Y-83322077D01*
X111179328Y-83300074D01*
X111265136Y-83126453D01*
X111265137Y-83126451D01*
X111267430Y-83121811D01*
X111332370Y-82908069D01*
X111361529Y-82686590D01*
X111361614Y-82683102D01*
X111363074Y-82623365D01*
X111363074Y-82623361D01*
X111363156Y-82620000D01*
X111344852Y-82397361D01*
X111290431Y-82180702D01*
X111201354Y-81975840D01*
X111080014Y-81788277D01*
X110929670Y-81623051D01*
X110925619Y-81619852D01*
X110925615Y-81619848D01*
X110758414Y-81487800D01*
X110758410Y-81487798D01*
X110754359Y-81484598D01*
X110730734Y-81471556D01*
X110654306Y-81429366D01*
X110558789Y-81376638D01*
X110553920Y-81374914D01*
X110553916Y-81374912D01*
X110353087Y-81303795D01*
X110353083Y-81303794D01*
X110348212Y-81302069D01*
X110343119Y-81301162D01*
X110343116Y-81301161D01*
X110212444Y-81277885D01*
X110148886Y-81246247D01*
X110112523Y-81185270D01*
X110109230Y-81140668D01*
X110112814Y-81106566D01*
X110112814Y-81106565D01*
X110113504Y-81100000D01*
X110109251Y-81059535D01*
X110122023Y-80989697D01*
X110170525Y-80937850D01*
X110239358Y-80920456D01*
X110278791Y-80928383D01*
X110332395Y-80948478D01*
X110347649Y-80952105D01*
X110398514Y-80957631D01*
X110405328Y-80958000D01*
X110477885Y-80958000D01*
X110493124Y-80953525D01*
X110494329Y-80952135D01*
X110496000Y-80944452D01*
X110496000Y-80939884D01*
X111004000Y-80939884D01*
X111008475Y-80955123D01*
X111009865Y-80956328D01*
X111017548Y-80957999D01*
X111094669Y-80957999D01*
X111101490Y-80957629D01*
X111152352Y-80952105D01*
X111167604Y-80948479D01*
X111288054Y-80903324D01*
X111303649Y-80894786D01*
X111405724Y-80818285D01*
X111418285Y-80805724D01*
X111494786Y-80703649D01*
X111503324Y-80688054D01*
X111548478Y-80567606D01*
X111552105Y-80552351D01*
X111557631Y-80501486D01*
X111558000Y-80494672D01*
X111558000Y-80272115D01*
X111553525Y-80256876D01*
X111552135Y-80255671D01*
X111544452Y-80254000D01*
X111022115Y-80254000D01*
X111006876Y-80258475D01*
X111005671Y-80259865D01*
X111004000Y-80267548D01*
X111004000Y-80939884D01*
X110496000Y-80939884D01*
X110496000Y-79872000D01*
X110516002Y-79803879D01*
X110569658Y-79757386D01*
X110622000Y-79746000D01*
X111539884Y-79746000D01*
X111555123Y-79741525D01*
X111556328Y-79740135D01*
X111557999Y-79732452D01*
X111557999Y-79505331D01*
X111557629Y-79498510D01*
X111552105Y-79447648D01*
X111548479Y-79432396D01*
X111503324Y-79311946D01*
X111494786Y-79296351D01*
X111418285Y-79194276D01*
X111405724Y-79181715D01*
X111297794Y-79100826D01*
X111255279Y-79043967D01*
X111250253Y-78973148D01*
X111284313Y-78910855D01*
X111297794Y-78899174D01*
X111405724Y-78818285D01*
X111418285Y-78805724D01*
X111494786Y-78703649D01*
X111503324Y-78688054D01*
X111548478Y-78567606D01*
X111552105Y-78552351D01*
X111557631Y-78501486D01*
X111558000Y-78494672D01*
X111558000Y-78272115D01*
X111553525Y-78256876D01*
X111552135Y-78255671D01*
X111544452Y-78254000D01*
X110622000Y-78254000D01*
X110553879Y-78233998D01*
X110507386Y-78180342D01*
X110496000Y-78128000D01*
X110496000Y-77727885D01*
X111004000Y-77727885D01*
X111008475Y-77743124D01*
X111009865Y-77744329D01*
X111017548Y-77746000D01*
X111539884Y-77746000D01*
X111555123Y-77741525D01*
X111556328Y-77740135D01*
X111557999Y-77732452D01*
X111557999Y-77505331D01*
X111557629Y-77498510D01*
X111552105Y-77447648D01*
X111548479Y-77432396D01*
X111503324Y-77311946D01*
X111494786Y-77296351D01*
X111418285Y-77194276D01*
X111405724Y-77181715D01*
X111303649Y-77105214D01*
X111288054Y-77096676D01*
X111167606Y-77051522D01*
X111152351Y-77047895D01*
X111101486Y-77042369D01*
X111094672Y-77042000D01*
X111022115Y-77042000D01*
X111006876Y-77046475D01*
X111005671Y-77047865D01*
X111004000Y-77055548D01*
X111004000Y-77727885D01*
X110496000Y-77727885D01*
X110496000Y-77060116D01*
X110491525Y-77044877D01*
X110490135Y-77043672D01*
X110482452Y-77042001D01*
X110405331Y-77042001D01*
X110398510Y-77042371D01*
X110347648Y-77047895D01*
X110332396Y-77051521D01*
X110211946Y-77096676D01*
X110196351Y-77105214D01*
X110094276Y-77181715D01*
X110089452Y-77186539D01*
X110027140Y-77220565D01*
X109956325Y-77215500D01*
X109914829Y-77188832D01*
X109913261Y-77186739D01*
X109796705Y-77099385D01*
X109660316Y-77048255D01*
X109598134Y-77041500D01*
X108901866Y-77041500D01*
X108839684Y-77048255D01*
X108703295Y-77099385D01*
X108586739Y-77186739D01*
X108581358Y-77193919D01*
X108515930Y-77281219D01*
X108459071Y-77323734D01*
X108388252Y-77328760D01*
X108326008Y-77294749D01*
X108212975Y-77181715D01*
X108094924Y-77063664D01*
X108060899Y-77001352D01*
X108058020Y-76974569D01*
X108058020Y-75898134D01*
X108641500Y-75898134D01*
X108648255Y-75960316D01*
X108699385Y-76096705D01*
X108786739Y-76213261D01*
X108903295Y-76300615D01*
X109039684Y-76351745D01*
X109101866Y-76358500D01*
X110898134Y-76358500D01*
X110960316Y-76351745D01*
X111096705Y-76300615D01*
X111213261Y-76213261D01*
X111300615Y-76096705D01*
X111351745Y-75960316D01*
X111358500Y-75898134D01*
X111358500Y-74101866D01*
X111351745Y-74039684D01*
X111300615Y-73903295D01*
X111213261Y-73786739D01*
X111096705Y-73699385D01*
X110960316Y-73648255D01*
X110898134Y-73641500D01*
X109101866Y-73641500D01*
X109039684Y-73648255D01*
X108903295Y-73699385D01*
X108786739Y-73786739D01*
X108699385Y-73903295D01*
X108648255Y-74039684D01*
X108641500Y-74101866D01*
X108641500Y-75898134D01*
X108058020Y-75898134D01*
X108058020Y-73032346D01*
X108078022Y-72964225D01*
X108131678Y-72917732D01*
X108197191Y-72907036D01*
X108198050Y-72907126D01*
X108204513Y-72908500D01*
X108395487Y-72908500D01*
X108401939Y-72907128D01*
X108401944Y-72907128D01*
X108498071Y-72886695D01*
X108582288Y-72868794D01*
X108588319Y-72866109D01*
X108750722Y-72793803D01*
X108750724Y-72793802D01*
X108756752Y-72791118D01*
X108911253Y-72678866D01*
X108915675Y-72673955D01*
X109034621Y-72541852D01*
X109034622Y-72541851D01*
X109039040Y-72536944D01*
X109134527Y-72371556D01*
X109193542Y-72189928D01*
X109201910Y-72110316D01*
X109212814Y-72006565D01*
X109213504Y-72000000D01*
X109194443Y-71818643D01*
X109207215Y-71748805D01*
X109255717Y-71696958D01*
X109324550Y-71679564D01*
X109395316Y-71704646D01*
X109423295Y-71725615D01*
X109559684Y-71776745D01*
X109621866Y-71783500D01*
X110778134Y-71783500D01*
X110840316Y-71776745D01*
X110924929Y-71745025D01*
X110968303Y-71728765D01*
X110968304Y-71728764D01*
X110976705Y-71725615D01*
X110979854Y-71723255D01*
X111026868Y-71709173D01*
X111030058Y-71708913D01*
X111040253Y-71708500D01*
X111048315Y-71708500D01*
X111061605Y-71706951D01*
X111076529Y-71705211D01*
X111080904Y-71704778D01*
X111146361Y-71699454D01*
X111146364Y-71699453D01*
X111153659Y-71698860D01*
X111160623Y-71696604D01*
X111166582Y-71695413D01*
X111172437Y-71694029D01*
X111179703Y-71693182D01*
X111248349Y-71668265D01*
X111252477Y-71666848D01*
X111314958Y-71646607D01*
X111314960Y-71646606D01*
X111321921Y-71644351D01*
X111328176Y-71640555D01*
X111333650Y-71638049D01*
X111339079Y-71635330D01*
X111345959Y-71632833D01*
X111353215Y-71628075D01*
X111355172Y-71626793D01*
X111357599Y-71626056D01*
X111358628Y-71625541D01*
X111358716Y-71625717D01*
X111423108Y-71606172D01*
X111491408Y-71625554D01*
X111505868Y-71637099D01*
X111506739Y-71638261D01*
X111623295Y-71725615D01*
X111759684Y-71776745D01*
X111821866Y-71783500D01*
X112978134Y-71783500D01*
X113040316Y-71776745D01*
X113176705Y-71725615D01*
X113204684Y-71704646D01*
X113271187Y-71679799D01*
X113340570Y-71694851D01*
X113390800Y-71745025D01*
X113405557Y-71818643D01*
X113386496Y-72000000D01*
X113387186Y-72006565D01*
X113398091Y-72110316D01*
X113406458Y-72189928D01*
X113465473Y-72371556D01*
X113560960Y-72536944D01*
X113565378Y-72541851D01*
X113565379Y-72541852D01*
X113684325Y-72673955D01*
X113688747Y-72678866D01*
X113843248Y-72791118D01*
X113849276Y-72793802D01*
X113849278Y-72793803D01*
X114011681Y-72866109D01*
X114017712Y-72868794D01*
X114101929Y-72886695D01*
X114198056Y-72907128D01*
X114198061Y-72907128D01*
X114204513Y-72908500D01*
X114395487Y-72908500D01*
X114401939Y-72907128D01*
X114401944Y-72907128D01*
X114498071Y-72886695D01*
X114582288Y-72868794D01*
X114588319Y-72866109D01*
X114750722Y-72793803D01*
X114750724Y-72793802D01*
X114756752Y-72791118D01*
X114911253Y-72678866D01*
X114915675Y-72673955D01*
X115034621Y-72541852D01*
X115034622Y-72541851D01*
X115039040Y-72536944D01*
X115134527Y-72371556D01*
X115193542Y-72189928D01*
X115201910Y-72110316D01*
X115212814Y-72006565D01*
X115213504Y-72000000D01*
X115193542Y-71810072D01*
X115164350Y-71720229D01*
X115149823Y-71675518D01*
X115147796Y-71604550D01*
X115162396Y-71570466D01*
X115214369Y-71486150D01*
X115214370Y-71486149D01*
X115218209Y-71479920D01*
X115246407Y-71394906D01*
X115286838Y-71336546D01*
X115352402Y-71309309D01*
X115422284Y-71321842D01*
X115474295Y-71370167D01*
X115492000Y-71434573D01*
X115492000Y-85366000D01*
X115471998Y-85434121D01*
X115418342Y-85480614D01*
X115366000Y-85492000D01*
X104666139Y-85492000D01*
X104598018Y-85471998D01*
X104551525Y-85418342D01*
X104541421Y-85348068D01*
X104570915Y-85283488D01*
X104610707Y-85252849D01*
X104664021Y-85226731D01*
X104777994Y-85170896D01*
X104959860Y-85041173D01*
X105118096Y-84883489D01*
X105248453Y-84702077D01*
X105261995Y-84674678D01*
X105345136Y-84506453D01*
X105345137Y-84506451D01*
X105347430Y-84501811D01*
X105412370Y-84288069D01*
X105441529Y-84066590D01*
X105443156Y-84000000D01*
X105424852Y-83777361D01*
X105370431Y-83560702D01*
X105281354Y-83355840D01*
X105160014Y-83168277D01*
X105009670Y-83003051D01*
X105005619Y-82999852D01*
X105005615Y-82999848D01*
X104838414Y-82867800D01*
X104838410Y-82867798D01*
X104834359Y-82864598D01*
X104798028Y-82844542D01*
X104744090Y-82814767D01*
X104638789Y-82756638D01*
X104633920Y-82754914D01*
X104633916Y-82754912D01*
X104433087Y-82683795D01*
X104433083Y-82683794D01*
X104428212Y-82682069D01*
X104423119Y-82681162D01*
X104423116Y-82681161D01*
X104213373Y-82643800D01*
X104213367Y-82643799D01*
X104208284Y-82642894D01*
X104134452Y-82641992D01*
X103990081Y-82640228D01*
X103990079Y-82640228D01*
X103984911Y-82640165D01*
X103764091Y-82673955D01*
X103551756Y-82743357D01*
X103478757Y-82781358D01*
X103363487Y-82841364D01*
X103353607Y-82846507D01*
X103349474Y-82849610D01*
X103349471Y-82849612D01*
X103179100Y-82977530D01*
X103174965Y-82980635D01*
X103171393Y-82984373D01*
X103063729Y-83097037D01*
X103020629Y-83142138D01*
X102913201Y-83299621D01*
X102858293Y-83344621D01*
X102787768Y-83352792D01*
X102724021Y-83321538D01*
X102703324Y-83297054D01*
X102622822Y-83172617D01*
X102622820Y-83172614D01*
X102620014Y-83168277D01*
X102469670Y-83003051D01*
X102465619Y-82999852D01*
X102465615Y-82999848D01*
X102298414Y-82867800D01*
X102298410Y-82867798D01*
X102294359Y-82864598D01*
X102258028Y-82844542D01*
X102204090Y-82814767D01*
X102098789Y-82756638D01*
X102093920Y-82754914D01*
X102093916Y-82754912D01*
X101893087Y-82683795D01*
X101893083Y-82683794D01*
X101888212Y-82682069D01*
X101883119Y-82681162D01*
X101883116Y-82681161D01*
X101673373Y-82643800D01*
X101673367Y-82643799D01*
X101668284Y-82642894D01*
X101594452Y-82641992D01*
X101450081Y-82640228D01*
X101450079Y-82640228D01*
X101444911Y-82640165D01*
X101224091Y-82673955D01*
X101011756Y-82743357D01*
X100938757Y-82781358D01*
X100823487Y-82841364D01*
X100813607Y-82846507D01*
X100809474Y-82849610D01*
X100809471Y-82849612D01*
X100639100Y-82977530D01*
X100634965Y-82980635D01*
X100631393Y-82984373D01*
X100523729Y-83097037D01*
X100480629Y-83142138D01*
X100373204Y-83299618D01*
X100372898Y-83300066D01*
X100317987Y-83345069D01*
X100247462Y-83353240D01*
X100183715Y-83321986D01*
X100163018Y-83297502D01*
X100082426Y-83172926D01*
X100076136Y-83164757D01*
X99932806Y-83007240D01*
X99925273Y-83000215D01*
X99758139Y-82868222D01*
X99749552Y-82862517D01*
X99563117Y-82759599D01*
X99553705Y-82755369D01*
X99352959Y-82684280D01*
X99342988Y-82681646D01*
X99271837Y-82668972D01*
X99258540Y-82670432D01*
X99254000Y-82684989D01*
X99254000Y-84128000D01*
X99233998Y-84196121D01*
X99180342Y-84242614D01*
X99128000Y-84254000D01*
X98872000Y-84254000D01*
X98803879Y-84233998D01*
X98757386Y-84180342D01*
X98746000Y-84128000D01*
X98746000Y-82683102D01*
X98742082Y-82669758D01*
X98727806Y-82667771D01*
X98689324Y-82673660D01*
X98679288Y-82676051D01*
X98476868Y-82742212D01*
X98467359Y-82746209D01*
X98278463Y-82844542D01*
X98269738Y-82850036D01*
X98099433Y-82977905D01*
X98091726Y-82984748D01*
X97944590Y-83138717D01*
X97938109Y-83146722D01*
X97833498Y-83300074D01*
X97778587Y-83345076D01*
X97708062Y-83353247D01*
X97644315Y-83321993D01*
X97623618Y-83297509D01*
X97542822Y-83172617D01*
X97542820Y-83172614D01*
X97540014Y-83168277D01*
X97389670Y-83003051D01*
X97385619Y-82999852D01*
X97385615Y-82999848D01*
X97218414Y-82867800D01*
X97218410Y-82867798D01*
X97214359Y-82864598D01*
X97178028Y-82844542D01*
X97124090Y-82814767D01*
X97018789Y-82756638D01*
X97013920Y-82754914D01*
X97013916Y-82754912D01*
X96813087Y-82683795D01*
X96813083Y-82683794D01*
X96808212Y-82682069D01*
X96803119Y-82681162D01*
X96803116Y-82681161D01*
X96593373Y-82643800D01*
X96593367Y-82643799D01*
X96588284Y-82642894D01*
X96514452Y-82641992D01*
X96370081Y-82640228D01*
X96370079Y-82640228D01*
X96364911Y-82640165D01*
X96144091Y-82673955D01*
X95931756Y-82743357D01*
X95858757Y-82781358D01*
X95743487Y-82841364D01*
X95733607Y-82846507D01*
X95729474Y-82849610D01*
X95729471Y-82849612D01*
X95559100Y-82977530D01*
X95554965Y-82980635D01*
X95551393Y-82984373D01*
X95443729Y-83097037D01*
X95400629Y-83142138D01*
X95293201Y-83299621D01*
X95238293Y-83344621D01*
X95167768Y-83352792D01*
X95104021Y-83321538D01*
X95083324Y-83297054D01*
X95002822Y-83172617D01*
X95002820Y-83172614D01*
X95000014Y-83168277D01*
X94849670Y-83003051D01*
X94845619Y-82999852D01*
X94845615Y-82999848D01*
X94678412Y-82867799D01*
X94674359Y-82864598D01*
X94669841Y-82862104D01*
X94669835Y-82862100D01*
X94643605Y-82847620D01*
X94593635Y-82797187D01*
X94578500Y-82737312D01*
X94578500Y-81702059D01*
X94579059Y-81690203D01*
X94580789Y-81682463D01*
X94580009Y-81657628D01*
X94578562Y-81611611D01*
X94578500Y-81607653D01*
X94578500Y-81578568D01*
X94577946Y-81574179D01*
X94577013Y-81562337D01*
X94575811Y-81524094D01*
X94575562Y-81516169D01*
X94569580Y-81495579D01*
X94565570Y-81476216D01*
X94563875Y-81462796D01*
X94563875Y-81462795D01*
X94562882Y-81454936D01*
X94559966Y-81447571D01*
X94559965Y-81447567D01*
X94545874Y-81411979D01*
X94542035Y-81400769D01*
X94529145Y-81356400D01*
X94518225Y-81337935D01*
X94509534Y-81320195D01*
X94501635Y-81300244D01*
X94474482Y-81262871D01*
X94467967Y-81252952D01*
X94448493Y-81220023D01*
X94448490Y-81220019D01*
X94444453Y-81213193D01*
X94429289Y-81198029D01*
X94416448Y-81182995D01*
X94408501Y-81172057D01*
X94403841Y-81165643D01*
X94368247Y-81136197D01*
X94359468Y-81128208D01*
X93574155Y-80342895D01*
X93566165Y-80334115D01*
X93566163Y-80334113D01*
X93561916Y-80327420D01*
X93510242Y-80278895D01*
X93507401Y-80276141D01*
X93486833Y-80255573D01*
X93483326Y-80252853D01*
X93474304Y-80245147D01*
X93440633Y-80213528D01*
X93433681Y-80209706D01*
X93421842Y-80203197D01*
X93405318Y-80192343D01*
X93394632Y-80184055D01*
X93388368Y-80179196D01*
X93381096Y-80176049D01*
X93381094Y-80176048D01*
X93345965Y-80160846D01*
X93335305Y-80155624D01*
X93301784Y-80137195D01*
X93301782Y-80137194D01*
X93294837Y-80133376D01*
X93274059Y-80128041D01*
X93255369Y-80121642D01*
X93235676Y-80113120D01*
X93190052Y-80105894D01*
X93178429Y-80103487D01*
X93150428Y-80096298D01*
X93133688Y-80092000D01*
X93112241Y-80092000D01*
X93092531Y-80090449D01*
X93079177Y-80088334D01*
X93071348Y-80087094D01*
X93025359Y-80091441D01*
X93013504Y-80092000D01*
X92680224Y-80092000D01*
X92612103Y-80071998D01*
X92606163Y-80067936D01*
X92462094Y-79963263D01*
X92462093Y-79963262D01*
X92456752Y-79959382D01*
X92450724Y-79956698D01*
X92450722Y-79956697D01*
X92288319Y-79884391D01*
X92288318Y-79884391D01*
X92282288Y-79881706D01*
X92188888Y-79861853D01*
X92101944Y-79843372D01*
X92101939Y-79843372D01*
X92095487Y-79842000D01*
X91904513Y-79842000D01*
X91898053Y-79843373D01*
X91898054Y-79843373D01*
X91805995Y-79862940D01*
X91735205Y-79857538D01*
X91678572Y-79814721D01*
X91658903Y-79775191D01*
X91653525Y-79756876D01*
X91652135Y-79755671D01*
X91644452Y-79754000D01*
X90172115Y-79754000D01*
X90156876Y-79758475D01*
X90155671Y-79759865D01*
X90154000Y-79767548D01*
X90154000Y-80489884D01*
X90158475Y-80505123D01*
X90159865Y-80506328D01*
X90167548Y-80507999D01*
X90972046Y-80507999D01*
X91040167Y-80528001D01*
X91086660Y-80581657D01*
X91097356Y-80647169D01*
X91091804Y-80700000D01*
X91086496Y-80750500D01*
X91087186Y-80757065D01*
X91102608Y-80903794D01*
X91106458Y-80940428D01*
X91165473Y-81122056D01*
X91260960Y-81287444D01*
X91265378Y-81292351D01*
X91265379Y-81292352D01*
X91370409Y-81409000D01*
X91388747Y-81429366D01*
X91468399Y-81487237D01*
X91508221Y-81516169D01*
X91543248Y-81541618D01*
X91549276Y-81544302D01*
X91549278Y-81544303D01*
X91711681Y-81616609D01*
X91717712Y-81619294D01*
X91811113Y-81639147D01*
X91898056Y-81657628D01*
X91898061Y-81657628D01*
X91904513Y-81659000D01*
X92095487Y-81659000D01*
X92101939Y-81657628D01*
X92101944Y-81657628D01*
X92188887Y-81639147D01*
X92282288Y-81619294D01*
X92288319Y-81616609D01*
X92450722Y-81544303D01*
X92450724Y-81544302D01*
X92456752Y-81541618D01*
X92491780Y-81516169D01*
X92576059Y-81454936D01*
X92606163Y-81433064D01*
X92673031Y-81409206D01*
X92680224Y-81409000D01*
X92725550Y-81409000D01*
X92793671Y-81429002D01*
X92814645Y-81445905D01*
X93224595Y-81855855D01*
X93258621Y-81918167D01*
X93261500Y-81944950D01*
X93261500Y-82734705D01*
X93241498Y-82802826D01*
X93201441Y-82839572D01*
X93202570Y-82841364D01*
X93198200Y-82844116D01*
X93193607Y-82846507D01*
X93189465Y-82849617D01*
X93118447Y-82902939D01*
X93014965Y-82980635D01*
X92958537Y-83039684D01*
X92934283Y-83065064D01*
X92872759Y-83100494D01*
X92801846Y-83097037D01*
X92744060Y-83055791D01*
X92725207Y-83022243D01*
X92683767Y-82911703D01*
X92680615Y-82903295D01*
X92593261Y-82786739D01*
X92476705Y-82699385D01*
X92340316Y-82648255D01*
X92278134Y-82641500D01*
X90481866Y-82641500D01*
X90419684Y-82648255D01*
X90283295Y-82699385D01*
X90166739Y-82786739D01*
X90079385Y-82903295D01*
X90028255Y-83039684D01*
X90021500Y-83101866D01*
X90021500Y-84415011D01*
X90001498Y-84483132D01*
X89947842Y-84529625D01*
X89895500Y-84541011D01*
X86065882Y-84541011D01*
X85997761Y-84521009D01*
X85976787Y-84504106D01*
X85642066Y-84169385D01*
X85608040Y-84107073D01*
X85613105Y-84036258D01*
X85655652Y-83979422D01*
X85722172Y-83954611D01*
X85756277Y-83956819D01*
X85838597Y-83973567D01*
X85843772Y-83973757D01*
X85843774Y-83973757D01*
X86056673Y-83981564D01*
X86056677Y-83981564D01*
X86061837Y-83981753D01*
X86066957Y-83981097D01*
X86066959Y-83981097D01*
X86278288Y-83954025D01*
X86278289Y-83954025D01*
X86283416Y-83953368D01*
X86288366Y-83951883D01*
X86492429Y-83890661D01*
X86492434Y-83890659D01*
X86497384Y-83889174D01*
X86697994Y-83790896D01*
X86879860Y-83661173D01*
X87038096Y-83503489D01*
X87097594Y-83420689D01*
X87165435Y-83326277D01*
X87168453Y-83322077D01*
X87179328Y-83300074D01*
X87265136Y-83126453D01*
X87265137Y-83126451D01*
X87267430Y-83121811D01*
X87332370Y-82908069D01*
X87361529Y-82686590D01*
X87361614Y-82683102D01*
X87363074Y-82623365D01*
X87363074Y-82623361D01*
X87363156Y-82620000D01*
X87344852Y-82397361D01*
X87290431Y-82180702D01*
X87201354Y-81975840D01*
X87080014Y-81788277D01*
X86929670Y-81623051D01*
X86925619Y-81619852D01*
X86925615Y-81619848D01*
X86758414Y-81487800D01*
X86758410Y-81487798D01*
X86754359Y-81484598D01*
X86713053Y-81461796D01*
X86663084Y-81411364D01*
X86648312Y-81341921D01*
X86673428Y-81275516D01*
X86700780Y-81248909D01*
X86772111Y-81198029D01*
X86879860Y-81121173D01*
X87038096Y-80963489D01*
X87042306Y-80957631D01*
X87165435Y-80786277D01*
X87168453Y-80782077D01*
X87193125Y-80732158D01*
X87265136Y-80586453D01*
X87265137Y-80586451D01*
X87267430Y-80581811D01*
X87309062Y-80444786D01*
X87330865Y-80373023D01*
X87330865Y-80373021D01*
X87332370Y-80368069D01*
X87361529Y-80146590D01*
X87361982Y-80128044D01*
X87363074Y-80083365D01*
X87363074Y-80083361D01*
X87363156Y-80080000D01*
X87360251Y-80044669D01*
X88142001Y-80044669D01*
X88142371Y-80051490D01*
X88147895Y-80102352D01*
X88151521Y-80117604D01*
X88196676Y-80238054D01*
X88205214Y-80253649D01*
X88281715Y-80355724D01*
X88294276Y-80368285D01*
X88396351Y-80444786D01*
X88411946Y-80453324D01*
X88532394Y-80498478D01*
X88547649Y-80502105D01*
X88598514Y-80507631D01*
X88605328Y-80508000D01*
X89627885Y-80508000D01*
X89643124Y-80503525D01*
X89644329Y-80502135D01*
X89646000Y-80494452D01*
X89646000Y-79772115D01*
X89641525Y-79756876D01*
X89640135Y-79755671D01*
X89632452Y-79754000D01*
X88160116Y-79754000D01*
X88144877Y-79758475D01*
X88143672Y-79759865D01*
X88142001Y-79767548D01*
X88142001Y-80044669D01*
X87360251Y-80044669D01*
X87344852Y-79857361D01*
X87290431Y-79640702D01*
X87201354Y-79435840D01*
X87127743Y-79322054D01*
X87082822Y-79252617D01*
X87082820Y-79252614D01*
X87080014Y-79248277D01*
X86929670Y-79083051D01*
X86925619Y-79079852D01*
X86925615Y-79079848D01*
X86758414Y-78947800D01*
X86758410Y-78947798D01*
X86754359Y-78944598D01*
X86713053Y-78921796D01*
X86663084Y-78871364D01*
X86648312Y-78801921D01*
X86673428Y-78735516D01*
X86700780Y-78708909D01*
X86787555Y-78647013D01*
X86879860Y-78581173D01*
X86893475Y-78567606D01*
X87034435Y-78427137D01*
X87038096Y-78423489D01*
X87079328Y-78366109D01*
X87165435Y-78246277D01*
X87168453Y-78242077D01*
X87173356Y-78232158D01*
X87265136Y-78046453D01*
X87265137Y-78046451D01*
X87267430Y-78041811D01*
X87332370Y-77828069D01*
X87361529Y-77606590D01*
X87363156Y-77540000D01*
X87344852Y-77317361D01*
X87290431Y-77100702D01*
X87201354Y-76895840D01*
X87153260Y-76821498D01*
X87082822Y-76712617D01*
X87082820Y-76712614D01*
X87080014Y-76708277D01*
X87018391Y-76640554D01*
X86932798Y-76546488D01*
X86901746Y-76482642D01*
X86910141Y-76412143D01*
X86955317Y-76357375D01*
X86981761Y-76343706D01*
X87088297Y-76303767D01*
X87096705Y-76300615D01*
X87213261Y-76213261D01*
X87300615Y-76096705D01*
X87351745Y-75960316D01*
X87358500Y-75898134D01*
X87358500Y-74101866D01*
X87351745Y-74039684D01*
X87300615Y-73903295D01*
X87213261Y-73786739D01*
X87096705Y-73699385D01*
X86960316Y-73648255D01*
X86898134Y-73641500D01*
X85584989Y-73641500D01*
X85516868Y-73621498D01*
X85470375Y-73567842D01*
X85458989Y-73515500D01*
X85458989Y-70065882D01*
X85478991Y-69997761D01*
X85495894Y-69976787D01*
X86126787Y-69345894D01*
X86189099Y-69311868D01*
X86215882Y-69308989D01*
X103215500Y-69308989D01*
X103283621Y-69328991D01*
G37*
%TD.AperFunction*%
%TA.AperFunction,Conductor*%
G36*
X115422283Y-69570251D02*
G01*
X115474295Y-69618576D01*
X115492000Y-69682982D01*
X115492000Y-70315407D01*
X115471998Y-70383528D01*
X115418342Y-70430021D01*
X115348068Y-70440125D01*
X115283488Y-70410631D01*
X115246476Y-70355283D01*
X115219972Y-70275841D01*
X115217654Y-70268893D01*
X115126116Y-70120969D01*
X115093859Y-70088769D01*
X115059780Y-70026488D01*
X115064782Y-69955668D01*
X115093704Y-69910578D01*
X115121363Y-69882871D01*
X115130375Y-69871460D01*
X115213912Y-69735937D01*
X115220056Y-69722759D01*
X115246407Y-69643315D01*
X115286838Y-69584955D01*
X115352402Y-69557718D01*
X115422283Y-69570251D01*
G37*
%TD.AperFunction*%
%TA.AperFunction,Conductor*%
G36*
X113435096Y-68816002D02*
G01*
X113473586Y-68860422D01*
X113483865Y-68869329D01*
X113491548Y-68871000D01*
X114428000Y-68871000D01*
X114496121Y-68891002D01*
X114542614Y-68944658D01*
X114554000Y-68997000D01*
X114554000Y-69253000D01*
X114533998Y-69321121D01*
X114480342Y-69367614D01*
X114428000Y-69379000D01*
X113388025Y-69379000D01*
X113319904Y-69358998D01*
X113281414Y-69314578D01*
X113271135Y-69305671D01*
X113263452Y-69304000D01*
X112272000Y-69304000D01*
X112203879Y-69283998D01*
X112157386Y-69230342D01*
X112146000Y-69178000D01*
X112146000Y-68922000D01*
X112166002Y-68853879D01*
X112219658Y-68807386D01*
X112272000Y-68796000D01*
X113366975Y-68796000D01*
X113435096Y-68816002D01*
G37*
%TD.AperFunction*%
%TD*%
M02*
