M48
; DRILL file {KiCad (6.0.1)} date Sat Jun  4 23:14:07 2022
; FORMAT={-:-/ absolute / inch / decimal}
; #@! TF.CreationDate,2022-06-04T23:14:07+02:00
; #@! TF.GenerationSoftware,Kicad,Pcbnew,(6.0.1)
; #@! TF.FileFunction,MixedPlating,1,2
FMAT,2
INCH
; #@! TA.AperFunction,Plated,PTH,ViaDrill
T1C0.0157
; #@! TA.AperFunction,Plated,PTH,ComponentDrill
T2C0.0394
%
G90
G05
T1
X3.622Y-2.9528
X3.622Y-3.0512
X3.622Y-3.1792
X3.7598Y-2.8937
X3.7598Y-2.9724
X3.9173Y-2.8937
X3.9173Y-2.9724
X3.9173Y-3.0512
X4.0551Y-2.9331
X4.1378Y-3.1772
X4.2638Y-2.8346
X4.2992Y-3.1083
X4.2992Y-3.1929
X4.5Y-2.8346
T2
X3.3858Y-2.9528
X3.3858Y-3.0528
X3.3858Y-3.1528
X3.3858Y-3.2528
X3.5976Y-3.3071
X3.6976Y-3.3071
X3.7976Y-3.3071
X3.8976Y-3.3071
X3.9976Y-3.3071
X4.0976Y-3.3071
X4.3307Y-2.9528
X4.3307Y-3.2528
T0
M30
